<?xml version="1.0" encoding="utf-8"?>
<!-- Generator: Adobe Illustrator 26.2.1, SVG Export Plug-In . SVG Version: 6.00 Build 0)  -->
<svg version="1.1" id="Capa_1" xmlns="http://www.w3.org/2000/svg" xmlns:xlink="http://www.w3.org/1999/xlink" x="0px" y="0px"
	 viewBox="0 0 178.34 141.73" style="enable-background:new 0 0 178.34 141.73;" xml:space="preserve">
<style type="text/css">
	.st0{fill:#FFFFFF;stroke:#000000;stroke-miterlimit:10;}
	.st1{fill:#F8B476;}
	.st2{fill:#E39749;}
	.st3{fill:#FDD49F;}
	.st4{fill:#A95B31;}
	.st5{fill:none;}
</style>
<rect x="620.01" y="-8.5" class="st0" width="68.09" height="158.74"/>
<g>
	<path d="M2.4,69.08c0.18-1.3,0.45-2.59,0.54-3.89c0.34-5.23,1.15-10.36,2.81-15.34c0.9-2.7,2.38-5.09,3.94-7.45
		c1.75-2.65,3.31-5.43,5.1-8.06c1.69-2.47,3.53-4.84,5.37-7.2c1.15-1.47,2.78-2.24,4.57-2.67c2.85-0.69,5.52-1.87,8.08-3.25
		c1.85-0.99,3.8-1.42,5.84-1.65c4.27-0.49,8.58-0.77,12.85-0.28c5.88,0.69,10.68,3.73,14.91,7.73c0.13,0.12,0.26,0.24,0.43,0.41
		c0.53-0.39,1.09-0.74,1.56-1.18c2.7-2.51,5.94-4.12,9.27-5.58c4.23-1.86,8.47-3.69,12.64-5.67c4.23-2.01,8.39-4.17,12.92-5.43
		c2.48-0.69,5.01-1.29,7.56-1.57c4.05-0.43,8.14-0.53,12.2-0.82c6.59-0.46,12.77,1.08,18.74,3.71c3.11,1.37,6.1,2.95,8.79,5.04
		c0.57,0.44,1.07,0.97,1.57,1.48c1.27,1.31,1.27,2.83,0.63,4.42c-0.83,2.09-2.48,3.4-4.32,4.54c-0.98,0.61-1.93,1.28-2.74,1.82
		c1.86,0.71,3.85,1.23,5.6,2.19c2.7,1.48,5.22,3.27,7.83,4.91c3.9,2.46,6.25,6.23,8.56,10.04c1.95,3.21,3.67,6.54,4.92,10.09
		c0.78,2.2,1.8,4.37,2.15,6.63c0.41,2.67,0.29,5.43,0.23,8.15c-0.05,2-0.27,4.01-0.59,5.99c-0.96,5.97-3.46,11.14-8.11,15.15
		c-0.63,0.55-1.24,1.16-1.72,1.84c-2.08,2.97-4.79,5.33-7.25,7.94c-3.72,3.96-8.31,6.55-13.11,8.87c-2.01,0.97-4.18,1.15-6.37,1.31
		c-2.3,0.17-4.58,0.64-6.88,0.77c-3.26,0.19-6.53,0.3-9.8,0.27c-2.39-0.02-4.78-0.34-7.18-0.5c-0.18-0.01-0.45,0.13-0.56,0.28
		c-0.92,1.2-1.81,2.43-2.73,3.65c-1.01,1.34-2.04,2.65-3.03,4c-1.46,1.98-2.68,4.19-4.39,5.92c-1.68,1.7-3.73,3.11-5.82,4.32
		c-2.22,1.29-4.65,2.22-7.01,3.25c-2.4,1.04-4.98,1.34-7.55,1.45c-2.64,0.11-5.3,0.09-7.93-0.16c-3.01-0.29-6-0.81-8.97-1.37
		c-3.35-0.64-6.7-1.35-10-2.18c-3.49-0.88-6.37-2.94-9.05-5.22c-2.72-2.31-5.27-4.81-7.87-7.26c-0.72-0.68-1.41-1.41-1.97-2.21
		c-0.94-1.33-2.44-1.68-3.78-2.25c-4.44-1.89-8.7-4.12-12.27-7.38c-2.72-2.49-5.25-5.19-7.69-7.96c-1.8-2.04-3.36-4.3-4.95-6.51
		c-2.14-3-3.38-6.4-4.18-9.97c-0.58-2.59-1.21-5.17-1.82-7.75C2.4,72.69,2.4,70.89,2.4,69.08z M63.93,29.11
		c-0.23-0.14-0.45-0.29-0.68-0.43c-0.32-0.25-0.62-0.53-0.96-0.76c-1.38-0.9-2.78-1.78-4.15-2.69c-0.3-0.2-0.75-0.45-0.16-0.81
		c-0.17-0.25-0.35-0.5-0.52-0.75c0.07-0.07,0.13-0.15,0.2-0.22c0.59,0.32,1.2,0.61,1.76,0.97c1.88,1.18,3.73,2.4,5.61,3.58
		c0.25,0.16,0.62,0.13,0.93,0.19c-0.1-0.32-0.11-0.73-0.32-0.95c-0.45-0.47-0.96-0.92-1.51-1.26c-1.53-0.95-3.14-1.77-4.64-2.77
		c-2.73-1.82-5.66-3.08-8.95-3.19c-2.39-0.08-4.8,0.08-7.19,0.21c-1.87,0.1-3.75,0.27-5.6,0.53c-1.11,0.15-2.26,0.38-3.26,0.86
		c-3.27,1.59-6.53,3.12-10.06,4.1c-1.11,0.31-2.28,0.95-3.07,1.78c-1.46,1.53-2.76,3.24-3.94,5c-2.05,3.07-3.78,6.36-5.94,9.33
		C7.4,47.4,5.43,53.69,4.57,60.42c-0.32,2.53-0.56,5.07-0.75,7.6c-0.14,1.85-0.43,3.74-0.16,5.54c0.51,3.33,1.35,6.62,2.12,9.9
		c0.57,2.43,1.5,4.73,2.82,6.88c3.01,4.92,6.84,9.15,10.86,13.25c3.63,3.7,7.82,6.51,12.44,8.75c0.81,0.39,1.65,0.73,2.64,1.16
		c-2.62-3.82-4.68-7.71-6.03-11.87c-0.79-2.43-0.96-5.13-0.97-7.7c-0.02-3.22,0.39-6.45,0.65-9.67c0.44-5.39,2.06-10.46,4.5-15.25
		c1.37-2.69,3.01-5.25,4.55-7.86c1.58-2.68,3.33-5.21,5.95-7c1.65-1.13,3.16-2.56,5.21-2.93c0.85-0.15,1.27-0.51,1.45-1.29
		c0.05-0.2,0.12-0.4,0.2-0.6c1.08-2.56,1.9-5.28,3.32-7.64c1.47-2.45,3.48-4.57,5.3-6.8c0.74-0.92,1.59-1.75,2.45-2.68
		c-2.21-1.31-4.34-2.57-6.47-3.84c0.07-0.12,0.14-0.24,0.21-0.35c2.21,1.27,4.43,2.54,6.68,3.83c0.17-0.13,0.39-0.31,0.68-0.54
		c-2.36-1.33-4.63-2.61-6.89-3.88c0.05-0.09,0.1-0.19,0.14-0.28c0.11,0.01,0.23,0,0.32,0.05c2.1,1.15,4.22,2.27,6.29,3.47
		c0.48,0.28,0.71,0.35,0.97-0.24c-2.46-1.41-4.9-2.81-7.34-4.21c0.07-0.12,0.13-0.24,0.2-0.35c2.56,1.43,5.12,2.85,7.66,4.27
		c0.33-0.27,0.6-0.49,0.96-0.79C64.29,29.25,64.11,29.18,63.93,29.11z M100.03,48.23c-0.27,0.1-0.54,0.2-0.81,0.31
		c-1.59,0.64-3.14,1.39-4.25,2.75c-1.99,2.43-3.51,5.15-4.78,8.02c-1.85,4.19-3.22,8.54-3.61,13.12c-0.37,4.34,0.06,8.61,1.16,12.85
		c1.47,5.69,3.9,10.82,8.36,14.7c3.34,2.91,6.92,5.57,10.54,8.12c2.21,1.56,4.76,2.57,7.51,2.84c2.14,0.21,4.29,0.41,6.44,0.54
		c3.51,0.22,7.01,0.2,10.5-0.28c2.1-0.29,4.21-0.65,6.32-0.76c2.49-0.13,4.88-0.5,7.11-1.68c4.34-2.28,8.56-4.7,11.91-8.4
		c3.44-3.79,7.02-7.45,10.48-11.21c2.92-3.17,4.85-6.88,5.9-11.07c1.12-4.45,1.57-8.95,1.19-13.52c-0.11-1.31-0.21-2.67-0.65-3.88
		c-1.14-3.15-2.32-6.31-3.75-9.33c-1.32-2.78-2.93-5.43-4.51-8.08c-1.26-2.12-2.7-4.15-4.66-5.68c-3.78-2.93-7.72-5.62-12.16-7.45
		c-2.3-0.95-4.64-1.4-6.69,0.64c2.91,0.94,5.91,1.68,8.52,3.41c-0.33,0-0.61-0.14-0.9-0.25c-2.59-0.93-5.17-1.87-7.77-2.76
		c-0.36-0.12-0.82,0.05-1.24,0.09c0.01,0.08,0.02,0.17,0.02,0.25c1.84,0.71,3.69,1.42,5.53,2.13c-0.03,0.11-0.07,0.22-0.1,0.33
		c-0.28-0.06-0.58-0.09-0.85-0.19c-1.49-0.54-2.97-1.15-4.48-1.63c-0.6-0.19-1.28-0.14-1.93-0.19c0,0.08-0.01,0.15-0.01,0.23
		c1.86,0.75,3.71,1.51,5.57,2.26c-0.05,0.12-0.09,0.24-0.14,0.36c-0.23-0.08-0.47-0.16-0.7-0.24c-1.68-0.65-3.34-1.33-5.03-1.94
		c-0.37-0.13-0.84-0.02-1.26-0.02c0,0.09,0,0.18,0,0.28c1.6,0.62,3.2,1.24,4.81,1.86c-0.04,0.11-0.08,0.22-0.11,0.33
		c-0.29-0.08-0.58-0.15-0.86-0.25c-1.38-0.51-2.74-1.06-4.13-1.53c-0.35-0.12-0.83-0.11-1.17,0.04c-4.18,1.79-8.41,3.44-12.46,5.59
		c-4.51,2.39-9.4,4.07-14.12,6.07c-0.44,0.18-0.95,0.33-1.26,0.66c-1.25,1.29-2.43,2.65-3.64,3.98c-1.25,1.37-2.51,2.73-3.77,4.1
		c-0.08-0.07-0.15-0.14-0.23-0.21c2.31-2.54,4.62-5.08,6.94-7.62c-0.07-0.07-0.14-0.14-0.21-0.21c-3.04,2.83-5.75,5.99-8.65,8.96
		c-0.07-0.06-0.14-0.13-0.21-0.19c2.48-2.64,4.96-5.29,7.44-7.93c-0.05-0.06-0.1-0.12-0.15-0.18c-0.48,0.21-1.02,0.35-1.42,0.66
		c-0.33,0.26-0.44,0.79-0.74,1.11c-1.88,1.97-3.8,3.91-5.7,5.86c-0.36,0.37-0.73,0.72-1.1,1.08c-0.09-0.09-0.19-0.18-0.28-0.28
		c2.43-2.54,4.85-5.07,7.28-7.61c-0.07-0.08-0.14-0.16-0.2-0.24c-0.57,0.45-1.15,0.88-1.69,1.36c-0.98,0.88-2,1.73-2.88,2.72
		c-1.66,1.86-3.22,3.8-4.83,5.69c-0.15,0.18-0.41,0.27-0.62,0.41c-0.07-0.08-0.13-0.16-0.2-0.24
		C94.74,53.69,97.37,50.95,100.03,48.23z M49.12,52.06c-0.08-0.04-0.17-0.08-0.25-0.12c-0.14,0.04-0.28,0.06-0.42,0.12
		c-3.13,1.32-5.85,3.28-7.87,5.97c-1.92,2.56-3.47,5.4-5.15,8.13c-2.75,4.47-4.65,9.3-5.56,14.45c-0.89,5.05-1.44,10.16-1.1,15.3
		c0.14,2.05,0.16,4.14,1.08,6.07c0.86,1.81,1.73,3.63,2.51,5.47c1.68,3.95,4.47,7.1,7.39,10.12c2.18,2.26,4.44,4.47,6.85,6.49
		c2.06,1.73,4.27,3.33,6.59,4.68c3.11,1.8,6.71,2.3,10.17,2.91c4.57,0.81,9.13,1.67,13.8,1.91c3.57,0.18,7.08,0.06,10.53-0.76
		c1.73-0.41,3.36-1.25,5.02-1.91c5.45-2.16,9.99-5.44,13.04-10.57c1.4-2.35,2.92-4.61,4.93-6.51c0.64-0.6,1.07-1.41,1.64-2.19
		c-0.29-0.1-0.43-0.15-0.57-0.19c-2.69-0.73-5.15-1.97-7.39-3.61c-2.61-1.91-5.22-3.82-7.76-5.82c-1.17-0.92-2.25-1.99-3.26-3.1
		c-2.92-3.2-4.81-6.96-6.02-11.11c-1.52-5.23-2.29-10.5-1.6-15.97c0.59-4.67,1.91-9.1,3.98-13.29c0.97-1.97,1.6-4,2.18-6.08
		c0.03-0.12,0-0.27,0-0.42c-0.12,0.04-0.2,0.04-0.22,0.08c-0.06,0.1-0.1,0.21-0.14,0.31c-0.82,2.24-1.51,4.53-2.67,6.64
		c-0.06,0.1-0.14,0.19-0.21,0.29c-0.06-0.02-0.12-0.05-0.18-0.07c0.58-2.11,1.15-4.22,1.73-6.33c-0.07-0.04-0.14-0.08-0.21-0.12
		c-0.16,0.26-0.37,0.51-0.46,0.79c-0.73,2.5-1.43,5.02-2.15,7.52c-0.05,0.16-0.15,0.31-0.23,0.47c-0.1-0.03-0.2-0.07-0.31-0.1
		c0.73-2.65,1.45-5.29,2.18-7.94c-0.07-0.02-0.14-0.04-0.21-0.06c-0.8,2.67-1.59,5.34-2.39,8.01c-0.12-0.04-0.24-0.07-0.35-0.11
		c0.72-2.51,1.43-5.01,2.15-7.52c-0.1-0.05-0.2-0.1-0.3-0.15c-0.24,0.43-0.58,0.82-0.71,1.28c-0.7,2.6-1.35,5.22-2.03,7.83
		c-0.04,0.16-0.17,0.29-0.26,0.44c-0.11-0.04-0.23-0.08-0.34-0.12c0.74-2.88,1.49-5.76,2.23-8.62c-3.66,1.6-7.23,3.23-10.85,4.74
		c-7.45,3.09-15.25,4.36-23.29,4.18c-2.25-0.05-3.91-1-4.7-3.21c-0.05-0.14-0.13-0.26-0.2-0.39c-0.06,0.01-0.11,0.02-0.17,0.03
		c0,1.01,0,2.02,0,3.03c-0.13-0.02-0.26-0.03-0.39-0.05C47.05,59.16,47.17,55.49,49.12,52.06z M65.75,29.26
		c-1.56,1.53-3.14,2.89-4.49,4.44c-2.01,2.3-3.87,4.72-5.76,7.13c-0.77,0.99-1.64,1.97-2.13,3.1c-1.36,3.13-2.63,6.31-3.75,9.54
		c-0.51,1.47-0.75,3.09-0.79,4.65c-0.06,2.54,1.27,4.08,3.4,4.14c2.55,0.08,5.1,0.06,7.65,0.02c4.47-0.08,8.77-1.27,12.84-2.88
		c5.82-2.3,11.44-5.1,17.14-7.71c3.35-1.54,6.64-3.23,10.04-4.63c4.77-1.96,9.65-3.63,14.44-5.55c3.06-1.23,6.15-2.47,8.99-4.12
		c2.29-1.33,10.75-4.75,13.58-5.85c0.08-0.03,0.14-0.09,0.24-0.17c-0.18-0.14-0.33-0.25-0.67-0.51c0.99,0,1.74,0,2.59,0
		c-0.15-0.29-0.22-0.43-0.24-0.46c0.61-0.14,1.21-0.19,1.72-0.41c2.96-1.26,5.4-3.32,8-5.15c1.6-1.13,2.99-2.38,3.68-4.28
		c0.27-0.75,0.26-1.48-0.27-2.03c-0.93-0.96-1.86-1.97-2.96-2.7c-3.08-2.04-6.41-3.63-9.87-4.95c-4.53-1.73-9.18-2.83-14.04-2.75
		c-3.45,0.05-6.9,0.11-10.33,0.38c-2.8,0.22-5.61,0.58-8.35,1.19c-4.73,1.06-9.13,3.04-13.49,5.16c-4.67,2.26-9.46,4.26-14.25,6.25
		c-4.56,1.89-8.94,3.98-11.87,8.21c-0.2,0.29-0.56,0.48-0.96,0.81C65.79,29.73,65.78,29.56,65.75,29.26z M94.2,50.99
		c-0.04-0.04-0.09-0.07-0.13-0.11c-0.55,0.29-1.33,0.45-1.59,0.91c-0.42,0.75-0.5,1.69-0.77,2.75
		C92.62,53.25,93.41,52.12,94.2,50.99z"/>
	<path class="st1" d="M100.03,48.23c-2.67,2.72-5.29,5.46-7.4,8.62c0.07,0.08,0.13,0.16,0.2,0.24c0.21-0.13,0.47-0.23,0.62-0.41
		c1.62-1.89,3.18-3.83,4.83-5.69c0.88-0.98,1.9-1.83,2.88-2.72c0.54-0.48,1.13-0.91,1.69-1.36c0.07,0.08,0.14,0.16,0.2,0.24
		c-2.43,2.54-4.85,5.07-7.28,7.61c0.09,0.09,0.19,0.18,0.28,0.28c0.37-0.36,0.74-0.71,1.1-1.08c1.91-1.95,3.82-3.89,5.7-5.86
		c0.3-0.32,0.41-0.85,0.74-1.11c0.4-0.31,0.94-0.45,1.42-0.66c0.05,0.06,0.1,0.12,0.15,0.18c-2.48,2.64-4.96,5.29-7.44,7.93
		c0.07,0.06,0.14,0.13,0.21,0.19c2.9-2.97,5.61-6.13,8.65-8.96c0.07,0.07,0.14,0.14,0.21,0.21c-2.31,2.54-4.62,5.08-6.94,7.62
		c0.08,0.07,0.15,0.14,0.23,0.21c1.26-1.37,2.51-2.73,3.77-4.1c1.21-1.33,2.39-2.69,3.64-3.98c0.31-0.32,0.82-0.47,1.26-0.66
		c4.72-2,9.61-3.68,14.12-6.07c4.05-2.14,8.27-3.8,12.46-5.59c0.34-0.14,0.82-0.16,1.17-0.04c1.39,0.47,2.75,1.02,4.13,1.53
		c0.28,0.1,0.57,0.17,0.86,0.25c0.04-0.11,0.08-0.22,0.11-0.33c-1.6-0.62-3.2-1.24-4.81-1.86c0-0.09,0-0.18,0-0.28
		c0.42,0,0.89-0.11,1.26,0.02c1.69,0.61,3.36,1.29,5.03,1.94c0.23,0.09,0.47,0.16,0.7,0.24c0.05-0.12,0.09-0.24,0.14-0.36
		c-1.86-0.75-3.71-1.51-5.57-2.26c0-0.08,0.01-0.15,0.01-0.23c0.65,0.06,1.33,0,1.93,0.19c1.51,0.49,2.98,1.09,4.48,1.63
		c0.27,0.1,0.57,0.13,0.85,0.19c0.03-0.11,0.07-0.22,0.1-0.33c-1.84-0.71-3.69-1.42-5.53-2.13c-0.01-0.08-0.02-0.17-0.02-0.25
		c0.42-0.04,0.88-0.21,1.24-0.09c2.6,0.88,5.19,1.83,7.77,2.76c0.29,0.1,0.57,0.25,0.9,0.25c-2.61-1.73-5.61-2.48-8.52-3.41
		c2.05-2.04,4.39-1.59,6.69-0.64c4.44,1.83,8.39,4.53,12.16,7.45c1.97,1.53,3.4,3.56,4.66,5.68c1.58,2.65,3.19,5.3,4.51,8.08
		c1.43,3.03,2.61,6.18,3.75,9.33c0.44,1.22,0.55,2.58,0.65,3.88c0.38,4.57-0.07,9.07-1.19,13.52c-1.05,4.19-2.98,7.9-5.9,11.07
		c-3.47,3.76-7.04,7.42-10.48,11.21c-3.36,3.7-7.58,6.12-11.91,8.4c-2.23,1.17-4.62,1.54-7.11,1.68c-2.11,0.11-4.22,0.48-6.32,0.76
		c-3.49,0.47-7,0.49-10.5,0.28c-2.15-0.13-4.3-0.33-6.44-0.54c-2.75-0.27-5.3-1.29-7.51-2.84c-3.62-2.55-7.2-5.21-10.54-8.12
		c-4.46-3.88-6.89-9.01-8.36-14.7c-1.09-4.25-1.53-8.51-1.16-12.85c0.4-4.58,1.76-8.93,3.61-13.12c1.26-2.86,2.79-5.59,4.78-8.02
		c1.11-1.36,2.65-2.11,4.25-2.75C99.49,48.43,99.76,48.33,100.03,48.23z M123.01,42.54c-1.08,0.69-2.16,1.39-3.25,2.07
		c-1.51,0.95-3.02,1.89-4.54,2.83c0.02,0.09,0.03,0.18,0.05,0.26c0.22,0.03,0.46,0.14,0.65,0.08c1.28-0.42,8.29-5.02,8.46-5.62
		c-0.32,0.04-0.59,0.08-0.86,0.12c0.48-0.29,0.96-0.59,1.44-0.88c0.42-0.25,0.84-0.49,1.26-0.73c-0.06-0.1-0.11-0.19-0.17-0.29
		c-4.03,1.76-7.7,4.14-11.34,6.58c0.3,0.05,0.55,0,0.76-0.12c1-0.59,1.98-1.23,3-1.81C119.98,44.19,121.5,43.37,123.01,42.54z
		 M110.05,68.08c0.2-0.19,0.23-0.23,0.28-0.26c0.23-0.14,0.46-0.27,0.69-0.42c2.07-1.37,4.24-2.58,5.41-4.97
		c0.52-1.07,0.69-1.95-0.06-2.91c-0.59-0.76-1.45-0.63-2.23-0.4c-1.26,0.36-2.49,0.83-3.76,1.19c-0.4,0.11-0.94-0.12-1.26,0.08
		c-2.78,1.68-3.36,5.44-1.37,7.6c0.24,0.27,0.45,0.56,0.61,0.76c0.38-0.17,0.74-0.34,1.1-0.51c0.33,0.77,0.45,1.54,0.9,2.01
		c1.05,1.11,1.35,2.43,1.48,3.85c0.09,0.95,0.19,1.9,0.31,2.85c0.03,0.22,0.13,0.43,0.19,0.64c0.12-0.02,0.23-0.04,0.35-0.07
		c-0.17-1.59-0.3-3.18-0.53-4.76c-0.1-0.69-0.36-1.38-0.66-2.02C111.06,69.81,110.52,68.93,110.05,68.08z M137.05,103.71
		c-0.06-1.42-0.58-2.54-1.97-3.22c-1.28-0.62-2.55-1.15-4-1.19c-2.37-0.06-4.66,1.02-4.43,3.9c0.11,1.37,0.22,2.98,1.59,3.64
		c1.81,0.86,3.8,1.44,5.7-0.03c0.49-0.38,1.09-0.64,1.67-0.88C136.61,105.52,137.21,104.89,137.05,103.71z M133.01,76.02
		c-0.04-0.08-0.09-0.15-0.13-0.23c-2.52,1.36-3.8,5.27-2.35,7.55c0.91,1.44,1.54,1.76,3.05,0.94c1.28-0.7,2.57-1.39,3.9-2.12
		c0.08,0.41,0.15,0.7,0.23,1.1c0.24-0.19,0.38-0.3,0.52-0.41c0.08,0.18,0.17,0.37,0.27,0.59c0.14-0.1,0.26-0.14,0.28-0.2
		c0.39-1.69,0.77-3.38,1.13-5.08c0.03-0.14-0.16-0.33-0.35-0.71c-0.2,0.63-0.31,0.99-0.37,1.18c-0.35-0.6-0.79-1.22-1.09-1.91
		c-0.32-0.74-0.9-1.09-1.61-1.09c-0.83,0-1.65,0.19-2.48,0.29C133.67,75.98,133.34,76,133.01,76.02z M137.91,34.75
		c-0.08-0.06-0.16-0.13-0.24-0.19c-0.23,0.26-0.46,0.51-0.69,0.77c-2.19,2.49-3.27,5.63-4.82,8.49c-1.06,1.95-1.59,4.09-1.68,6.37
		c-0.11,3.11-1.19,6.04-2.21,8.96c-0.55,1.56-1.02,3.15-0.69,4.83c0.06,0.29,0.33,0.53,0.5,0.8c0.14-0.29,0.45-0.62,0.39-0.87
		c-0.28-1.31,0.09-2.5,0.49-3.7c1-2.98,2.1-5.94,2.18-9.15c0.05-1.93,0.37-3.81,1.28-5.56c0.54-1.03,1.08-2.11,1.31-3.24
		c0.46-2.29,1.7-4.14,3-5.98C137.11,35.76,137.52,35.27,137.91,34.75z M105.6,77.15c-0.12-0.02-0.23-0.04-0.35-0.06
		c-0.28,1.42-0.61,2.83-0.83,4.26c-0.2,1.38-0.47,2.72-0.13,4.17c0.44,1.89,0.99,3.88-0.51,5.64c-0.06,0.07-0.08,0.16-0.11,0.25
		c-0.89,2.8-0.06,5.3,2.38,6.9c0.4,0.27,1,0.33,1.51,0.32c0.53-0.01,1.04-0.23,1.57-0.35c0.76-0.17,1.2-0.62,1.25-1.42
		c0.06-0.93,0.09-1.86,0.22-2.77c0.16-1.12-0.21-1.98-1.04-2.7c-1.21-1.07-2.51-1.92-4.09-1.82c-0.19-1.41-0.4-2.68-0.51-3.96
		c-0.1-1.24-0.22-2.49-0.11-3.72C105,80.3,105.35,78.72,105.6,77.15z M151.44,93.07c0.02,0,0.04,0,0.06,0.01c0,0.3,0,0.6,0,0.9
		c0.01,2.23,1.36,3.12,3.46,2.27c0.75-0.3,1.46-0.71,2.21-0.99c1.82-0.68,3.03-2.02,3.94-3.65c0.67-1.2,0.36-2.32-0.69-3.19
		c-1.36-1.12-2.86-1.39-4.62-1.18c-2.32,0.28-3.82,1.48-4.16,3.77C151.55,91.7,151.51,92.39,151.44,93.07z M143.9,48.24
		c0.01-1.42-0.14-1.64-1.49-2.21c-0.19-0.08-0.38-0.17-0.57-0.26c-1.36-0.6-3.45-0.27-4.26,0.94c-1.38,2.08-1.9,3.58-0.28,5.46
		c0.17,0.2,0.32,0.44,0.48,0.65c0.61,0.8,1.58,1.12,2.47,0.7C143.15,52.13,143.74,51.67,143.9,48.24z M122.97,94.73
		c0.1-0.01,0.21-0.03,0.31-0.04c-0.04-0.37-0.11-0.75-0.11-1.12c0.04-2.85,0.13-5.69,0.15-8.54c0.02-2.56,0.31-5.09,1.16-7.51
		c0.33-0.94,0.84-1.83,1.34-2.71c0.72-1.27,1.51-2.5,2.23-3.77c0.09-0.16-0.05-0.44-0.08-0.67c-0.17,0.13-0.38,0.24-0.49,0.41
		c-0.84,1.23-1.69,2.46-2.49,3.72c-0.48,0.75-0.99,1.51-1.28,2.34c-0.84,2.42-1.23,4.87-1.01,7.49c0.24,2.94,0.05,5.92,0.07,8.88
		C122.78,93.72,122.9,94.22,122.97,94.73z M88.87,72.16c-0.08,1.1,0.42,1.82,1.24,2.4c1.04,0.75,2.13,1.45,3.12,2.26
		c1.94,1.59,2.94,3.88,4.29,5.9c0.13,0.19,0.35,0.31,0.52,0.47c0.08-0.2,0.27-0.44,0.21-0.58c-0.28-0.67-0.53-1.38-0.95-1.96
		c-1.48-2.07-2.99-4.1-5.26-5.43c-0.75-0.44-1.32-1.22-1.91-1.89c-0.2-0.22-0.34-0.6-0.31-0.89c0.13-1.16,0.33-2.31,0.53-3.45
		c0.11-0.62,0.29-1.22,0.38-1.84c0.02-0.17-0.18-0.37-0.28-0.56c-0.16,0.13-0.43,0.24-0.47,0.41
		C89.58,68.71,89.23,70.43,88.87,72.16z M157.98,58.32c-0.01,0.03-0.01,0.06-0.02,0.09c-0.21,0-0.42-0.02-0.63,0
		c-1.35,0.15-2.42,0.54-2.98,2.04c-0.82,2.2-0.19,4.38,1.88,5.49c0.22,0.12,0.6,0.22,0.77,0.11c1.29-0.77,2.56-1.58,3.81-2.4
		c0.12-0.08,0.14-0.32,0.17-0.5c0.1-0.47,0.2-0.94,0.27-1.41c0.28-1.88,0.11-2.27-1.54-3.05C159.2,58.45,158.57,58.44,157.98,58.32z
		 M160.45,83.92c-0.86,0.94-1.78,0.63-2.71,0.52c-1.2-0.14-2.3,0.07-3.42,0.75c-2.43,1.49-4.77,3.1-7.74,3.63
		c-2.16,0.39-4.01,0.15-5.85-0.88c-0.19-0.11-0.42-0.15-0.63-0.22c-0.03,0.07-0.05,0.14-0.08,0.21c0.18,0.13,0.36,0.28,0.55,0.4
		c3.18,2.01,6.48,1.41,9.65,0.13c1.6-0.64,2.99-1.85,4.39-2.91c0.86-0.65,1.7-0.79,2.68-0.5c0.26,0.08,0.51,0.18,0.77,0.24
		C159.3,85.56,160.23,85.1,160.45,83.92z M111.79,46.7c0.03,0.08,0.07,0.16,0.1,0.25c6.1-3.24,12.21-6.48,18.31-9.72
		c-0.05-0.1-0.11-0.21-0.16-0.31C123.85,39.98,117.62,42.97,111.79,46.7z M157.58,38.14c-0.07,0.09-0.14,0.18-0.21,0.27
		c2.79,2.91,5.58,5.83,8.36,8.74c0.17-0.25,0.21-0.54,0.09-0.74c-0.21-0.35-0.49-0.67-0.78-0.97c-2.15-2.21-4.29-4.42-6.46-6.61
		C158.3,38.54,157.91,38.37,157.58,38.14z M168.25,53.45c1.4,3.6,2.45,7.29,2.95,11.13c0.5,3.8,0.86,7.6,0.37,11.44
		C173.25,72.79,170.78,56.06,168.25,53.45z M165.81,66.85c1.1-1.22-0.74-11.76-2.12-13.07C164.89,58.05,165.92,62.35,165.81,66.85z
		 M141.29,100.28c0.09,0.12,0.18,0.23,0.27,0.35c2.78-1.38,5.57-2.76,8.34-4.16c0.16-0.08,0.23-0.36,0.34-0.55
		c-1.52,0.56-2.87,1.27-4.24,1.92c-1.41,0.67-2.84,1.28-4.25,1.95C141.56,99.88,141.44,100.12,141.29,100.28z M140.55,101.75
		c1.34,0.2,10.51-4.15,11.14-5.33C147.95,98.21,144.25,99.99,140.55,101.75z M150.54,101.95c-2.31,1.14-4.58,2.35-6.93,3.39
		c-2.36,1.05-4.79,1.93-7.19,2.89C141.41,106.77,146.24,104.93,150.54,101.95z M163.1,47.41c-0.16-1.4-5.05-6.12-6.43-6.16
		C158.85,43.34,160.91,45.31,163.1,47.41z M141.49,97.12c1.7,0.23,9.17-3.25,9.52-4.35C147.9,94.19,144.69,95.66,141.49,97.12z
		 M169.03,68.7c0.48-1.52-1.07-11.78-1.9-12.9C167.76,60.04,168.39,64.37,169.03,68.7z M167.54,68.5
		c-0.07-4.21-0.29-8.19-1.69-12.02c0.93,3.84,1.25,7.74,1.26,11.68C167.12,68.23,167.28,68.29,167.54,68.5z M140.62,98.84
		c0.04,0.08,0.08,0.17,0.12,0.25c3.25-1.05,6.32-2.48,9.28-4.15c-0.04-0.09-0.08-0.18-0.12-0.28
		C146.81,96.05,143.72,97.44,140.62,98.84z M150.34,100.23c-3.7,1.65-7.41,3.3-11.11,4.95c0.03,0.07,0.06,0.13,0.09,0.2
		C143.18,104.06,146.86,102.36,150.34,100.23z M142.3,77.89c-0.1-0.07-0.21-0.14-0.31-0.21c-0.16,0.15-0.43,0.28-0.47,0.45
		c-0.41,1.81-0.78,3.63-1.14,5.45c-0.03,0.15,0.14,0.35,0.22,0.52c0.14-0.12,0.38-0.22,0.41-0.37
		C141.45,81.79,141.87,79.84,142.3,77.89z M138.81,104.02c2.11,0.18,10.82-4.14,11.66-5.8c-1.85,1.11-3.65,2.35-5.59,3.31
		C142.91,102.5,140.81,103.21,138.81,104.02z M152.71,34.7c-1.3-1.44-8.3-4.3-9.26-3.96C146.42,32.01,149.49,33.32,152.71,34.7z
		 M139.23,83.47c0.09,0.03,0.19,0.07,0.28,0.1c0.12-0.14,0.32-0.27,0.36-0.43c0.33-1.55,0.65-3.1,0.93-4.66
		c0.03-0.19-0.18-0.42-0.29-0.62c-0.14,0.16-0.35,0.31-0.39,0.49c-0.28,1.28-0.52,2.57-0.76,3.86
		C139.29,82.62,139.27,83.05,139.23,83.47z M124.06,44.26c-0.08-0.13-0.16-0.26-0.25-0.39c-2.34,1.49-4.67,2.97-7.01,4.46
		c0.08,0.12,0.16,0.25,0.24,0.37C119.39,47.22,121.72,45.74,124.06,44.26z M162.75,55.2c0.72,3.3,1.63,6.57,1.53,10.01
		C164.79,61.72,163.86,58.44,162.75,55.2z M157.86,40.67c2.01,1.96,3.9,3.81,5.8,5.66C163.54,45.29,158.79,40.73,157.86,40.67z
		 M142.63,95.32c2.2-0.95,4.25-1.83,6.3-2.71C148.1,92.31,142.85,94.64,142.63,95.32z"/>
	<path class="st2" d="M49.12,52.15c-1.95,3.42-2.07,7.09-1.89,10.81c0.13,0.02,0.26,0.03,0.39,0.05c0-1.01,0-2.02,0-3.03
		c0.06-0.01,0.11-0.02,0.17-0.03c0.07,0.13,0.15,0.25,0.2,0.39c0.79,2.21,2.44,3.16,4.7,3.21c8.05,0.19,15.84-1.09,23.29-4.18
		c3.62-1.5,7.19-3.13,10.85-4.74c-0.74,2.86-1.48,5.74-2.23,8.62c0.11,0.04,0.23,0.08,0.34,0.12c0.09-0.15,0.21-0.28,0.26-0.44
		c0.68-2.61,1.33-5.22,2.03-7.83c0.12-0.46,0.46-0.86,0.71-1.28c0.1,0.05,0.2,0.1,0.3,0.15c-0.72,2.51-1.43,5.01-2.15,7.52
		c0.12,0.04,0.24,0.07,0.35,0.11c0.8-2.67,1.59-5.34,2.39-8.01c0.07,0.02,0.14,0.04,0.21,0.06c-0.73,2.65-1.45,5.29-2.18,7.94
		c0.1,0.03,0.2,0.07,0.31,0.1c0.08-0.16,0.18-0.3,0.23-0.47c0.72-2.51,1.42-5.02,2.15-7.52c0.08-0.28,0.3-0.53,0.46-0.79
		c0.07,0.04,0.14,0.08,0.21,0.12c-0.58,2.11-1.15,4.22-1.73,6.33c0.06,0.02,0.12,0.05,0.18,0.07c0.07-0.1,0.16-0.19,0.21-0.29
		c1.15-2.11,1.85-4.4,2.67-6.64c0.04-0.11,0.08-0.22,0.14-0.31c0.02-0.04,0.11-0.04,0.22-0.08c0,0.16,0.03,0.3,0,0.42
		c-0.58,2.08-1.21,4.12-2.18,6.08c-2.06,4.19-3.39,8.62-3.98,13.29c-0.69,5.47,0.08,10.74,1.6,15.97c1.2,4.15,3.09,7.91,6.02,11.11
		c1.01,1.1,2.08,2.17,3.26,3.1c2.54,2,5.15,3.91,7.76,5.82c2.24,1.64,4.69,2.88,7.39,3.61c0.14,0.04,0.28,0.09,0.57,0.19
		c-0.58,0.78-1.01,1.59-1.64,2.19c-2.02,1.9-3.53,4.16-4.93,6.51c-3.05,5.13-7.59,8.41-13.04,10.57c-1.67,0.66-3.3,1.5-5.02,1.91
		c-3.45,0.82-6.96,0.95-10.53,0.76c-4.67-0.24-9.24-1.1-13.8-1.91c-3.47-0.61-7.06-1.11-10.17-2.91c-2.33-1.34-4.54-2.95-6.59-4.68
		c-2.4-2.02-4.66-4.23-6.85-6.49c-2.92-3.02-5.71-6.17-7.39-10.12c-0.78-1.85-1.65-3.66-2.51-5.47c-0.91-1.93-0.94-4.02-1.08-6.07
		c-0.34-5.15,0.21-10.25,1.1-15.3c0.91-5.15,2.81-9.98,5.56-14.45c1.68-2.73,3.23-5.57,5.15-8.13c2.02-2.69,4.74-4.65,7.87-5.97
		c0.13-0.06,0.28-0.08,0.42-0.12C48.95,52.06,49.04,52.11,49.12,52.15z M53.45,106.81c-1.66-2.24-3.19-4.59-4.32-7.19
		c-0.36-0.83-0.98-1.54-1.49-2.3c-0.11,0.07-0.22,0.14-0.33,0.21c0.13,0.27,0.26,0.54,0.39,0.81c0.33,0.7,0.85,1.37,0.96,2.1
		c0.29,1.93,1.37,3.43,2.4,4.97c0.27,0.41,0.56,0.82,0.71,1.04c-0.67,0.73-1.4,1.24-1.73,1.94c-0.81,1.7-1.61,3.44-2.07,5.25
		c-0.38,1.49,0.35,2.93,1.24,4.19c0.1,0.14,0.28,0.23,0.44,0.29c1.07,0.44,4.43-0.28,5.21-1.12c0.16-0.17,0.28-0.39,0.4-0.6
		c0.86-1.48,0.8-3.04,0.28-4.6c-0.48-1.41-1.04-2.79-1.63-4.34c0.75-0.2,1.51-0.44,2.28-0.6c0.7-0.15,1.06-0.56,1.25-1.24
		c0.17-0.59,0.44-1.16,0.68-1.73c0.17-0.41,0.42-0.81,0.54-1.23c0.04-0.15-0.14-0.44-0.3-0.54c-0.09-0.06-0.44,0.09-0.5,0.22
		c-0.4,0.93-0.85,1.86-1.09,2.84c-0.15,0.6-0.41,0.88-0.96,1.01C55.06,106.38,54.31,106.59,53.45,106.81z M47.85,86.48
		c-0.38-0.04-0.5-0.05-0.61-0.07c-1.43-0.24-2.75-0.22-3.91,0.96c-0.4,0.4-1.25,0.37-1.91,0.5c-0.28,0.06-0.58,0.01-0.87,0.01
		c0.01,0.12,0.02,0.25,0.03,0.37c1.11,0.27,2.23,0.44,3.27-0.31c0.86-0.62,1.8-0.66,2.81-0.62c1.11,0.04,2.3,0.42,3.29-0.38
		c1.24-0.99,2.5-1.96,3.6-3.1c0.49-0.5,0.76-1.36,0.83-2.09c0.19-1.84-0.87-3.39-1.51-5.02c-0.09-0.24-0.86-0.25-1.33-0.3
		c-0.21-0.02-0.54,0.22-0.65,0.14c-0.56-0.45-0.9-0.01-1.24,0.28c-1.59,1.37-2.83,3-3.66,4.94c-0.59,1.37-0.33,2.57,0.7,3.62
		C47.01,85.72,47.34,86,47.85,86.48z M62.81,76.39c0.06,0.07,0.13,0.14,0.19,0.21c0.21-0.11,0.45-0.2,0.64-0.35
		c0.5-0.38,0.95-0.83,1.47-1.18c1.57-1.06,2.91-2.53,5.02-2.62c0.62-0.02,0.97,0.02,1.05,0.7c0.08,0.74,0.55,1.14,1.27,1.16
		c1.23,0.04,2.46,0.04,3.68,0.02c0.24-0.01,0.52-0.17,0.69-0.36c0.98-1.05,1.94-2.11,2.89-3.19c0.85-0.96,1.03-2.12,0.52-2.98
		c-0.58-0.98-1.51-1.27-2.92-0.91c-0.2,0.05-0.4,0.13-0.61,0.16C76.55,67.07,76.39,67,76.23,67c-0.37,0-0.81-0.1-1.11,0.05
		c-1.8,0.9-2.75,2.61-3.86,4.17c-0.15,0.22-0.46,0.37-0.72,0.46c-1.07,0.34-2.28,0.44-3.21,0.99c-1.43,0.85-2.69,2-4,3.04
		C63.11,75.88,62.98,76.16,62.81,76.39z M73.76,100.52c1.05-0.22,2.11-0.64,3.16-0.61c1.68,0.06,2.5-0.95,3.24-2.13
		c0.7-1.1,0.49-2.08-0.46-2.98c-1.45-1.38-3.23-1.38-5.05-1.32c-0.53,0.02-1.08-0.05-1.59-0.18c-0.9-0.22-1.67-0.07-2.26,0.67
		c-0.77,0.96-1.93,1.79-1.53,3.25C69.62,98.51,71.94,100.68,73.76,100.52z M86.15,120.18c-0.12,1.14,0.17,2.19,1.45,2.69
		c1.4,0.55,3.98-0.13,4.94-1.29c1.74-2.08,1.79-6,0.07-8.07c-0.15-0.18-0.59-0.27-0.85-0.2C88.91,114.07,85.82,116.39,86.15,120.18z
		 M99.49,107.46c-5.39-5.81-10.67-11.68-12.91-19.76C85.34,90.43,94.89,104.93,99.49,107.46z M109.17,110.6
		c-0.3,0.33-0.49,0.51-0.66,0.71c-1.18,1.47-2.27,3.03-3.55,4.4c-2.93,3.14-6.11,5.99-9.71,8.37c-0.26,0.17-0.45,0.45-0.83,0.83
		C97.37,124.42,108.89,113.76,109.17,110.6z M40.87,117.68c-1.82-2.79-3.76-5.51-5.41-8.39c-1.64-2.86-2.99-5.89-4.47-8.85
		C30.68,102.69,38.44,116.56,40.87,117.68z M58.8,127.72c-0.02,0.11-0.03,0.21-0.05,0.32c0.5,0.13,1.01,0.26,1.51,0.39
		c4.83,1.25,9.73,2.13,14.7,2.38c2.65,0.13,5.32-0.22,7.99-0.39c0.57-0.04,1.14-0.23,1.71-0.35c-0.01-0.11-0.03-0.22-0.04-0.33
		C75.81,131.55,67.3,129.68,58.8,127.72z M88.61,95.59c-0.12,1.24,6.89,12.09,8.26,12.74C94.06,104,91.38,99.86,88.61,95.59z
		 M88.29,98.37c-0.13,0.1-0.25,0.21-0.38,0.31c2.52,3.45,4.8,7.08,7.74,10.21c0.09-0.07,0.18-0.14,0.27-0.21
		C93.39,105.24,90.84,101.8,88.29,98.37z M99.95,118.59c0.13,0.09,0.25,0.19,0.38,0.28c2.66-2.77,5.57-5.29,7.95-8.36
		c-0.31,0-0.58,0.09-0.75,0.26c-0.51,0.51-0.96,1.07-1.47,1.57c-1.79,1.76-3.61,3.51-5.39,5.28
		C100.38,117.89,100.19,118.26,99.95,118.59z M87.18,99.66c-0.15,1.21,5.08,9.19,6.57,9.95c0.02-0.12,0.09-0.26,0.05-0.33
		C91.6,106.07,89.4,102.87,87.18,99.66z M46.86,63.75c0.08-0.26,0.14-0.36,0.14-0.46c0.13-2.8,0.25-5.6,0.36-8.4
		c0.01-0.22-0.14-0.44-0.27-0.84C46.31,55.86,46.15,62.55,46.86,63.75z M34.94,105.23c-0.07,0.05-0.13,0.09-0.2,0.14
		c1.92,3.73,4.1,7.3,6.84,10.52C39.36,112.34,37.15,108.78,34.94,105.23z M82.41,128.5c-4.87-0.09-9.75,0.03-14.57-0.94
		C69.81,128.64,80,128.98,82.41,128.5z M105.27,109.21c-0.32,0.21-0.5,0.3-0.64,0.43c-1.81,1.81-3.62,3.63-5.42,5.46
		c-0.19,0.19-0.31,0.46-0.59,0.9C100.46,115.21,104.98,110.6,105.27,109.21z M45.88,64.46c0.08,0,0.15,0,0.23,0c0-3.05,0-6.1,0-9.38
		C45.38,56.81,45.45,62.91,45.88,64.46z M65.19,63.51c0.04,0.1,0.07,0.21,0.11,0.31c3.69-1.26,7.38-2.53,11.07-3.79
		c-0.04-0.1-0.07-0.21-0.11-0.31C72.58,60.98,68.89,62.24,65.19,63.51z M39.11,104.76c-0.1,0.03-0.21,0.06-0.31,0.09
		c0.04,0.22,0.02,0.46,0.11,0.65c0.93,1.78,1.86,3.56,2.82,5.32c0.1,0.19,0.37,0.28,0.56,0.42c0.05-0.06,0.11-0.12,0.16-0.18
		C41.35,108.95,40.23,106.86,39.11,104.76z M83.42,126.96c-4.03-0.22-8.03-0.44-12.03-0.66C75.37,126.94,79.36,127.3,83.42,126.96z
		 M82.94,125.67c-3.47-0.25-6.93-0.5-10.4-0.76C75.98,125.58,79.44,126.01,82.94,125.67z M105.78,111
		c-1.89,1.62-3.78,3.24-5.67,4.86c-0.09,0.08-0.15,0.18-0.22,0.28c-0.01,0.02,0,0.06,0.01,0.09c0.01,0.03,0.03,0.05,0.05,0.07
		c0.02,0.02,0.05,0.03,0.12,0.08C102.29,114.94,104.19,113.14,105.78,111z M41.08,112.38c-1.33-2.48-2.66-4.97-3.99-7.45
		c-0.07,0.04-0.13,0.07-0.2,0.11C37.97,107.68,39.31,110.16,41.08,112.38z M98.38,113.76c1.98-1.84,4.08-3.56,5.76-5.72
		C102.21,109.96,100.3,111.86,98.38,113.76z M66.23,64.21c0.04,0.12,0.08,0.23,0.11,0.35c2.4-0.79,4.8-1.58,7.2-2.36
		c-0.03-0.1-0.07-0.21-0.1-0.31C71.04,62.66,68.63,63.43,66.23,64.21z M44.71,63.29c0-2.26,0-4.53,0-6.79
		C43.8,58.76,44.48,61.04,44.71,63.29z M73.22,122.49c-0.01,0.09-0.02,0.19-0.03,0.28c2.17,0.43,4.34,0.81,6.55,0.82
		c0.01-0.07,0.02-0.15,0.03-0.22C77.58,123.08,75.4,122.78,73.22,122.49z M67.67,64.69c0.03,0.13,0.07,0.25,0.1,0.38
		c1.22-0.29,2.45-0.58,3.67-0.86c-0.03-0.11-0.06-0.23-0.09-0.34C70.13,64.14,68.9,64.42,67.67,64.69z M100.94,107.93
		c-0.06-0.07-0.13-0.15-0.19-0.22c-1.27,1.08-2.54,2.15-3.81,3.23c0.07,0.08,0.13,0.15,0.2,0.23
		C98.4,110.09,99.67,109.01,100.94,107.93z"/>
	<path class="st3" d="M65.75,29.34c0.03,0.3,0.05,0.47,0.08,0.84c0.4-0.33,0.75-0.52,0.96-0.81c2.93-4.23,7.31-6.32,11.87-8.21
		c4.79-1.99,9.59-3.99,14.25-6.25c4.36-2.11,8.76-4.09,13.49-5.16c2.74-0.61,5.55-0.97,8.35-1.19c3.43-0.27,6.89-0.33,10.33-0.38
		c4.87-0.08,9.51,1.03,14.04,2.75c3.46,1.32,6.79,2.91,9.87,4.95c1.1,0.73,2.03,1.74,2.96,2.7c0.53,0.55,0.55,1.28,0.27,2.03
		c-0.69,1.89-2.08,3.15-3.68,4.28c-2.6,1.83-5.04,3.89-8,5.15c-0.52,0.22-1.11,0.27-1.72,0.41c0.02,0.03,0.09,0.17,0.24,0.46
		c-0.84,0-1.6,0-2.59,0c0.34,0.26,0.49,0.37,0.67,0.51c-0.1,0.07-0.16,0.14-0.24,0.17c-2.83,1.1-11.3,4.51-13.58,5.85
		c-2.83,1.65-5.93,2.89-8.99,4.12c-4.78,1.92-9.67,3.6-14.44,5.55c-3.41,1.4-6.69,3.1-10.04,4.63c-5.7,2.61-11.32,5.42-17.14,7.71
		c-4.07,1.61-8.37,2.81-12.84,2.88c-2.55,0.04-5.1,0.05-7.65-0.02c-2.13-0.06-3.46-1.6-3.4-4.14c0.04-1.56,0.28-3.18,0.79-4.65
		c1.12-3.23,2.39-6.4,3.75-9.54c0.49-1.13,1.35-2.12,2.13-3.1c1.89-2.4,3.75-4.83,5.76-7.13C62.61,32.23,64.18,30.87,65.75,29.34z
		 M122.41,33.76c-2.66,1.29-5.33,2.58-7.99,3.87c0.04,0.08,0.08,0.17,0.12,0.25c3.65-1.71,7.3-3.41,10.96-5.12
		c-0.03-0.07-0.06-0.15-0.09-0.22c-0.7,0.28-1.39,0.56-2.09,0.85c0.19-0.83-0.3-0.48-0.62-0.35c-2.54,1.07-5.08,2.14-7.61,3.22
		c-0.16,0.07-0.28,0.2-0.42,0.31c0.27,0.15,0.45,0.14,0.61,0.07c1.15-0.5,2.29-1.05,3.45-1.52
		C119.94,34.64,121.18,34.21,122.41,33.76z M88.47,30.94c0.09,0.06,0.17,0.13,0.26,0.19c0.9-1.46,1.98-2.84,2.67-4.39
		c0.75-1.69,2.14-2.61,3.47-3.66c0.12-0.1,0.34-0.1,0.51-0.09c0.56,0.05,1.12,0.17,1.69,0.21c3.28,0.19,6.42-0.18,9.09-2.36
		c0.96-0.79,1.13-1.29,0.72-2.38c1.73-1.14,3.42-2.34,5.63-2.36c0.38,0,0.77-0.13,1.14-0.24c0.54-0.16,1.07-0.35,1.6-0.53
		c-1.18-0.01-2.28,0.29-3.39,0.37c-1.6,0.11-3.03,0.56-4.32,1.52c-0.67,0.49-1.38,0.94-2.25,0.26c-0.27-0.21-0.75-0.25-1.13-0.23
		c-1.58,0.11-3.15,0.25-4.72,0.44c-2.13,0.25-3.79,1.3-4.91,3.12c-0.25,0.41-0.26,0.95-0.43,1.42c-0.11,0.32-0.24,0.68-0.46,0.93
		c-0.71,0.76-1.61,1.37-2.17,2.22c-0.71,1.06-1.16,2.3-1.75,3.44C89.31,29.52,88.88,30.23,88.47,30.94z M118.29,25.74
		c0.37,0,0.48,0.04,0.53-0.01c1.64-1.34,3.46-2.49,4.63-4.32c0.33-0.51,0.72-0.57,1.26-0.61c1.82-0.14,3.69-0.13,5.43-0.59
		c1.12-0.3,2.17-0.46,3.3-0.46c0.65,0,1.3-0.16,1.96-0.19c1.99-0.09,3.99-0.14,5.98-0.21c0.24-0.01,0.47-0.05,0.7-0.07
		c-3.64-0.92-7.26-0.15-10.85-0.13c-0.95-2.74-4.41-5.18-7.74-3.14c-1.03,0.63-2,0.86-3.17,1c-2.22,0.25-4.42,0.79-6.61,1.29
		c-2.08,0.48-2.95,2.29-4.02,3.86c0.54-0.45,1.01-0.96,1.41-1.54c0.75-1.08,1.68-1.83,3.03-2.02c1.42-0.2,2.84-0.48,4.26-0.7
		c0.95-0.15,1.91-0.24,3.03-0.38c-1.68,2.5,0.74,2.54,1.97,3.53c-1.43,1.2-2.78,2.32-4.1,3.47
		C118.96,24.82,118.71,25.23,118.29,25.74z M78.66,36.44c-0.08-0.15-0.12-0.31-0.22-0.38c-0.73-0.5-0.85-1.22-0.85-2.05
		c0-1.01-0.21-2.01-0.19-3.01c0.01-0.44,0.24-1.05,0.57-1.28c1.04-0.7,2.17-1.26,3.28-1.86c0.79-0.43,1.59-0.83,2.38-1.25
		c0.16-0.08,0.3-0.19,0.45-0.3c0.63-0.45,1.11-1.02,0.8-1.81c-0.3-0.77-1.07-0.62-1.72-0.59c-0.54,0.02-1.21,0.33-1.58,0.1
		c-0.89-0.54-1.58-0.11-2.24,0.24c-1.08,0.57-2.1,1.27-3.1,1.97c-1.03,0.73-1.17,1.37-0.57,2.46c0.39,0.71,0.65,1.4,0.81,2.24
		c0.24,1.3,0.46,2.57,0.48,3.89C76.98,35.75,77.77,36.43,78.66,36.44z M59.21,47.06c0.1,0.08,0.21,0.17,0.31,0.25
		c0.23-0.29,0.47-0.57,0.69-0.86c0.6-0.82,1.12-1.71,1.81-2.45c1.26-1.36,2.52-2.73,4.63-2.76c0.54-0.01,1.15-0.35,1.6-0.7
		c1.08-0.85,2.09-1.78,3.1-2.72c0.61-0.57,0.72-1.61,0.19-2.11c-0.52-0.49-1.19-0.6-1.9-0.27c-1.96,0.93-3.47,2.42-4.96,3.94
		c-0.51,0.52-0.64,1.12-0.15,1.8C62.11,42.65,60.49,44.71,59.21,47.06z M75.51,50.54c-0.28,0.08-0.42,0.1-0.55,0.15
		c-2.35,0.9-4.66,1.93-7.05,2.67c-4.35,1.33-8.75,2.48-13.13,3.72c-0.3,0.08-0.56,0.28-0.84,0.42
		C57.27,57.82,74.85,52.05,75.51,50.54z M83.5,50.59c0.05,0.13,0.09,0.26,0.14,0.4c0.36-0.1,0.72-0.17,1.07-0.31
		c1.37-0.52,2.75-1.03,4.09-1.61c4.42-1.91,8.83-3.84,13.24-5.78c0.24-0.1,0.39-0.39,0.59-0.59c-0.05-0.04-0.11-0.08-0.16-0.12
		C96.14,45.25,89.82,47.92,83.5,50.59z M113.64,39.25c0.04,0.09,0.08,0.18,0.12,0.27c5.23-2.43,10.45-4.85,15.68-7.28
		c-0.07-0.14-0.14-0.29-0.2-0.43C124.02,34.27,118.6,36.26,113.64,39.25z M74.48,54.78c-0.04-0.11-0.08-0.23-0.12-0.34
		c-4.4,1.55-8.81,3.11-13.21,4.66c0.04,0.11,0.08,0.21,0.11,0.32C65.75,58.11,70.13,56.49,74.48,54.78z M85.7,51.19
		c0.06,0.13,0.12,0.26,0.18,0.39c3.35-1.56,6.79-2.92,10.05-4.68c-0.05-0.12-0.11-0.23-0.16-0.35
		C92.41,48.09,89.05,49.64,85.7,51.19z M73.15,54.09c-0.03-0.1-0.06-0.21-0.09-0.31c-4.96,1.49-9.91,2.98-14.87,4.47
		c0.03,0.11,0.06,0.21,0.09,0.32C63.24,57.08,68.2,55.58,73.15,54.09z M104.82,11.97c5.19-1.14,10.37-2.36,15.69-2.83
		C115.14,9.28,109.97,10.52,104.82,11.97z M79.34,29.9c1.24,0.17,6.38-3.23,6.43-4.17C83.64,27.11,81.59,28.44,79.34,29.9z
		 M86.88,51.41c0.05,0.13,0.11,0.27,0.16,0.4c2.64-1.13,5.29-2.25,7.93-3.38c-0.05-0.13-0.11-0.26-0.16-0.39
		C92.17,49.17,89.52,50.29,86.88,51.41z M63.36,39.14c-0.06-0.05-0.12-0.11-0.19-0.16c-2.11,2.22-3.93,4.66-5.62,7.2
		c0.07,0.05,0.14,0.1,0.2,0.16C59.63,43.94,61.5,41.54,63.36,39.14z M55.6,47.08c0.1,0.07,0.2,0.15,0.3,0.22
		c1.62-2.47,3.25-4.94,4.87-7.42c-0.11-0.07-0.21-0.14-0.32-0.21C58.84,42.14,57.22,44.61,55.6,47.08z M104.74,12.98
		c0.02,0.1,0.03,0.21,0.05,0.31c2.88-0.75,5.76-1.51,8.63-2.26c-0.03-0.1-0.05-0.2-0.08-0.3C110.47,11.47,107.61,12.22,104.74,12.98
		z M104.92,14.02c0.03,0.13,0.06,0.25,0.09,0.38c2.31-0.68,4.62-1.36,6.92-2.04c-0.04-0.12-0.07-0.24-0.11-0.36
		C109.53,12.67,107.23,13.34,104.92,14.02z M58.95,41.01c-1.13,0.7-4.02,5.22-4,6.11C56.33,45.03,57.64,43.02,58.95,41.01z
		 M85.14,28.04c-0.06-0.08-0.11-0.16-0.17-0.25c-1.5,0.94-2.99,1.88-4.49,2.82c0.05,0.08,0.11,0.16,0.16,0.25
		C82.25,30.1,83.76,29.18,85.14,28.04z"/>
	<path class="st4" d="M63.93,29.19c0.18,0.07,0.36,0.14,0.64,0.25c-0.36,0.29-0.63,0.51-0.96,0.79c-2.55-1.42-5.11-2.84-7.66-4.27
		c-0.07,0.12-0.13,0.24-0.2,0.35c2.44,1.4,4.88,2.8,7.34,4.21c-0.26,0.58-0.5,0.51-0.97,0.24c-2.07-1.2-4.19-2.32-6.29-3.47
		c-0.09-0.05-0.21-0.03-0.32-0.05c-0.05,0.09-0.1,0.19-0.14,0.28c2.26,1.27,4.53,2.55,6.89,3.88c-0.29,0.24-0.51,0.41-0.68,0.54
		c-2.26-1.29-4.47-2.56-6.68-3.83c-0.07,0.12-0.14,0.24-0.21,0.35c2.13,1.26,4.26,2.52,6.47,3.84c-0.86,0.94-1.71,1.77-2.45,2.68
		c-1.82,2.23-3.84,4.35-5.3,6.8c-1.41,2.36-2.24,5.08-3.32,7.64c-0.08,0.19-0.16,0.39-0.2,0.6c-0.18,0.78-0.6,1.14-1.45,1.29
		c-2.05,0.37-3.56,1.8-5.21,2.93c-2.62,1.79-4.38,4.33-5.95,7c-1.54,2.61-3.18,5.16-4.55,7.86c-2.43,4.79-4.05,9.86-4.5,15.25
		c-0.27,3.22-0.67,6.45-0.65,9.67c0.01,2.58,0.19,5.28,0.97,7.7c1.35,4.16,3.41,8.05,6.03,11.87c-0.99-0.43-1.83-0.77-2.64-1.16
		c-4.62-2.24-8.82-5.05-12.44-8.75c-4.02-4.1-7.85-8.33-10.86-13.25c-1.32-2.15-2.24-4.45-2.82-6.88c-0.77-3.29-1.61-6.57-2.12-9.9
		c-0.28-1.8,0.01-3.7,0.16-5.54c0.19-2.54,0.43-5.08,0.75-7.6c0.86-6.72,2.82-13.02,6.89-18.6c2.17-2.97,3.9-6.26,5.94-9.33
		c1.18-1.76,2.48-3.47,3.94-5c0.79-0.83,1.96-1.47,3.07-1.78c3.53-0.97,6.79-2.51,10.06-4.1c0.99-0.48,2.15-0.71,3.26-0.86
		c1.86-0.26,3.73-0.42,5.6-0.53c2.4-0.13,4.8-0.29,7.19-0.21c3.29,0.11,6.22,1.37,8.95,3.19c1.49,1,3.11,1.82,4.64,2.77
		c0.55,0.34,1.07,0.78,1.51,1.26c0.21,0.22,0.22,0.63,0.32,0.95c-0.31-0.06-0.68-0.03-0.93-0.19c-1.88-1.17-3.74-2.39-5.61-3.58
		c-0.57-0.36-1.17-0.65-1.76-0.97c-0.07,0.07-0.13,0.15-0.2,0.22c0.17,0.25,0.35,0.5,0.52,0.75c-0.59,0.36-0.14,0.61,0.16,0.81
		c1.38,0.91,2.77,1.79,4.15,2.69c0.34,0.22,0.64,0.5,0.96,0.76c-0.88-0.5-1.76-0.98-2.63-1.49c-0.99-0.57-1.97-1.17-2.95-1.75
		c-0.06,0.08-0.12,0.16-0.18,0.24c0.14,0.14,0.26,0.32,0.43,0.43c0.83,0.54,1.67,1.07,2.51,1.59c0.97,0.59,1.94,1.18,2.93,1.74
		C63.63,29.67,64.12,29.97,63.93,29.19z M21.24,54.26c0.71-1.1,1.43-2.2,2.11-3.32c0.16-0.26,0.18-0.61,0.27-0.91
		c-0.11-0.04-0.22-0.08-0.34-0.12c-0.47,0.74-0.94,1.48-1.41,2.23c0.19-0.74,0.51-1.41,0.79-2.09c0.36-0.86,0.12-1.75-0.63-2.29
		c-0.38-0.28-0.81-0.51-1.25-0.69c-1.34-0.57-2.24-0.32-2.79,1.01c-0.66,1.62-1.15,3.31-1.66,4.98c-0.25,0.79,0.12,1.43,0.79,1.82
		c0.6,0.36,1.28,0.59,1.92,0.88c-0.17,0.36-0.37,0.78-0.57,1.2c0.08,0.05,0.16,0.1,0.23,0.16c0.24-0.18,0.48-0.36,0.72-0.55
		c0,0.22,0,0.44,0,0.87c0.35-0.26,0.59-0.37,0.74-0.56c1.26-1.55,2.52-3.11,3.75-4.68c0.15-0.2,0.14-0.52,0.21-0.78
		c-0.13-0.09-0.27-0.17-0.4-0.26c-0.11,0.21-0.18,0.46-0.33,0.64C22.68,52.62,21.96,53.44,21.24,54.26z M23.75,72.61
		c0.15,0.46,0.26,1.09,0.55,1.61c0.66,1.17,2.5,1.62,3.44,0.98c1.85-1.27,3.02-3.04,3.92-5.03c0.31-0.69,0.35-1.39-0.23-1.9
		c-0.8-0.7-1.65-1.38-2.57-1.93c-1.11-0.66-1.97-0.47-2.92,0.42C24.28,68.3,24.16,70.41,23.75,72.61z M47.54,33.1
		c-0.21-1.35-0.52-1.92-1.46-2.13c-0.99-0.22-2.01-0.4-2.93,0.29c-0.84,0.62-1.7,1.22-2.53,1.85c-1.06,0.81-1.2,1.92-0.95,3.15
		c0.29,1.42,0.77,1.76,2.03,1.13c1.65-0.83,3.26-1.77,4.82-2.78C46.99,34.3,47.2,33.61,47.54,33.1z M5.08,75.94
		c1.38,8.1,4.9,15.26,9.81,21.78c1.53,2.03,3.18,4,5.27,5.52c-3.42-4-6.86-7.95-9.33-12.65C8.37,85.9,6.12,81.16,5.08,75.94z
		 M26.93,85.98c-2.65,2.93,0.8,22.63,4.36,25.48C27.44,103.44,25.65,95.07,26.93,85.98z M26.85,26.67
		c-2.44-0.1-10.74,9.82-11.37,12.58c1.73-2.35,3.29-4.64,5.02-6.78C22.26,30.28,24.23,28.27,26.85,26.67z M11.34,89.2
		c-0.05,0.06-0.1,0.13-0.16,0.19c2.22,3.32,4.52,6.59,7.19,9.59c-2.07-3.3-4.31-6.48-6.56-9.65C11.74,89.23,11.5,89.24,11.34,89.2z
		 M28.74,110.29c-1.25-4.76-2.5-9.52-3.75-14.28C25.4,100.99,26.9,105.69,28.74,110.29z M39.22,56.04c-0.11-0.07-0.22-0.13-0.33-0.2
		c-0.77,1.02-1.56,2.02-2.31,3.06c-1.23,1.69-2.45,3.39-3.66,5.1c-0.18,0.26-0.23,0.6-0.34,0.9c0.06,0.01,0.12,0.02,0.18,0.03
		C34.91,61.97,37.07,59.01,39.22,56.04z M27.48,109.14c-1.22-3.78-2.7-7.48-3.3-11.44C24.32,101.79,25.84,105.49,27.48,109.14z
		 M17.98,96.86c0.13-0.09,0.27-0.18,0.4-0.28c-1.67-2.43-3.34-4.87-5-7.3c-0.13,0.09-0.25,0.17-0.38,0.26
		C14.54,92.06,16.23,94.48,17.98,96.86z M22.53,97.33c-0.2,1.48,2.62,10.11,3.51,10.85C24.84,104.47,23.68,100.9,22.53,97.33z
		 M24.15,32.14c-2.4,1.95-4.25,4.35-5.93,6.89c0.06,0.05,0.12,0.1,0.18,0.15C20.32,36.84,22.23,34.49,24.15,32.14z M20.15,57.78
		c0.13,0.09,0.26,0.18,0.39,0.27c1.31-1.93,2.92-3.63,4.12-5.63c-0.11-0.08-0.22-0.16-0.33-0.24
		C22.94,54.05,21.55,55.91,20.15,57.78z M23.64,31.09c-1.02,0.21-5.89,5.95-6.08,7.28C19.58,35.95,21.66,33.46,23.64,31.09z
		 M37.98,59.21c-0.09-0.07-0.18-0.14-0.27-0.2c-1.54,1.83-3,3.71-4.2,5.77c0.08,0.06,0.16,0.11,0.24,0.17
		C35.16,63.04,36.57,61.12,37.98,59.21z M14.36,88.26c-0.1,0.08-0.2,0.16-0.31,0.24c1.41,1.98,2.83,3.95,4.24,5.93
		c0.1-0.07,0.2-0.14,0.3-0.21C17.18,92.24,15.77,90.25,14.36,88.26z M20.26,93.63c-1.6-2.12-3.19-4.24-4.79-6.36
		C16.63,89.72,18.33,91.76,20.26,93.63z M52.19,29.75c-0.07,0.12-0.13,0.25-0.2,0.37c1.71,0.92,3.42,1.85,5.13,2.77
		c0.06-0.12,0.13-0.24,0.19-0.35C55.6,31.61,53.89,30.68,52.19,29.75z M54.39,28.92c-0.05,0.1-0.11,0.2-0.16,0.3
		c1.95,1.08,3.9,2.15,5.84,3.23c0.06-0.11,0.12-0.22,0.18-0.32C58.3,31.06,56.34,29.99,54.39,28.92z M53.35,29.44
		c-0.06,0.08-0.11,0.17-0.17,0.25c1.87,1.07,3.74,2.14,5.61,3.21c0.05-0.09,0.1-0.18,0.15-0.26C57.08,31.57,55.21,30.5,53.35,29.44z
		"/>
	<path d="M63.93,29.11c0.19,0.78-0.3,0.48-0.58,0.32c-0.99-0.56-1.96-1.15-2.93-1.74c-0.84-0.52-1.68-1.05-2.51-1.59
		c-0.17-0.11-0.29-0.28-0.43-0.43c0.06-0.08,0.12-0.16,0.18-0.24c0.98,0.58,1.96,1.17,2.95,1.75c0.87,0.51,1.75,1,2.63,1.49
		C63.48,28.82,63.71,28.96,63.93,29.11z"/>
	<path d="M94.2,50.99c-0.79,1.13-1.58,2.26-2.49,3.56c0.27-1.06,0.35-2,0.77-2.75c0.26-0.46,1.04-0.62,1.59-0.91
		C94.12,50.92,94.16,50.96,94.2,50.99z"/>
	<path d="M110.05,68.08c0.47,0.85,1.01,1.73,1.45,2.66c0.3,0.64,0.56,1.32,0.66,2.02c0.23,1.58,0.36,3.17,0.53,4.76
		c-0.12,0.02-0.23,0.04-0.35,0.07c-0.07-0.21-0.17-0.42-0.19-0.64c-0.12-0.95-0.22-1.9-0.31-2.85c-0.13-1.42-0.43-2.74-1.48-3.85
		c-0.44-0.47-0.57-1.24-0.9-2.01c-0.36,0.16-0.72,0.33-1.1,0.51c-0.16-0.2-0.36-0.49-0.61-0.76c-1.99-2.16-1.41-5.92,1.37-7.6
		c0.32-0.19,0.86,0.04,1.26-0.08c1.26-0.36,2.5-0.82,3.76-1.19c0.79-0.23,1.64-0.36,2.23,0.4c0.75,0.96,0.59,1.83,0.06,2.91
		c-1.17,2.39-3.34,3.61-5.41,4.97c-0.22,0.15-0.46,0.28-0.69,0.42C110.28,67.84,110.25,67.89,110.05,68.08z M108.49,67.07
		c0.28-1.82,0.54-3.51,0.8-5.19c0.12,0.02,0.25,0.03,0.37,0.05c-0.24,1.78-0.48,3.55-0.72,5.33c0.07,0.03,0.14,0.06,0.21,0.09
		c0.14-0.22,0.35-0.42,0.41-0.65c0.29-1.22,0.53-2.45,0.79-3.68c0.07-0.3,0.17-0.6,0.26-0.9c0.08,0.02,0.16,0.05,0.24,0.07
		c-0.05,0.33-0.1,0.65-0.16,0.98c0.02,0,0.05,0.01,0.07,0.01c0.13-0.32,0.26-0.64,0.4-0.96c0.09,0.02,0.17,0.05,0.26,0.07
		c-0.12,0.64-0.25,1.28-0.37,1.92c-0.13,0.69-0.26,1.39-0.4,2.15c2.46-1.16,4-2.53,5.21-4.83c0.2-0.37,0.05-1.07-0.19-1.48
		c-0.15-0.26-0.87-0.45-1.16-0.3c-1.85,0.91-4,1.03-5.72,2.31C107.33,63.13,107.04,65.61,108.49,67.07z M110.75,63.65
		c-0.07-0.01-0.14-0.02-0.21-0.04c-0.23,1.06-0.46,2.13-0.7,3.19c0.09,0.02,0.18,0.04,0.28,0.06
		C110.33,65.79,110.54,64.72,110.75,63.65z"/>
	<path d="M137.05,103.71c0.16,1.18-0.44,1.81-1.45,2.22c-0.58,0.23-1.18,0.5-1.67,0.88c-1.9,1.47-3.89,0.9-5.7,0.03
		c-1.36-0.65-1.47-2.27-1.59-3.64c-0.23-2.88,2.05-3.96,4.43-3.9c1.46,0.04,2.72,0.56,4,1.19
		C136.47,101.17,136.99,102.29,137.05,103.71z M131.95,106.75c0.47-0.25,0.75-0.4,1.03-0.55c0.79-0.43,1.54-0.94,2.36-1.28
		c0.69-0.29,0.89-0.78,0.85-1.41c-0.06-0.91-0.4-1.72-1.23-2.18c-1.46-0.81-2.99-1.38-4.71-1.29c-1.34,0.07-2.28,0.66-2.69,1.74
		c-0.38,1.01,0.09,3.02,0.85,3.69c0.36-1.41,0.73-2.83,1.09-4.25c0.12,0.03,0.24,0.06,0.36,0.09c-0.05,0.37-0.08,0.74-0.17,1.1
		c-0.25,1.05-0.54,2.09-0.76,3.15c-0.04,0.21,0.16,0.47,0.24,0.71c0.09-0.03,0.18-0.05,0.28-0.08c0.27-1.82,0.54-3.65,0.81-5.47
		c0.14,0.02,0.27,0.03,0.41,0.05c-0.23,1.88-0.45,3.75-0.68,5.63c0.1,0.01,0.19,0.02,0.29,0.03c0.26-1.63,0.52-3.26,0.78-4.89
		c0.13,0.01,0.27,0.02,0.4,0.03c0.02,0.22,0.09,0.44,0.06,0.65c-0.18,1.21-0.4,2.42-0.59,3.64c-0.1,0.63-0.02,0.7,0.6,0.68
		c0.16-1.42,0.33-2.84,0.49-4.26c0.14,0.01,0.27,0.02,0.41,0.03c-0.05,0.68-0.09,1.37-0.16,2.05
		C132.18,105.09,132.07,105.81,131.95,106.75z"/>
	<path d="M133.01,76.02c0.33-0.03,0.66-0.04,0.98-0.08c0.83-0.1,1.65-0.29,2.48-0.29c0.71,0,1.29,0.34,1.61,1.09
		c0.3,0.69,0.74,1.31,1.09,1.91c0.06-0.18,0.17-0.55,0.37-1.18c0.19,0.38,0.38,0.56,0.35,0.71c-0.35,1.7-0.74,3.39-1.13,5.08
		c-0.01,0.06-0.13,0.1-0.28,0.2c-0.1-0.22-0.19-0.42-0.27-0.59c-0.14,0.11-0.28,0.22-0.52,0.41c-0.08-0.4-0.14-0.69-0.23-1.1
		c-1.34,0.73-2.62,1.43-3.9,2.12c-1.51,0.82-2.14,0.49-3.05-0.94c-1.45-2.29-0.16-6.2,2.35-7.55
		C132.93,75.87,132.97,75.95,133.01,76.02z M132.34,77.59c-0.05-0.07-0.11-0.14-0.16-0.2c-1.62,1.84-1.83,3.73-0.71,5.86
		c0.33,0.63,0.73,0.81,1.37,0.45c1.35-0.76,2.74-1.47,4.07-2.26c1.09-0.65,1.31-1.79,0.65-2.85c-0.17-0.28-0.35-0.56-0.48-0.86
		c-0.49-1.14-1.35-1.55-2.54-1.11c-0.44,0.16-0.81,0.5-1.23,0.7C133.01,77.46,132.67,77.5,132.34,77.59z"/>
	<path d="M137.91,34.75c-0.39,0.51-0.8,1.01-1.17,1.54c-1.29,1.84-2.53,3.69-3,5.98c-0.23,1.12-0.78,2.21-1.31,3.24
		c-0.91,1.76-1.23,3.63-1.28,5.56c-0.08,3.21-1.18,6.16-2.18,9.15c-0.4,1.2-0.77,2.39-0.49,3.7c0.05,0.25-0.25,0.58-0.39,0.87
		c-0.17-0.26-0.45-0.51-0.5-0.8c-0.32-1.68,0.14-3.27,0.69-4.83c1.03-2.92,2.1-5.85,2.21-8.96c0.08-2.29,0.62-4.42,1.68-6.37
		c1.55-2.86,2.63-5.99,4.82-8.49c0.23-0.26,0.46-0.51,0.69-0.77C137.75,34.63,137.83,34.69,137.91,34.75z"/>
	<path d="M105.6,77.15c-0.26,1.58-0.6,3.15-0.74,4.74c-0.1,1.23,0.01,2.49,0.11,3.72c0.11,1.28,0.32,2.54,0.51,3.96
		c1.57-0.1,2.88,0.74,4.09,1.82c0.82,0.73,1.19,1.59,1.04,2.7c-0.13,0.92-0.16,1.85-0.22,2.77c-0.05,0.8-0.49,1.25-1.25,1.42
		c-0.52,0.12-1.04,0.34-1.57,0.35c-0.51,0.01-1.11-0.05-1.51-0.32c-2.43-1.6-3.27-4.1-2.38-6.9c0.03-0.09,0.05-0.18,0.11-0.25
		c1.5-1.76,0.94-3.76,0.51-5.64c-0.34-1.45-0.07-2.79,0.13-4.17c0.21-1.43,0.55-2.84,0.83-4.26
		C105.37,77.11,105.49,77.13,105.6,77.15z M104.2,93.49c-0.01,1.78,1.08,3.54,2.5,4.2c0.23,0.11,0.52,0.12,0.78,0.09
		c2.09-0.25,2.16-0.25,2.42-2.31c0.12-0.99,0.54-2.15-0.26-3.01c-0.92-1.01-1.95-1.93-3.44-2.11c-0.98-0.11-1.48,0.09-1.72,1.06
		C104.29,92.15,104.27,92.94,104.2,93.49z"/>
	<path d="M151.44,93.07c0.07-0.68,0.1-1.37,0.21-2.05c0.34-2.3,1.83-3.49,4.16-3.77c1.76-0.21,3.26,0.06,4.62,1.18
		c1.05,0.87,1.36,1.99,0.69,3.19c-0.91,1.63-2.11,2.97-3.94,3.65c-0.75,0.28-1.46,0.68-2.21,0.99c-2.1,0.85-3.46-0.04-3.46-2.27
		c0-0.3,0-0.6,0-0.9C151.48,93.08,151.46,93.08,151.44,93.07z M152.32,92.82c0.03,0.54,0.03,1.08,0.08,1.62
		c0.11,1.14,0.78,1.59,1.84,1.17c0.83-0.33,1.6-0.83,2.44-1.13c1.74-0.63,2.85-1.93,3.78-3.43c0.48-0.78,0.34-1.47-0.36-2.07
		c-1.26-1.07-2.66-1.58-4.31-1.02c-0.65,0.22-1.41,0.28-1.95,0.66C152.41,89.63,152.28,91.21,152.32,92.82z"/>
	<path d="M143.9,48.24c-0.16,3.43-0.75,3.89-3.65,5.28c-0.89,0.43-1.86,0.1-2.47-0.7c-0.16-0.21-0.3-0.45-0.48-0.65
		c-1.61-1.88-1.1-3.38,0.28-5.46c0.81-1.21,2.9-1.55,4.26-0.94c0.19,0.09,0.38,0.18,0.57,0.26C143.76,46.6,143.9,46.82,143.9,48.24z
		 M143.15,48.2c-0.04-0.14-0.06-0.5-0.24-0.75c-0.74-1.07-2.98-1.47-3.99-0.63c-0.71,0.59-1.34,1.33-1.82,2.12
		c-0.59,0.95,1.11,3.88,2.22,4c0.06,0.01,0.12,0.01,0.17,0.01c1.38-0.16,3.18-1.73,3.44-3.04C143.04,49.41,143.06,48.9,143.15,48.2z
		"/>
	<path d="M122.97,94.73c-0.07-0.51-0.19-1.01-0.2-1.52c-0.02-2.96,0.17-5.94-0.07-8.88c-0.22-2.62,0.17-5.07,1.01-7.49
		c0.29-0.83,0.8-1.59,1.28-2.34c0.8-1.26,1.64-2.49,2.49-3.72c0.12-0.17,0.33-0.27,0.49-0.41c0.03,0.23,0.17,0.51,0.08,0.67
		c-0.72,1.27-1.51,2.5-2.23,3.77c-0.49,0.88-1.01,1.77-1.34,2.71c-0.85,2.42-1.14,4.95-1.16,7.51c-0.02,2.85-0.11,5.69-0.15,8.54
		c-0.01,0.37,0.07,0.75,0.11,1.12C123.17,94.7,123.07,94.72,122.97,94.73z"/>
	<path d="M88.87,72.16c0.36-1.72,0.72-3.45,1.11-5.17c0.04-0.16,0.31-0.27,0.47-0.41c0.1,0.19,0.3,0.39,0.28,0.56
		c-0.09,0.62-0.28,1.22-0.38,1.84c-0.2,1.15-0.4,2.3-0.53,3.45c-0.03,0.28,0.11,0.67,0.31,0.89c0.6,0.67,1.16,1.44,1.91,1.89
		c2.27,1.33,3.78,3.37,5.26,5.43c0.42,0.58,0.68,1.29,0.95,1.96c0.06,0.14-0.13,0.39-0.21,0.58c-0.18-0.15-0.4-0.28-0.52-0.47
		c-1.35-2.03-2.35-4.32-4.29-5.9c-0.99-0.81-2.07-1.51-3.12-2.26C89.29,73.98,88.78,73.25,88.87,72.16z"/>
	<path d="M157.98,58.32c0.58,0.12,1.22,0.13,1.74,0.37c1.65,0.78,1.82,1.17,1.54,3.05c-0.07,0.47-0.17,0.94-0.27,1.41
		c-0.04,0.17-0.06,0.42-0.17,0.5c-1.26,0.82-2.52,1.64-3.81,2.4c-0.18,0.11-0.55,0.01-0.77-0.11c-2.07-1.11-2.7-3.29-1.88-5.49
		c0.56-1.49,1.63-1.89,2.98-2.04c0.21-0.02,0.42,0,0.63,0C157.97,58.39,157.98,58.36,157.98,58.32z M160.74,60.53
		c-0.12-0.2-0.24-0.62-0.51-0.81c-2.22-1.48-4.1-1.16-5.22,1.45c-0.61,1.42,0.3,3.52,1.75,4.15c0.22,0.09,0.59-0.01,0.82-0.14
		c0.75-0.42,1.49-0.88,2.2-1.37c0.22-0.16,0.43-0.44,0.5-0.7C160.46,62.31,160.57,61.51,160.74,60.53z"/>
	<path d="M160.45,83.92c-0.22,1.18-1.15,1.65-2.39,1.36c-0.26-0.06-0.51-0.16-0.77-0.24c-0.98-0.29-1.82-0.14-2.68,0.5
		c-1.4,1.06-2.79,2.27-4.39,2.91c-3.16,1.28-6.46,1.87-9.65-0.13c-0.19-0.12-0.37-0.27-0.55-0.4c0.03-0.07,0.05-0.14,0.08-0.21
		c0.21,0.07,0.44,0.11,0.63,0.22c1.84,1.03,3.69,1.27,5.85,0.88c2.96-0.53,5.31-2.14,7.74-3.63c1.11-0.68,2.21-0.89,3.42-0.75
		C158.68,84.54,159.6,84.86,160.45,83.92z"/>
	<path d="M111.79,46.7c5.83-3.73,12.06-6.72,18.25-9.79c0.05,0.1,0.11,0.21,0.16,0.31c-6.1,3.24-12.21,6.48-18.31,9.72
		C111.86,46.86,111.82,46.78,111.79,46.7z"/>
	<path d="M157.58,38.14c0.34,0.22,0.72,0.4,1,0.68c2.17,2.19,4.32,4.4,6.46,6.61c0.29,0.3,0.57,0.62,0.78,0.97
		c0.12,0.2,0.08,0.49-0.09,0.74c-2.79-2.91-5.58-5.83-8.36-8.74C157.44,38.32,157.51,38.23,157.58,38.14z"/>
	<path d="M168.25,53.45c2.53,2.61,5,19.34,3.31,22.56c0.49-3.84,0.13-7.64-0.37-11.44C170.7,60.74,169.66,57.05,168.25,53.45z"/>
	<path d="M123.52,42.29c0.27-0.04,0.54-0.08,0.86-0.12c-0.17,0.6-7.18,5.2-8.46,5.62c-0.19,0.06-0.43-0.05-0.65-0.08
		c-0.02-0.09-0.03-0.18-0.05-0.26c1.51-0.94,3.03-1.88,4.54-2.83c1.09-0.68,2.16-1.38,3.25-2.07
		C123.18,42.46,123.35,42.38,123.52,42.29z"/>
	<path d="M165.81,66.85c0.1-4.49-0.92-8.79-2.12-13.07C165.07,55.09,166.92,65.63,165.81,66.85z"/>
	<path d="M123.52,42.29c-0.17,0.08-0.34,0.16-0.52,0.25c-1.51,0.83-3.03,1.65-4.53,2.5c-1.01,0.58-1.99,1.21-3,1.81
		c-0.21,0.12-0.46,0.17-0.76,0.12c3.65-2.44,7.32-4.82,11.34-6.58c0.06,0.1,0.11,0.19,0.17,0.29c-0.42,0.24-0.85,0.48-1.26,0.73
		C124.48,41.7,124,42,123.52,42.29z"/>
	<path d="M141.29,100.28c0.15-0.17,0.27-0.4,0.46-0.49c1.41-0.66,2.84-1.28,4.25-1.95c1.37-0.66,2.72-1.36,4.24-1.92
		c-0.11,0.19-0.17,0.47-0.34,0.55c-2.77,1.4-5.56,2.78-8.34,4.16C141.47,100.52,141.38,100.4,141.29,100.28z"/>
	<path d="M140.55,101.75c3.69-1.77,7.4-3.54,11.14-5.33C151.06,97.61,141.89,101.95,140.55,101.75z"/>
	<path d="M150.54,101.95c-4.29,2.98-9.12,4.82-14.12,6.28c2.4-0.96,4.83-1.84,7.19-2.89C145.96,104.3,148.23,103.09,150.54,101.95z"
		/>
	<path d="M163.1,47.41c-2.19-2.1-4.25-4.07-6.43-6.16C158.05,41.3,162.93,46.01,163.1,47.41z"/>
	<path d="M141.49,97.12c3.2-1.46,6.4-2.93,9.52-4.35C150.66,93.87,143.2,97.35,141.49,97.12z"/>
	<path d="M169.03,68.7c-0.64-4.33-1.27-8.66-1.9-12.9C167.96,56.92,169.5,67.19,169.03,68.7z"/>
	<path d="M167.54,68.5c-0.26-0.2-0.42-0.27-0.42-0.33c-0.01-3.94-0.33-7.84-1.26-11.68C167.26,60.31,167.47,64.29,167.54,68.5z"/>
	<path d="M140.62,98.84c3.09-1.39,6.19-2.79,9.28-4.18c0.04,0.09,0.08,0.18,0.12,0.28c-2.97,1.67-6.04,3.11-9.28,4.15
		C140.7,99,140.66,98.92,140.62,98.84z"/>
	<path d="M150.34,100.23c-3.48,2.13-7.17,3.83-11.02,5.15c-0.03-0.07-0.06-0.13-0.09-0.2C142.94,103.53,146.64,101.88,150.34,100.23
		z"/>
	<path d="M142.3,77.89c-0.43,1.95-0.85,3.9-1.3,5.84c-0.03,0.15-0.27,0.25-0.41,0.37c-0.08-0.17-0.25-0.37-0.22-0.52
		c0.36-1.82,0.74-3.64,1.14-5.45c0.04-0.18,0.31-0.3,0.47-0.45C142.09,77.75,142.19,77.82,142.3,77.89z"/>
	<path d="M138.81,104.02c1.99-0.81,4.1-1.51,6.07-2.49c1.94-0.96,3.75-2.2,5.59-3.31C149.63,99.88,140.92,104.2,138.81,104.02z"/>
	<path d="M152.71,34.7c-3.23-1.38-6.29-2.69-9.26-3.96C144.41,30.41,151.41,33.26,152.71,34.7z"/>
	<path d="M139.23,83.47c0.04-0.42,0.05-0.85,0.13-1.27c0.24-1.29,0.48-2.58,0.76-3.86c0.04-0.18,0.26-0.33,0.39-0.49
		c0.1,0.21,0.32,0.44,0.29,0.62c-0.28,1.56-0.6,3.11-0.93,4.66c-0.03,0.16-0.23,0.29-0.36,0.43
		C139.42,83.54,139.33,83.5,139.23,83.47z"/>
	<path d="M124.06,44.26c-2.34,1.48-4.68,2.96-7.02,4.45c-0.08-0.12-0.16-0.25-0.24-0.37c2.34-1.49,4.67-2.97,7.01-4.46
		C123.9,44,123.98,44.13,124.06,44.26z"/>
	<path d="M162.75,55.2c1.11,3.25,2.04,6.52,1.53,10.01C164.38,61.77,163.47,58.5,162.75,55.2z"/>
	<path d="M157.86,40.67c0.93,0.06,5.68,4.62,5.8,5.66C161.76,44.48,159.86,42.63,157.86,40.67z"/>
	<path d="M142.63,95.32c0.22-0.69,5.48-3.02,6.3-2.71C146.88,93.5,144.83,94.38,142.63,95.32z"/>
	<path d="M53.45,106.73c0.86-0.23,1.61-0.43,2.36-0.62c0.55-0.13,0.81-0.41,0.96-1.01c0.24-0.98,0.69-1.91,1.09-2.84
		c0.06-0.13,0.41-0.28,0.5-0.22c0.16,0.1,0.34,0.39,0.3,0.54c-0.12,0.43-0.36,0.82-0.54,1.23c-0.24,0.57-0.51,1.14-0.68,1.73
		c-0.19,0.67-0.55,1.09-1.25,1.24c-0.77,0.17-1.53,0.4-2.28,0.6c0.59,1.55,1.15,2.93,1.63,4.34c0.53,1.55,0.58,3.11-0.28,4.6
		c-0.12,0.21-0.24,0.42-0.4,0.6c-0.78,0.84-4.14,1.56-5.21,1.12c-0.16-0.07-0.35-0.16-0.44-0.29c-0.89-1.26-1.61-2.69-1.24-4.19
		c0.46-1.81,1.26-3.55,2.07-5.25c0.33-0.7,1.07-1.22,1.73-1.94c-0.15-0.22-0.44-0.62-0.71-1.04c-1.03-1.55-2.1-3.04-2.4-4.97
		c-0.11-0.73-0.63-1.4-0.96-2.1c-0.13-0.27-0.26-0.54-0.39-0.81c0.11-0.07,0.22-0.14,0.33-0.21c0.5,0.76,1.13,1.47,1.49,2.3
		C50.26,102.15,51.79,104.49,53.45,106.73z M52.39,107.23c-0.48,0.42-1.03,0.7-1.27,1.15c-0.66,1.2-1.17,2.48-1.76,3.72
		c-0.73,1.53-0.55,3.04,0.2,4.47c0.2,0.38,0.83,0.77,1.24,0.75c0.79-0.03,1.58-0.3,2.35-0.56c0.98-0.33,1.91-1.71,1.74-2.88
		C54.53,111.58,53.87,109.35,52.39,107.23z"/>
	<path d="M47.85,86.4c-0.51-0.47-0.84-0.76-1.14-1.07c-1.04-1.05-1.29-2.26-0.7-3.62c0.83-1.93,2.07-3.57,3.66-4.94
		c0.34-0.29,0.67-0.73,1.24-0.28c0.11,0.09,0.43-0.16,0.65-0.14c0.46,0.05,1.23,0.06,1.33,0.3c0.64,1.63,1.7,3.17,1.51,5.02
		c-0.08,0.73-0.34,1.59-0.83,2.09c-1.1,1.13-2.36,2.11-3.6,3.1c-0.99,0.8-2.18,0.42-3.29,0.38c-1.01-0.04-1.95,0-2.81,0.62
		c-1.04,0.75-2.16,0.59-3.27,0.31c-0.01-0.12-0.02-0.25-0.03-0.37c0.29,0,0.59,0.05,0.87-0.01c0.65-0.13,1.51-0.1,1.91-0.5
		c1.16-1.17,2.47-1.19,3.91-0.96C47.35,86.35,47.47,86.35,47.85,86.4z M52.08,76.93c-1.23,0.77-2.51,1.31-3.42,2.22
		c-0.86,0.86-1.42,2.07-1.92,3.22c-0.2,0.45-0.07,1.23,0.21,1.67c0.45,0.72,1.15,1.28,1.74,1.91c0.48,0.51,0.92,0.39,1.4-0.03
		c0.81-0.71,1.64-1.41,2.48-2.08c0.98-0.78,1.34-1.77,0.96-2.95C53.12,79.62,52.61,78.37,52.08,76.93z"/>
	<path d="M62.81,76.31c0.17-0.23,0.3-0.51,0.52-0.68c1.31-1.04,2.57-2.19,4-3.04c0.94-0.56,2.14-0.66,3.21-0.99
		c0.27-0.08,0.57-0.24,0.72-0.46c1.11-1.56,2.06-3.27,3.86-4.17c0.3-0.15,0.74-0.05,1.11-0.05c0.16,0,0.32,0.07,0.47,0.05
		c0.21-0.02,0.4-0.1,0.61-0.16c1.41-0.36,2.34-0.07,2.92,0.91c0.51,0.86,0.33,2.01-0.52,2.98c-0.95,1.08-1.91,2.14-2.89,3.19
		c-0.17,0.18-0.46,0.35-0.69,0.36c-1.23,0.03-2.46,0.03-3.68-0.02c-0.71-0.03-1.19-0.42-1.27-1.16c-0.07-0.68-0.42-0.72-1.05-0.7
		c-2.11,0.08-3.45,1.55-5.02,2.62c-0.52,0.35-0.97,0.8-1.47,1.18c-0.19,0.15-0.42,0.23-0.64,0.35
		C62.94,76.45,62.87,76.38,62.81,76.31z M74.58,73.35c1.08,0.43,1.85-0.14,2.49-1.18c0.36-0.57,0.96-0.98,1.41-1.5
		c0.37-0.43,0.73-0.88,0.99-1.37c0.39-0.72-0.09-1.85-0.85-1.77c-1.34,0.13-2.86,0.25-3.92,0.95c-1.08,0.71-1.75,2.08-2.48,3.24
		c-0.49,0.78,0.01,1.56,0.93,1.62C73.57,73.37,73.99,73.35,74.58,73.35z"/>
	<path d="M73.76,100.44c-1.82,0.16-4.15-2.01-4.5-3.29c-0.4-1.46,0.76-2.29,1.53-3.25c0.59-0.74,1.36-0.89,2.26-0.67
		c0.52,0.12,1.06,0.2,1.59,0.18c1.82-0.06,3.6-0.06,5.05,1.32c0.95,0.9,1.16,1.87,0.46,2.98c-0.75,1.18-1.56,2.19-3.24,2.13
		C75.88,99.8,74.82,100.22,73.76,100.44z M72.34,94.59c-0.83,0.05-2.18,1.49-2.03,2.23c0.28,1.35,2.68,2.9,4.06,2.63
		c0.74-0.14,1.48-0.42,2.21-0.39c1.5,0.06,2.22-0.86,2.86-1.95c0.42-0.71,0.21-1.32-0.43-1.81c-0.89-0.69-1.89-1.07-3.01-1.01
		C74.78,94.36,73.57,94.49,72.34,94.59z"/>
	<path d="M86.15,120.1c-0.33-3.79,2.76-6.11,5.61-6.87c0.25-0.07,0.7,0.02,0.85,0.2c1.72,2.07,1.67,6-0.07,8.07
		c-0.96,1.15-3.55,1.84-4.94,1.29C86.32,122.28,86.03,121.24,86.15,120.1z M91.96,113.98c-3.63,1.68-4.91,3.37-4.8,6.52
		c0.04,0.97,0.42,1.48,1.33,1.47c1.57-0.01,2.97-0.4,3.95-1.85C93.95,117.92,92.57,116.04,91.96,113.98z"/>
	<path d="M99.49,107.38c-4.6-2.53-14.15-17.03-12.91-19.76C88.82,95.7,94.11,101.57,99.49,107.38z"/>
	<path d="M109.17,110.52c-0.28,3.15-11.81,13.82-14.75,14.31c0.38-0.38,0.57-0.66,0.83-0.83c3.59-2.37,6.78-5.23,9.71-8.37
		c1.28-1.37,2.37-2.93,3.55-4.4C108.68,111.03,108.87,110.85,109.17,110.52z"/>
	<path d="M40.87,117.6c-2.43-1.12-10.19-14.99-9.88-17.24c1.48,2.96,2.83,5.99,4.47,8.85C37.12,112.09,39.06,114.81,40.87,117.6z"/>
	<path d="M58.8,127.63c8.5,1.97,17.01,3.83,25.81,2.03c0.01,0.11,0.03,0.22,0.04,0.33c-0.57,0.12-1.13,0.31-1.71,0.35
		c-2.66,0.17-5.34,0.52-7.99,0.39c-4.97-0.25-9.87-1.13-14.7-2.38c-0.5-0.13-1.01-0.26-1.51-0.39
		C58.76,127.85,58.78,127.74,58.8,127.63z"/>
	<path d="M88.61,95.51c2.77,4.27,5.45,8.41,8.26,12.74C95.5,107.6,88.49,96.75,88.61,95.51z"/>
	<path d="M88.29,98.29c2.55,3.44,5.09,6.87,7.64,10.31c-0.09,0.07-0.18,0.14-0.27,0.21c-2.94-3.13-5.22-6.76-7.74-10.21
		C88.04,98.49,88.17,98.39,88.29,98.29z"/>
	<path d="M99.95,118.51c0.23-0.33,0.43-0.69,0.71-0.97c1.79-1.77,3.6-3.51,5.39-5.28c0.51-0.5,0.96-1.07,1.47-1.57
		c0.17-0.17,0.44-0.26,0.75-0.26c-2.38,3.07-5.29,5.6-7.95,8.36C100.21,118.7,100.08,118.6,99.95,118.51z"/>
	<path d="M87.18,99.58c2.21,3.21,4.42,6.41,6.62,9.62c0.04,0.06-0.03,0.21-0.05,0.33C92.26,108.77,87.03,100.79,87.18,99.58z"/>
	<path d="M46.86,63.67c-0.71-1.2-0.55-7.89,0.24-9.71c0.13,0.4,0.28,0.62,0.27,0.84c-0.11,2.8-0.23,5.6-0.36,8.4
		C47,63.31,46.94,63.41,46.86,63.67z"/>
	<path d="M34.94,105.15c2.21,3.55,4.42,7.11,6.64,10.66c-2.73-3.22-4.92-6.79-6.84-10.52C34.81,105.24,34.87,105.19,34.94,105.15z"
		/>
	<path d="M82.41,128.42c-2.41,0.48-12.6,0.13-14.57-0.94C72.66,128.45,77.54,128.33,82.41,128.42z"/>
	<path d="M105.27,109.12c-0.29,1.39-4.81,6-6.65,6.79c0.29-0.44,0.4-0.71,0.59-0.9c1.8-1.83,3.61-3.64,5.42-5.46
		C104.77,109.42,104.96,109.33,105.27,109.12z"/>
	<path d="M45.88,64.38c-0.43-1.55-0.5-7.65,0.23-9.38c0,3.28,0,6.33,0,9.38C46.03,64.38,45.96,64.38,45.88,64.38z"/>
	<path d="M65.19,63.42c3.69-1.26,7.38-2.52,11.07-3.79c0.04,0.1,0.07,0.21,0.11,0.31c-3.69,1.26-7.38,2.53-11.07,3.79
		C65.26,63.63,65.23,63.53,65.19,63.42z"/>
	<path d="M39.11,104.68c1.12,2.1,2.23,4.2,3.35,6.3c-0.05,0.06-0.11,0.12-0.16,0.18c-0.19-0.14-0.46-0.23-0.56-0.42
		c-0.96-1.76-1.9-3.54-2.82-5.32c-0.1-0.19-0.08-0.43-0.11-0.65C38.91,104.73,39.01,104.7,39.11,104.68z"/>
	<path d="M83.42,126.88c-4.06,0.34-8.05-0.03-12.03-0.66C75.39,126.44,79.39,126.66,83.42,126.88z"/>
	<path d="M82.94,125.59c-3.5,0.34-6.96-0.09-10.4-0.76C76.01,125.08,79.47,125.34,82.94,125.59z"/>
	<path d="M105.78,110.92c-1.59,2.13-3.49,3.94-5.71,5.38c-0.08-0.05-0.1-0.06-0.12-0.08c-0.02-0.02-0.04-0.05-0.05-0.07
		c-0.01-0.03-0.03-0.07-0.01-0.09c0.07-0.1,0.13-0.2,0.22-0.28C102,114.16,103.89,112.54,105.78,110.92z"/>
	<path d="M41.08,112.3c-1.77-2.22-3.12-4.71-4.19-7.34c0.07-0.04,0.13-0.07,0.2-0.11C38.42,107.34,39.75,109.82,41.08,112.3z"/>
	<path d="M98.38,113.68c1.91-1.9,3.83-3.8,5.76-5.72C102.46,110.12,100.37,111.84,98.38,113.68z"/>
	<path d="M66.23,64.12c2.41-0.78,4.81-1.55,7.22-2.33c0.03,0.1,0.07,0.21,0.1,0.31c-2.4,0.79-4.8,1.58-7.2,2.36
		C66.3,64.36,66.26,64.24,66.23,64.12z"/>
	<path d="M44.71,63.21c-0.23-2.26-0.92-4.53,0-6.79C44.71,58.68,44.71,60.95,44.71,63.21z"/>
	<path d="M73.22,122.41c2.18,0.29,4.37,0.59,6.55,0.88c-0.01,0.07-0.02,0.15-0.03,0.22c-2.22-0.01-4.39-0.39-6.55-0.82
		C73.19,122.6,73.21,122.5,73.22,122.41z"/>
	<path d="M67.67,64.61c1.23-0.28,2.46-0.55,3.69-0.83c0.03,0.11,0.06,0.23,0.09,0.34c-1.22,0.29-2.45,0.58-3.67,0.86
		C67.74,64.86,67.71,64.74,67.67,64.61z"/>
	<path d="M100.94,107.85c-1.27,1.08-2.53,2.16-3.8,3.24c-0.07-0.08-0.13-0.15-0.2-0.23c1.27-1.08,2.54-2.15,3.81-3.23
		C100.81,107.7,100.87,107.77,100.94,107.85z"/>
	<path d="M88.47,30.86c0.41-0.72,0.84-1.42,1.22-2.15c0.59-1.14,1.04-2.38,1.75-3.44c0.57-0.84,1.47-1.46,2.17-2.22
		c0.23-0.24,0.35-0.6,0.46-0.93c0.16-0.47,0.18-1.01,0.43-1.42c1.12-1.82,2.79-2.87,4.91-3.12c1.57-0.19,3.14-0.32,4.72-0.44
		c0.38-0.03,0.85,0.01,1.13,0.23c0.88,0.68,1.59,0.23,2.25-0.26c1.29-0.95,2.72-1.41,4.32-1.52c1.12-0.07,2.22-0.37,3.39-0.37
		c-0.53,0.18-1.06,0.37-1.6,0.53c-0.37,0.11-0.76,0.24-1.14,0.24c-2.2,0.02-3.9,1.22-5.63,2.36c0.41,1.1,0.24,1.6-0.72,2.38
		c-2.67,2.19-5.8,2.56-9.09,2.36c-0.56-0.03-1.12-0.15-1.69-0.21c-0.17-0.02-0.39-0.01-0.51,0.09c-1.33,1.05-2.72,1.97-3.47,3.66
		c-0.69,1.55-1.76,2.94-2.67,4.39C88.64,30.99,88.56,30.93,88.47,30.86z M94.99,21.93c3.59,1.01,8.92,0.01,11.13-2.77
		C103.94,16.42,96.46,18.24,94.99,21.93z"/>
	<path d="M118.29,25.65c0.41-0.51,0.67-0.91,1.01-1.22c1.32-1.15,2.68-2.27,4.1-3.47c-1.23-0.99-3.66-1.03-1.97-3.53
		c-1.12,0.14-2.08,0.23-3.03,0.38c-1.42,0.22-2.83,0.5-4.26,0.7c-1.36,0.19-2.28,0.94-3.03,2.02c-0.4,0.57-0.87,1.09-1.41,1.54
		c1.07-1.57,1.94-3.39,4.02-3.86c2.19-0.5,4.38-1.04,6.61-1.29c1.17-0.13,2.14-0.36,3.17-1c3.33-2.04,6.79,0.4,7.74,3.14
		c3.58-0.03,7.21-0.8,10.85,0.13c-0.23,0.02-0.47,0.06-0.7,0.07c-1.99,0.07-3.99,0.13-5.98,0.21c-0.65,0.03-1.31,0.19-1.96,0.19
		c-1.13,0-2.18,0.16-3.3,0.46c-1.74,0.46-3.61,0.45-5.43,0.59c-0.53,0.04-0.93,0.1-1.26,0.61c-1.17,1.83-3,2.98-4.63,4.32
		C118.77,25.69,118.66,25.65,118.29,25.65z M121.69,18.83c0.76,0.81,1.67,1.2,2.63,1.1c1.98-0.2,3.93-0.56,6.16-0.9
		c-0.45-0.65-0.7-1.22-1.13-1.57c-0.7-0.56-1.47-1.18-2.3-1.38C124.59,15.49,123.1,17.04,121.69,18.83z"/>
	<path d="M78.66,36.36c-0.89-0.01-1.69-0.69-1.7-1.62c-0.02-1.32-0.25-2.59-0.48-3.89c-0.15-0.83-0.42-1.53-0.81-2.24
		c-0.6-1.1-0.46-1.73,0.57-2.46c1-0.71,2.02-1.4,3.1-1.97c0.66-0.35,1.36-0.78,2.24-0.24c0.37,0.22,1.04-0.08,1.58-0.1
		c0.64-0.02,1.41-0.17,1.72,0.59c0.32,0.79-0.17,1.36-0.8,1.81c-0.15,0.1-0.29,0.21-0.45,0.3c-0.79,0.42-1.59,0.82-2.38,1.25
		c-1.1,0.6-2.24,1.16-3.28,1.86c-0.34,0.23-0.56,0.84-0.57,1.28c-0.02,1,0.18,2.01,0.19,3.01c0,0.83,0.12,1.54,0.85,2.05
		C78.54,36.05,78.58,36.21,78.66,36.36z M84.61,24.65c-0.56-0.12-0.82-0.24-1.06-0.21c-2.2,0.27-4.38,0.57-6.17,2.09
		c-1.22,1.04-1.24,1.03-0.36,2.41c0.27-0.07,0.58-0.09,0.83-0.22c1.81-0.92,3.62-1.84,5.4-2.82C83.71,25.65,84.04,25.19,84.61,24.65
		z"/>
	<path d="M59.21,46.98c1.28-2.35,2.91-4.41,5.3-5.88c-0.49-0.68-0.36-1.27,0.15-1.8c1.49-1.52,3-3.01,4.96-3.94
		c0.71-0.33,1.38-0.22,1.9,0.27c0.53,0.5,0.42,1.54-0.19,2.11c-1,0.94-2.02,1.87-3.1,2.72c-0.45,0.35-1.06,0.7-1.6,0.7
		c-2.11,0.02-3.37,1.4-4.63,2.76c-0.69,0.74-1.2,1.63-1.81,2.45c-0.22,0.3-0.46,0.57-0.69,0.86C59.42,47.14,59.31,47.06,59.21,46.98
		z M71.08,36.07c-3.01,0.25-4.24,2.36-5.93,4.15c1.28,0.27,2.18-0.01,2.95-0.73c0.81-0.76,1.62-1.51,2.39-2.3
		C70.73,36.95,70.82,36.57,71.08,36.07z"/>
	<path d="M75.51,50.46c-0.66,1.51-18.24,7.29-21.58,6.96c0.28-0.14,0.54-0.34,0.84-0.42c4.38-1.24,8.78-2.39,13.13-3.72
		c2.4-0.73,4.71-1.77,7.05-2.67C75.09,50.56,75.23,50.53,75.51,50.46z"/>
	<path d="M83.5,50.51c6.32-2.67,12.64-5.34,18.96-8.01c0.05,0.04,0.11,0.08,0.16,0.12c-0.19,0.2-0.35,0.49-0.59,0.59
		c-4.41,1.94-8.82,3.88-13.24,5.78c-1.34,0.58-2.72,1.08-4.09,1.61c-0.35,0.13-0.71,0.21-1.07,0.31
		C83.6,50.78,83.55,50.64,83.5,50.51z"/>
	<path d="M113.64,39.17c4.96-2.99,10.39-4.98,15.59-7.44c0.07,0.14,0.14,0.29,0.2,0.43c-5.23,2.43-10.45,4.85-15.68,7.28
		C113.72,39.34,113.68,39.26,113.64,39.17z"/>
	<path d="M74.48,54.7c-4.35,1.71-8.73,3.33-13.22,4.64c-0.04-0.11-0.08-0.21-0.11-0.32c4.4-1.55,8.81-3.11,13.21-4.66
		C74.4,54.47,74.44,54.58,74.48,54.7z"/>
	<path d="M85.7,51.1c3.36-1.55,6.71-3.09,10.07-4.64c0.05,0.12,0.11,0.23,0.16,0.35c-3.25,1.76-6.7,3.12-10.05,4.68
		C85.82,51.36,85.76,51.23,85.7,51.1z"/>
	<path d="M73.15,54.01C68.2,55.5,63.24,57,58.29,58.49c-0.03-0.11-0.06-0.21-0.09-0.32c4.96-1.49,9.91-2.98,14.87-4.47
		C73.09,53.8,73.12,53.9,73.15,54.01z"/>
	<path d="M104.82,11.89c5.15-1.44,10.32-2.69,15.69-2.83C115.19,9.52,110.01,10.74,104.82,11.89z"/>
	<path d="M79.34,29.82c2.26-1.46,4.3-2.79,6.43-4.17C85.72,26.59,80.57,29.99,79.34,29.82z"/>
	<path d="M122.41,33.68c-1.23,0.45-2.47,0.87-3.68,1.36c-1.17,0.47-2.3,1.01-3.45,1.52c-0.16,0.07-0.35,0.08-0.61-0.07
		c0.14-0.1,0.26-0.24,0.42-0.31c2.54-1.08,5.07-2.15,7.61-3.22c0.33-0.14,0.81-0.49,0.62,0.35
		C123.01,33.43,122.71,33.56,122.41,33.68z"/>
	<path d="M122.41,33.68c0.3-0.12,0.61-0.25,0.91-0.37c0.69-0.28,1.39-0.56,2.08-0.85c0.03,0.07,0.06,0.15,0.09,0.22
		c-3.65,1.71-7.3,3.41-10.96,5.12c-0.04-0.08-0.08-0.17-0.12-0.25C117.08,36.26,119.74,34.97,122.41,33.68z"/>
	<path d="M86.88,51.33c2.64-1.12,5.29-2.24,7.93-3.36c0.05,0.13,0.11,0.26,0.16,0.39c-2.64,1.13-5.29,2.25-7.93,3.38
		C86.99,51.6,86.93,51.47,86.88,51.33z"/>
	<path d="M63.36,39.06c-1.87,2.4-3.73,4.8-5.6,7.2c-0.07-0.05-0.14-0.1-0.2-0.16c1.69-2.54,3.51-4.99,5.62-7.2
		C63.24,38.95,63.3,39.01,63.36,39.06z"/>
	<path d="M55.6,47c1.62-2.47,3.24-4.94,4.86-7.4c0.11,0.07,0.21,0.14,0.32,0.21c-1.62,2.47-3.25,4.94-4.87,7.42
		C55.81,47.14,55.71,47.07,55.6,47z"/>
	<path d="M104.74,12.9c2.87-0.75,5.73-1.51,8.6-2.26c0.03,0.1,0.05,0.2,0.08,0.3c-2.88,0.75-5.76,1.51-8.63,2.26
		C104.77,13.1,104.76,13,104.74,12.9z"/>
	<path d="M104.92,13.94c2.3-0.68,4.61-1.35,6.91-2.03c0.04,0.12,0.07,0.24,0.11,0.36c-2.31,0.68-4.62,1.36-6.92,2.04
		C104.99,14.19,104.96,14.06,104.92,13.94z"/>
	<path d="M58.95,40.93c-1.31,2.01-2.63,4.02-4,6.11C54.94,46.14,57.82,41.63,58.95,40.93z"/>
	<path d="M85.14,27.96c-1.37,1.14-2.89,2.06-4.5,2.82c-0.05-0.08-0.11-0.16-0.16-0.25c1.5-0.94,2.99-1.88,4.49-2.82
		C85.03,27.8,85.08,27.88,85.14,27.96z"/>
	<path d="M19.42,56.48c-0.24,0.18-0.48,0.36-0.72,0.55c-0.08-0.05-0.16-0.1-0.23-0.16c0.2-0.42,0.4-0.83,0.57-1.2
		c-0.64-0.29-1.31-0.53-1.92-0.88c-0.67-0.39-1.04-1.03-0.79-1.82c0.52-1.67,1-3.37,1.66-4.98c0.55-1.33,1.44-1.58,2.79-1.01
		c0.44,0.19,0.87,0.42,1.25,0.69c0.75,0.54,0.98,1.44,0.63,2.29c-0.28,0.68-0.6,1.35-0.79,2.09c0.47-0.74,0.94-1.48,1.41-2.23
		c0.11,0.04,0.22,0.08,0.34,0.12c-0.09,0.31-0.11,0.65-0.27,0.91c-0.68,1.12-1.4,2.21-2.11,3.32
		C20.63,54.95,20.03,55.72,19.42,56.48z M17.13,53.01c0.29,1.02,0.95,1.49,1.65,1.75c0.26,0.1,0.94-0.34,1.11-0.69
		c0.76-1.51,1.44-3.07,2.07-4.65c0.31-0.77-0.16-1.32-1.32-1.78c-0.97-0.39-1.61-0.29-1.91,0.49
		C18.12,49.77,17.63,51.46,17.13,53.01z"/>
	<path d="M23.75,72.52c0.41-2.2,0.53-4.3,2.18-5.84c0.96-0.89,1.81-1.08,2.92-0.42c0.92,0.54,1.76,1.22,2.57,1.93
		c0.58,0.51,0.54,1.21,0.23,1.9c-0.9,1.99-2.07,3.76-3.92,5.03c-0.94,0.64-2.78,0.19-3.44-0.98C24.01,73.61,23.9,72.98,23.75,72.52z
		 M24.55,72.35c0.17,0.4,0.31,0.96,0.63,1.41c0.67,0.95,1.61,1.03,2.5,0.36c1.15-0.86,2.04-1.92,2.66-3.22
		c0.94-1.94,1.09-1.61-0.63-2.93c-0.38-0.29-0.74-0.61-1.14-0.87c-1-0.64-1.71-0.44-2.48,0.45C24.92,68.91,24.9,70.58,24.55,72.35z"
		/>
	<path d="M47.54,33.01c-0.33,0.51-0.55,1.21-1.02,1.51c-1.55,1.01-3.16,1.95-4.82,2.78c-1.26,0.63-1.74,0.29-2.03-1.13
		c-0.25-1.23-0.11-2.33,0.95-3.15c0.83-0.64,1.69-1.23,2.53-1.85c0.92-0.69,1.94-0.51,2.93-0.29
		C47.02,31.09,47.33,31.66,47.54,33.01z M40.83,36.88c1.81-0.97,3.56-1.89,5.29-2.84c0.56-0.31,0.7-0.82,0.62-1.46
		c-0.16-1.19-1.51-1.45-2.5-0.94c-0.95,0.48-1.85,1.1-2.7,1.75C40.36,34.31,40.18,35.27,40.83,36.88z"/>
	<path d="M5.08,75.86c1.04,5.22,3.3,9.96,5.76,14.65c2.47,4.71,5.91,8.65,9.33,12.65c-2.09-1.53-3.74-3.49-5.27-5.52
		C9.98,91.12,6.46,83.96,5.08,75.86z"/>
	<path d="M26.93,85.9c-1.27,9.09,0.51,17.46,4.36,25.48C27.72,108.52,24.28,88.83,26.93,85.9z"/>
	<path d="M26.85,26.59c-2.62,1.6-4.59,3.61-6.35,5.8c-1.73,2.15-3.29,4.43-5.02,6.78C16.11,36.4,24.4,26.48,26.85,26.59z"/>
	<path d="M11.34,89.12c0.16,0.04,0.39,0.03,0.46,0.13c2.25,3.17,4.49,6.35,6.56,9.65c-2.66-3-4.96-6.27-7.19-9.59
		C11.24,89.24,11.29,89.18,11.34,89.12z"/>
	<path d="M28.74,110.21c-1.84-4.6-3.34-9.3-3.75-14.28C26.24,100.69,27.49,105.45,28.74,110.21z"/>
	<path d="M39.22,55.96c-2.15,2.96-4.31,5.93-6.46,8.89c-0.06-0.01-0.12-0.02-0.18-0.03c0.11-0.3,0.16-0.65,0.34-0.9
		c1.2-1.71,2.42-3.41,3.66-5.1c0.75-1.03,1.54-2.04,2.31-3.06C39,55.83,39.11,55.89,39.22,55.96z"/>
	<path d="M19.42,56.48c0.6-0.77,1.21-1.54,1.81-2.31c0.72-0.82,1.45-1.64,2.15-2.47c0.15-0.18,0.22-0.42,0.33-0.64
		c0.13,0.09,0.27,0.17,0.4,0.26c-0.06,0.26-0.05,0.59-0.21,0.78c-1.23,1.58-2.48,3.13-3.75,4.68c-0.15,0.19-0.39,0.3-0.74,0.56
		C19.42,56.93,19.42,56.71,19.42,56.48z"/>
	<path d="M27.48,109.06c-1.63-3.66-3.15-7.35-3.3-11.44C24.77,101.58,26.25,105.28,27.48,109.06z"/>
	<path d="M17.98,96.78c-1.75-2.38-3.44-4.8-4.98-7.32c0.13-0.09,0.25-0.17,0.38-0.26c1.67,2.43,3.34,4.87,5,7.3
		C18.25,96.59,18.11,96.69,17.98,96.78z"/>
	<path d="M22.53,97.25c1.16,3.57,2.31,7.14,3.51,10.85C25.14,107.35,22.33,98.72,22.53,97.25z"/>
	<path d="M24.15,32.06c-1.91,2.35-3.83,4.69-5.74,7.04c-0.06-0.05-0.12-0.1-0.18-0.15C19.9,36.42,21.74,34.01,24.15,32.06z"/>
	<path d="M20.15,57.7c1.39-1.87,2.79-3.73,4.18-5.6c0.11,0.08,0.22,0.16,0.33,0.24c-1.2,2-2.81,3.71-4.12,5.63
		C20.41,57.88,20.28,57.79,20.15,57.7z"/>
	<path d="M23.64,31.01c-1.97,2.37-4.06,4.86-6.08,7.28C17.74,36.96,22.61,31.21,23.64,31.01z"/>
	<path d="M37.98,59.13c-1.41,1.91-2.82,3.82-4.23,5.74c-0.08-0.06-0.16-0.11-0.24-0.17c1.2-2.07,2.66-3.94,4.2-5.77
		C37.8,58.99,37.89,59.06,37.98,59.13z"/>
	<path d="M14.36,88.18c1.41,1.99,2.82,3.97,4.23,5.96c-0.1,0.07-0.2,0.14-0.3,0.21c-1.41-1.98-2.83-3.95-4.24-5.93
		C14.15,88.34,14.26,88.26,14.36,88.18z"/>
	<path d="M20.26,93.55c-1.92-1.88-3.63-3.91-4.79-6.36C17.07,89.31,18.66,91.43,20.26,93.55z"/>
	<path d="M52.19,29.67c1.71,0.93,3.42,1.86,5.12,2.79c-0.06,0.12-0.13,0.24-0.19,0.35c-1.71-0.92-3.42-1.85-5.13-2.77
		C52.05,29.92,52.12,29.8,52.19,29.67z"/>
	<path d="M54.39,28.84c1.95,1.07,3.91,2.14,5.86,3.21c-0.06,0.11-0.12,0.22-0.18,0.32c-1.95-1.08-3.9-2.15-5.84-3.23
		C54.28,29.04,54.34,28.94,54.39,28.84z"/>
	<path d="M53.35,29.36c1.86,1.06,3.72,2.13,5.59,3.19c-0.05,0.09-0.1,0.18-0.15,0.26c-1.87-1.07-3.74-2.14-5.61-3.21
		C53.24,29.53,53.3,29.44,53.35,29.36z"/>
	<path d="M108.49,67.07c-1.45-1.46-1.16-3.94,0.3-5.02c1.73-1.28,3.87-1.4,5.72-2.31c0.29-0.14,1.01,0.05,1.16,0.3
		c0.24,0.4,0.38,1.1,0.19,1.48c-1.21,2.3-2.75,3.67-5.21,4.83c0.14-0.76,0.27-1.45,0.4-2.15c0.12-0.64,0.25-1.28,0.37-1.92
		c-0.09-0.02-0.17-0.05-0.26-0.07c-0.13,0.32-0.26,0.64-0.4,0.96c-0.02,0-0.05-0.01-0.07-0.01c0.05-0.33,0.1-0.65,0.16-0.98
		c-0.08-0.02-0.16-0.05-0.24-0.07c-0.09,0.3-0.19,0.6-0.26,0.9c-0.27,1.23-0.51,2.46-0.79,3.68c-0.06,0.24-0.27,0.44-0.41,0.65
		c-0.07-0.03-0.14-0.06-0.21-0.09c0.24-1.78,0.48-3.55,0.72-5.33c-0.12-0.02-0.25-0.03-0.37-0.05
		C109.03,63.57,108.77,65.25,108.49,67.07z M111.24,65.27c0.15,0.04,0.31,0.08,0.46,0.12c0.24-1.08,0.49-2.16,0.73-3.24
		c-0.12-0.03-0.24-0.06-0.36-0.09C111.51,63.05,111.39,64.16,111.24,65.27z"/>
	<path d="M110.75,63.65c-0.21,1.07-0.42,2.14-0.63,3.21c-0.09-0.02-0.18-0.04-0.28-0.06c0.23-1.06,0.46-2.13,0.7-3.19
		C110.61,63.63,110.68,63.64,110.75,63.65z"/>
	<path d="M131.95,106.75c0.12-0.94,0.23-1.67,0.31-2.4c0.07-0.68,0.11-1.37,0.16-2.05c-0.14-0.01-0.27-0.02-0.41-0.03
		c-0.16,1.42-0.33,2.83-0.49,4.26c-0.62,0.02-0.7-0.04-0.6-0.68c0.19-1.21,0.4-2.42,0.59-3.64c0.03-0.21-0.03-0.43-0.06-0.65
		c-0.13-0.01-0.27-0.02-0.4-0.03c-0.26,1.63-0.52,3.26-0.78,4.89c-0.1-0.01-0.19-0.02-0.29-0.03c0.23-1.88,0.45-3.75,0.68-5.63
		c-0.14-0.02-0.27-0.03-0.41-0.05c-0.27,1.82-0.54,3.65-0.81,5.47c-0.09,0.03-0.18,0.05-0.28,0.08c-0.09-0.24-0.29-0.5-0.24-0.71
		c0.22-1.06,0.52-2.1,0.76-3.15c0.09-0.36,0.11-0.74,0.17-1.1c-0.12-0.03-0.24-0.06-0.36-0.09c-0.37,1.42-0.73,2.84-1.09,4.25
		c-0.76-0.67-1.22-2.68-0.85-3.69c0.4-1.08,1.35-1.67,2.69-1.74c1.72-0.09,3.25,0.48,4.71,1.29c0.83,0.46,1.17,1.27,1.23,2.18
		c0.04,0.63-0.15,1.12-0.85,1.41c-0.82,0.34-1.58,0.85-2.36,1.28C132.7,106.36,132.42,106.5,131.95,106.75z"/>
	<path d="M132.34,77.59c0.32-0.09,0.67-0.14,0.97-0.28c0.43-0.2,0.79-0.54,1.23-0.7c1.19-0.44,2.05-0.03,2.54,1.11
		c0.13,0.3,0.31,0.58,0.48,0.86c0.66,1.06,0.44,2.2-0.65,2.85c-1.33,0.79-2.71,1.5-4.07,2.26c-0.64,0.36-1.04,0.17-1.37-0.45
		c-1.12-2.13-0.91-4.02,0.71-5.86C132.23,77.46,132.29,77.53,132.34,77.59z M133.7,79.45c0.04-0.37,0.07-0.74,0.11-1.11
		c-0.15-0.03-0.3-0.06-0.45-0.08c-0.37,1.23-0.74,2.45-1.11,3.68c0.13,0.04,0.26,0.08,0.39,0.12c0.2-0.69,0.38-1.39,0.62-2.07
		c0.07-0.21,0.3-0.37,0.46-0.55c-0.12,0.61-0.24,1.21-0.35,1.82c-0.11,0.6-0.2,1.19-0.3,1.79c0.73-0.63,1.71-4.83,1.38-5.56
		C134.17,78.23,133.94,78.84,133.7,79.45z"/>
	<path d="M104.2,93.49c0.07-0.55,0.1-1.33,0.29-2.08c0.25-0.96,0.74-1.17,1.72-1.06c1.48,0.17,2.51,1.1,3.44,2.11
		c0.79,0.87,0.38,2.02,0.26,3.01c-0.25,2.06-0.32,2.06-2.42,2.31c-0.25,0.03-0.55,0.01-0.78-0.09
		C105.27,97.02,104.18,95.27,104.2,93.49z"/>
	<path d="M152.32,92.82c-0.05-1.61,0.09-3.18,1.52-4.2c0.53-0.38,1.29-0.44,1.95-0.66c1.65-0.56,3.05-0.05,4.31,1.02
		c0.7,0.6,0.84,1.29,0.36,2.07c-0.92,1.5-2.03,2.79-3.78,3.43c-0.84,0.3-1.61,0.8-2.44,1.13c-1.06,0.42-1.73-0.03-1.84-1.17
		C152.35,93.89,152.35,93.35,152.32,92.82z"/>
	<path d="M143.15,48.2c-0.08,0.7-0.11,1.21-0.21,1.71c-0.26,1.31-2.06,2.88-3.44,3.04c-0.06,0.01-0.12,0-0.17-0.01
		c-1.11-0.12-2.81-3.05-2.22-4c0.49-0.79,1.12-1.53,1.82-2.12c1-0.84,3.25-0.43,3.99,0.63C143.08,47.71,143.11,48.06,143.15,48.2z"
		/>
	<path d="M160.74,60.53c-0.17,0.99-0.28,1.79-0.47,2.57c-0.06,0.26-0.27,0.55-0.5,0.7c-0.71,0.49-1.45,0.95-2.2,1.37
		c-0.23,0.13-0.6,0.24-0.82,0.14c-1.45-0.62-2.36-2.73-1.75-4.15c1.12-2.61,3.01-2.93,5.22-1.45
		C160.5,59.9,160.62,60.33,160.74,60.53z"/>
	<path d="M52.39,107.23c1.48,2.12,2.15,4.35,2.5,6.66c0.18,1.17-0.75,2.55-1.74,2.88c-0.76,0.26-1.56,0.53-2.35,0.56
		c-0.42,0.02-1.04-0.37-1.24-0.75c-0.75-1.43-0.93-2.94-0.2-4.47c0.59-1.24,1.11-2.52,1.76-3.72
		C51.36,107.93,51.91,107.64,52.39,107.23z"/>
	<path d="M52.08,76.93c0.53,1.44,1.04,2.69,1.45,3.96c0.38,1.18,0.01,2.17-0.96,2.95c-0.84,0.67-1.67,1.37-2.48,2.08
		c-0.48,0.41-0.92,0.54-1.4,0.03c-0.59-0.63-1.29-1.19-1.74-1.91c-0.28-0.44-0.41-1.22-0.21-1.67c0.5-1.14,1.06-2.35,1.92-3.22
		C49.57,78.24,50.86,77.7,52.08,76.93z"/>
	<path d="M74.58,73.35c-0.59,0-1.01,0.02-1.43,0c-0.91-0.06-1.42-0.84-0.93-1.62c0.73-1.16,1.41-2.53,2.48-3.24
		c1.06-0.7,2.58-0.82,3.92-0.95c0.76-0.08,1.24,1.05,0.85,1.77c-0.27,0.49-0.62,0.94-0.99,1.37c-0.45,0.52-1.06,0.93-1.41,1.5
		C76.42,73.21,75.66,73.78,74.58,73.35z"/>
	<path d="M72.34,94.59c1.22-0.1,2.44-0.23,3.66-0.3c1.12-0.06,2.12,0.32,3.01,1.01c0.64,0.49,0.85,1.1,0.43,1.81
		c-0.64,1.09-1.37,2.01-2.86,1.95c-0.73-0.03-1.47,0.25-2.21,0.39c-1.38,0.27-3.78-1.28-4.06-2.63
		C70.16,96.08,71.51,94.64,72.34,94.59z"/>
	<path d="M91.96,113.98c0.61,2.07,1.99,3.94,0.49,6.15c-0.98,1.44-2.38,1.84-3.95,1.85c-0.91,0-1.3-0.5-1.33-1.47
		C87.05,117.34,88.32,115.66,91.96,113.98z"/>
	<path d="M94.99,21.93c1.47-3.69,8.95-5.52,11.13-2.77C103.91,21.95,98.58,22.94,94.99,21.93z"/>
	<path d="M121.69,18.83c1.41-1.79,2.9-3.34,5.36-2.75c0.84,0.2,1.6,0.83,2.3,1.38c0.43,0.34,0.68,0.92,1.13,1.57
		c-2.23,0.34-4.19,0.7-6.16,0.9C123.36,20.03,122.45,19.64,121.69,18.83z"/>
	<path d="M84.61,24.65c-0.57,0.53-0.9,1-1.36,1.25c-1.78,0.98-3.59,1.9-5.4,2.82c-0.25,0.13-0.56,0.15-0.83,0.22
		c-0.88-1.37-0.86-1.37,0.36-2.41c1.79-1.51,3.97-1.82,6.17-2.09C83.79,24.41,84.05,24.54,84.61,24.65z"/>
	<path d="M71.08,36.07c-0.26,0.5-0.35,0.88-0.59,1.12c-0.77,0.79-1.58,1.55-2.39,2.3c-0.77,0.72-1.67,1-2.95,0.73
		C66.84,38.43,68.07,36.32,71.08,36.07z"/>
	<path d="M17.13,53.01c0.5-1.55,0.99-3.24,1.61-4.88c0.29-0.78,0.94-0.87,1.91-0.49c1.15,0.46,1.62,1.01,1.32,1.78
		c-0.62,1.58-1.31,3.13-2.07,4.65c-0.18,0.35-0.85,0.79-1.11,0.69C18.08,54.5,17.42,54.03,17.13,53.01z"/>
	<path d="M24.55,72.35c0.35-1.77,0.38-3.44,1.54-4.79c0.77-0.89,1.48-1.09,2.48-0.45c0.4,0.26,0.76,0.58,1.14,0.87
		c1.72,1.32,1.57,0.99,0.63,2.93c-0.63,1.29-1.51,2.35-2.66,3.22c-0.89,0.67-1.84,0.59-2.5-0.36
		C24.86,73.31,24.72,72.75,24.55,72.35z"/>
	<path d="M40.83,36.88c-0.65-1.61-0.47-2.58,0.71-3.49c0.85-0.65,1.75-1.27,2.7-1.75c0.99-0.5,2.34-0.24,2.5,0.94
		c0.09,0.64-0.06,1.15-0.62,1.46C44.39,34.99,42.65,35.91,40.83,36.88z"/>
	<path d="M111.24,65.27c0.15-1.11,0.27-2.22,0.84-3.21c0.12,0.03,0.24,0.06,0.36,0.09c-0.24,1.08-0.49,2.16-0.73,3.24
		C111.55,65.35,111.4,65.31,111.24,65.27z"/>
	<path d="M133.7,79.45c0.23-0.61,0.47-1.22,0.74-1.95c0.33,0.73-0.65,4.92-1.38,5.56c0.1-0.6,0.19-1.2,0.3-1.79
		c0.11-0.61,0.23-1.21,0.35-1.82C133.72,79.44,133.7,79.45,133.7,79.45z"/>
	<path d="M133.72,79.44c-0.16,0.18-0.38,0.34-0.46,0.55c-0.24,0.68-0.41,1.38-0.62,2.07c-0.13-0.04-0.26-0.08-0.39-0.12
		c0.37-1.23,0.74-2.45,1.11-3.68c0.15,0.03,0.3,0.06,0.45,0.08c-0.04,0.37-0.07,0.74-0.11,1.11
		C133.7,79.45,133.72,79.44,133.72,79.44z"/>
</g>
<g>
	<rect x="467.53" y="28.66" class="st5" width="94.86" height="48.01"/>
	<path d="M542.71,49.08c1.91,5.47,5.25,15.8,10.69,15.8c7.81,0.58,7.02-20.66-1.15-21.2c-0.54-0.07-0.65-0.94-0.04-1.01
		c5.22-0.65,5.15-13.07-1.73-13.07c-4.21,0-4.57,3.74-2.92,7.02c0.43,1.22-1.19,1.76-1.66,0.9c-2.02-3.96-0.36-8.93,4.57-8.93
		c10.11,0,11.48,11.59,4.43,14.47c10.22,2.95,10.22,22.79-1.51,22.79c-6.19,0-9.68-10.87-11.59-16.45L542.71,49.08z"/>
	<path d="M523.41,49.22c0.76,2.45,1.76,5.54,3.67,9.18c0.43,0.86,1.98,3.89,3.1,3.92c2.84,0-4.68-16.92,2.41-17.31
		c3.17,0,5.54,7.67,6.98,12.38c0.07-2.59,0.18-5.22-0.25-7.88c-0.4-2.27,3.2-2.09,3.53-0.04c0.36,2.66,0.14,5.29,0.18,7.96
		c0.07,5.94-3.2,4.25-3.46,3.1c-1.04-2.77-4.03-14.4-6.52-14.36c-2.84,0.04,4.5,17.35-2.48,17.24c-2.05-0.07-3.56-2.95-4.39-4.54
		c-1.91-3.71-2.95-6.88-3.71-9.36L523.41,49.22z"/>
	<path d="M521.76,42.6c-0.94,0-1.69-0.76-1.69-1.73c0-0.94,0.76-1.69,1.69-1.69c0.97,0,1.73,0.76,1.73,1.69
		C523.48,41.84,522.73,42.6,521.76,42.6z M523.48,44.54c0.07,5.29-0.04,10.51,0.18,15.73c0.18,4.5,0.9,11.34,3.2,11.99
		c0.58,0.14,0.61,1.04-0.04,1.01c-5.15-0.36-6.26-7.7-6.52-12.74c-0.22-5-0.18-10.29-0.22-15.3
		C520.06,43.78,523.45,43.35,523.48,44.54z"/>
	<path d="M506.78,52.93c-0.18-1.15-0.25-2.2-0.22-2.95c0.14-3.17,1.62-6.01,5.15-5.98c2.59,0,4.93,1.84,4.89,4.54
		c0,1.04-0.4,1.98-1.04,2.77c0.61,3.92,0.22,9.11-4.03,9.11c-2.56-0.04-3.96-3.38-4.57-6.44c-2.34-0.47-4.46-1.87-5.36-4.57
		l0.9-0.32C503.25,51.24,504.91,52.46,506.78,52.93z M507.54,50.01c0,0.68,0.07,1.84,0.29,3.1c1.58,0.18,3.24-0.07,4.61-0.68
		c-0.29-1.48-0.72-2.74-1.04-3.28c-0.43-1.15,2.09-3.38,2.99-1.76c0.32,0.54,0.65,1.44,0.9,2.56c0.22-0.47,0.36-0.94,0.36-1.44
		c0.04-2.16-1.91-3.53-3.96-3.53C508.69,44.97,507.65,47.42,507.54,50.01z M508.01,54.11c0.58,2.59,1.66,5.26,3.49,5.33
		c1.62,0,1.62-3.17,1.12-6.05C511.21,53.97,509.59,54.26,508.01,54.11z"/>
	<path d="M493.14,44.47c0.86,2.7,1.91,13.93,4.82,13.86c2.7-0.07,1.22-10.22,0.5-13.68c-0.25-1.3,3.42-1.12,3.56-0.36
		c0.65,3.53,2.16,14.87-4.03,15.01c-2.56,0.07-3.89-5.72-4.82-10.22c0.04,4.03,0,8.06,0.22,12.06c0.25,4.46,1.04,10.51,3.17,11.12
		c0.58,0.14,0.61,1.04-0.04,1.01c-4.93-0.36-6.16-7.13-6.48-12.13c-0.29-5.15-0.25-10.83-0.29-15.91
		C489.75,43.82,492.96,43.39,493.14,44.47z"/>
</g>
<g>
	<rect x="438.99" y="80.95" class="st5" width="170.69" height="27.56"/>
	<path d="M606.14,99.62c-4.18,0-7.51-3.51-7.53-7.49c-0.02-2.09,0.99-3.89,3.15-4.3c-3.55-1.62-4.92-6.97-0.86-6.93
		c2.86,0.04,3.89,3.35,4.38,5.65c0.25,1.17,0.41,2.39,0.52,3.56c0.07-1.87-0.63-8.34-1.82-8.66c-0.27-0.07-0.29-0.54,0.04-0.5
		c3.87,0.25,3.48,8.48,2.99,11.7c-0.07,0.54-0.18,1.13-0.36,1.67c-0.14,0.5-1.13,0.49-1.13,0c0-0.54-0.02-1.15-0.05-1.71
		c-0.09-1.75-0.22-3.94-0.65-5.96c-0.36-1.67-1.31-5.15-3.53-5.15c-2.49,0.02-0.79,5.17,1.51,6.25c0.38,0.14,0.27,0.47-0.09,0.49
		c-1.69-0.07-2.47,1.71-2.38,3.85c0.14,3.24,2.18,7.04,5.82,7.04c1.46,0,2.39-0.7,2.81-1.6c0.16-0.36,0.25-0.76,0.25-1.15
		c0-0.4-0.07-0.77-0.23-1.15c-0.23-0.56-0.67-1.04-1.28-1.35c-0.2-0.09-0.16-0.61,0.22-0.43c0.72,0.34,1.22,0.94,1.51,1.6
		c0.18,0.41,0.27,0.88,0.27,1.35c0,0.45-0.11,0.92-0.29,1.33C608.91,98.79,607.83,99.62,606.14,99.62z"/>
	<path d="M592.12,88.85c0.43,1.35,0.95,6.97,2.41,6.93c1.35-0.04,0.61-5.11,0.25-6.84c-0.13-0.65,1.71-0.56,1.78-0.18
		c0.32,1.76,1.08,7.44-2.02,7.51c-1.28,0.04-1.94-2.86-2.41-5.11c0.02,2.02,0,4.03,0.11,6.03c0.13,2.23,0.52,5.26,1.58,5.56
		c0.29,0.07,0.31,0.52-0.02,0.5c-2.47-0.18-3.08-3.57-3.24-6.07c-0.14-2.57-0.13-5.42-0.14-7.96
		C590.42,88.53,592.03,88.31,592.12,88.85z"/>
	<path d="M573.68,91.15c0.95,2.74,2.61,7.9,5.35,7.9c5.33,0,4.09-17.5-1.42-17.5c-2.47,0-1.37,3.42,0.16,4.12
		c0.5,0.41-0.05,1.06-0.41,0.85c-2.12-0.99-2.67-5.64,0.23-5.6c7.38,0.07,9.51,18.87,1.44,18.62c-3.1,0-4.84-5.44-5.8-8.23
		L573.68,91.15z"/>
	<path d="M568.9,93.08c-0.09-0.58-0.13-1.1-0.11-1.48c0.07-1.58,0.81-3.01,2.57-2.99c1.3,0,2.47,0.92,2.45,2.27
		c0,0.52-0.2,0.99-0.52,1.39c0.31,1.96,0.11,4.55-2.02,4.55c-1.28-0.02-1.98-1.69-2.29-3.22c-1.17-0.23-2.23-0.94-2.68-2.29
		l0.45-0.16C567.13,92.24,567.96,92.85,568.9,93.08z M569.27,91.62c0,0.34,0.04,0.92,0.14,1.55c0.79,0.09,1.62-0.04,2.3-0.34
		c-0.14-0.74-0.36-1.37-0.52-1.64c-0.22-0.58,1.04-1.69,1.5-0.88c0.16,0.27,0.32,0.72,0.45,1.28c0.11-0.23,0.18-0.47,0.18-0.72
		c0.02-1.08-0.95-1.76-1.98-1.76C569.85,89.1,569.33,90.33,569.27,91.62z M569.51,93.68c0.29,1.3,0.83,2.63,1.75,2.67
		c0.81,0,0.81-1.58,0.56-3.03C571.11,93.6,570.3,93.75,569.51,93.68z"/>
	<path d="M561.97,93.08c-0.09-0.58-0.13-1.1-0.11-1.48c0.07-1.58,0.81-3.01,2.57-2.99c1.3,0,2.47,0.92,2.45,2.27
		c0,0.52-0.2,0.99-0.52,1.39c0.31,1.96,0.11,4.55-2.02,4.55c-1.28-0.02-1.98-1.69-2.29-3.22c-1.17-0.23-2.23-0.94-2.68-2.29
		l0.45-0.16C560.2,92.24,561.03,92.85,561.97,93.08z M562.34,91.62c0,0.34,0.04,0.92,0.14,1.55c0.79,0.09,1.62-0.04,2.3-0.34
		c-0.14-0.74-0.36-1.37-0.52-1.64c-0.22-0.58,1.04-1.69,1.5-0.88c0.16,0.27,0.32,0.72,0.45,1.28c0.11-0.23,0.18-0.47,0.18-0.72
		c0.02-1.08-0.95-1.76-1.98-1.76C562.92,89.1,562.4,90.33,562.34,91.62z M562.58,93.68c0.29,1.3,0.83,2.63,1.75,2.67
		c0.81,0,0.81-1.58,0.56-3.03C564.18,93.6,563.37,93.75,562.58,93.68z"/>
	<path d="M549.65,91.15c0.65,1.85,2.3,6.46,3.89,6.46c1.4-0.02-0.81-4.21,2.09-5.73c-1.67-0.27-3.44-1.08-3.48-2.92
		c0-0.94,0.56-1.82,1.73-1.85c1.53,0,2.7,1.55,3.51,3.4c0.32,0.79,0.59,1.64,0.81,2.43c0-0.81,0.02-1.67,0.02-2.5
		c-0.02-2.52-0.07-8.57-1.67-9c-0.27-0.07-0.29-0.54,0.04-0.5c3.46,0.23,3.26,6.68,3.31,9.65c0.05,1.96-0.02,3.76-0.04,4.97
		c-0.02,0.72-1.71,0.9-1.71,0.31v-0.16c-0.04-1.19-0.47-3.22-1.21-4.99c-0.34-0.79-1.33-2.79-2.36-2.81c-0.49,0-0.83,0.38-0.81,0.88
		c0.05,1.19,2.27,2.47,3.26,2.74c0.2,0.05,0.23,0.47,0.02,0.49c-2.56,0.32,0.02,6.18-3.29,6.16c-2.34,0-3.8-4.63-4.57-6.86
		L549.65,91.15z"/>
	<path d="M544.22,91.15c0.43,1.24,1.93,5.2,3.42,5.15c1.35-0.02,0.29-5.64-0.07-7.36c-0.13-0.65,1.71-0.56,1.78-0.18
		c0.34,1.76,1.4,7.96-1.69,8.05c-1.84,0.04-3.38-4.02-3.91-5.49L544.22,91.15z M548.16,87.91c-0.47,0-0.85-0.38-0.85-0.86
		c0-0.47,0.38-0.85,0.85-0.85c0.47,0,0.86,0.38,0.86,0.85C549.03,87.54,548.63,87.91,548.16,87.91z"/>
	<path d="M534.57,91.23c0.38,1.22,0.88,2.77,1.84,4.59c0.22,0.43,0.99,1.94,1.55,1.96c1.42,0-2.34-8.46,1.21-8.66
		c1.58,0,2.77,3.83,3.49,6.19c0.04-1.3,0.09-2.61-0.13-3.94c-0.2-1.13,1.6-1.04,1.76-0.02c0.18,1.33,0.07,2.65,0.09,3.98
		c0.04,2.97-1.6,2.12-1.73,1.55c-0.52-1.39-2.02-7.2-3.26-7.18c-1.42,0.02,2.25,8.68-1.24,8.62c-1.03-0.04-1.78-1.48-2.2-2.27
		c-0.95-1.85-1.48-3.44-1.85-4.68L534.57,91.23z"/>
	<path d="M528.58,89.23c-0.02-0.72,1.69-0.94,1.69-0.34v0.18c0.27-0.22,0.63-0.36,1.08-0.36c4.48,0.04,4.72,8.17,1.08,8.19
		c-1.01,0.02-1.73-1.64-2.18-3.35c0,1.4,0.02,2.79,0.11,4.07c0.14,2.18,0.54,4.84,1.57,5.13c0.27,0.07,0.29,0.52-0.04,0.5
		c-2.32-0.16-3.01-3.21-3.21-5.65C528.49,95.01,528.59,91.71,528.58,89.23z M532.23,96.41c1.67-0.22,1.12-7.29-1.13-7.2
		c-0.47,0.02-0.72,0.38-0.81,0.79c0,0.23,0,0.47-0.02,0.7C530.49,92.18,531.19,96.41,532.23,96.41z"/>
	<path d="M508.59,91.15c0.45,1.33,2.39,7.65,4,7.65c2.29,0-0.74-15.38-0.85-17.14c-0.05-0.95,1.37-1.01,1.67-0.25v0.02
		c0.02,0.04,0.04,0.09,0.04,0.14c0.85,3.26,3.21,16.96,6.25,16.96c3.44,0-0.58-14.01-0.61-16.85c-0.02-0.7,1.67-0.67,1.71-0.02
		c0.04,2.86,4.07,17.36-1.1,17.36c-2.38,0-4.23-6.52-5.46-11.72c0.63,5.24,1.03,12.06-1.41,12.1c-2.38,0.04-4.09-6.28-4.72-8.08
		L508.59,91.15z"/>
	<path d="M498.95,91.23c0.38,1.22,0.88,2.77,1.84,4.59c0.22,0.43,0.99,1.94,1.55,1.96c1.42,0-2.34-8.46,1.21-8.66
		c1.58,0,2.77,3.83,3.49,6.19c0.04-1.3,0.09-2.61-0.13-3.94c-0.2-1.13,1.6-1.04,1.76-0.02c0.18,1.33,0.07,2.65,0.09,3.98
		c0.04,2.97-1.6,2.12-1.73,1.55c-0.52-1.39-2.02-7.2-3.26-7.18c-1.42,0.02,2.25,8.68-1.24,8.62c-1.03-0.04-1.78-1.48-2.2-2.27
		c-0.95-1.85-1.48-3.44-1.85-4.68L498.95,91.23z"/>
	<path d="M497.26,90.96c-0.09-2.58-0.25-9.09-1.76-9.51c-0.29-0.07-0.31-0.54,0.02-0.5c3.47,0.23,3.29,7,3.47,9.81
		c0.14,2.36,0.07,4.57-0.13,5.91c-0.2,1.35-0.74,2.74-2.09,2.74c-1.62,0-3.75-6.16-4.41-8.08l0.47-0.16
		c0.49,1.42,2.59,7.74,3.94,7.74c0.41,0,0.54-1.08,0.54-2.21C497.33,95.53,497.33,93.06,497.26,90.96z"/>
	<path d="M487.39,91.15c0.43,1.24,1.93,5.2,3.42,5.15c1.35-0.02,0.29-5.64-0.07-7.36c-0.13-0.65,1.71-0.56,1.78-0.18
		c0.34,1.76,1.4,7.96-1.69,8.05c-1.84,0.04-3.38-4.02-3.91-5.49L487.39,91.15z M491.34,87.91c-0.47,0-0.85-0.38-0.85-0.86
		c0-0.47,0.38-0.85,0.85-0.85c0.47,0,0.86,0.38,0.86,0.85C492.2,87.54,491.81,87.91,491.34,87.91z"/>
	<path d="M473.68,91.23c0.38,1.22,0.96,3.26,1.89,5.1c0.23,0.41,1.01,1.94,1.57,1.94c1.42,0.02-2.41-8.95,1.15-9.15
		c1.15,0,2.11,2.43,2.83,4.65c0.05-1.93,0.43-4.41,2.27-4.41c1.4,0,2.02,2.43,2.48,4.93c0.02-0.97,0-1.94-0.16-2.92
		c-0.2-1.13,1.6-1.04,1.76-0.02c0.18,1.33,0.07,2.65,0.09,3.98c0.04,3.01-1.66,2.09-1.73,1.51c-0.05-0.31-0.13-0.61-0.18-0.95
		c-0.18-0.99-0.88-6.1-2.2-6.07c-0.94,0.04-0.63,4.92-0.59,5.67c-0.11,0.88-1.55,1.35-1.73,0.04v-0.02
		c-0.7-2.25-1.73-5.83-2.61-5.82c-1.44,0.02,2.3,9.18-1.19,9.11c-1.04-0.02-1.78-1.46-2.2-2.25c-0.95-1.87-1.53-3.94-1.93-5.19
		L473.68,91.23z"/>
	<path d="M468.23,91.15c0.43,1.24,1.93,5.2,3.42,5.15c1.35-0.02,0.29-5.64-0.07-7.36c-0.13-0.65,1.71-0.56,1.78-0.18
		c0.34,1.76,1.4,7.96-1.69,8.05c-1.84,0.04-3.38-4.02-3.91-5.49L468.23,91.15z M472.17,87.91c-0.47,0-0.85-0.38-0.85-0.86
		c0-0.47,0.38-0.85,0.85-0.85c0.47,0,0.86,0.38,0.86,0.85C473.03,87.54,472.64,87.91,472.17,87.91z"/>
	<path d="M458.43,83.47c0.65,2.48,2.29,2.72,7.04,2.34l0.76-0.07c-0.25-1.4-0.65-2.59-1.3-2.77c-0.29-0.07-0.31-0.52,0.02-0.5
		c1.57,0.11,2.38,1.51,2.81,3.15c3.69-0.22,7.26-0.14,8.39,1.69c0.16,0.27-0.27,0.47-0.45,0.2c-1.03-1.55-4.36-1.62-7.81-1.4
		c0.22,1.03,0.29,2.09,0.32,2.99c0.11,2.83,0.85,10.97-2.65,10.97c-2.11,0-3.31-6.37-3.78-8.39l-0.13-0.52l0.47-0.11
		c0.04,0.13,0.09,0.31,0.13,0.52c0.45,1.91,1.58,8.01,3.31,8.01c1.89,0,1.06-8.19,0.97-10.46c-0.02-0.85-0.09-1.89-0.23-2.88
		l-0.79,0.07c-4.97,0.4-6.82,0.18-7.54-2.7C457.87,83.25,458.36,83.2,458.43,83.47z"/>
	<path d="M455.99,91.15c0.52,1.53,1.57,4.7,3.35,4.74c1.17,0.02,1.55-2.04,1.33-3.89c-1.33,0.09-2.88-0.68-2.9-2.16
		c0-0.86,0.59-1.31,1.42-1.31c4.19,0.02,4.25,7.85,0.18,7.85c-2.14,0-3.24-3.3-3.85-5.06L455.99,91.15z M460.6,91.51
		c-0.23-1.33-0.79-2.45-1.57-2.47c-0.41-0.02-0.77,0.25-0.77,0.79C458.27,90.99,459.55,91.57,460.6,91.51z"/>
	<path d="M445.27,91.15c0.5,1.42,2.61,7.47,3.96,7.47c0.85,0,0.54-6.66,0.45-8.5c-0.13-2.38-0.04-8.23-1.67-8.68
		c-0.29-0.07-0.29-0.54,0.02-0.5c3.04,0.2,3.22,5.19,3.37,8.23c0.27-0.29,0.65-0.47,1.17-0.47c4.46,0.04,5.13,7.51,1.49,7.53
		c-1.08,0-1.96-1.6-2.52-3.21c-0.02,2.74-0.4,6.09-2.3,6.09c-1.64,0-3.75-5.87-4.41-7.8L445.27,91.15z M453.86,95.73
		c1.67-0.22,0.7-6.61-1.55-6.52c-0.63,0.02-0.85,0.68-0.85,1.24c0.02,0.07,0.02,0.14,0.02,0.23
		C451.7,92.15,452.8,95.73,453.86,95.73z"/>
</g>
<line class="st5" x1="676.7" y1="88.9" x2="607.78" y2="88.9"/>
<line class="st5" x1="174.14" y1="66.75" x2="237.33" y2="66.75"/>
<g>
</g>
<g>
</g>
<g>
</g>
<g>
</g>
<g>
</g>
<g>
</g>
</svg>
