<?xml version="1.0" encoding="utf-8"?>
<!-- Generator: Adobe Illustrator 26.2.1, SVG Export Plug-In . SVG Version: 6.00 Build 0)  -->
<svg version="1.1" id="Capa_1" xmlns="http://www.w3.org/2000/svg" xmlns:xlink="http://www.w3.org/1999/xlink" x="0px" y="0px"
	 viewBox="0 0 654.39 74.56" style="enable-background:new 0 0 654.39 74.56;" xml:space="preserve">
<style type="text/css">
	.st0{fill:#FFFFFF;}
	.st1{fill:none;}
	.st2{fill:#E84335;}
	.st3{fill:#31A853;}
	.st4{fill:#517BBD;}
	.st5{fill:#C62320;}
	.st6{fill:#FBBC09;}
	.st7{fill:#22463F;}
	.st8{fill:#C55926;}
	.st9{fill:#132724;}
	.st10{fill:#74492D;}
	.st11{fill:#792E23;}
	.st12{fill:#9E7331;}
	.st13{fill:#2E8452;}
	.st14{fill:#283D4C;}
	.st15{fill:#446593;}
</style>
<rect x="30.34" y="6.54" class="st0" width="64.41" height="61.88"/>
<g>
	<rect x="124.33" y="26.53" class="st1" width="595.61" height="60.53"/>
	<path d="M144.37,27.13c-0.72,0.14-1.25,0.36-1.58,0.65c-0.33,0.29-0.55,0.74-0.67,1.33c-0.12,0.6-0.18,1.5-0.18,2.7v4.83
		c0,1.38-0.1,2.56-0.28,3.52c-0.19,0.97-0.51,1.81-0.95,2.54c-0.5,0.76-1.23,1.36-2.21,1.81c-0.97,0.45-2.06,0.67-3.28,0.67
		c-2.38,0-4.26-0.44-5.64-1.32c-0.76-0.52-1.34-1.08-1.74-1.68s-0.68-1.32-0.84-2.16c-0.16-0.84-0.24-1.94-0.24-3.3v-7.02
		c0-0.76-0.06-1.31-0.17-1.65c-0.11-0.34-0.31-0.57-0.58-0.69c-0.28-0.12-0.74-0.2-1.38-0.24v-0.6c1.08,0.06,2.76,0.09,5.04,0.09
		c2.18,0,3.85-0.03,5.01-0.09v0.6c-0.64,0.04-1.11,0.12-1.4,0.24c-0.29,0.12-0.49,0.35-0.58,0.69c-0.1,0.34-0.15,0.89-0.15,1.65
		v7.53c0,1.42,0.09,2.59,0.28,3.52c0.19,0.93,0.58,1.68,1.19,2.23c0.6,0.56,1.49,0.84,2.67,0.84c1.68,0,2.86-0.6,3.54-1.81
		c0.68-1.21,1.02-2.9,1.02-5.05v-4.56c0-1.48-0.06-2.54-0.18-3.2c-0.12-0.65-0.39-1.12-0.8-1.42c-0.41-0.3-1.09-0.52-2.05-0.66v-0.6
		c0.82,0.06,1.94,0.09,3.36,0.09c1.2,0,2.13-0.03,2.79-0.09V27.13z"/>
	<path d="M164.5,27.13c-0.64,0.14-1.11,0.33-1.4,0.56c-0.29,0.23-0.49,0.58-0.58,1.05c-0.1,0.47-0.15,1.2-0.15,2.18v13.86
		c-0.48-0.04-0.84-0.06-1.08-0.06c-0.26,0-0.63,0.02-1.11,0.06l-12-13.77v9.39c0,0.96,0.08,1.68,0.25,2.16
		c0.17,0.48,0.48,0.84,0.94,1.07c0.46,0.23,1.17,0.42,2.13,0.55v0.6c-0.98-0.06-2.2-0.09-3.66-0.09c-1.06,0-1.89,0.03-2.49,0.09
		v-0.6c0.64-0.14,1.1-0.32,1.4-0.55c0.29-0.23,0.48-0.58,0.58-1.05c0.1-0.47,0.15-1.19,0.15-2.17V29.71c0-0.76-0.06-1.31-0.16-1.65
		c-0.11-0.34-0.31-0.57-0.59-0.69s-0.74-0.2-1.38-0.24v-0.6c0.6,0.06,1.43,0.09,2.49,0.09c1.64,0,3.06-0.03,4.26-0.09l9.57,10.92
		v-6.54c0-0.96-0.09-1.68-0.26-2.16s-0.48-0.83-0.94-1.06c-0.46-0.23-1.17-0.42-2.13-0.56v-0.6c0.98,0.06,2.2,0.09,3.66,0.09
		c1.06,0,1.89-0.03,2.49-0.09V27.13z"/>
	<path d="M176.02,27.13c-0.64,0.04-1.11,0.12-1.4,0.24c-0.29,0.12-0.48,0.35-0.58,0.69c-0.1,0.34-0.15,0.89-0.15,1.65v12.48
		c0,0.78,0.11,1.29,0.34,1.53c0.23,0.24,0.62,0.36,1.19,0.36h0.69c1.28,0,2.42-0.52,3.42-1.56c1-1.04,1.7-2.69,2.1-4.95h0.69
		c-0.06,0.66-0.09,1.48-0.09,2.46c0,1.4,0.07,2.98,0.21,4.74c-1.3-0.06-3.49-0.09-6.57-0.09c-4.4,0-7.7,0.03-9.9,0.09v-0.6
		c0.64-0.04,1.1-0.12,1.4-0.24c0.29-0.12,0.48-0.35,0.58-0.69c0.1-0.34,0.15-0.89,0.15-1.65V29.71c0-0.76-0.06-1.31-0.17-1.65
		c-0.11-0.34-0.31-0.57-0.58-0.69c-0.28-0.12-0.74-0.2-1.38-0.24v-0.6c1.14,0.06,2.92,0.09,5.34,0.09c2.02,0,3.59-0.03,4.71-0.09
		V27.13z"/>
	<path d="M193.99,27.13c-0.64,0.04-1.11,0.12-1.4,0.24c-0.29,0.12-0.48,0.35-0.58,0.69c-0.1,0.34-0.15,0.89-0.15,1.65v11.88
		c0,0.76,0.05,1.31,0.15,1.65c0.1,0.34,0.29,0.57,0.58,0.69c0.29,0.12,0.75,0.2,1.4,0.24v0.6c-1.1-0.06-2.72-0.09-4.86-0.09
		c-2.38,0-4.11,0.03-5.19,0.09v-0.6c0.64-0.04,1.1-0.12,1.4-0.24c0.29-0.12,0.48-0.35,0.58-0.69c0.1-0.34,0.15-0.89,0.15-1.65V29.71
		c0-0.76-0.06-1.31-0.17-1.65c-0.11-0.34-0.31-0.57-0.58-0.69c-0.28-0.12-0.74-0.2-1.38-0.24v-0.6c1.08,0.06,2.81,0.09,5.19,0.09
		c2.12,0,3.74-0.03,4.86-0.09V27.13z"/>
	<path d="M219.66,27.37c-0.33,0.12-0.55,0.35-0.67,0.69c-0.12,0.34-0.18,0.89-0.18,1.65v11.88c0,0.76,0.06,1.31,0.18,1.65
		c0.12,0.34,0.34,0.57,0.67,0.69c0.33,0.12,0.85,0.2,1.58,0.24v0.6c-1.16-0.06-2.83-0.09-5.01-0.09c-2.7,0-4.68,0.03-5.94,0.09v-0.6
		c0.72-0.04,1.25-0.12,1.58-0.24c0.33-0.12,0.55-0.35,0.67-0.69c0.12-0.34,0.18-0.89,0.18-1.65V28.42l-6.63,16.5h-0.48l-6.96-16.47
		v11.94c0,0.96,0.08,1.68,0.26,2.16c0.17,0.48,0.48,0.84,0.94,1.07c0.46,0.23,1.17,0.42,2.13,0.55v0.6
		c-0.98-0.06-2.2-0.09-3.66-0.09c-1.06,0-1.89,0.03-2.49,0.09v-0.6c0.64-0.14,1.1-0.32,1.4-0.55c0.29-0.23,0.48-0.58,0.58-1.05
		c0.1-0.47,0.15-1.19,0.15-2.17V29.71c0-0.76-0.06-1.31-0.18-1.65c-0.12-0.34-0.35-0.57-0.68-0.69s-0.85-0.2-1.57-0.24v-0.6
		c1.32,0.06,3.35,0.09,6.09,0.09c1.1,0,2.02-0.03,2.76-0.09l4.26,10.2l4.08-10.11h3.51c2.18,0,3.85-0.03,5.01-0.09v0.6
		C220.51,27.17,219.99,27.25,219.66,27.37z"/>
	<path d="M232.87,27.13c-0.64,0.04-1.11,0.12-1.4,0.24c-0.29,0.12-0.48,0.35-0.58,0.69c-0.1,0.34-0.15,0.89-0.15,1.65v11.88
		c0,0.76,0.05,1.31,0.15,1.65c0.1,0.34,0.29,0.57,0.58,0.69c0.29,0.12,0.75,0.2,1.4,0.24v0.6c-1.1-0.06-2.72-0.09-4.86-0.09
		c-2.38,0-4.11,0.03-5.19,0.09v-0.6c0.64-0.04,1.1-0.12,1.4-0.24c0.29-0.12,0.48-0.35,0.58-0.69c0.1-0.34,0.15-0.89,0.15-1.65V29.71
		c0-0.76-0.06-1.31-0.17-1.65c-0.11-0.34-0.31-0.57-0.58-0.69c-0.28-0.12-0.74-0.2-1.38-0.24v-0.6c1.08,0.06,2.81,0.09,5.19,0.09
		c2.12,0,3.74-0.03,4.86-0.09V27.13z"/>
	<path d="M252.64,30.97c0,1.2,0.03,2.12,0.09,2.76h-0.69c-0.56-2.36-1.24-4.04-2.05-5.02c-0.81-0.99-1.87-1.48-3.17-1.48h-0.27
		v14.07c0,0.84,0.08,1.45,0.24,1.83s0.44,0.64,0.84,0.78c0.4,0.14,1.05,0.23,1.95,0.27v0.6c-1.12-0.06-3.14-0.09-6.06-0.09
		c-2.9,0-4.83,0.03-5.79,0.09v-0.6c0.9-0.04,1.55-0.13,1.95-0.27c0.4-0.14,0.68-0.4,0.84-0.78s0.24-0.99,0.24-1.83V27.22h-0.27
		c-1.3,0-2.35,0.49-3.17,1.48c-0.81,0.99-1.5,2.67-2.06,5.02h-0.69c0.06-0.64,0.09-1.56,0.09-2.76c0-1.3-0.07-2.78-0.21-4.44
		c1.78,0.06,4.8,0.09,9.06,0.09c4.38,0,7.49-0.03,9.33-0.09C252.71,28.19,252.64,29.67,252.64,30.97z"/>
	<path d="M270.91,44.77c-1.3-0.06-3.49-0.09-6.57-0.09c-4.4,0-7.7,0.03-9.9,0.09v-0.6c0.64-0.04,1.1-0.12,1.4-0.24
		c0.29-0.12,0.48-0.35,0.58-0.69c0.1-0.34,0.15-0.89,0.15-1.65V29.71c0-0.76-0.06-1.31-0.17-1.65c-0.11-0.34-0.31-0.57-0.58-0.69
		c-0.28-0.12-0.74-0.2-1.38-0.24v-0.6c2.2,0.06,5.5,0.09,9.9,0.09c2.8,0,4.79-0.03,5.97-0.09c-0.14,1.42-0.21,2.7-0.21,3.84
		c0,0.78,0.03,1.4,0.09,1.86h-0.69c-0.4-1.78-1.04-3.06-1.91-3.84c-0.87-0.78-1.98-1.17-3.31-1.17h-0.39c-0.56,0-0.96,0.1-1.19,0.3
		c-0.23,0.2-0.34,0.63-0.34,1.29v6.48h0.69c0.96,0,1.73-0.35,2.29-1.04c0.57-0.69,0.93-1.46,1.1-2.32h0.69
		c-0.06,0.68-0.09,1.48-0.09,2.4v1.26c0,0.98,0.06,2.2,0.18,3.66h-0.69c-0.14-0.96-0.51-1.76-1.11-2.4s-1.39-0.96-2.37-0.96h-0.69
		v6.6c0,0.66,0.11,1.09,0.34,1.29c0.23,0.2,0.62,0.3,1.19,0.3h0.69c1.4,0,2.57-0.44,3.5-1.31c0.93-0.87,1.6-2.3,2.02-4.3h0.69
		c-0.06,0.56-0.09,1.28-0.09,2.16C270.7,41.85,270.77,43.23,270.91,44.77z"/>
	<path d="M291.1,28.78c1.86,1.5,2.79,3.71,2.79,6.63c0,1.88-0.46,3.52-1.37,4.94c-0.91,1.41-2.23,2.5-3.94,3.27
		c-1.72,0.77-3.77,1.15-6.15,1.15l-2.1-0.03c-1.36-0.04-2.36-0.06-3-0.06c-1.92,0-3.36,0.03-4.32,0.09v-0.6
		c0.64-0.04,1.1-0.12,1.4-0.24c0.29-0.12,0.48-0.35,0.58-0.69c0.1-0.34,0.15-0.89,0.15-1.65V29.71c0-0.76-0.06-1.31-0.17-1.65
		c-0.11-0.34-0.31-0.57-0.58-0.69c-0.28-0.12-0.74-0.2-1.38-0.24v-0.6c0.78,0.06,1.91,0.09,3.39,0.09l3.03-0.03
		c1.6-0.04,2.69-0.06,3.27-0.06C286.44,26.53,289.24,27.28,291.1,28.78z M281.52,27.28c-0.23,0.14-0.39,0.39-0.46,0.75
		c-0.08,0.36-0.12,0.9-0.12,1.62v12c0,0.72,0.04,1.26,0.12,1.62c0.08,0.36,0.23,0.61,0.46,0.75c0.23,0.14,0.58,0.21,1.06,0.21
		c1.98,0,3.36-0.71,4.14-2.11c0.78-1.41,1.17-3.6,1.17-6.59c0-2.92-0.4-5.06-1.21-6.42c-0.81-1.36-2.19-2.04-4.12-2.04
		C282.09,27.07,281.75,27.14,281.52,27.28z"/>
	<path d="M309.15,26.61c0.75,0.33,1.5,0.82,2.27,1.46c0.22,0.18,0.41,0.27,0.57,0.27c0.4,0,0.66-0.6,0.78-1.8h0.69
		c-0.08,1.2-0.12,3.3-0.12,6.3h-0.69c-0.22-1.12-0.43-1.92-0.62-2.42c-0.19-0.49-0.48-0.96-0.88-1.42c-0.56-0.62-1.17-1.1-1.83-1.46
		c-0.66-0.35-1.34-0.52-2.04-0.52c-1.06,0-1.98,0.35-2.76,1.05c-0.78,0.7-1.38,1.71-1.81,3.02c-0.43,1.31-0.65,2.85-0.65,4.63
		c0,1.8,0.24,3.35,0.72,4.64s1.13,2.27,1.95,2.94c0.82,0.67,1.74,1,2.76,1c0.74,0,1.46-0.17,2.16-0.52c0.7-0.35,1.31-0.83,1.83-1.46
		c0.4-0.48,0.69-1,0.87-1.58c0.18-0.57,0.35-1.42,0.51-2.56h0.69c0,3.14,0.04,5.34,0.12,6.6h-0.69c-0.06-0.62-0.15-1.07-0.27-1.37
		c-0.12-0.29-0.28-0.43-0.48-0.43c-0.16,0-0.36,0.09-0.6,0.27c-0.72,0.6-1.51,1.08-2.37,1.42c-0.86,0.35-1.87,0.52-3.03,0.52
		c-1.98,0-3.74-0.37-5.27-1.11c-1.53-0.74-2.73-1.81-3.6-3.23s-1.31-3.08-1.31-5.02c0-1.9,0.44-3.58,1.33-5.06
		c0.89-1.47,2.1-2.61,3.63-3.44c1.53-0.82,3.23-1.23,5.11-1.23C307.39,26.11,308.4,26.28,309.15,26.61z"/>
	<path d="M332.43,27.21c1.61,0.73,2.86,1.8,3.75,3.21c0.89,1.41,1.33,3.1,1.33,5.06c0,1.92-0.46,3.61-1.37,5.08
		c-0.91,1.47-2.18,2.61-3.81,3.42c-1.63,0.81-3.49,1.21-5.57,1.21c-2.14,0-4.02-0.37-5.62-1.09c-1.61-0.73-2.86-1.8-3.75-3.21
		c-0.89-1.41-1.33-3.09-1.33-5.06c0-1.92,0.46-3.62,1.37-5.08c0.91-1.47,2.18-2.61,3.81-3.42c1.63-0.81,3.48-1.22,5.56-1.22
		C328.94,26.11,330.82,26.48,332.43,27.21z M324.25,27.81c-0.7,0.77-1.24,1.84-1.62,3.21c-0.38,1.37-0.57,2.94-0.57,4.69
		c0,1.78,0.21,3.35,0.65,4.71c0.43,1.36,1.01,2.41,1.74,3.14c0.73,0.73,1.54,1.09,2.44,1.09c0.92,0,1.73-0.38,2.43-1.15
		c0.7-0.77,1.24-1.84,1.62-3.21c0.38-1.37,0.57-2.94,0.57-4.7c0-1.78-0.22-3.35-0.65-4.71c-0.43-1.36-1.01-2.4-1.74-3.13
		c-0.73-0.73-1.55-1.1-2.45-1.1C325.76,26.65,324.95,27.04,324.25,27.81z"/>
	<path d="M355.98,27.21c1.61,0.73,2.86,1.8,3.75,3.21c0.89,1.41,1.33,3.1,1.33,5.06c0,1.92-0.46,3.61-1.37,5.08
		c-0.91,1.47-2.18,2.61-3.81,3.42c-1.63,0.81-3.49,1.21-5.57,1.21c-2.14,0-4.02-0.37-5.62-1.09c-1.61-0.73-2.86-1.8-3.75-3.21
		c-0.89-1.41-1.33-3.09-1.33-5.06c0-1.92,0.46-3.62,1.37-5.08c0.91-1.47,2.18-2.61,3.81-3.42c1.63-0.81,3.48-1.22,5.56-1.22
		C352.49,26.11,354.37,26.48,355.98,27.21z M347.8,27.81c-0.7,0.77-1.24,1.84-1.62,3.21c-0.38,1.37-0.57,2.94-0.57,4.69
		c0,1.78,0.21,3.35,0.65,4.71c0.43,1.36,1.01,2.41,1.74,3.14c0.73,0.73,1.54,1.09,2.44,1.09c0.92,0,1.73-0.38,2.43-1.15
		c0.7-0.77,1.24-1.84,1.62-3.21c0.38-1.37,0.57-2.94,0.57-4.7c0-1.78-0.22-3.35-0.65-4.71c-0.43-1.36-1.01-2.4-1.74-3.13
		c-0.73-0.73-1.55-1.1-2.45-1.1C349.31,26.65,348.5,27.04,347.8,27.81z"/>
	<path d="M383.74,43.5c0.22,0.23,0.53,0.46,0.93,0.67v0.6c-1.68-0.06-3.48-0.09-5.4-0.09c-1.48,0-2.91,0.03-4.29,0.09v-0.6
		c0.64-0.04,1.08-0.09,1.33-0.17c0.25-0.07,0.38-0.2,0.38-0.4c0-0.2-0.1-0.46-0.3-0.78l-3.9-5.7c-0.3-0.44-0.58-0.78-0.84-1.02
		c-0.26-0.24-0.6-0.38-1.02-0.42v5.91c0,0.76,0.05,1.31,0.15,1.65c0.1,0.34,0.29,0.57,0.58,0.69c0.29,0.12,0.75,0.2,1.4,0.24v0.6
		c-1.1-0.06-2.72-0.09-4.86-0.09c-2.32,0-4.05,0.03-5.19,0.09v-0.6c0.64-0.04,1.1-0.12,1.4-0.24c0.29-0.12,0.48-0.35,0.58-0.69
		c0.1-0.34,0.15-0.89,0.15-1.65V29.71c0-0.76-0.06-1.31-0.17-1.65c-0.11-0.34-0.31-0.57-0.58-0.69c-0.28-0.12-0.74-0.2-1.38-0.24
		v-0.6c1.14,0.06,2.87,0.09,5.19,0.09c2.12,0,3.74-0.03,4.86-0.09v0.6c-0.64,0.04-1.11,0.12-1.4,0.24
		c-0.29,0.12-0.48,0.35-0.58,0.69c-0.1,0.34-0.15,0.89-0.15,1.65v5.31c0.98-0.1,1.86-0.35,2.64-0.75c0.78-0.4,1.6-1.01,2.46-1.83
		l0.69-0.66c0.94-0.88,1.41-1.74,1.41-2.58c0-0.6-0.25-1.09-0.74-1.47c-0.49-0.38-1.09-0.59-1.81-0.63v-0.57
		c1.68,0.06,3.46,0.09,5.34,0.09c1.22,0,2.23-0.03,3.03-0.09v0.57c-0.7,0.18-1.43,0.5-2.18,0.96c-0.75,0.46-1.47,1.03-2.17,1.71
		l-3,2.94l6.54,9.63C383.22,42.88,383.52,43.27,383.74,43.5z"/>
	<path d="M395.26,27.13c-0.64,0.04-1.11,0.12-1.39,0.24c-0.29,0.12-0.49,0.35-0.58,0.69c-0.1,0.34-0.15,0.89-0.15,1.65v11.88
		c0,0.76,0.05,1.31,0.15,1.65c0.1,0.34,0.29,0.57,0.58,0.69c0.29,0.12,0.75,0.2,1.39,0.24v0.6c-1.1-0.06-2.72-0.09-4.86-0.09
		c-2.38,0-4.11,0.03-5.19,0.09v-0.6c0.64-0.04,1.1-0.12,1.39-0.24c0.29-0.12,0.49-0.35,0.58-0.69c0.1-0.34,0.15-0.89,0.15-1.65
		V29.71c0-0.76-0.06-1.31-0.17-1.65c-0.11-0.34-0.3-0.57-0.58-0.69s-0.74-0.2-1.38-0.24v-0.6c1.08,0.06,2.81,0.09,5.19,0.09
		c2.12,0,3.74-0.03,4.86-0.09V27.13z"/>
	<path d="M416.17,27.13c-0.64,0.14-1.11,0.33-1.4,0.56c-0.29,0.23-0.48,0.58-0.58,1.05c-0.1,0.47-0.15,1.2-0.15,2.18v13.86
		c-0.48-0.04-0.84-0.06-1.08-0.06c-0.26,0-0.63,0.02-1.11,0.06l-12-13.77v9.39c0,0.96,0.08,1.68,0.25,2.16s0.49,0.84,0.95,1.07
		s1.17,0.42,2.13,0.55v0.6c-0.98-0.06-2.2-0.09-3.66-0.09c-1.06,0-1.89,0.03-2.49,0.09v-0.6c0.64-0.14,1.1-0.32,1.39-0.55
		s0.48-0.58,0.58-1.05c0.1-0.47,0.15-1.19,0.15-2.17V29.71c0-0.76-0.06-1.31-0.17-1.65c-0.11-0.34-0.31-0.57-0.58-0.69
		c-0.28-0.12-0.74-0.2-1.38-0.24v-0.6c0.6,0.06,1.43,0.09,2.49,0.09c1.64,0,3.06-0.03,4.26-0.09l9.57,10.92v-6.54
		c0-0.96-0.08-1.68-0.25-2.16s-0.49-0.83-0.95-1.06c-0.46-0.23-1.17-0.42-2.13-0.56v-0.6c0.98,0.06,2.2,0.09,3.66,0.09
		c1.06,0,1.89-0.03,2.49-0.09V27.13z"/>
	<path d="M431.98,26.59c0.76,0.32,1.6,0.81,2.52,1.47c0.26,0.2,0.46,0.3,0.6,0.3c0.38,0,0.63-0.61,0.75-1.83h0.69
		c-0.08,1.14-0.12,3.14-0.12,6h-0.69c-0.32-1.56-0.82-2.74-1.5-3.54c-0.6-0.62-1.18-1.1-1.75-1.43c-0.57-0.33-1.25-0.5-2.05-0.5
		c-1.38,0-2.58,0.36-3.6,1.07c-1.02,0.71-1.81,1.71-2.36,3.01c-0.55,1.3-0.83,2.81-0.83,4.53c0,3.06,0.46,5.31,1.38,6.75
		s2.29,2.16,4.11,2.16c0.56,0,1-0.18,1.32-0.54c0.28-0.34,0.42-0.8,0.42-1.38v-2.94c0-0.84-0.07-1.45-0.21-1.83
		c-0.14-0.38-0.4-0.64-0.77-0.78c-0.37-0.14-0.96-0.23-1.75-0.27v-0.6c1.44,0.06,3.25,0.09,5.43,0.09c1.92,0,3.36-0.03,4.32-0.09
		v0.6c-0.38,0.04-0.65,0.12-0.81,0.24c-0.16,0.12-0.27,0.35-0.33,0.69c-0.06,0.34-0.09,0.89-0.09,1.65v5.34h-0.6
		c-0.1-0.92-0.35-1.38-0.75-1.38c-0.34,0-0.87,0.19-1.59,0.57c-0.58,0.3-1.31,0.58-2.19,0.84c-0.88,0.26-1.84,0.39-2.88,0.39
		c-2.28,0-4.25-0.37-5.91-1.09c-1.66-0.73-2.93-1.78-3.79-3.15c-0.87-1.37-1.31-3.01-1.31-4.93c0-2,0.48-3.75,1.44-5.24
		c0.96-1.49,2.29-2.64,4-3.45s3.67-1.22,5.89-1.22C430.22,26.11,431.22,26.27,431.98,26.59z"/>
	<path d="M452.5,41.86c0-0.3,0.03-0.6,0.09-0.9c-0.94,2.02-2.31,3.03-4.11,3.03c-1.08,0-1.97-0.33-2.67-0.99s-1.05-1.69-1.05-3.09
		c0-1.36,0.33-2.79,0.99-4.27s1.54-2.73,2.65-3.72c1.11-0.99,2.29-1.48,3.56-1.48c0.66,0,1.19,0.18,1.6,0.54
		c0.41,0.36,0.69,0.81,0.83,1.35l0.3-1.47c1.88,0,3.39-0.14,4.53-0.42l-2.28,10.71c-0.1,0.5-0.15,0.89-0.15,1.17
		c0,0.42,0.13,0.63,0.39,0.63c0.08,0,0.24-0.05,0.48-0.15c0.92-0.44,1.82-1.11,2.7-2.01c0.88-0.9,1.61-2.01,2.19-3.34
		s0.87-2.82,0.87-4.48c0-2.62-0.85-4.56-2.54-5.81c-1.69-1.25-3.86-1.88-6.5-1.88c-2.46,0-4.79,0.7-6.97,2.08
		c-2.19,1.39-3.95,3.25-5.27,5.58c-1.32,2.33-1.98,4.83-1.98,7.48c0,2.94,0.84,5.12,2.52,6.52c1.68,1.41,3.94,2.12,6.78,2.12
		c2.32,0,4.38-0.54,6.18-1.62l0.21,0.39c-0.78,0.54-1.72,0.97-2.82,1.29c-1.1,0.32-2.3,0.48-3.6,0.48c-3.02,0-5.42-0.76-7.2-2.27
		c-1.78-1.51-2.67-3.79-2.67-6.85c0-2.68,0.67-5.23,2-7.65s3.12-4.38,5.38-5.87c2.26-1.49,4.73-2.23,7.41-2.23
		c2.88,0,5.21,0.68,6.99,2.04c1.78,1.36,2.67,3.43,2.67,6.21c0,2.14-0.46,4.05-1.38,5.71c-0.92,1.67-2.08,2.97-3.48,3.9
		c-1.4,0.93-2.78,1.4-4.14,1.4C453.34,43.99,452.5,43.28,452.5,41.86z M451.89,41.32c0.41-0.58,0.83-1.48,1.25-2.7l1.02-5.07
		c0.02-0.44-0.06-0.85-0.25-1.24c-0.19-0.39-0.46-0.58-0.79-0.58c-0.5,0-1.04,0.4-1.6,1.21c-0.57,0.81-1.05,1.86-1.44,3.13
		c-0.39,1.28-0.58,2.58-0.58,3.9c0,0.84,0.08,1.42,0.25,1.74c0.17,0.32,0.42,0.48,0.76,0.48C451.01,42.19,451.48,41.9,451.89,41.32z
		"/>
	<path d="M480.28,26.59c0.76,0.32,1.6,0.81,2.52,1.47c0.26,0.2,0.46,0.3,0.6,0.3c0.38,0,0.63-0.61,0.75-1.83h0.69
		c-0.08,1.14-0.12,3.14-0.12,6h-0.69c-0.32-1.56-0.82-2.74-1.5-3.54c-0.6-0.62-1.18-1.1-1.75-1.43c-0.57-0.33-1.25-0.5-2.05-0.5
		c-1.38,0-2.58,0.36-3.6,1.07c-1.02,0.71-1.81,1.71-2.36,3.01c-0.55,1.3-0.83,2.81-0.83,4.53c0,3.06,0.46,5.31,1.38,6.75
		s2.29,2.16,4.11,2.16c0.56,0,1-0.18,1.32-0.54c0.28-0.34,0.42-0.8,0.42-1.38v-2.94c0-0.84-0.07-1.45-0.21-1.83
		c-0.14-0.38-0.4-0.64-0.77-0.78c-0.37-0.14-0.96-0.23-1.75-0.27v-0.6c1.44,0.06,3.25,0.09,5.43,0.09c1.92,0,3.36-0.03,4.32-0.09
		v0.6c-0.38,0.04-0.65,0.12-0.81,0.24c-0.16,0.12-0.27,0.35-0.33,0.69c-0.06,0.34-0.09,0.89-0.09,1.65v5.34h-0.6
		c-0.1-0.92-0.35-1.38-0.75-1.38c-0.34,0-0.87,0.19-1.59,0.57c-0.58,0.3-1.31,0.58-2.19,0.84c-0.88,0.26-1.84,0.39-2.88,0.39
		c-2.28,0-4.25-0.37-5.91-1.09c-1.66-0.73-2.93-1.78-3.79-3.15c-0.87-1.37-1.31-3.01-1.31-4.93c0-2,0.48-3.75,1.44-5.24
		c0.96-1.49,2.29-2.64,4-3.45s3.67-1.22,5.89-1.22C478.52,26.11,479.52,26.27,480.28,26.59z"/>
	<path d="M511.53,27.37c-0.33,0.12-0.55,0.35-0.67,0.69c-0.12,0.34-0.18,0.89-0.18,1.65v11.88c0,0.76,0.06,1.31,0.18,1.65
		c0.12,0.34,0.34,0.57,0.67,0.69c0.33,0.12,0.86,0.2,1.58,0.24v0.6c-1.16-0.06-2.83-0.09-5.01-0.09c-2.7,0-4.68,0.03-5.94,0.09v-0.6
		c0.72-0.04,1.25-0.12,1.58-0.24c0.33-0.12,0.55-0.35,0.67-0.69c0.12-0.34,0.18-0.89,0.18-1.65V28.42l-6.63,16.5h-0.48l-6.96-16.47
		v11.94c0,0.96,0.08,1.68,0.25,2.16s0.48,0.84,0.95,1.07c0.46,0.23,1.17,0.42,2.13,0.55v0.6c-0.98-0.06-2.2-0.09-3.66-0.09
		c-1.06,0-1.89,0.03-2.49,0.09v-0.6c0.64-0.14,1.1-0.32,1.4-0.55c0.29-0.23,0.48-0.58,0.58-1.05c0.1-0.47,0.15-1.19,0.15-2.17V29.71
		c0-0.76-0.06-1.31-0.18-1.65c-0.12-0.34-0.34-0.57-0.67-0.69s-0.86-0.2-1.58-0.24v-0.6c1.32,0.06,3.35,0.09,6.09,0.09
		c1.1,0,2.02-0.03,2.76-0.09l4.26,10.2l4.08-10.11h3.51c2.18,0,3.85-0.03,5.01-0.09v0.6C512.38,27.17,511.86,27.25,511.53,27.37z"/>
	<path d="M533.17,44.17v0.6c-1.02-0.06-2.49-0.09-4.41-0.09c-2.42,0-4.2,0.03-5.34,0.09v-0.6c0.62-0.04,1.08-0.14,1.38-0.31
		c0.3-0.17,0.45-0.45,0.45-0.85c0-0.36-0.13-0.81-0.39-1.35l-1.47-3.42h-5.61c-0.68,1.56-1.02,2.81-1.02,3.75
		c0,0.8,0.24,1.35,0.72,1.67c0.48,0.31,1.17,0.49,2.07,0.52v0.6c-1.5-0.06-2.81-0.09-3.93-0.09c-0.94,0-1.71,0.03-2.31,0.09v-0.6
		c0.48-0.08,0.92-0.38,1.33-0.9c0.41-0.52,0.88-1.39,1.42-2.61l6.15-14.13c0.44,0.04,0.77,0.06,0.99,0.06s0.55-0.02,0.99-0.06
		l7.2,15.72C532,43.49,532.59,44.13,533.17,44.17z M523.12,37.63l-2.55-5.88l-2.55,5.88H523.12z"/>
	<path d="M543.76,27.13c-0.64,0.04-1.11,0.12-1.39,0.24c-0.29,0.12-0.49,0.35-0.58,0.69c-0.1,0.34-0.15,0.89-0.15,1.65v11.88
		c0,0.76,0.05,1.31,0.15,1.65c0.1,0.34,0.29,0.57,0.58,0.69c0.29,0.12,0.75,0.2,1.39,0.24v0.6c-1.1-0.06-2.72-0.09-4.86-0.09
		c-2.38,0-4.11,0.03-5.19,0.09v-0.6c0.64-0.04,1.1-0.12,1.39-0.24c0.29-0.12,0.49-0.35,0.58-0.69c0.1-0.34,0.15-0.89,0.15-1.65
		V29.71c0-0.76-0.06-1.31-0.17-1.65c-0.11-0.34-0.3-0.57-0.58-0.69s-0.74-0.2-1.38-0.24v-0.6c1.08,0.06,2.81,0.09,5.19,0.09
		c2.12,0,3.74-0.03,4.86-0.09V27.13z"/>
	<path d="M555.55,27.13c-0.64,0.04-1.11,0.12-1.39,0.24c-0.29,0.12-0.49,0.35-0.58,0.69c-0.1,0.34-0.15,0.89-0.15,1.65v12.48
		c0,0.78,0.12,1.29,0.34,1.53c0.23,0.24,0.62,0.36,1.19,0.36h0.69c1.28,0,2.42-0.52,3.42-1.56c1-1.04,1.7-2.69,2.1-4.95h0.69
		c-0.06,0.66-0.09,1.48-0.09,2.46c0,1.4,0.07,2.98,0.21,4.74c-1.3-0.06-3.49-0.09-6.57-0.09c-4.4,0-7.7,0.03-9.9,0.09v-0.6
		c0.64-0.04,1.1-0.12,1.39-0.24c0.29-0.12,0.49-0.35,0.58-0.69c0.1-0.34,0.15-0.89,0.15-1.65V29.71c0-0.76-0.06-1.31-0.17-1.65
		c-0.11-0.34-0.3-0.57-0.58-0.69s-0.74-0.2-1.38-0.24v-0.6c1.14,0.06,2.92,0.09,5.34,0.09c2.02,0,3.59-0.03,4.71-0.09V27.13z"/>
	<path d="M569.04,40.69c0.51,0.44,0.77,1.08,0.77,1.92c0,0.84-0.25,1.48-0.77,1.92c-0.51,0.44-1.24,0.66-2.2,0.66
		c-0.96,0-1.7-0.22-2.21-0.66c-0.51-0.44-0.77-1.08-0.77-1.92c0-0.84,0.25-1.48,0.77-1.92c0.51-0.44,1.24-0.66,2.21-0.66
		C567.79,40.03,568.53,40.25,569.04,40.69z"/>
	<path d="M584.97,26.61c0.75,0.33,1.5,0.82,2.27,1.46c0.22,0.18,0.41,0.27,0.57,0.27c0.4,0,0.66-0.6,0.78-1.8h0.69
		c-0.08,1.2-0.12,3.3-0.12,6.3h-0.69c-0.22-1.12-0.42-1.92-0.61-2.42c-0.19-0.49-0.49-0.96-0.89-1.42c-0.56-0.62-1.17-1.1-1.83-1.46
		c-0.66-0.35-1.34-0.52-2.04-0.52c-1.06,0-1.98,0.35-2.76,1.05c-0.78,0.7-1.38,1.71-1.81,3.02c-0.43,1.31-0.65,2.85-0.65,4.63
		c0,1.8,0.24,3.35,0.72,4.64c0.48,1.29,1.13,2.27,1.95,2.94c0.82,0.67,1.74,1,2.76,1c0.74,0,1.46-0.17,2.16-0.52
		c0.7-0.35,1.31-0.83,1.83-1.46c0.4-0.48,0.69-1,0.87-1.58c0.18-0.57,0.35-1.42,0.51-2.56h0.69c0,3.14,0.04,5.34,0.12,6.6h-0.69
		c-0.06-0.62-0.15-1.07-0.27-1.37c-0.12-0.29-0.28-0.43-0.48-0.43c-0.16,0-0.36,0.09-0.6,0.27c-0.72,0.6-1.51,1.08-2.37,1.42
		c-0.86,0.35-1.87,0.52-3.03,0.52c-1.98,0-3.73-0.37-5.26-1.11s-2.73-1.81-3.6-3.23c-0.87-1.41-1.31-3.08-1.31-5.02
		c0-1.9,0.45-3.58,1.33-5.06c0.89-1.47,2.1-2.61,3.63-3.44c1.53-0.82,3.24-1.23,5.12-1.23C583.21,26.11,584.22,26.28,584.97,26.61z"
		/>
	<path d="M608.25,27.21c1.61,0.73,2.86,1.8,3.75,3.21c0.89,1.41,1.33,3.1,1.33,5.06c0,1.92-0.46,3.61-1.37,5.08
		c-0.91,1.47-2.18,2.61-3.81,3.42c-1.63,0.81-3.49,1.21-5.57,1.21c-2.14,0-4.01-0.37-5.62-1.09c-1.61-0.73-2.86-1.8-3.75-3.21
		c-0.89-1.41-1.33-3.09-1.33-5.06c0-1.92,0.46-3.62,1.37-5.08c0.91-1.47,2.18-2.61,3.81-3.42s3.49-1.22,5.57-1.22
		C604.76,26.11,606.64,26.48,608.25,27.21z M600.07,27.81c-0.7,0.77-1.24,1.84-1.62,3.21c-0.38,1.37-0.57,2.94-0.57,4.69
		c0,1.78,0.21,3.35,0.65,4.71c0.43,1.36,1.01,2.41,1.74,3.14c0.73,0.73,1.55,1.09,2.45,1.09c0.92,0,1.73-0.38,2.43-1.15
		s1.24-1.84,1.62-3.21c0.38-1.37,0.57-2.94,0.57-4.7c0-1.78-0.21-3.35-0.64-4.71c-0.43-1.36-1.01-2.4-1.74-3.13
		c-0.73-0.73-1.54-1.1-2.45-1.1C601.58,26.65,600.77,27.04,600.07,27.81z"/>
	<path d="M638.91,27.37c-0.33,0.12-0.55,0.35-0.67,0.69c-0.12,0.34-0.18,0.89-0.18,1.65v11.88c0,0.76,0.06,1.31,0.18,1.65
		c0.12,0.34,0.34,0.57,0.67,0.69c0.33,0.12,0.86,0.2,1.58,0.24v0.6c-1.16-0.06-2.83-0.09-5.01-0.09c-2.7,0-4.68,0.03-5.94,0.09v-0.6
		c0.72-0.04,1.25-0.12,1.58-0.24c0.33-0.12,0.55-0.35,0.67-0.69c0.12-0.34,0.18-0.89,0.18-1.65V28.42l-6.63,16.5h-0.48l-6.96-16.47
		v11.94c0,0.96,0.08,1.68,0.25,2.16s0.48,0.84,0.95,1.07c0.46,0.23,1.17,0.42,2.13,0.55v0.6c-0.98-0.06-2.2-0.09-3.66-0.09
		c-1.06,0-1.89,0.03-2.49,0.09v-0.6c0.64-0.14,1.1-0.32,1.4-0.55c0.29-0.23,0.48-0.58,0.58-1.05c0.1-0.47,0.15-1.19,0.15-2.17V29.71
		c0-0.76-0.06-1.31-0.18-1.65c-0.12-0.34-0.34-0.57-0.67-0.69s-0.86-0.2-1.58-0.24v-0.6c1.32,0.06,3.35,0.09,6.09,0.09
		c1.1,0,2.02-0.03,2.76-0.09l4.26,10.2l4.08-10.11h3.51c2.18,0,3.85-0.03,5.01-0.09v0.6C639.76,27.17,639.24,27.25,638.91,27.37z"/>
</g>
<g>
	<path class="st2" d="M40.18,12.13c0.1,0.02,0.16,0.08,0.23,0.14c3.5,2.6,7,5.21,10.5,7.81c3.89,2.89,7.78,5.79,11.66,8.68
		c0.04,0.03,0.09,0.06,0.12,0.09c0.11,0.1,0.2,0.09,0.31,0c0.47-0.36,0.95-0.71,1.43-1.07c6.93-5.16,13.87-10.32,20.8-15.48
		c0.09-0.07,0.18-0.12,0.28-0.18c0,0.17,0,0.34,0,0.51c0,7.95,0,15.89,0,23.84c-0.02,0.02-0.03,0.04-0.05,0.06
		c-0.55,0.4-1.09,0.8-1.64,1.2c-4.64,3.45-9.28,6.91-13.92,10.36c-2.26,1.68-4.52,3.37-6.78,5.05c-0.33,0.24-0.22,0.24-0.55,0
		c-5.84-4.34-11.68-8.69-17.52-13.04c-1.52-1.13-3.05-2.27-4.57-3.4c-0.08-0.06-0.17-0.11-0.25-0.17c-0.02-0.02-0.04-0.05-0.06-0.07
		c0-0.14,0.01-0.28,0.01-0.42c0-5.99,0-11.98,0-17.98C40.18,16.09,40.18,14.11,40.18,12.13z"/>
	<path class="st3" d="M104.37,63.66c-0.41,2.16-1.68,3.62-3.75,4.39c-0.34,0.13-0.69,0.22-1.06,0.24c-0.19-0.01-0.38-0.03-0.55,0.06
		c0,0,0.01,0.01,0.01,0.01c-0.08,0-0.16-0.01-0.24-0.01c-4.29,0-8.58,0-12.87,0c-0.09,0-0.18,0.01-0.27,0.01
		c-0.02-0.01-0.03-0.01-0.05-0.01c0-0.14-0.01-0.28-0.01-0.42c0-10.34,0-20.67,0-31.01c0-0.15,0-0.3-0.01-0.45
		c0.01-0.02,0.02-0.04,0.03-0.07c0.08-0.06,0.17-0.11,0.25-0.17c1.81-1.34,3.61-2.69,5.42-4.03c3.78-2.81,7.56-5.63,11.35-8.44
		c0.6-0.45,1.18-0.91,1.81-1.32c0,0.15,0.01,0.3,0.01,0.45c0,13.28,0,26.56,0,39.84c0,0.13,0.01,0.26,0.01,0.39
		c0,0.04-0.01,0.08-0.01,0.12C104.35,63.37,104.36,63.52,104.37,63.66z"/>
	<path class="st4" d="M40.14,36.61c0,0.1-0.01,0.2-0.01,0.3c0,10.36,0,20.72,0,31.08c0,0.1,0,0.2,0.01,0.3
		c-0.01,0.02-0.02,0.04-0.02,0.06c-0.11,0-0.22,0.01-0.33,0.01c-4.27,0-8.53,0-12.8,0c-0.16,0-0.32-0.01-0.49-0.02
		c-0.02-0.02-0.04-0.03-0.07,0c-0.06-0.01-0.12-0.01-0.18-0.02c-0.02-0.03-0.04-0.03-0.07-0.02c-0.94-0.08-1.78-0.43-2.54-0.97
		c-1.25-0.89-2.02-2.08-2.32-3.58c-0.01-0.05-0.01-0.1-0.01-0.15c0-0.01,0.01-0.02,0.01-0.02c0-0.02-0.01-0.03-0.02-0.04
		c-0.06-0.15-0.04-0.32-0.06-0.48c0-0.02,0-0.05,0-0.07c0-0.13,0.01-0.26,0.01-0.39c0-13.25,0-26.5,0-39.75
		c0-0.14,0.01-0.28,0.01-0.42c0.07,0.04,0.14,0.09,0.2,0.13c0.88,0.66,1.77,1.31,2.65,1.97c4.27,3.18,8.55,6.36,12.82,9.55
		c1.07,0.8,2.13,1.59,3.2,2.39C40.14,36.52,40.14,36.56,40.14,36.61z"/>
	<path class="st5" d="M40.14,36.47c-1.07-0.8-2.13-1.6-3.2-2.39c-4.27-3.18-8.55-6.37-12.82-9.55c-0.88-0.66-1.76-1.31-2.65-1.97
		c-0.06-0.05-0.13-0.09-0.2-0.13c0,0,0,0.01,0,0.01c0.01-0.02,0.01-0.04,0-0.06c0-2.43,0-4.87,0-7.3c0-0.18-0.01-0.36-0.01-0.54
		c0-0.14,0.01-0.27,0.01-0.41c0.07-0.1,0.06-0.21,0.05-0.31c0.16-1.33,0.62-2.55,1.38-3.65c1.38-2,3.28-3.19,5.68-3.62
		c0.06-0.01,0.12-0.01,0.18-0.02c0.11,0.01,0.22,0.01,0.32-0.05c0.08,0,0.15-0.01,0.23-0.01c0.41,0,0.82,0,1.23,0
		c0.1,0,0.19,0.01,0.29,0.01c0.1,0.06,0.21,0.06,0.32,0.05c1.17,0.15,2.26,0.55,3.26,1.16c0.68,0.42,1.3,0.93,1.94,1.4
		c1.28,0.94,2.54,1.89,3.82,2.84c0.08,0.06,0.18,0.1,0.22,0.2c0,1.98,0.01,3.95,0.01,5.93c0,5.99,0,11.98,0,17.98
		c0,0.14-0.01,0.28-0.01,0.42C40.16,36.46,40.15,36.47,40.14,36.47z"/>
	<path class="st6" d="M104.42,22.44c-0.62,0.41-1.21,0.88-1.81,1.32c-3.78,2.81-7.57,5.63-11.35,8.44
		c-1.81,1.34-3.61,2.69-5.42,4.03c-0.08,0.06-0.17,0.11-0.25,0.17c-0.04-0.16-0.02-0.32-0.02-0.48c0-7.77,0-15.54,0-23.31
		c0-0.17,0.02-0.34-0.02-0.51c0.38-0.34,0.81-0.63,1.22-0.94c1.38-1.03,2.77-2.06,4.15-3.09c0.91-0.68,1.94-1.12,3.04-1.41
		c0.26-0.07,0.53-0.09,0.79-0.13c0.13,0.02,0.26,0.01,0.37-0.05c0.08,0,0.15-0.01,0.23-0.01c0.39,0,0.78,0,1.17,0
		c0.08,0,0.16,0,0.24,0.01c0.12,0.06,0.24,0.08,0.37,0.05c1.2,0.19,2.33,0.56,3.36,1.22c1.62,1.05,2.79,2.46,3.45,4.27
		c0.15,0.4,0.27,0.8,0.31,1.23c0,0.04,0.03,0.07,0.05,0.1c-0.02,0.13,0.01,0.25,0.06,0.36c0,0.02,0,0.04,0,0.05
		c-0.02,0.15-0.01,0.29,0.05,0.43c0,0.1,0.01,0.2,0.01,0.29c0,0.05-0.01,0.1-0.01,0.15c0,2.02,0,4.04,0,6.07
		c0,0.56,0,1.12,0.01,1.68C104.43,22.4,104.42,22.42,104.42,22.44z"/>
	<path class="st7" d="M104.42,22.44c0-0.02,0.01-0.04,0.02-0.05c0.01,0,0.03,0,0.04,0c0,0.14,0.01,0.28,0.01,0.42
		c0,13.29,0,26.58,0,39.87c0,0.15,0.04,0.3-0.05,0.44c0-0.13-0.01-0.26-0.01-0.39c0-13.28,0-26.56,0-39.84
		C104.43,22.74,104.42,22.59,104.42,22.44z"/>
	<path class="st7" d="M85.57,36.47c0,0.15,0.01,0.3,0.01,0.45c0,10.34,0,20.67,0,31.01c0,0.14,0,0.28,0.01,0.42
		c-0.06-0.05-0.07-0.12-0.07-0.19c0-0.1,0-0.2,0-0.3c0-10.29,0-20.57,0-30.86c0-0.16,0.03-0.32-0.05-0.47
		c0.02-0.02,0.03-0.04,0.05-0.06C85.53,36.47,85.55,36.47,85.57,36.47z"/>
	<path class="st8" d="M85.57,36.47c-0.02,0-0.04,0-0.05,0c0-7.95,0-15.89,0-23.84c0-0.17,0-0.34,0-0.51c0,0,0.01-0.02,0.01-0.02
		s0.02,0,0.02,0c0.04,0.17,0.02,0.34,0.02,0.51c0,7.77,0,15.54,0,23.31c0,0.16-0.02,0.32,0.02,0.48
		C85.59,36.43,85.58,36.45,85.57,36.47z"/>
	<path class="st9" d="M85.63,68.37c0.09,0,0.18-0.01,0.27-0.01c4.29,0,8.58,0,12.87,0c0.08,0,0.16,0.01,0.24,0.01
		c-0.1,0.06-0.21,0.05-0.33,0.05c-4.25,0-8.49,0-12.74,0C85.85,68.42,85.73,68.43,85.63,68.37z"/>
	<path class="st10" d="M104.48,22.39c-0.01,0-0.03,0-0.04,0c0-0.56-0.01-1.12-0.01-1.68c0-2.02,0-4.04,0-6.07
		c0-0.05,0.01-0.1,0.01-0.15c0.05,0.09,0.05,0.19,0.05,0.29c0,2.51,0,5.01,0,7.52C104.49,22.33,104.49,22.36,104.48,22.39z"/>
	<path class="st11" d="M21.26,14.54c0,0.18,0.01,0.36,0.01,0.54c0,2.43,0,4.87,0,7.3c-0.01,0-0.03,0-0.04,0
		c0-0.12-0.01-0.24-0.01-0.36c0-2.35,0-4.69,0-7.04C21.21,14.84,21.18,14.68,21.26,14.54z"/>
	<path class="st11" d="M30.34,6.47c-0.41,0-0.82,0-1.23,0C29.52,6.39,29.93,6.38,30.34,6.47z"/>
	<path class="st12" d="M96.53,6.47c-0.39,0-0.78,0-1.17,0C95.75,6.38,96.14,6.39,96.53,6.47z"/>
	<path class="st13" d="M99.02,68.36c0.18-0.08,0.37-0.06,0.55-0.06C99.39,68.37,99.2,68.38,99.02,68.36z"/>
	<path class="st12" d="M104.43,14.19c-0.06-0.14-0.07-0.28-0.05-0.43C104.44,13.9,104.45,14.05,104.43,14.19z"/>
	<path class="st13" d="M104.37,63.66c-0.02-0.15-0.02-0.29,0.06-0.43C104.45,63.38,104.42,63.53,104.37,63.66z"/>
	<path class="st12" d="M95.13,6.48c-0.12,0.06-0.24,0.07-0.37,0.05C94.87,6.48,95,6.46,95.13,6.48z"/>
	<path class="st12" d="M97.14,6.53c-0.13,0.02-0.25,0-0.37-0.05C96.9,6.46,97.02,6.47,97.14,6.53z"/>
	<path class="st12" d="M104.37,13.71c-0.06-0.12-0.08-0.24-0.06-0.36C104.37,13.46,104.39,13.58,104.37,13.71z"/>
	<path class="st11" d="M28.88,6.48c-0.1,0.06-0.21,0.06-0.32,0.05C28.66,6.47,28.77,6.47,28.88,6.48z"/>
	<path class="st11" d="M30.94,6.53c-0.11,0.01-0.22,0.01-0.32-0.05C30.74,6.47,30.85,6.47,30.94,6.53z"/>
	<path class="st11" d="M21.32,13.82c0.01,0.11,0.02,0.22-0.05,0.31C21.26,14.03,21.24,13.92,21.32,13.82z"/>
	<path class="st14" d="M40.14,36.47c0.01,0,0.02-0.01,0.04-0.01c0.02,0.02,0.04,0.05,0.06,0.07c-0.03,0.03-0.06,0.05-0.09,0.08
		C40.14,36.56,40.14,36.52,40.14,36.47z"/>
	<path class="st14" d="M21.22,22.39c0.01,0,0.03,0,0.04,0c0.01,0.02,0.01,0.04,0,0.06C21.25,22.42,21.23,22.4,21.22,22.39z"/>
	<path class="st14" d="M21.25,62.99c0,0.02,0,0.05,0,0.07c-0.01-0.02-0.02-0.03-0.02-0.05C21.23,63.01,21.24,63,21.25,62.99z"/>
	<path class="st15" d="M21.31,63.54c0.01,0.01,0.01,0.03,0.02,0.04c0,0.01-0.01,0.02-0.01,0.02c-0.01-0.01-0.01-0.03-0.02-0.04
		C21.3,63.56,21.31,63.55,21.31,63.54z"/>
	<path class="st15" d="M26.18,68.31c0.03-0.01,0.05-0.01,0.07,0.02C26.23,68.33,26.2,68.33,26.18,68.31z"/>
	<path class="st15" d="M26.43,68.34c0.02-0.02,0.05-0.02,0.07,0C26.48,68.34,26.46,68.34,26.43,68.34z"/>
	<path class="st14" d="M40.12,68.36c0.01-0.02,0.02-0.04,0.02-0.06C40.17,68.33,40.16,68.35,40.12,68.36z"/>
</g>
<g>
</g>
<g>
</g>
<g>
</g>
<g>
</g>
<g>
</g>
<g>
</g>
</svg>
