<?xml version="1.0" encoding="utf-8"?>
<!-- Generator: Adobe Illustrator 26.2.1, SVG Export Plug-In . SVG Version: 6.00 Build 0)  -->
<svg version="1.1" id="Capa_1" xmlns="http://www.w3.org/2000/svg" xmlns:xlink="http://www.w3.org/1999/xlink" x="0px" y="0px"
	 viewBox="0 0 654.39 74.56" style="enable-background:new 0 0 654.39 74.56;" xml:space="preserve">
<style type="text/css">
	.st0{fill:none;}
	.st1{fill:#BD2987;}
	.st2{fill:#FBBB25;}
	.st3{fill:#EF7C21;}
	.st4{fill:#F6A126;}
	.st5{fill:#E4201D;}
	.st6{fill:#E94D1F;}
	.st7{fill:#E6341E;}
	.st8{fill:#E01042;}
	.st9{fill:#DB1052;}
	.st10{fill:#D1066D;}
	.st11{fill:#EC6520;}
	.st12{fill:#E41033;}
	.st13{fill:#CD0678;}
	.st14{fill:#E41926;}
	.st15{fill:#D60860;}
	.st16{fill:#FFFEFE;}
</style>
<g>
	<rect x="133.33" y="28.53" class="st0" width="595.61" height="60.53"/>
	<path d="M157.85,25.65c-0.74,0.17-1.3,0.43-1.66,0.77c-0.36,0.35-0.6,0.88-0.72,1.6c-0.12,0.72-0.18,1.8-0.18,3.24v8.68
		c0,3.46-0.49,6-1.48,7.63c-0.65,1.08-1.6,1.91-2.86,2.48c-1.26,0.58-2.89,0.86-4.88,0.86c-2.9,0-5.16-0.58-6.77-1.73
		c-1.18-0.84-1.96-1.97-2.36-3.38c-0.4-1.42-0.59-3.34-0.59-5.76v-11.3c0-0.91-0.06-1.57-0.18-1.98c-0.12-0.41-0.35-0.68-0.7-0.83
		c-0.35-0.14-0.91-0.24-1.67-0.29v-0.72c1.37,0.07,3.48,0.11,6.34,0.11c2.83,0,4.98-0.04,6.44-0.11v0.72
		c-0.86,0.05-1.49,0.14-1.89,0.29s-0.67,0.42-0.81,0.83c-0.14,0.41-0.22,1.07-0.22,1.98v14.69c0,2.3,0.36,3.92,1.08,4.84
		c0.72,0.92,1.86,1.39,3.42,1.39c2.28,0,3.9-0.81,4.86-2.43s1.44-3.92,1.44-6.89v-8.35c0-1.78-0.07-3.05-0.22-3.83
		c-0.14-0.78-0.46-1.35-0.95-1.71c-0.49-0.36-1.31-0.62-2.47-0.79v-0.72c0.98,0.07,2.33,0.11,4.03,0.11c1.27,0,2.27-0.04,2.99-0.11
		V25.65z"/>
	<path d="M182.11,29.25c-0.77,0.17-1.33,0.39-1.67,0.67c-0.35,0.28-0.58,0.7-0.7,1.26c-0.12,0.56-0.18,1.43-0.18,2.61v16.63
		c-0.58-0.05-1.01-0.07-1.3-0.07c-0.31,0-0.76,0.02-1.33,0.07l-14.4-16.52v11.27c0,1.15,0.1,2.02,0.31,2.59
		c0.2,0.58,0.58,1,1.13,1.28c0.55,0.28,1.4,0.5,2.56,0.67v0.72c-1.18-0.07-2.64-0.11-4.39-0.11c-1.27,0-2.27,0.04-2.99,0.11V49.7
		c0.77-0.17,1.33-0.39,1.67-0.67c0.35-0.28,0.58-0.7,0.7-1.26c0.12-0.56,0.18-1.43,0.18-2.61V32.35c0-0.91-0.07-1.57-0.2-1.98
		c-0.13-0.41-0.37-0.68-0.7-0.83c-0.34-0.14-0.89-0.24-1.66-0.29v-0.72c0.72,0.07,1.72,0.11,2.99,0.11c1.97,0,3.67-0.04,5.11-0.11
		l11.48,13.1v-7.85c0-1.15-0.1-2.02-0.31-2.59c-0.2-0.58-0.58-1-1.13-1.28c-0.55-0.28-1.4-0.5-2.56-0.67v-0.72
		c1.18,0.07,2.64,0.11,4.39,0.11c1.27,0,2.27-0.04,2.99-0.11V29.25z"/>
	<path d="M195.94,29.25c-0.77,0.05-1.33,0.14-1.67,0.29c-0.35,0.14-0.58,0.42-0.7,0.83c-0.12,0.41-0.18,1.07-0.18,1.98v14.98
		c0,0.94,0.14,1.55,0.41,1.84c0.28,0.29,0.75,0.43,1.42,0.43h0.83c1.54,0,2.9-0.62,4.1-1.87c1.2-1.25,2.04-3.23,2.52-5.94h0.83
		c-0.07,0.79-0.11,1.78-0.11,2.95c0,1.68,0.08,3.58,0.25,5.69c-1.56-0.07-4.19-0.11-7.88-0.11c-5.28,0-9.24,0.04-11.88,0.11V49.7
		c0.77-0.05,1.33-0.14,1.67-0.29c0.35-0.14,0.58-0.42,0.7-0.83c0.12-0.41,0.18-1.07,0.18-1.98V32.35c0-0.91-0.07-1.57-0.2-1.98
		s-0.37-0.68-0.7-0.83c-0.34-0.14-0.89-0.24-1.66-0.29v-0.72c1.37,0.07,3.5,0.11,6.41,0.11c2.42,0,4.31-0.04,5.65-0.11V29.25z"/>
	<path d="M217.5,29.25c-0.77,0.05-1.33,0.14-1.67,0.29c-0.35,0.14-0.58,0.42-0.7,0.83c-0.12,0.41-0.18,1.07-0.18,1.98v14.26
		c0,0.91,0.06,1.57,0.18,1.98c0.12,0.41,0.35,0.68,0.7,0.83c0.35,0.14,0.91,0.24,1.67,0.29v0.72c-1.32-0.07-3.26-0.11-5.83-0.11
		c-2.86,0-4.93,0.04-6.23,0.11V49.7c0.77-0.05,1.33-0.14,1.67-0.29c0.35-0.14,0.58-0.42,0.7-0.83c0.12-0.41,0.18-1.07,0.18-1.98
		V32.35c0-0.91-0.07-1.57-0.2-1.98s-0.37-0.68-0.7-0.83c-0.34-0.14-0.89-0.24-1.66-0.29v-0.72c1.3,0.07,3.37,0.11,6.23,0.11
		c2.54,0,4.49-0.04,5.83-0.11V29.25z"/>
	<path d="M248.3,29.54c-0.4,0.14-0.67,0.42-0.81,0.83s-0.22,1.07-0.22,1.98v14.26c0,0.91,0.07,1.57,0.22,1.98
		c0.14,0.41,0.41,0.68,0.81,0.83s1.03,0.24,1.89,0.29v0.72c-1.39-0.07-3.4-0.11-6.01-0.11c-3.24,0-5.62,0.04-7.13,0.11V49.7
		c0.86-0.05,1.49-0.14,1.89-0.29s0.67-0.42,0.81-0.83c0.14-0.41,0.22-1.07,0.22-1.98V30.8l-7.96,19.8h-0.58l-8.35-19.76v14.33
		c0,1.15,0.1,2.02,0.31,2.59c0.2,0.58,0.58,1,1.13,1.28c0.55,0.28,1.4,0.5,2.56,0.67v0.72c-1.18-0.07-2.64-0.11-4.39-0.11
		c-1.27,0-2.27,0.04-2.99,0.11V49.7c0.77-0.17,1.33-0.39,1.67-0.67c0.35-0.28,0.58-0.7,0.7-1.26c0.12-0.56,0.18-1.43,0.18-2.61
		V32.35c0-0.91-0.07-1.57-0.22-1.98s-0.41-0.68-0.81-0.83s-1.03-0.24-1.89-0.29v-0.72c1.58,0.07,4.02,0.11,7.31,0.11
		c1.32,0,2.42-0.04,3.31-0.11l5.11,12.24l4.9-12.13h4.21c2.62,0,4.62-0.04,6.01-0.11v0.72C249.32,29.3,248.69,29.4,248.3,29.54z"/>
	<path d="M264.16,29.25c-0.77,0.05-1.33,0.14-1.67,0.29c-0.35,0.14-0.58,0.42-0.7,0.83c-0.12,0.41-0.18,1.07-0.18,1.98v14.26
		c0,0.91,0.06,1.57,0.18,1.98c0.12,0.41,0.35,0.68,0.7,0.83c0.35,0.14,0.91,0.24,1.67,0.29v0.72c-1.32-0.07-3.26-0.11-5.83-0.11
		c-2.86,0-4.93,0.04-6.23,0.11V49.7c0.77-0.05,1.33-0.14,1.67-0.29c0.35-0.14,0.58-0.42,0.7-0.83c0.12-0.41,0.18-1.07,0.18-1.98
		V32.35c0-0.91-0.07-1.57-0.2-1.98s-0.37-0.68-0.7-0.83c-0.34-0.14-0.89-0.24-1.66-0.29v-0.72c1.3,0.07,3.37,0.11,6.23,0.11
		c2.54,0,4.49-0.04,5.83-0.11V29.25z"/>
	<path d="M287.88,33.86c0,1.44,0.04,2.54,0.11,3.31h-0.83c-0.67-2.83-1.49-4.84-2.47-6.03c-0.97-1.19-2.24-1.78-3.8-1.78h-0.32
		v16.88c0,1.01,0.1,1.74,0.29,2.2c0.19,0.46,0.53,0.77,1.01,0.94c0.48,0.17,1.26,0.28,2.34,0.32v0.72
		c-1.34-0.07-3.77-0.11-7.27-0.11c-3.48,0-5.8,0.04-6.95,0.11V49.7c1.08-0.05,1.86-0.16,2.34-0.32c0.48-0.17,0.82-0.48,1.01-0.94
		c0.19-0.46,0.29-1.19,0.29-2.2V29.36h-0.32c-1.56,0-2.83,0.59-3.8,1.78c-0.97,1.19-1.79,3.2-2.47,6.03h-0.83
		c0.07-0.77,0.11-1.87,0.11-3.31c0-1.56-0.08-3.34-0.25-5.33c2.14,0.07,5.76,0.11,10.87,0.11c5.26,0,8.99-0.04,11.2-0.11
		C287.96,30.53,287.88,32.3,287.88,33.86z"/>
	<path d="M309.8,50.42c-1.56-0.07-4.19-0.11-7.88-0.11c-5.28,0-9.24,0.04-11.88,0.11V49.7c0.77-0.05,1.33-0.14,1.67-0.29
		c0.35-0.14,0.58-0.42,0.7-0.83c0.12-0.41,0.18-1.07,0.18-1.98V32.35c0-0.91-0.07-1.57-0.2-1.98s-0.37-0.68-0.7-0.83
		c-0.34-0.14-0.89-0.24-1.66-0.29v-0.72c2.64,0.07,6.6,0.11,11.88,0.11c3.36,0,5.75-0.04,7.16-0.11c-0.17,1.7-0.25,3.24-0.25,4.61
		c0,0.94,0.04,1.68,0.11,2.23h-0.83c-0.48-2.14-1.24-3.67-2.29-4.61c-1.04-0.94-2.37-1.4-3.98-1.4h-0.47
		c-0.67,0-1.15,0.12-1.42,0.36c-0.28,0.24-0.41,0.76-0.41,1.55v7.78h0.83c1.15,0,2.07-0.41,2.75-1.24c0.68-0.83,1.12-1.76,1.31-2.79
		h0.83c-0.07,0.82-0.11,1.78-0.11,2.88v1.51c0,1.18,0.07,2.64,0.22,4.39h-0.83c-0.17-1.15-0.61-2.11-1.33-2.88
		c-0.72-0.77-1.67-1.15-2.84-1.15h-0.83v7.92c0,0.79,0.14,1.31,0.41,1.55c0.28,0.24,0.75,0.36,1.42,0.36h0.83
		c1.68,0,3.08-0.52,4.19-1.57c1.12-1.04,1.93-2.77,2.43-5.17h0.83c-0.07,0.67-0.11,1.54-0.11,2.59
		C309.55,46.92,309.64,48.57,309.8,50.42z"/>
	<path d="M319,45.53c0.61,0.53,0.92,1.3,0.92,2.3c0,1.01-0.31,1.78-0.92,2.3c-0.61,0.53-1.49,0.79-2.65,0.79
		c-1.15,0-2.03-0.26-2.65-0.79c-0.61-0.53-0.92-1.3-0.92-2.3c0-1.01,0.31-1.78,0.92-2.3c0.61-0.53,1.49-0.79,2.65-0.79
		C317.51,44.73,318.39,45,319,45.53z"/>
	<path d="M339.43,25.04c1.01,0.41,1.99,0.98,2.95,1.73c0.24,0.22,0.47,0.32,0.68,0.32c0.48,0,0.79-0.72,0.94-2.16h0.83
		c-0.1,1.7-0.14,4.7-0.14,9h-0.83c-0.17-1.92-0.48-3.43-0.94-4.54c-0.46-1.1-1.25-2.03-2.38-2.77c-1.13-0.72-2.24-1.08-3.35-1.08
		c-2.5,0-4.25,1.2-5.26,3.6c-1.01,2.4-1.51,5.27-1.51,8.6s0.5,6.2,1.51,8.6c1.01,2.4,2.76,3.6,5.26,3.6c1.1,0,2.22-0.36,3.35-1.08
		c1.13-0.7,1.92-1.63,2.38-2.81c0.46-1.18,0.77-2.84,0.94-5h0.83c0,4.49,0.05,7.61,0.14,9.36H344c-0.07-0.77-0.17-1.31-0.31-1.64
		c-0.13-0.32-0.32-0.49-0.56-0.49c-0.19,0-0.44,0.1-0.76,0.29c-1.08,0.77-2.11,1.35-3.1,1.75c-0.98,0.4-2.17,0.59-3.56,0.59
		c-2.71,0-5.09-0.52-7.13-1.55c-2.04-1.03-3.62-2.53-4.75-4.48s-1.69-4.29-1.69-7c0-2.64,0.58-4.98,1.73-7.02
		c1.15-2.04,2.76-3.62,4.82-4.75c2.06-1.13,4.42-1.69,7.06-1.69C337.2,24.43,338.42,24.63,339.43,25.04z"/>
	<path d="M367.57,29.34c1.93,0.88,3.43,2.16,4.5,3.85c1.07,1.69,1.6,3.71,1.6,6.07c0,2.3-0.55,4.34-1.64,6.1
		c-1.09,1.76-2.62,3.13-4.57,4.1c-1.96,0.97-4.18,1.46-6.68,1.46c-2.57,0-4.82-0.44-6.75-1.31c-1.93-0.88-3.43-2.16-4.5-3.85
		s-1.6-3.71-1.6-6.07c0-2.3,0.55-4.34,1.64-6.1c1.09-1.76,2.62-3.13,4.57-4.1c1.96-0.97,4.18-1.46,6.68-1.46
		C363.38,28.03,365.63,28.47,367.57,29.34z M357.76,30.06c-0.84,0.92-1.49,2.21-1.94,3.85c-0.46,1.64-0.68,3.52-0.68,5.63
		c0,2.14,0.26,4.02,0.77,5.65c0.52,1.63,1.21,2.89,2.09,3.76c0.88,0.88,1.85,1.31,2.93,1.31c1.1,0,2.08-0.46,2.92-1.39
		c0.84-0.92,1.49-2.21,1.94-3.85c0.46-1.64,0.68-3.52,0.68-5.63c0-2.14-0.26-4.02-0.77-5.65c-0.52-1.63-1.21-2.89-2.09-3.76
		c-0.88-0.88-1.85-1.31-2.93-1.31C359.57,28.68,358.6,29.14,357.76,30.06z"/>
	<path d="M395.83,29.34c1.93,0.88,3.43,2.16,4.5,3.85c1.07,1.69,1.6,3.71,1.6,6.07c0,2.3-0.55,4.34-1.64,6.1
		c-1.09,1.76-2.62,3.13-4.57,4.1c-1.96,0.97-4.18,1.46-6.68,1.46c-2.57,0-4.82-0.44-6.75-1.31c-1.93-0.88-3.43-2.16-4.5-3.85
		s-1.6-3.71-1.6-6.07c0-2.3,0.55-4.34,1.64-6.1c1.09-1.76,2.62-3.13,4.57-4.1c1.96-0.97,4.18-1.46,6.68-1.46
		C391.64,28.03,393.89,28.47,395.83,29.34z M386.02,30.06c-0.84,0.92-1.49,2.21-1.94,3.85c-0.46,1.64-0.68,3.52-0.68,5.63
		c0,2.14,0.26,4.02,0.77,5.65c0.52,1.63,1.21,2.89,2.09,3.76c0.88,0.88,1.85,1.31,2.93,1.31c1.1,0,2.08-0.46,2.92-1.39
		s1.49-2.21,1.94-3.85c0.46-1.64,0.68-3.52,0.68-5.63c0-2.14-0.26-4.02-0.77-5.65c-0.52-1.63-1.21-2.89-2.09-3.76
		c-0.88-0.88-1.85-1.31-2.93-1.31C387.83,28.68,386.86,29.14,386.02,30.06z"/>
	<path d="M429.14,48.89c0.26,0.28,0.64,0.55,1.12,0.81v0.72c-2.02-0.07-4.18-0.11-6.48-0.11c-1.78,0-3.49,0.04-5.15,0.11V49.7
		c0.77-0.05,1.3-0.11,1.6-0.2c0.3-0.08,0.45-0.25,0.45-0.49c0-0.24-0.12-0.55-0.36-0.94l-4.68-6.84c-0.36-0.53-0.7-0.94-1.01-1.22
		c-0.31-0.29-0.72-0.46-1.22-0.5v7.09c0,0.91,0.06,1.57,0.18,1.98c0.12,0.41,0.35,0.68,0.7,0.83s0.91,0.24,1.67,0.29v0.72
		c-1.32-0.07-3.26-0.11-5.83-0.11c-2.79,0-4.86,0.04-6.23,0.11V49.7c0.77-0.05,1.33-0.14,1.67-0.29s0.58-0.42,0.7-0.83
		c0.12-0.41,0.18-1.07,0.18-1.98V32.35c0-0.91-0.07-1.57-0.2-1.98c-0.13-0.41-0.37-0.68-0.7-0.83c-0.34-0.14-0.89-0.24-1.66-0.29
		v-0.72c1.37,0.07,3.44,0.11,6.23,0.11c2.54,0,4.49-0.04,5.83-0.11v0.72c-0.77,0.05-1.33,0.14-1.67,0.29s-0.58,0.42-0.7,0.83
		s-0.18,1.07-0.18,1.98v6.37c1.18-0.12,2.23-0.42,3.17-0.9c0.94-0.48,1.92-1.21,2.95-2.2l0.83-0.79c1.13-1.06,1.69-2.09,1.69-3.1
		c0-0.72-0.29-1.31-0.88-1.76c-0.59-0.46-1.31-0.71-2.18-0.76v-0.68c2.02,0.07,4.15,0.11,6.41,0.11c1.46,0,2.68-0.04,3.64-0.11v0.68
		c-0.84,0.22-1.71,0.6-2.61,1.15c-0.9,0.55-1.77,1.24-2.61,2.05l-3.6,3.53l7.85,11.56C428.52,48.15,428.88,48.62,429.14,48.89z"/>
	<path d="M442.97,29.25c-0.77,0.05-1.33,0.14-1.67,0.29s-0.58,0.42-0.7,0.83s-0.18,1.07-0.18,1.98v14.26c0,0.91,0.06,1.57,0.18,1.98
		c0.12,0.41,0.35,0.68,0.7,0.83s0.91,0.24,1.67,0.29v0.72c-1.32-0.07-3.26-0.11-5.83-0.11c-2.86,0-4.93,0.04-6.23,0.11V49.7
		c0.77-0.05,1.33-0.14,1.67-0.29s0.58-0.42,0.7-0.83c0.12-0.41,0.18-1.07,0.18-1.98V32.35c0-0.91-0.07-1.57-0.2-1.98
		c-0.13-0.41-0.37-0.68-0.7-0.83c-0.34-0.14-0.89-0.24-1.66-0.29v-0.72c1.3,0.07,3.37,0.11,6.23,0.11c2.54,0,4.49-0.04,5.83-0.11
		V29.25z"/>
	<path d="M468.06,29.25c-0.77,0.17-1.33,0.39-1.67,0.67c-0.35,0.28-0.58,0.7-0.7,1.26c-0.12,0.56-0.18,1.43-0.18,2.61v16.63
		c-0.58-0.05-1.01-0.07-1.3-0.07c-0.31,0-0.76,0.02-1.33,0.07l-14.4-16.52v11.27c0,1.15,0.1,2.02,0.31,2.59s0.58,1,1.13,1.28
		c0.55,0.28,1.4,0.5,2.56,0.67v0.72c-1.18-0.07-2.64-0.11-4.39-0.11c-1.27,0-2.27,0.04-2.99,0.11V49.7
		c0.77-0.17,1.33-0.39,1.67-0.67c0.35-0.28,0.58-0.7,0.7-1.26c0.12-0.56,0.18-1.43,0.18-2.61V32.35c0-0.91-0.07-1.57-0.2-1.98
		c-0.13-0.41-0.37-0.68-0.7-0.83c-0.34-0.14-0.89-0.24-1.66-0.29v-0.72c0.72,0.07,1.72,0.11,2.99,0.11c1.97,0,3.67-0.04,5.11-0.11
		l11.48,13.1v-7.85c0-1.15-0.1-2.02-0.31-2.59c-0.2-0.58-0.58-1-1.13-1.28c-0.55-0.28-1.4-0.5-2.56-0.67v-0.72
		c1.18,0.07,2.64,0.11,4.39,0.11c1.27,0,2.27-0.04,2.99-0.11V29.25z"/>
	<path d="M487.03,28.61c0.91,0.38,1.92,0.97,3.02,1.76c0.31,0.24,0.55,0.36,0.72,0.36c0.46,0,0.76-0.73,0.9-2.2h0.83
		c-0.1,1.37-0.14,3.77-0.14,7.2h-0.83c-0.38-1.87-0.98-3.29-1.8-4.25c-0.72-0.74-1.42-1.31-2.11-1.71c-0.68-0.4-1.51-0.59-2.47-0.59
		c-1.66,0-3.1,0.43-4.32,1.28c-1.22,0.85-2.17,2.06-2.83,3.62c-0.66,1.56-0.99,3.37-0.99,5.44c0,3.67,0.55,6.37,1.66,8.1
		c1.1,1.73,2.75,2.59,4.93,2.59c0.67,0,1.2-0.22,1.58-0.65c0.34-0.41,0.5-0.96,0.5-1.66v-3.53c0-1.01-0.08-1.74-0.25-2.2
		c-0.17-0.46-0.47-0.77-0.92-0.94c-0.44-0.17-1.15-0.28-2.11-0.32V40.2c1.73,0.07,3.9,0.11,6.52,0.11c2.3,0,4.03-0.04,5.18-0.11
		v0.72c-0.46,0.05-0.78,0.14-0.97,0.29s-0.32,0.42-0.4,0.83c-0.07,0.41-0.11,1.07-0.11,1.98v6.41h-0.72
		c-0.12-1.1-0.42-1.66-0.9-1.66c-0.41,0-1.04,0.23-1.91,0.68c-0.7,0.36-1.57,0.7-2.63,1.01s-2.21,0.47-3.46,0.47
		c-2.74,0-5.1-0.44-7.09-1.31s-3.51-2.14-4.55-3.78c-1.04-1.64-1.57-3.62-1.57-5.92c0-2.4,0.58-4.49,1.73-6.28
		c1.15-1.79,2.75-3.17,4.81-4.14c2.05-0.97,4.41-1.46,7.07-1.46C484.92,28.03,486.12,28.22,487.03,28.61z"/>
</g>
<g>
	<path class="st1" d="M80.47,7.14c5.75,0.19,10.85,1.83,14.62,6.48c2.29,2.82,3.49,6.12,3.78,9.67c0.71,8.86,0.49,17.74,0.28,26.61
		c-0.01-1.14-0.02-2.28-0.04-3.42c0.01-0.6,0.01-1.2,0.02-1.8c0.01-2.5,0.01-5.01,0.01-7.51c0-0.26,0.03-0.52-0.22-0.7
		c-0.08-1.81-0.6-3.39-1.92-4.74c-1.25-1.28-2.46-2.66-2.66-4.6c-0.15,1.12,0.04,2.28-0.52,3.33c0-0.5,0-1,0-1.5
		c-0.07,0.01-0.14,0.01-0.21,0.02c0,1.69,0,3.38,0,5.07c0,1.48,0.01,2.96,0.01,4.44c-0.01,2.66-0.02,5.32-0.03,7.97l-0.01,0.02
		c-0.04-0.02-0.09-0.03-0.14-0.03c-0.01-0.92-0.03-1.85-0.04-2.77c-0.06-6.14,0.17-12.28-0.23-18.41c-0.16-2.49-0.63-4.9-1.99-7.04
		c-1.78-2.79-4.44-4.24-7.59-4.93c0.03-0.13,0.45-0.27,0.16-0.32c-0.47-0.08-0.5-0.44-0.74-0.68c-1.23-1.2-1.72-2.91-2.93-4.12
		C79.45,7.54,80.15,7.41,80.47,7.14z"/>
	<path class="st2" d="M48.9,70.3c-5.6-1.15-9.61-4.34-11.98-9.52c-1.43-3.13-1.87-6.47-1.79-9.89c0.29-0.05,0.12-0.63,0.63-0.49
		c-0.01,0.56,0.27,0.98,0.61,1.45c0.58,0.81,1.35,1.44,1.88,2.31c1.07,1.75,2.28,3.42,3.44,5.13c0.28,0.41,0.63,0.62,1.13,0.35
		c0,0-0.05,0.08-0.05,0.08c-0.01,0.16,0.07,0.24,0.22,0.26l-0.02-0.02c0.19,0.52-0.15,1.36,0.85,1.38c-0.2,0.32-0.11,0.56,0.07,0.9
		c0.87,1.68,2.16,3.07,3.12,4.67C47.66,68.01,48.82,68.86,48.9,70.3z"/>
	<path class="st3" d="M34.98,40.28c-0.02-3.87-0.18-7.75,0.1-11.62c0.42-0.04,0.64,0.21,0.91,0.5c1.39,1.48,2.34,3.3,3.69,4.81
		c0.28,0.32,0.43,0.81,1.01,0.71c0,0.74,0,1.48-0.01,2.22c-0.03,0.02-0.08,0.05-0.08,0.06c0.02,0.06,0.05,0.11,0.08,0.16
		c0.01,3.19,0.02,6.37,0.03,9.56c-0.64-0.06-0.91-0.56-1.21-1.03c-1.07-1.68-2.17-3.33-3.41-4.89
		C35.77,40.35,35.47,40.17,34.98,40.28z"/>
	<path class="st4" d="M34.98,40.28c0.49-0.11,0.79,0.06,1.11,0.48c1.24,1.56,2.35,3.21,3.41,4.89c0.3,0.47,0.57,0.96,1.21,1.03
		c0,0.36,0,0.73,0.01,1.09c-0.27,0.17-0.24,0.33,0.02,0.48c0.24,1.2,0.12,2.42,0.18,3.63c0.15,2.7,0.58,5.33,1.88,7.75
		c-0.5,0.27-0.85,0.06-1.13-0.35c-1.16-1.7-2.36-3.37-3.44-5.13c-0.53-0.87-1.3-1.49-1.88-2.31c-0.33-0.47-0.61-0.89-0.61-1.45
		c-0.51-0.14-0.33,0.44-0.63,0.49C34.8,47.36,34.93,43.82,34.98,40.28z"/>
	<path class="st5" d="M41.54,11.25c2.68-2.39,5.93-3.4,9.39-3.9c0.65-0.1,1.31-0.11,1.97-0.17c-0.47,0.92-0.57,1.78,0.38,2.5
		c0.19,0.15,0.29,0.42,0.43,0.63c0.77,1.21,1.37,2.66,3.28,2.17c0.1-0.02,0.24,0.13,0.36,0.2c-0.62,0.05-1.25,0.14-1.87,0.15
		c-2.57,0.07-5.11,0.28-7.55,1.2c-1.17,0.44-2.05,1.35-3.2,1.82c-0.61-0.93-1.21-1.87-1.84-2.78
		C42.45,12.46,41.75,12.04,41.54,11.25z"/>
	<path class="st6" d="M35.22,24.96c0.18-3.25,0.8-6.39,2.53-9.21c0.01-0.04,0.04-0.08,0.07-0.11c0,0,0.02-0.05,0.02-0.05
		c0.06-0.09,0.12-0.18,0.18-0.26c0,0-0.02,0.02-0.02,0.02c1.26,0.56,2.18,1.46,2.82,2.68c0.34,0.65,0.62,1.36,1.27,1.81
		c-0.56,1.71-0.98,3.46-1.09,5.26c-0.13,2.16-0.2,4.32-0.29,6.49c-0.55-0.41-0.39-1.18-0.82-1.63c-1.21-1.25-2.14-2.71-3.06-4.17
		C36.41,25.12,35.99,24.77,35.22,24.96z"/>
	<path class="st5" d="M92.72,66.74c-2.57,2.32-5.71,3.36-9.05,3.91c-0.68,0.11-1.38,0.13-2.08,0.19c0.78-0.37,1.67-0.78,1.22-1.83
		c-0.53-1.25-1.49-2.28-2.44-3.2c-0.54-0.53-1.56-0.48-2.39-0.48c0.77-0.06,1.53-0.15,2.3-0.18c3.74-0.16,7.18-1.06,9.89-3.85
		c0.18,1.21,0.3,2.44,1.55,3.15c0.19,0.11,0.29,0.54,0.27,0.81C91.94,65.91,92.24,66.36,92.72,66.74z"/>
	<path class="st3" d="M65.58,71.09c-2.74,0.08-5.48,0.07-8.22-0.03c-0.46-0.38-1.05-0.01-1.57-0.28c0.24-0.22,0.64,0.03,0.81-0.38
		c-0.17-0.27-0.59-0.18-0.8-0.56c-0.92-1.69-1.49-3.71-3.63-4.41c-0.09-0.03-0.13-0.25-0.19-0.38c0,0,0.02,0.03,0.02,0.03
		c0.17,0.01,0.35,0.02,0.52,0.03c0.5,0.03,1.01,0.05,1.51,0.08c0.07,0.1,0.15,0.11,0.22,0c0.47-0.02,0.94-0.07,1.39,0.11
		c0.14,0.01,0.28,0.01,0.43,0.02c1.92-0.24,3.82,0.42,5.74,0.07c-0.05,0.41,0.21,0.66,0.43,0.97
		C63.33,67.94,64.61,69.41,65.58,71.09z"/>
	<path class="st4" d="M51.97,65.04c0.06,0.13,0.1,0.34,0.19,0.38c2.14,0.7,2.71,2.72,3.63,4.41c0.21,0.38,0.63,0.29,0.8,0.56
		c-0.17,0.42-0.57,0.16-0.81,0.38c0.52,0.27,1.11-0.1,1.57,0.28c-2.84,0.01-5.68-0.05-8.45-0.76c-0.08-1.44-1.24-2.29-1.91-3.4
		c-0.96-1.6-2.26-2.99-3.12-4.67c-0.17-0.34-0.27-0.58-0.07-0.9c0,0,0,0,0,0l0.1,0l0.1,0c0.36,0.4,0.76,0.73,1.19,1.07
		C47.21,63.94,49.55,64.58,51.97,65.04z"/>
	<path class="st7" d="M77.98,65.32c0.84,0.01,1.85-0.05,2.39,0.48c0.95,0.93,1.9,1.96,2.44,3.2c0.45,1.06-0.44,1.47-1.22,1.83
		c-0.58,0.03-1.16,0.05-1.74,0.08c-0.68,0.01-1.37-0.17-2.03,0.12c-0.89,0.01-1.79,0.03-2.68,0.04c0.4-0.48,0.35-0.89,0.01-1.44
		c-0.44-0.71-0.88-1.41-1.39-2.08c-0.47-0.61-1.02-1.28-0.84-2.18C74.6,65.36,76.29,65.34,77.98,65.32z"/>
	<path class="st8" d="M98.7,55.39c-0.19,2.12-0.75,4.12-1.77,6c-1.37-1.89-3.28-3.44-3.7-5.93c-0.01-0.05-0.19-0.07-0.3-0.11
		c0.15-1.78,0.3-3.56,0.45-5.33c0.45-0.61,0.02-1.35,0.31-2.06c0.24,0.21,0.63,0.38,0.65,0.58c0.11,1.2,1.08,1.86,1.67,2.75
		c0.64,0.97,1.29,1.97,2.09,2.8C98.51,54.5,98.7,54.86,98.7,55.39z"/>
	<path class="st6" d="M72.92,65.38c-0.17,0.9,0.38,1.57,0.84,2.18c0.51,0.67,0.95,1.37,1.39,2.08c0.34,0.55,0.39,0.96-0.01,1.44
		c-2.15,0-4.3,0.01-6.44,0.01c-0.14-0.72-0.63-1.22-1.03-1.79c-0.9-1.24-1.9-2.42-2.37-3.92C67.83,65.38,70.37,65.38,72.92,65.38z"
		/>
	<path class="st9" d="M98.7,55.39c0-0.53-0.2-0.89-0.6-1.3c-0.8-0.83-1.45-1.83-2.09-2.8c-0.59-0.89-1.56-1.55-1.67-2.75
		c-0.02-0.2-0.4-0.37-0.65-0.58c-0.29,0.71,0.14,1.45-0.31,2.06c0.02-1.2,0.03-2.39,0.05-3.59c0.05,0,0.09,0.01,0.14,0.03
		c0.03,0.09,0.07,0.19,0.1,0.28c0.03-0.02,0.07-0.06,0.07-0.06c-0.05-0.08-0.11-0.16-0.17-0.24c0.01-2.66,0.02-5.32,0.03-7.97
		c0.06,0,0.13,0,0.19,0c0,0.29,0.01,0.59,0.01,0.88c0.1,1.57-0.33,3.12,1.13,4.54c0.83,0.81,1.72,1.93,2.13,3.22
		c0.14,0.46,0.6,0.82,0.93,1.21c0.16,0.19,0.37,0.4,0.66,0.31c0.32-0.1,0.23-0.41,0.26-0.65c0.07-0.5-0.18-1.03,0.19-1.49
		c0.01,1.14,0.02,2.28,0.04,3.42C99.09,51.73,99.13,53.58,98.7,55.39z"/>
	<path class="st7" d="M42.08,19.82c-0.65-0.45-0.93-1.16-1.27-1.81c-0.64-1.23-1.56-2.12-2.82-2.68c0.86-1.64,2.1-2.95,3.54-4.08
		c0.21,0.79,0.91,1.21,1.35,1.82c0.64,0.91,1.23,1.85,1.84,2.78C43.88,17.21,42.7,18.33,42.08,19.82z"/>
	<path class="st9" d="M54.46,7.11c1.64-0.28,3.3-0.18,4.95-0.19c3.16-0.02,6.33,0.01,9.49,0.03c0.89,1.29,1.8,2.58,2.67,3.88
		c0.38,0.57,1.19,0.94,0.88,1.84c-1.77,0-3.55-0.01-5.32-0.01c0.13-0.06,0.25-0.14,0.39-0.18c0.32-0.09,0.8,0.16,0.91-0.37
		c0.09-0.44-0.3-0.66-0.56-0.88c-0.33-0.27-0.57-0.57-0.7-0.96c-0.77-2.36-1.81-3.13-4.27-3.13c-0.29,0-0.59,0-0.88,0.01
		c-1.19,0.04-2.39-0.16-3.55,0.22c-0.28-0.35-0.68-0.2-1.03-0.21C56.45,7.11,55.46,7.12,54.46,7.11z"/>
	<path class="st10" d="M72.24,6.94c0.38,0,0.75,0,1.13,0c0.35,0.31,0.78,0.17,1.17,0.18c1.29,0.02,2.59,0.01,3.89,0.01
		c-0.4,0.23-0.8,0.22-1.19,0.23c-0.29,0.01-0.49,0.06-0.43,0.45c0.18,1.13,1.17,1.86,1.44,2.95c0.14,0.57,0.54,0.13,0.82,0.2
		c0.28,0.07,0.29,0.3,0.3,0.52c0,0.51,0.26,0.87,0.8,1.18c-0.98,0-1.79,0-2.6,0c-0.43-0.3-0.85-0.3-1.28-0.01
		c-0.08,0.02-0.17,0.03-0.25,0.05c-0.15,0-0.3-0.01-0.45-0.01c0.01-0.23-0.09-0.42-0.25-0.59c-0.72-0.76-1.65-1.38-1.74-2.57
		c-0.01-0.1-0.08-0.25-0.15-0.27C72.17,8.92,72.45,7.81,72.24,6.94z"/>
	<path class="st11" d="M35.22,24.96c0.77-0.19,1.2,0.16,1.61,0.82c0.92,1.46,1.85,2.91,3.06,4.17c0.44,0.46,0.27,1.23,0.82,1.63
		c0.09,1.04,0.07,2.08-0.01,3.11c-0.57,0.1-0.72-0.4-1.01-0.71c-1.36-1.51-2.3-3.32-3.69-4.81c-0.27-0.29-0.49-0.54-0.91-0.5
		C35.13,27.43,35.17,26.19,35.22,24.96z"/>
	<path class="st12" d="M92.94,55.35c0.1,0.04,0.29,0.06,0.3,0.11c0.42,2.48,2.34,4.04,3.7,5.93c-0.56,1.27-1.28,2.45-2.26,3.44
		c-0.83-1.56-1.66-3.12-2.49-4.69c-0.19-0.36-0.52-0.35-0.85-0.38C92.03,58.35,92.57,56.88,92.94,55.35z"/>
	<path class="st13" d="M77.56,12.65c0.81,0,1.62,0,2.6,0c-0.55-0.31-0.8-0.67-0.8-1.18c0-0.22-0.02-0.45-0.3-0.52
		c-0.27-0.07-0.67,0.37-0.82-0.2c-0.27-1.08-1.25-1.81-1.44-2.95c-0.06-0.39,0.14-0.44,0.43-0.45c0.4-0.01,0.79,0,1.19-0.23
		c-1.3,0-2.59,0.01-3.89-0.01c-0.39-0.01-0.82,0.13-1.17-0.18c2.37-0.02,4.74-0.11,7.1,0.2c-0.32,0.27-1.02,0.4-0.4,1.01
		c1.21,1.21,1.7,2.92,2.93,4.12c0.24,0.23,0.27,0.59,0.74,0.68c0.29,0.05-0.13,0.19-0.16,0.32c-0.51-0.06-1.01-0.15-1.52-0.18
		c-2.01-0.14-4.02-0.26-6.03-0.39c0.08-0.02,0.17-0.03,0.25-0.05C76.7,12.65,77.13,12.65,77.56,12.65z"/>
	<path class="st14" d="M54.46,7.11c0.99,0.01,1.98,0.01,2.97,0.03c0.35,0.01,0.74-0.14,1.03,0.21c-1,0-2.01,0-3.01,0
		c0.61,0.59,0.88,1.19,1.24,1.74c0.78,1.21,1.62,2.39,2.43,3.58c-0.59,0-1.19,0.01-1.78,0.01c-0.12-0.07-0.26-0.23-0.36-0.2
		c-1.9,0.49-2.51-0.96-3.28-2.17c-0.14-0.22-0.24-0.49-0.43-0.63c-0.95-0.72-0.85-1.58-0.38-2.5C53.42,7.16,53.94,7.13,54.46,7.11z"
		/>
	<path class="st11" d="M65.29,65.39c0.47,1.5,1.48,2.67,2.37,3.92c0.4,0.56,0.9,1.07,1.03,1.79c-1.04,0-2.08,0-3.12,0
		c-0.97-1.68-2.25-3.15-3.35-4.74c-0.21-0.31-0.48-0.56-0.43-0.97C62.97,65.38,64.13,65.38,65.29,65.39z"/>
	<path class="st14" d="M91.34,59.76c0.33,0.03,0.66,0.02,0.85,0.38c0.83,1.57,1.66,3.13,2.49,4.69c-0.56,0.73-1.2,1.38-1.96,1.91
		c-0.47-0.39-0.78-0.83-0.72-1.49c0.02-0.27-0.08-0.7-0.27-0.81c-1.25-0.71-1.37-1.94-1.55-3.15c0,0,0.02-0.02,0.02-0.02
		c0.05-0.02,0.1-0.04,0.16-0.06c-0.02-0.03-0.04-0.05-0.06-0.08c0.29-0.37,0.58-0.74,0.87-1.12C91.23,59.93,91.28,59.84,91.34,59.76
		L91.34,59.76z"/>
	<path class="st15" d="M72.24,6.94c0.21,0.87-0.08,1.98,1.19,2.31c0.07,0.02,0.15,0.18,0.15,0.27c0.09,1.19,1.02,1.81,1.74,2.57
		c0.16,0.17,0.25,0.36,0.25,0.59c-1.04-0.01-2.08-0.01-3.11-0.02c0.32-0.9-0.5-1.28-0.88-1.84c-0.87-1.31-1.78-2.59-2.67-3.88
		C70.02,6.94,71.13,6.94,72.24,6.94z"/>
	<path class="st6" d="M77.82,71.03c0.66-0.29,1.35-0.11,2.03-0.12C79.18,71.1,78.5,71.09,77.82,71.03z"/>
	<path class="st7" d="M37.81,15.63c-0.03,0.03-0.06,0.07-0.07,0.11C37.72,15.68,37.75,15.64,37.81,15.63z"/>
	<path class="st7" d="M38.01,15.32c-0.06,0.09-0.12,0.18-0.18,0.26C37.9,15.49,37.95,15.4,38.01,15.32z"/>
	<path class="st16" d="M72.46,12.67c1.04,0.01,2.08,0.01,3.11,0.02c0.15,0,0.3,0.01,0.45,0.01c2.01,0.13,4.02,0.25,6.03,0.39
		c0.51,0.04,1.02,0.12,1.52,0.18c3.15,0.69,5.82,2.14,7.59,4.93c1.36,2.14,1.83,4.55,1.99,7.04c0.4,6.13,0.17,12.27,0.23,18.41
		c0.01,0.92,0.02,1.85,0.04,2.77c-0.02,1.2-0.03,2.39-0.05,3.59c-0.15,1.78-0.3,3.56-0.45,5.33c-0.37,1.53-0.91,3-1.6,4.41
		c0,0,0.01,0,0.01,0c-0.06,0.09-0.12,0.17-0.18,0.26c-0.29,0.37-0.58,0.74-0.87,1.12c-0.07,0.02-0.11,0.06-0.1,0.14
		c0,0-0.02,0.02-0.02,0.02c-2.71,2.79-6.15,3.69-9.89,3.85c-0.77,0.03-1.53,0.12-2.3,0.18c-1.69,0.02-3.38,0.04-5.06,0.06
		c-2.54,0-5.08,0.01-7.62,0.01c-1.16,0-2.32-0.01-3.49-0.01c-1.92,0.36-3.82-0.31-5.74-0.07c-0.14-0.09-0.28-0.1-0.43-0.02
		c-0.45-0.18-0.92-0.13-1.39-0.11c-0.07,0-0.15,0-0.22,0c-0.5-0.03-1.01-0.05-1.51-0.08c-0.17-0.12-0.34-0.16-0.52-0.03
		c0,0-0.02-0.03-0.02-0.03c-2.42-0.47-4.75-1.1-6.77-2.64c-0.43-0.33-0.83-0.67-1.19-1.07c0.03-0.15-0.06-0.22-0.18-0.27
		c-0.23-0.42-0.49-0.81-0.87-1.11c0,0,0.02,0.02,0.02,0.02c-0.02-0.13-0.06-0.25-0.21-0.26c0,0,0.05-0.08,0.05-0.08
		c-1.3-2.42-1.73-5.05-1.88-7.75c-0.07-1.21,0.05-2.43-0.18-3.63c-0.01-0.16-0.01-0.32-0.02-0.48c0-0.36,0-0.73-0.01-1.09
		c-0.01-3.19-0.02-6.37-0.03-9.56c0-0.07,0-0.15,0-0.22c0-0.74,0-1.48,0.01-2.22c0.09-1.04,0.11-2.08,0.01-3.11
		c0.09-2.16,0.16-4.33,0.29-6.49c0.11-1.8,0.53-3.55,1.09-5.26c0.62-1.5,1.8-2.62,2.64-3.97c1.15-0.46,2.03-1.38,3.2-1.82
		c2.44-0.92,4.98-1.13,7.55-1.2c0.62-0.02,1.25-0.1,1.87-0.15c0.59,0,1.19-0.01,1.78-0.01c1.34-0.01,2.67-0.01,4.01-0.02
		c1.33,0,2.67,0,4,0C68.91,12.66,70.68,12.66,72.46,12.67z M85.36,18.23c-1.89-0.56-3.19-0.03-4.45,1.8
		c-0.8,1.49-0.68,3.09,0.35,4.33c1.01,1.23,2.52,1.67,4.08,1.2c0.91-0.18,1.59-0.68,2.04-1.48C89.01,22.22,87.89,18.73,85.36,18.23z
		 M79.79,49.51c1.19-1.26,2.01-2.74,2.61-4.36c0.54-1.19,0.9-2.43,0.98-3.74c0.4-1.76,0.32-3.53-0.03-5.27
		c-1.18-5.84-4.44-10.03-10-12.33c-2.5-1.09-5.09-1.54-7.81-1.15c-0.85-0.02-1.68,0.09-2.46,0.44c-3.62,0.8-6.54,2.7-8.81,5.62
		c-1.78,2.04-2.83,4.42-3.32,7.07c-0.48,2.04-0.46,4.1-0.09,6.15c0.76,4.26,2.91,7.7,6.36,10.3c2.34,1.76,4.96,2.91,7.93,3.11
		c2.86,0.47,5.6,0.06,8.24-1.11C75.95,53.26,78.09,51.69,79.79,49.51z"/>
	<path class="st10" d="M93.81,39.34c0-0.29-0.01-0.59-0.01-0.88c-0.1-1.48,0.25-2.98-0.2-4.44c0-1.69,0-3.38,0-5.07
		c0.07-0.01,0.14-0.01,0.21-0.02c0,0.5,0,1,0,1.5c-0.12,0.94,0.03,1.83,0.67,2.55c0.35,0.39,0.52,0.89,0.82,1.27
		c0.83,1.06,1.21,2.51,2.37,3.22c0.75,0.46,1.03,0.93,1.03,1.72c0,0.25-0.13,0.56,0.22,0.86c0-1.26,0-2.43,0-3.6
		c0.25,0.18,0.22,0.45,0.22,0.7c0,2.5-0.01,5.01-0.01,7.51c-0.38,0.2-0.03,0.71-0.39,0.95c-0.54-0.85-1.55-1.35-1.64-2.48
		c-0.01-0.1-0.21-0.17-0.32-0.27c-0.56-0.49-0.96-1.05-1.24-1.76C95.22,40.33,94.79,39.54,93.81,39.34z"/>
	<path class="st13" d="M98.92,36.46c0,1.17,0,2.34,0,3.6c-0.35-0.3-0.22-0.6-0.22-0.86c0-0.79-0.28-1.26-1.03-1.72
		c-1.16-0.71-1.54-2.16-2.37-3.22c-0.3-0.38-0.48-0.88-0.82-1.27c-0.64-0.72-0.79-1.61-0.67-2.55c0.56-1.04,0.37-2.21,0.52-3.33
		c0.2,1.94,1.41,3.32,2.66,4.6C98.31,33.07,98.84,34.65,98.92,36.46z"/>
	<path class="st15" d="M93.81,39.34c0.99,0.19,1.41,0.99,1.73,1.78c0.28,0.71,0.69,1.27,1.24,1.76c0.11,0.09,0.31,0.17,0.32,0.27
		c0.1,1.13,1.11,1.63,1.64,2.48c0.36-0.24,0-0.75,0.39-0.95c-0.01,0.6-0.01,1.2-0.02,1.8c-0.36,0.46-0.12,0.99-0.19,1.49
		c-0.03,0.24,0.06,0.55-0.26,0.65c-0.29,0.09-0.49-0.11-0.66-0.31c-0.33-0.39-0.79-0.75-0.93-1.21c-0.41-1.29-1.3-2.41-2.13-3.22
		C93.47,42.46,93.91,40.91,93.81,39.34z"/>
	<path class="st15" d="M93.6,34.03c0.45,1.46,0.1,2.96,0.2,4.44c-0.06,0-0.13,0-0.19,0C93.6,36.98,93.6,35.5,93.6,34.03z"/>
	<path class="st4" d="M42.96,59.96c0.37,0.3,0.64,0.7,0.87,1.11c-0.01,0.09-0.01,0.18-0.02,0.27c0,0,0,0,0,0
		C42.81,61.32,43.15,60.47,42.96,59.96z"/>
	<path class="st4" d="M42.76,59.71c0.16,0.02,0.2,0.13,0.21,0.26C42.83,59.95,42.75,59.87,42.76,59.71z"/>
	<path class="st11" d="M40.69,36.9c0,0.07,0,0.15,0,0.22c-0.03-0.05-0.06-0.1-0.08-0.16C40.6,36.95,40.66,36.92,40.69,36.9z"/>
	<path class="st3" d="M40.72,47.78c0.01,0.16,0.01,0.32,0.02,0.48C40.48,48.1,40.45,47.95,40.72,47.78z"/>
	<path class="st4" d="M51.99,65.08c0.18-0.13,0.35-0.09,0.52,0.03C52.34,65.09,52.16,65.08,51.99,65.08z"/>
	<path class="st4" d="M55.64,65.29c0.15-0.08,0.29-0.07,0.43,0.02C55.92,65.3,55.78,65.3,55.64,65.29z"/>
	<path class="st4" d="M54.02,65.18c0.07,0,0.15,0,0.22,0C54.17,65.29,54.1,65.28,54.02,65.18z"/>
	<path class="st2" d="M43.8,61.34c0.01-0.09,0.01-0.18,0.02-0.27c0.13,0.05,0.21,0.12,0.18,0.27c0,0-0.1,0-0.1,0L43.8,61.34z"/>
	<path class="st8" d="M93.58,46.44c0.06,0.08,0.11,0.16,0.17,0.24c0,0-0.05,0.04-0.07,0.06c-0.03-0.09-0.07-0.19-0.1-0.28
		C93.57,46.45,93.58,46.44,93.58,46.44z"/>
	<path class="st12" d="M63.13,12.65c-1.34,0.01-2.67,0.01-4.01,0.02c-0.81-1.19-1.66-2.37-2.43-3.58c-0.35-0.55-0.63-1.16-1.24-1.74
		c1,0,2.01,0,3.01,0c1.17-0.37,2.37-0.18,3.55-0.22c-0.83,0.24-0.89,0.7-0.43,1.36c0.62,0.88,1.53,1.49,2.08,2.46
		C64.39,12.22,64.47,12.21,63.13,12.65z"/>
	<path class="st8" d="M63.13,12.65c1.34-0.45,1.26-0.43,0.54-1.7c-0.55-0.97-1.46-1.58-2.08-2.46c-0.47-0.66-0.4-1.12,0.43-1.36
		c0.29,0,0.59-0.01,0.88-0.01c2.46,0,3.51,0.77,4.27,3.13c0.13,0.39,0.37,0.69,0.7,0.96c0.26,0.21,0.65,0.44,0.56,0.88
		c-0.11,0.53-0.59,0.28-0.91,0.37c-0.14,0.04-0.26,0.12-0.39,0.18C65.8,12.66,64.47,12.66,63.13,12.65z"/>
	<path class="st15" d="M77.56,12.65c-0.43,0-0.85,0-1.28-0.01C76.7,12.36,77.13,12.35,77.56,12.65z"/>
	<path class="st12" d="M91.17,60.02c0.06-0.09,0.12-0.17,0.18-0.26C91.28,59.84,91.23,59.93,91.17,60.02z"/>
	<path class="st5" d="M90.19,61.27c-0.01-0.08,0.03-0.12,0.1-0.14c0.02,0.03,0.04,0.06,0.05,0.08
		C90.3,61.24,90.24,61.25,90.19,61.27z"/>
	<path class="st6" d="M65.13,55.35c-2.97-0.2-5.59-1.35-7.93-3.11c-3.44-2.6-5.59-6.03-6.36-10.3c-0.37-2.05-0.39-4.11,0.09-6.15
		c0.75-0.08,1.29,0.29,1.65,0.89c0.65,1.07,1.56,1.95,2.12,3.09c0.34,0.7,0.94,1.23,1.78,1.36c0,0.2,0,0.4,0,0.6
		c-0.02,0.33-0.06,0.67,0.41,0.73c0.79,1.97,1.99,3.66,3.6,5.05c-0.03,0.51,0.31,0.51,0.67,0.49l0-0.01
		c0.15,1.38,1.12,2.35,1.77,3.47C63.68,52.74,65.14,53.63,65.13,55.35z"/>
	<path class="st12" d="M65.53,22.66c2.72-0.39,5.31,0.06,7.81,1.15c0.07,0.28-0.24,0.51-0.03,0.84c0.74,1.11,1.43,2.25,2.04,3.44
		c0.73,1.44,2.04,2.45,3.02,3.7c0.32,0.4,0.79,0.71,0.92,1.23c0.39,1.61,2.05,2.51,2.34,4.17c0.04,0.22,0.29,0.31,0.51,0.39
		c1.05,0.36,1.39,1.09,1.23,2.17c-0.08,0.54,0,1.11,0.01,1.66c-0.08,1.31-0.43,2.55-0.98,3.74c-0.73,0.06-1.68-0.16-1.81-0.71
		c-0.42-1.77-2.45-2.61-2.47-4.54c0-0.04-0.19-0.08-0.29-0.12c-0.03-1.62-0.17-3.22-0.8-4.75c-1.29-3.18-3.7-5.15-6.84-6.33
		c0.29-0.22,0.4-0.64,0.01-0.62c-0.9,0.05-0.61-0.65-0.85-1.03c-0.62-0.99-1.28-1.95-1.96-2.89c-0.47-0.65-0.79-1.21,0.35-1.51
		C67,22.66,66.26,22.66,65.53,22.66z"/>
	<path class="st5" d="M54.26,28.72c2.27-2.92,5.19-4.82,8.81-5.62c0.52,1.48,2.11,2.33,2.33,3.99c0.06,0.46,0.49,0.48,0.87,0.49
		c0.06,0,0.28-0.05,0.16,0.15c-0.08,0.13-0.38-0.02-0.38,0.28c0.48,0,0.97-0.03,1.44,0.01c0.19,0.02,0.68-0.31,0.53,0.32
		c-4.28-0.21-7.6,1.52-10.04,5c-0.29-0.54-0.65-1.07-0.93-1.59C56.38,30.46,55.02,29.88,54.26,28.72z"/>
	<path class="st7" d="M65.13,55.35c0-1.71-1.45-2.6-2.2-3.89c-0.66-1.12-1.62-2.09-1.77-3.47c2.62,1.55,5.42,2.12,8.42,1.47
		c1.49-0.03,2.26,1.01,2.97,2.08c0.23,0.34,0.43,0.69,0.74,0.96c0.51,0.42,0.61,0.82-0.01,1.22c-0.39,0.25-0.38,0.43,0.09,0.53
		C70.74,55.41,67.99,55.81,65.13,55.35z"/>
	<path class="st5" d="M73.37,54.24c-0.48-0.1-0.49-0.28-0.09-0.53c0.62-0.4,0.52-0.79,0.01-1.22c-0.32-0.26-0.51-0.62-0.74-0.96
		c-0.72-1.07-1.48-2.11-2.97-2.08c0.21-0.04,0.43-0.09,0.64-0.13c0.07-0.03,0.14-0.07,0.21-0.1c2.78-1.02,4.87-2.84,6.29-5.43
		c0.43-0.04,0.87-0.22,0.76,0.59c-0.07,0.52,0.35,1.06,0.74,1.44c1.04,1.02,1.36,2.32,1.57,3.68
		C78.09,51.69,75.95,53.26,73.37,54.24z"/>
	<path class="st7" d="M54.26,28.72c0.76,1.16,2.13,1.74,2.8,3.03c0.28,0.53,0.64,1.05,0.93,1.59c-0.38,0.92-1.04,1.69-1.28,2.69
		c-0.4,1.69-0.24,3.4-0.21,5.1c-0.84-0.13-1.44-0.66-1.78-1.36c-0.56-1.14-1.46-2.03-2.12-3.09c-0.37-0.6-0.9-0.97-1.65-0.89
		C51.42,33.14,52.48,30.76,54.26,28.72z"/>
	<path class="st8" d="M83.38,41.41c-0.01-0.55-0.09-1.12-0.01-1.66c0.16-1.08-0.19-1.81-1.23-2.17c-0.22-0.08-0.47-0.17-0.51-0.39
		c-0.3-1.67-1.96-2.56-2.34-4.17c-0.13-0.52-0.6-0.83-0.92-1.23c-0.98-1.26-2.29-2.26-3.02-3.7c-0.61-1.19-1.3-2.33-2.04-3.44
		c-0.22-0.32,0.1-0.56,0.03-0.84c5.56,2.3,8.82,6.49,10,12.33C83.7,37.88,83.78,39.65,83.38,41.41z"/>
	<path class="st10" d="M87.39,24.07c-0.46,0.8-1.13,1.3-2.04,1.48c-0.97-0.64-1.69-1.49-2.24-2.53c-0.57-1.1-0.88-2.42-2.2-2.99
		c1.26-1.83,2.56-2.35,4.45-1.8c-0.08,0.07-0.16,0.18-0.25,0.2c-0.92,0.18-1.1,0.44-0.48,1.34C85.58,21.18,86.79,22.43,87.39,24.07z
		"/>
	<path class="st14" d="M68.02,28.34c0.15-0.63-0.35-0.3-0.53-0.32c-0.47-0.04-0.96-0.01-1.44-0.01c0-0.3,0.31-0.15,0.38-0.28
		c0.12-0.2-0.1-0.15-0.16-0.15c-0.38-0.01-0.81-0.03-0.87-0.49c-0.22-1.66-1.8-2.51-2.33-3.99c0.78-0.35,1.61-0.46,2.46-0.44
		c0.73,0,1.47,0,2.2,0c-1.14,0.3-0.82,0.85-0.35,1.51c0.68,0.94,1.34,1.91,1.96,2.89c0.24,0.38-0.06,1.08,0.85,1.03
		c0.39-0.02,0.28,0.4-0.01,0.62C69.46,28.59,68.74,28.47,68.02,28.34z"/>
	<path class="st14" d="M79.79,49.51c-0.21-1.36-0.53-2.66-1.57-3.68c-0.39-0.38-0.81-0.92-0.74-1.44c0.11-0.82-0.32-0.63-0.76-0.59
		c0.54-1.29,0.93-2.62,1.1-4c0.1,0.04,0.29,0.08,0.29,0.12c0.03,1.93,2.05,2.77,2.47,4.54c0.13,0.55,1.08,0.77,1.81,0.71
		C81.8,46.77,80.97,48.24,79.79,49.51z M77.72,43.18c0.01-0.03,0.03-0.06,0.03-0.09c0-0.01-0.05-0.02-0.08-0.03
		c-0.01,0.03-0.03,0.06-0.03,0.09C77.64,43.17,77.69,43.17,77.72,43.18z"/>
	<path class="st15" d="M80.91,20.02c1.31,0.57,1.62,1.89,2.2,2.99c0.54,1.04,1.26,1.89,2.24,2.53c-1.56,0.47-3.07,0.03-4.08-1.2
		C80.24,23.11,80.11,21.51,80.91,20.02z"/>
	<path class="st13" d="M87.39,24.07c-0.6-1.63-1.81-2.89-2.77-4.3c-0.61-0.9-0.44-1.16,0.48-1.34c0.09-0.02,0.17-0.13,0.25-0.2
		C87.89,18.73,89.01,22.22,87.39,24.07z"/>
	<path class="st16" d="M77.82,39.79c-0.17,1.39-0.56,2.72-1.1,4c-1.42,2.59-3.51,4.41-6.29,5.43c-0.07,0.03-0.14,0.07-0.21,0.1
		c-0.21,0.04-0.43,0.09-0.64,0.13c-3.01,0.65-5.8,0.08-8.42-1.47c0,0,0,0.01,0,0.01c-0.22-0.16-0.44-0.33-0.67-0.49
		c-1.61-1.39-2.81-3.07-3.6-5.05c-0.01-0.31-0.05-0.61-0.41-0.73c0-0.2,0-0.4,0-0.6c-0.03-1.7-0.19-3.41,0.21-5.1
		c0.24-1,0.9-1.77,1.28-2.69c2.44-3.48,5.75-5.21,10.04-5c0.72,0.12,1.44,0.24,2.16,0.37c3.14,1.18,5.55,3.15,6.84,6.33
		C77.65,36.57,77.79,38.17,77.82,39.79z"/>
	<path class="st7" d="M56.49,41.73c0.36,0.11,0.4,0.41,0.41,0.73C56.43,42.41,56.47,42.06,56.49,41.73z"/>
	<path class="st7" d="M60.5,47.51c0.22,0.16,0.44,0.33,0.67,0.49C60.81,48.01,60.47,48.01,60.5,47.51z"/>
	<path class="st7" d="M70.22,49.32c0.07-0.03,0.14-0.07,0.21-0.1C70.37,49.26,70.3,49.29,70.22,49.32z"/>
	<path class="st5" d="M77.72,43.18c-0.03-0.01-0.08-0.02-0.08-0.03c0-0.03,0.02-0.06,0.03-0.09c0.03,0.01,0.08,0.02,0.08,0.03
		C77.75,43.12,77.73,43.15,77.72,43.18z"/>
</g>
<g>
</g>
<g>
</g>
<g>
</g>
<g>
</g>
<g>
</g>
<g>
</g>
</svg>
