<?xml version="1.0" encoding="utf-8"?>
<!-- Generator: Adobe Illustrator 26.2.1, SVG Export Plug-In . SVG Version: 6.00 Build 0)  -->
<svg version="1.1" id="Capa_1" xmlns="http://www.w3.org/2000/svg" xmlns:xlink="http://www.w3.org/1999/xlink" x="0px" y="0px"
	 viewBox="0 0 654.39 74.56" style="enable-background:new 0 0 654.39 74.56;" xml:space="preserve">
<style type="text/css">
	.st0{fill:none;}
	.st1{fill:#32AC62;}
	.st2{fill:#FDC70D;}
	.st3{fill:#448DCB;}
	.st4{fill:#3B7DC0;}
	.st5{fill:#EB594C;}
	.st6{fill:#EF782A;}
	.st7{fill:#6CB438;}
	.st8{fill:#F1D555;}
	.st9{fill:#66B33B;}
	.st10{fill:#94C02D;}
	.st11{fill:#3EAB3E;}
	.st12{fill:#89BD30;}
	.st13{fill:#5CB13D;}
	.st14{fill:#EE6F3B;}
</style>
<g>
	<rect x="133.33" y="17.51" class="st0" width="595.61" height="60.53"/>
	<path d="M145.72,15.18c0.67,0.27,1.33,0.66,1.97,1.15c0.16,0.14,0.31,0.22,0.46,0.22c0.32,0,0.53-0.48,0.62-1.44h0.55
		c-0.06,1.14-0.1,3.14-0.1,6h-0.55c-0.11-1.28-0.32-2.29-0.62-3.02c-0.3-0.74-0.83-1.35-1.58-1.85c-0.75-0.48-1.5-0.72-2.23-0.72
		c-1.66,0-2.83,0.8-3.5,2.4c-0.67,1.6-1.01,3.51-1.01,5.74c0,2.22,0.34,4.14,1.01,5.74c0.67,1.6,1.84,2.4,3.5,2.4
		c0.74,0,1.48-0.24,2.23-0.72c0.75-0.46,1.28-1.09,1.58-1.87c0.3-0.78,0.51-1.9,0.62-3.34h0.55c0,2.99,0.03,5.07,0.1,6.24h-0.55
		c-0.05-0.51-0.12-0.88-0.2-1.09c-0.09-0.22-0.21-0.32-0.37-0.32c-0.13,0-0.3,0.06-0.5,0.19c-0.72,0.51-1.41,0.9-2.06,1.16
		c-0.66,0.26-1.45,0.4-2.38,0.4c-1.81,0-3.39-0.34-4.75-1.03c-1.36-0.69-2.42-1.68-3.17-2.99c-0.75-1.3-1.13-2.86-1.13-4.67
		c0-1.76,0.38-3.32,1.15-4.68c0.77-1.36,1.84-2.42,3.22-3.17c1.38-0.75,2.94-1.13,4.7-1.13C144.23,14.78,145.05,14.91,145.72,15.18z
		"/>
	<path d="M166.02,31.62v0.48c-0.82-0.05-1.99-0.07-3.53-0.07c-1.94,0-3.36,0.02-4.27,0.07v-0.48c0.5-0.03,0.86-0.12,1.1-0.25
		c0.24-0.14,0.36-0.36,0.36-0.68c0-0.29-0.1-0.65-0.31-1.08l-1.18-2.74h-4.49c-0.54,1.25-0.82,2.25-0.82,3
		c0,0.64,0.19,1.08,0.58,1.33c0.38,0.25,0.94,0.39,1.66,0.42v0.48c-1.2-0.05-2.25-0.07-3.14-0.07c-0.75,0-1.37,0.02-1.85,0.07v-0.48
		c0.38-0.06,0.74-0.3,1.07-0.72c0.33-0.42,0.71-1.11,1.14-2.09l4.92-11.3c0.35,0.03,0.62,0.05,0.79,0.05c0.18,0,0.44-0.02,0.79-0.05
		l5.76,12.58C165.09,31.08,165.56,31.59,166.02,31.62z M157.98,26.39l-2.04-4.7l-2.04,4.7H157.98z"/>
	<path d="M182.89,31.1c-0.45,0.45-0.94,0.78-1.48,1.01c-0.54,0.22-1.22,0.34-2.05,0.34c-1.04,0-1.84-0.18-2.4-0.54
		c-0.56-0.36-0.92-0.86-1.08-1.5l-0.67-2.71c-0.14-0.88-0.37-1.47-0.67-1.76c-0.3-0.3-0.75-0.44-1.34-0.44h-0.41v4.08
		c0,0.61,0.04,1.05,0.13,1.32c0.09,0.27,0.24,0.46,0.47,0.55c0.22,0.1,0.59,0.16,1.1,0.19v0.48c-1.02-0.05-2.52-0.07-4.49-0.07
		c-1.6,0-2.78,0.02-3.55,0.07v-0.48c0.51-0.03,0.88-0.1,1.12-0.19c0.23-0.1,0.39-0.28,0.47-0.55c0.08-0.27,0.12-0.71,0.12-1.32v-9.5
		c0-0.61-0.04-1.05-0.13-1.32c-0.09-0.27-0.24-0.46-0.47-0.55c-0.22-0.1-0.59-0.16-1.1-0.19v-0.48c0.77,0.05,1.9,0.07,3.41,0.07
		l2.93-0.02c0.34-0.02,0.73-0.02,1.18-0.02c4.66,0,6.98,1.23,6.98,3.7c0,1.02-0.46,1.91-1.38,2.66c-0.92,0.75-2.47,1.22-4.64,1.42
		c0.06,0,0.15,0,0.25,0.01c0.1,0.01,0.23,0.03,0.37,0.06c1.34,0.13,2.4,0.38,3.18,0.76c0.78,0.38,1.27,0.98,1.48,1.81l0.5,2.11
		c0.1,0.4,0.22,0.68,0.38,0.83c0.16,0.15,0.37,0.23,0.62,0.23c0.29,0,0.57-0.11,0.84-0.34L182.89,31.1z M173.17,18.16
		c-0.14,0.11-0.24,0.31-0.3,0.6c-0.06,0.29-0.08,0.72-0.08,1.3V25h0.65c1.04,0,1.75-0.31,2.14-0.92c0.38-0.62,0.58-1.48,0.58-2.58
		c0-1.17-0.18-2.04-0.53-2.63s-0.94-0.88-1.78-0.88C173.54,17.99,173.32,18.05,173.17,18.16z"/>
	<path d="M199.55,31.1c-0.45,0.45-0.94,0.78-1.48,1.01c-0.54,0.22-1.22,0.34-2.05,0.34c-1.04,0-1.84-0.18-2.4-0.54
		c-0.56-0.36-0.92-0.86-1.08-1.5l-0.67-2.71c-0.14-0.88-0.37-1.47-0.67-1.76c-0.3-0.3-0.75-0.44-1.34-0.44h-0.41v4.08
		c0,0.61,0.04,1.05,0.13,1.32c0.09,0.27,0.24,0.46,0.47,0.55c0.22,0.1,0.59,0.16,1.1,0.19v0.48c-1.02-0.05-2.52-0.07-4.49-0.07
		c-1.6,0-2.78,0.02-3.55,0.07v-0.48c0.51-0.03,0.88-0.1,1.12-0.19c0.23-0.1,0.39-0.28,0.47-0.55c0.08-0.27,0.12-0.71,0.12-1.32v-9.5
		c0-0.61-0.04-1.05-0.13-1.32c-0.09-0.27-0.24-0.46-0.47-0.55c-0.22-0.1-0.59-0.16-1.1-0.19v-0.48c0.77,0.05,1.9,0.07,3.41,0.07
		l2.93-0.02c0.34-0.02,0.73-0.02,1.18-0.02c4.66,0,6.98,1.23,6.98,3.7c0,1.02-0.46,1.91-1.38,2.66c-0.92,0.75-2.47,1.22-4.64,1.42
		c0.06,0,0.15,0,0.25,0.01c0.1,0.01,0.23,0.03,0.37,0.06c1.34,0.13,2.4,0.38,3.18,0.76c0.78,0.38,1.27,0.98,1.48,1.81l0.5,2.11
		c0.1,0.4,0.22,0.68,0.38,0.83c0.16,0.15,0.37,0.23,0.62,0.23c0.29,0,0.57-0.11,0.84-0.34L199.55,31.1z M189.83,18.16
		c-0.14,0.11-0.24,0.31-0.3,0.6c-0.06,0.29-0.08,0.72-0.08,1.3V25h0.65c1.04,0,1.75-0.31,2.14-0.92c0.38-0.62,0.58-1.48,0.58-2.58
		c0-1.17-0.18-2.04-0.53-2.63s-0.94-0.88-1.78-0.88C190.2,17.99,189.97,18.05,189.83,18.16z"/>
	<path d="M212.94,32.1c-1.04-0.05-2.79-0.07-5.26-0.07c-3.52,0-6.16,0.02-7.92,0.07v-0.48c0.51-0.03,0.88-0.1,1.12-0.19
		c0.23-0.1,0.39-0.28,0.47-0.55c0.08-0.27,0.12-0.71,0.12-1.32v-9.5c0-0.61-0.04-1.05-0.13-1.32c-0.09-0.27-0.24-0.46-0.47-0.55
		c-0.22-0.1-0.59-0.16-1.1-0.19v-0.48c1.76,0.05,4.4,0.07,7.92,0.07c2.24,0,3.83-0.02,4.78-0.07c-0.11,1.14-0.17,2.16-0.17,3.07
		c0,0.62,0.02,1.12,0.07,1.49h-0.55c-0.32-1.42-0.83-2.45-1.52-3.07c-0.7-0.62-1.58-0.94-2.65-0.94h-0.31
		c-0.45,0-0.76,0.08-0.95,0.24c-0.18,0.16-0.28,0.5-0.28,1.03v5.18h0.55c0.77,0,1.38-0.28,1.84-0.83c0.46-0.55,0.75-1.17,0.88-1.86
		h0.55c-0.05,0.54-0.07,1.18-0.07,1.92v1.01c0,0.78,0.05,1.76,0.14,2.93h-0.55c-0.11-0.77-0.41-1.41-0.89-1.92
		c-0.48-0.51-1.11-0.77-1.9-0.77h-0.55v5.28c0,0.53,0.09,0.87,0.28,1.03c0.18,0.16,0.5,0.24,0.95,0.24h0.55
		c1.12,0,2.05-0.35,2.8-1.04c0.74-0.7,1.28-1.84,1.62-3.44h0.55c-0.05,0.45-0.07,1.02-0.07,1.73
		C212.77,29.77,212.83,30.87,212.94,32.1z"/>
	<path d="M231.06,31.1c-0.45,0.45-0.94,0.78-1.48,1.01c-0.54,0.22-1.22,0.34-2.05,0.34c-1.04,0-1.84-0.18-2.4-0.54
		c-0.56-0.36-0.92-0.86-1.08-1.5l-0.67-2.71c-0.14-0.88-0.37-1.47-0.67-1.76c-0.3-0.3-0.75-0.44-1.34-0.44h-0.41v4.08
		c0,0.61,0.04,1.05,0.13,1.32c0.09,0.27,0.24,0.46,0.47,0.55c0.22,0.1,0.59,0.16,1.1,0.19v0.48c-1.02-0.05-2.52-0.07-4.49-0.07
		c-1.6,0-2.78,0.02-3.55,0.07v-0.48c0.51-0.03,0.88-0.1,1.12-0.19c0.23-0.1,0.39-0.28,0.47-0.55c0.08-0.27,0.12-0.71,0.12-1.32v-9.5
		c0-0.61-0.04-1.05-0.13-1.32c-0.09-0.27-0.24-0.46-0.47-0.55c-0.22-0.1-0.59-0.16-1.1-0.19v-0.48c0.77,0.05,1.9,0.07,3.41,0.07
		l2.93-0.02c0.34-0.02,0.73-0.02,1.18-0.02c4.66,0,6.98,1.23,6.98,3.7c0,1.02-0.46,1.91-1.38,2.66c-0.92,0.75-2.47,1.22-4.64,1.42
		c0.06,0,0.15,0,0.25,0.01c0.1,0.01,0.23,0.03,0.37,0.06c1.34,0.13,2.4,0.38,3.18,0.76c0.78,0.38,1.27,0.98,1.48,1.81l0.5,2.11
		c0.1,0.4,0.22,0.68,0.38,0.83c0.16,0.15,0.37,0.23,0.62,0.23c0.29,0,0.57-0.11,0.84-0.34L231.06,31.1z M221.34,18.16
		c-0.14,0.11-0.24,0.31-0.3,0.6c-0.06,0.29-0.08,0.72-0.08,1.3V25h0.65c1.04,0,1.75-0.31,2.14-0.92c0.38-0.62,0.58-1.48,0.58-2.58
		c0-1.17-0.18-2.04-0.53-2.63s-0.94-0.88-1.78-0.88C221.71,17.99,221.49,18.05,221.34,18.16z"/>
	<path d="M242.94,25.24v4.08c0,0.67,0.07,1.16,0.2,1.46c0.14,0.3,0.38,0.51,0.74,0.61c0.36,0.1,0.93,0.16,1.72,0.16v0.55
		c-2.16-0.05-3.81-0.07-4.94-0.07c-0.75,0-1.8,0.02-3.14,0.05l-1.15,0.02v-0.48c0.51-0.03,0.88-0.1,1.12-0.19
		c0.23-0.1,0.39-0.28,0.47-0.55c0.08-0.27,0.12-0.71,0.12-1.32v-11.9c0-0.61-0.04-1.05-0.13-1.32c-0.09-0.27-0.24-0.46-0.47-0.55
		c-0.22-0.1-0.59-0.16-1.1-0.19v-0.48c0.91,0.05,2.29,0.07,4.13,0.07l2.76-0.02c0.32-0.02,0.69-0.02,1.1-0.02
		c2.37,0,4.16,0.43,5.39,1.28c1.22,0.86,1.84,2,1.84,3.44c0,0.88-0.24,1.72-0.72,2.53c-0.48,0.81-1.3,1.48-2.45,2.03
		c-1.15,0.54-2.68,0.82-4.58,0.82H242.94z M243.41,15.76c-0.18,0.11-0.31,0.31-0.37,0.6c-0.06,0.29-0.1,0.72-0.1,1.3v7.1h0.65
		c1.12,0,1.89-0.42,2.32-1.25s0.64-1.96,0.64-3.38c0-1.55-0.18-2.7-0.53-3.43c-0.35-0.74-0.94-1.1-1.78-1.1
		C243.87,15.59,243.59,15.65,243.41,15.76z"/>
	<path d="M265.48,31.62v0.48c-0.82-0.05-1.99-0.07-3.53-0.07c-1.94,0-3.36,0.02-4.27,0.07v-0.48c0.5-0.03,0.86-0.12,1.1-0.25
		c0.24-0.14,0.36-0.36,0.36-0.68c0-0.29-0.1-0.65-0.31-1.08l-1.18-2.74h-4.49c-0.54,1.25-0.82,2.25-0.82,3
		c0,0.64,0.19,1.08,0.58,1.33c0.38,0.25,0.94,0.39,1.66,0.42v0.48c-1.2-0.05-2.25-0.07-3.14-0.07c-0.75,0-1.37,0.02-1.85,0.07v-0.48
		c0.38-0.06,0.74-0.3,1.07-0.72c0.33-0.42,0.71-1.11,1.14-2.09l4.92-11.3c0.35,0.03,0.62,0.05,0.79,0.05c0.18,0,0.44-0.02,0.79-0.05
		l5.76,12.58C264.54,31.08,265.01,31.59,265.48,31.62z M257.44,26.39l-2.04-4.7l-2.04,4.7H257.44z"/>
	<path d="M282.35,31.1c-0.45,0.45-0.94,0.78-1.48,1.01c-0.54,0.22-1.22,0.34-2.05,0.34c-1.04,0-1.84-0.18-2.4-0.54
		c-0.56-0.36-0.92-0.86-1.08-1.5l-0.67-2.71c-0.14-0.88-0.37-1.47-0.67-1.76c-0.3-0.3-0.75-0.44-1.34-0.44h-0.41v4.08
		c0,0.61,0.04,1.05,0.13,1.32c0.09,0.27,0.24,0.46,0.47,0.55c0.22,0.1,0.59,0.16,1.1,0.19v0.48c-1.02-0.05-2.52-0.07-4.49-0.07
		c-1.6,0-2.78,0.02-3.55,0.07v-0.48c0.51-0.03,0.88-0.1,1.12-0.19c0.23-0.1,0.39-0.28,0.47-0.55c0.08-0.27,0.12-0.71,0.12-1.32v-9.5
		c0-0.61-0.04-1.05-0.13-1.32c-0.09-0.27-0.24-0.46-0.47-0.55c-0.22-0.1-0.59-0.16-1.1-0.19v-0.48c0.77,0.05,1.9,0.07,3.41,0.07
		l2.93-0.02c0.34-0.02,0.73-0.02,1.18-0.02c4.66,0,6.98,1.23,6.98,3.7c0,1.02-0.46,1.91-1.38,2.66c-0.92,0.75-2.47,1.22-4.64,1.42
		c0.06,0,0.15,0,0.25,0.01c0.1,0.01,0.23,0.03,0.37,0.06c1.34,0.13,2.4,0.38,3.18,0.76c0.78,0.38,1.27,0.98,1.48,1.81l0.5,2.11
		c0.1,0.4,0.22,0.68,0.38,0.83c0.16,0.15,0.37,0.23,0.62,0.23c0.29,0,0.57-0.11,0.84-0.34L282.35,31.1z M272.63,18.16
		c-0.14,0.11-0.24,0.31-0.3,0.6c-0.06,0.29-0.08,0.72-0.08,1.3V25h0.65c1.04,0,1.75-0.31,2.14-0.92c0.38-0.62,0.58-1.48,0.58-2.58
		c0-1.17-0.18-2.04-0.53-2.63s-0.94-0.88-1.78-0.88C273,17.99,272.77,18.05,272.63,18.16z"/>
	<path d="M290.6,17.99c-0.51,0.03-0.88,0.1-1.12,0.19c-0.23,0.1-0.39,0.28-0.47,0.55c-0.08,0.27-0.12,0.71-0.12,1.32v9.98
		c0,0.62,0.09,1.03,0.28,1.22c0.18,0.19,0.5,0.29,0.95,0.29h0.55c1.02,0,1.94-0.42,2.74-1.25c0.8-0.83,1.36-2.15,1.68-3.96h0.55
		c-0.05,0.53-0.07,1.18-0.07,1.97c0,1.12,0.06,2.38,0.17,3.79c-1.04-0.05-2.79-0.07-5.26-0.07c-3.52,0-6.16,0.02-7.92,0.07v-0.48
		c0.51-0.03,0.88-0.1,1.12-0.19c0.23-0.1,0.39-0.28,0.47-0.55c0.08-0.27,0.12-0.71,0.12-1.32v-9.5c0-0.61-0.04-1.05-0.13-1.32
		c-0.09-0.27-0.24-0.46-0.47-0.55c-0.22-0.1-0.59-0.16-1.1-0.19v-0.48c0.91,0.05,2.34,0.07,4.27,0.07c1.62,0,2.87-0.02,3.77-0.07
		V17.99z"/>
	<path d="M311.72,31.62v0.48c-0.82-0.05-1.99-0.07-3.53-0.07c-1.94,0-3.36,0.02-4.27,0.07v-0.48c0.5-0.03,0.86-0.12,1.1-0.25
		c0.24-0.14,0.36-0.36,0.36-0.68c0-0.29-0.1-0.65-0.31-1.08l-1.18-2.74h-4.49c-0.54,1.25-0.82,2.25-0.82,3
		c0,0.64,0.19,1.08,0.58,1.33c0.38,0.25,0.94,0.39,1.66,0.42v0.48c-1.2-0.05-2.25-0.07-3.14-0.07c-0.75,0-1.37,0.02-1.85,0.07v-0.48
		c0.38-0.06,0.74-0.3,1.07-0.72c0.33-0.42,0.71-1.11,1.14-2.09l4.92-11.3c0.35,0.03,0.62,0.05,0.79,0.05c0.18,0,0.44-0.02,0.79-0.05
		l5.76,12.58C310.79,31.08,311.26,31.59,311.72,31.62z M303.68,26.39l-2.04-4.7l-2.04,4.7H303.68z"/>
	<path d="M331.3,18.18c-0.26,0.1-0.44,0.28-0.54,0.55c-0.1,0.27-0.14,0.71-0.14,1.32v9.5c0,0.61,0.05,1.05,0.14,1.32
		c0.1,0.27,0.28,0.46,0.54,0.55c0.26,0.1,0.68,0.16,1.26,0.19v0.48c-0.93-0.05-2.26-0.07-4.01-0.07c-2.16,0-3.74,0.02-4.75,0.07
		v-0.48c0.58-0.03,1-0.1,1.26-0.19c0.26-0.1,0.44-0.28,0.54-0.55c0.1-0.27,0.14-0.71,0.14-1.32V19.02l-5.3,13.2h-0.38l-5.57-13.18
		v9.55c0,0.77,0.07,1.34,0.2,1.73c0.14,0.38,0.39,0.67,0.76,0.85s0.94,0.33,1.7,0.44v0.48c-0.78-0.05-1.76-0.07-2.93-0.07
		c-0.85,0-1.51,0.02-1.99,0.07v-0.48c0.51-0.11,0.88-0.26,1.12-0.44s0.39-0.46,0.47-0.84c0.08-0.38,0.12-0.96,0.12-1.74v-8.54
		c0-0.61-0.05-1.05-0.14-1.32c-0.1-0.27-0.28-0.46-0.54-0.55c-0.26-0.1-0.68-0.16-1.26-0.19v-0.48c1.06,0.05,2.68,0.07,4.87,0.07
		c0.88,0,1.62-0.02,2.21-0.07l3.41,8.16l3.26-8.09h2.81c1.74,0,3.08-0.02,4.01-0.07v0.48C331.98,18.02,331.56,18.09,331.3,18.18z"/>
	<path d="M347,32.1c-1.04-0.05-2.79-0.07-5.26-0.07c-3.52,0-6.16,0.02-7.92,0.07v-0.48c0.51-0.03,0.88-0.1,1.12-0.19
		c0.23-0.1,0.39-0.28,0.47-0.55c0.08-0.27,0.12-0.71,0.12-1.32v-9.5c0-0.61-0.04-1.05-0.13-1.32c-0.09-0.27-0.24-0.46-0.47-0.55
		c-0.22-0.1-0.59-0.16-1.1-0.19v-0.48c1.76,0.05,4.4,0.07,7.92,0.07c2.24,0,3.83-0.02,4.78-0.07c-0.11,1.14-0.17,2.16-0.17,3.07
		c0,0.62,0.02,1.12,0.07,1.49h-0.55c-0.32-1.42-0.83-2.45-1.52-3.07c-0.7-0.62-1.58-0.94-2.65-0.94h-0.31
		c-0.45,0-0.76,0.08-0.95,0.24c-0.18,0.16-0.28,0.5-0.28,1.03v5.18h0.55c0.77,0,1.38-0.28,1.84-0.83c0.46-0.55,0.75-1.17,0.88-1.86
		h0.55c-0.05,0.54-0.07,1.18-0.07,1.92v1.01c0,0.78,0.05,1.76,0.14,2.93h-0.55c-0.11-0.77-0.41-1.41-0.89-1.92
		c-0.48-0.51-1.11-0.77-1.9-0.77h-0.55v5.28c0,0.53,0.09,0.87,0.28,1.03c0.18,0.16,0.5,0.24,0.95,0.24h0.55
		c1.12,0,2.05-0.35,2.8-1.04c0.74-0.7,1.28-1.84,1.62-3.44h0.55c-0.05,0.45-0.07,1.02-0.07,1.73C346.84,29.77,346.89,30.87,347,32.1
		z"/>
	<path d="M364.02,17.99c-0.51,0.11-0.88,0.26-1.12,0.44c-0.23,0.18-0.39,0.46-0.47,0.84c-0.08,0.38-0.12,0.96-0.12,1.74V32.1
		c-0.38-0.03-0.67-0.05-0.86-0.05c-0.21,0-0.5,0.02-0.89,0.05l-9.6-11.02v7.51c0,0.77,0.07,1.34,0.2,1.73
		c0.14,0.38,0.39,0.67,0.76,0.85c0.37,0.18,0.94,0.33,1.7,0.44v0.48c-0.78-0.05-1.76-0.07-2.93-0.07c-0.85,0-1.51,0.02-1.99,0.07
		v-0.48c0.51-0.11,0.88-0.26,1.12-0.44s0.39-0.46,0.47-0.84c0.08-0.38,0.12-0.96,0.12-1.74v-8.54c0-0.61-0.04-1.05-0.13-1.32
		c-0.09-0.27-0.24-0.46-0.47-0.55c-0.22-0.1-0.59-0.16-1.1-0.19v-0.48c0.48,0.05,1.14,0.07,1.99,0.07c1.31,0,2.45-0.02,3.41-0.07
		l7.66,8.74v-5.23c0-0.77-0.07-1.34-0.2-1.73c-0.14-0.38-0.39-0.67-0.76-0.85c-0.37-0.18-0.94-0.33-1.7-0.44v-0.48
		c0.78,0.05,1.76,0.07,2.93,0.07c0.85,0,1.51-0.02,1.99-0.07V17.99z"/>
	<path d="M379.74,21.06c0,0.96,0.02,1.7,0.07,2.21h-0.55c-0.45-1.89-1-3.23-1.64-4.02s-1.49-1.19-2.53-1.19h-0.22v11.26
		c0,0.67,0.06,1.16,0.19,1.46c0.13,0.3,0.35,0.51,0.67,0.62s0.84,0.18,1.56,0.22v0.48c-0.9-0.05-2.51-0.07-4.85-0.07
		c-2.32,0-3.86,0.02-4.63,0.07v-0.48c0.72-0.03,1.24-0.1,1.56-0.22c0.32-0.11,0.54-0.32,0.67-0.62s0.19-0.79,0.19-1.46V18.06h-0.22
		c-1.04,0-1.88,0.4-2.53,1.19s-1.2,2.13-1.64,4.02h-0.55c0.05-0.51,0.07-1.25,0.07-2.21c0-1.04-0.06-2.22-0.17-3.55
		c1.42,0.05,3.84,0.07,7.25,0.07c3.5,0,5.99-0.02,7.46-0.07C379.8,18.84,379.74,20.02,379.74,21.06z"/>
	<path d="M397.74,15.18c0.67,0.27,1.33,0.66,1.97,1.15c0.16,0.14,0.31,0.22,0.46,0.22c0.32,0,0.53-0.48,0.62-1.44h0.55
		c-0.06,1.14-0.1,3.14-0.1,6h-0.55c-0.11-1.28-0.32-2.29-0.62-3.02c-0.3-0.74-0.83-1.35-1.58-1.85c-0.75-0.48-1.5-0.72-2.23-0.72
		c-1.67,0-2.83,0.8-3.5,2.4c-0.67,1.6-1.01,3.51-1.01,5.74c0,2.22,0.34,4.14,1.01,5.74c0.67,1.6,1.84,2.4,3.5,2.4
		c0.74,0,1.48-0.24,2.23-0.72c0.75-0.46,1.28-1.09,1.58-1.87c0.3-0.78,0.51-1.9,0.62-3.34h0.55c0,2.99,0.03,5.07,0.1,6.24h-0.55
		c-0.05-0.51-0.12-0.88-0.2-1.09c-0.09-0.22-0.21-0.32-0.37-0.32c-0.13,0-0.3,0.06-0.5,0.19c-0.72,0.51-1.41,0.9-2.06,1.16
		c-0.66,0.26-1.45,0.4-2.38,0.4c-1.81,0-3.39-0.34-4.75-1.03c-1.36-0.69-2.42-1.68-3.17-2.99c-0.75-1.3-1.13-2.86-1.13-4.67
		c0-1.76,0.38-3.32,1.15-4.68c0.77-1.36,1.84-2.42,3.22-3.17c1.38-0.75,2.94-1.13,4.7-1.13C396.25,14.78,397.07,14.91,397.74,15.18z
		"/>
	<path d="M418.04,31.62v0.48c-0.82-0.05-1.99-0.07-3.53-0.07c-1.94,0-3.36,0.02-4.27,0.07v-0.48c0.5-0.03,0.86-0.12,1.1-0.25
		c0.24-0.14,0.36-0.36,0.36-0.68c0-0.29-0.1-0.65-0.31-1.08l-1.18-2.74h-4.49c-0.54,1.25-0.82,2.25-0.82,3
		c0,0.64,0.19,1.08,0.58,1.33s0.94,0.39,1.66,0.42v0.48c-1.2-0.05-2.25-0.07-3.14-0.07c-0.75,0-1.37,0.02-1.85,0.07v-0.48
		c0.38-0.06,0.74-0.3,1.07-0.72c0.33-0.42,0.71-1.11,1.14-2.09l4.92-11.3c0.35,0.03,0.62,0.05,0.79,0.05s0.44-0.02,0.79-0.05
		l5.76,12.58C417.11,31.08,417.58,31.59,418.04,31.62z M410,26.39l-2.04-4.7l-2.04,4.7H410z"/>
	<path d="M431.44,21.06c0,0.96,0.02,1.7,0.07,2.21h-0.55c-0.45-1.89-1-3.23-1.64-4.02c-0.65-0.79-1.49-1.19-2.53-1.19h-0.22v11.26
		c0,0.67,0.06,1.16,0.19,1.46c0.13,0.3,0.35,0.51,0.67,0.62c0.32,0.11,0.84,0.18,1.56,0.22v0.48c-0.9-0.05-2.51-0.07-4.85-0.07
		c-2.32,0-3.86,0.02-4.63,0.07v-0.48c0.72-0.03,1.24-0.1,1.56-0.22s0.54-0.32,0.67-0.62s0.19-0.79,0.19-1.46V18.06h-0.22
		c-1.04,0-1.88,0.4-2.53,1.19c-0.65,0.79-1.2,2.13-1.64,4.02h-0.55c0.05-0.51,0.07-1.25,0.07-2.21c0-1.04-0.06-2.22-0.17-3.55
		c1.42,0.05,3.84,0.07,7.25,0.07c3.5,0,5.99-0.02,7.46-0.07C431.49,18.84,431.44,20.02,431.44,21.06z"/>
	<path d="M446.2,31.62v0.48c-0.82-0.05-1.99-0.07-3.53-0.07c-1.94,0-3.36,0.02-4.27,0.07v-0.48c0.5-0.03,0.86-0.12,1.1-0.25
		c0.24-0.14,0.36-0.36,0.36-0.68c0-0.29-0.1-0.65-0.31-1.08l-1.18-2.74h-4.49c-0.54,1.25-0.82,2.25-0.82,3
		c0,0.64,0.19,1.08,0.58,1.33s0.94,0.39,1.66,0.42v0.48c-1.2-0.05-2.25-0.07-3.14-0.07c-0.75,0-1.37,0.02-1.85,0.07v-0.48
		c0.38-0.06,0.74-0.3,1.07-0.72c0.33-0.42,0.71-1.11,1.14-2.09l4.92-11.3c0.35,0.03,0.62,0.05,0.79,0.05s0.44-0.02,0.79-0.05
		l5.76,12.58C445.26,31.08,445.73,31.59,446.2,31.62z M438.16,26.39l-2.04-4.7l-2.04,4.7H438.16z"/>
	<path d="M454.67,17.99c-0.51,0.03-0.88,0.1-1.12,0.19c-0.23,0.1-0.39,0.28-0.47,0.55c-0.08,0.27-0.12,0.71-0.12,1.32v9.98
		c0,0.62,0.09,1.03,0.28,1.22c0.18,0.19,0.5,0.29,0.95,0.29h0.55c1.02,0,1.94-0.42,2.74-1.25s1.36-2.15,1.68-3.96h0.55
		c-0.05,0.53-0.07,1.18-0.07,1.97c0,1.12,0.06,2.38,0.17,3.79c-1.04-0.05-2.79-0.07-5.26-0.07c-3.52,0-6.16,0.02-7.92,0.07v-0.48
		c0.51-0.03,0.88-0.1,1.12-0.19c0.23-0.1,0.39-0.28,0.47-0.55c0.08-0.27,0.12-0.71,0.12-1.32v-9.5c0-0.61-0.04-1.05-0.13-1.32
		c-0.09-0.27-0.24-0.46-0.47-0.55c-0.22-0.1-0.59-0.16-1.1-0.19v-0.48c0.91,0.05,2.34,0.07,4.27,0.07c1.62,0,2.87-0.02,3.77-0.07
		V17.99z"/>
	<path d="M475.79,31.62v0.48c-0.82-0.05-1.99-0.07-3.53-0.07c-1.94,0-3.36,0.02-4.27,0.07v-0.48c0.5-0.03,0.86-0.12,1.1-0.25
		c0.24-0.14,0.36-0.36,0.36-0.68c0-0.29-0.1-0.65-0.31-1.08l-1.18-2.74h-4.49c-0.54,1.25-0.82,2.25-0.82,3
		c0,0.64,0.19,1.08,0.58,1.33s0.94,0.39,1.66,0.42v0.48c-1.2-0.05-2.25-0.07-3.14-0.07c-0.75,0-1.37,0.02-1.85,0.07v-0.48
		c0.38-0.06,0.74-0.3,1.07-0.72c0.33-0.42,0.71-1.11,1.14-2.09l4.92-11.3c0.35,0.03,0.62,0.05,0.79,0.05s0.44-0.02,0.79-0.05
		l5.76,12.58C474.85,31.08,475.32,31.59,475.79,31.62z M466.4,12.3c0.19,0.19,0.46,0.48,0.79,0.86c0.7,0.88,1.47,1.67,2.3,2.38
		l-0.17,0.29c-1.01-0.3-2.08-0.54-3.22-0.72c-0.46-0.08-0.83-0.15-1.1-0.22c-0.27-0.06-0.54-0.16-0.79-0.29
		c-0.29-0.14-0.51-0.34-0.67-0.6c-0.16-0.26-0.24-0.53-0.24-0.82c0-0.22,0.05-0.43,0.14-0.62c0.14-0.29,0.36-0.51,0.64-0.67
		c0.28-0.16,0.57-0.24,0.88-0.24c0.24,0,0.49,0.06,0.74,0.17C465.98,11.95,466.21,12.11,466.4,12.3z M467.75,26.39l-2.04-4.7
		l-2.04,4.7H467.75z"/>
	<path d="M480.66,29.2c0.18,0.24,0.32,0.56,0.43,0.96c0.11,0.4,0.17,0.84,0.17,1.32c0,0.83-0.22,1.6-0.65,2.3
		c-0.43,0.7-1.06,1.25-1.9,1.63l-0.22-0.43c0.42-0.19,0.79-0.47,1.12-0.83c0.33-0.36,0.56-0.74,0.68-1.14
		c0.08-0.22,0.12-0.49,0.12-0.79c0-0.24-0.02-0.42-0.05-0.53c-0.42,0.5-1,0.74-1.75,0.74c-0.64,0-1.15-0.18-1.54-0.54
		c-0.38-0.36-0.58-0.87-0.58-1.52c0-0.62,0.21-1.12,0.62-1.5c0.42-0.38,0.96-0.56,1.63-0.56C479.63,28.31,480.26,28.61,480.66,29.2z
		"/>
	<path d="M494.8,29.87c0,0.66,0.1,1.11,0.3,1.36s0.55,0.37,1.04,0.37v0.5c-1.73-0.06-2.83-0.1-3.31-0.1c-0.56,0-1.8,0.02-3.72,0.07
		l-0.7,0.02v-0.5c0.69,0,1.2-0.14,1.55-0.43c0.34-0.29,0.52-0.8,0.52-1.54v-5.9c0-0.77-0.06-1.33-0.18-1.69
		c-0.12-0.36-0.32-0.6-0.6-0.72c-0.28-0.12-0.71-0.18-1.28-0.18v-0.53c1.55-0.03,2.82-0.14,3.8-0.32s1.84-0.48,2.58-0.9V29.87z"/>
	<path d="M507.16,26.1h-8.66v-2.38h8.66V26.1z"/>
	<path d="M518.17,20.06c0.85,0.5,1.27,1.18,1.27,2.04c0,0.93-0.5,1.76-1.5,2.48s-2.41,1.22-4.24,1.48c0.19-0.02,0.47-0.02,0.84-0.02
		c1.76,0,3.16,0.33,4.2,1c1.04,0.66,1.56,1.56,1.56,2.7c0,1.17-0.54,2.21-1.63,3.13c-1.09,0.92-2.49,1.63-4.2,2.12
		c-1.71,0.5-3.45,0.74-5.21,0.74v-0.5c1.01-0.05,2.02-0.29,3.04-0.72c1.02-0.43,1.86-1.05,2.54-1.86c0.68-0.81,1.02-1.77,1.02-2.89
		c0-0.94-0.22-1.72-0.67-2.32s-1.06-0.93-1.82-1c-0.32,0.14-0.57,0.25-0.76,0.31c-0.18,0.06-0.37,0.1-0.56,0.1
		c-0.16,0-0.28-0.03-0.36-0.08s-0.12-0.16-0.12-0.3c0-0.19,0.08-0.33,0.24-0.42c0.16-0.09,0.37-0.13,0.62-0.13
		c0.16,0,0.31,0.01,0.46,0.02c0.14,0.02,0.27,0.03,0.38,0.05c1.23-0.8,1.85-1.82,1.85-3.05c0-0.69-0.19-1.21-0.56-1.56
		c-0.38-0.35-0.91-0.53-1.6-0.53c-0.62,0-1.2,0.15-1.74,0.44c-0.54,0.3-0.99,0.72-1.36,1.26l-0.43-0.24
		c0.54-0.91,1.24-1.64,2.09-2.18c0.85-0.54,1.98-0.82,3.38-0.82C516.24,19.31,517.32,19.56,518.17,20.06z"/>
	<path d="M526.12,29.2c0.18,0.24,0.32,0.56,0.43,0.96c0.11,0.4,0.17,0.84,0.17,1.32c0,0.83-0.22,1.6-0.65,2.3
		c-0.43,0.7-1.06,1.25-1.9,1.63l-0.22-0.43c0.42-0.19,0.79-0.47,1.12-0.83c0.33-0.36,0.56-0.74,0.68-1.14
		c0.08-0.22,0.12-0.49,0.12-0.79c0-0.24-0.02-0.42-0.05-0.53c-0.42,0.5-1,0.74-1.75,0.74c-0.64,0-1.15-0.18-1.54-0.54
		c-0.38-0.36-0.58-0.87-0.58-1.52c0-0.62,0.21-1.12,0.62-1.5c0.42-0.38,0.96-0.56,1.63-0.56C525.08,28.31,525.72,28.61,526.12,29.2z
		"/>
	<path d="M145.2,48.9c1.06,0.53,1.89,1.28,2.48,2.24c0.59,0.97,0.89,2.08,0.89,3.32c0,1.28-0.3,2.43-0.91,3.46
		c-0.61,1.02-1.46,1.83-2.57,2.42c-1.1,0.59-2.37,0.89-3.79,0.89c-1.34,0-2.55-0.26-3.61-0.79s-1.9-1.28-2.5-2.24
		c-0.6-0.97-0.9-2.08-0.9-3.35c0-1.26,0.3-2.41,0.91-3.43c0.61-1.02,1.46-1.83,2.56-2.42c1.1-0.59,2.36-0.89,3.8-0.89
		C142.93,48.11,144.14,48.38,145.2,48.9z M140.02,49.3c-0.39,0.5-0.7,1.22-0.91,2.16s-0.32,2.04-0.32,3.32
		c0,2.03,0.26,3.54,0.77,4.54c0.51,0.99,1.17,1.49,1.97,1.49c0.5,0,0.94-0.25,1.33-0.76c0.39-0.5,0.7-1.23,0.91-2.17
		c0.22-0.94,0.32-2.06,0.32-3.34c0-2.03-0.26-3.54-0.77-4.52c-0.51-0.98-1.17-1.48-1.97-1.48C140.85,48.54,140.41,48.8,140.02,49.3z
		"/>
	<path d="M158.89,50.85c0.86,0.8,1.56,1.48,2.08,2.04c0.52,0.56,0.96,1.17,1.32,1.82c0.36,0.66,0.54,1.34,0.54,2.04
		c0,0.85-0.28,1.62-0.83,2.3c-0.55,0.69-1.31,1.22-2.28,1.61c-0.97,0.38-2.05,0.58-3.25,0.58c-1.1,0-2.11-0.16-3.02-0.48
		s-1.64-0.8-2.2-1.43c-0.55-0.63-0.83-1.38-0.83-2.24c0-0.99,0.35-1.84,1.06-2.54s1.67-1.3,2.9-1.8c-1.02-0.91-1.81-1.76-2.35-2.54
		c-0.54-0.78-0.82-1.66-0.82-2.62c0-1.33,0.54-2.33,1.61-3c1.07-0.67,2.38-1.01,3.94-1.01c1.02,0,1.93,0.15,2.72,0.44
		c0.79,0.3,1.4,0.7,1.84,1.22c0.43,0.52,0.65,1.1,0.65,1.74c0,0.74-0.28,1.38-0.85,1.92c-0.57,0.54-1.44,1.07-2.63,1.58
		L158.89,50.85z M158.13,60.2c0.34-0.41,0.5-0.94,0.5-1.6c0-0.69-0.18-1.34-0.53-1.96c-0.35-0.62-0.76-1.16-1.22-1.62
		c-0.46-0.46-1.18-1.12-2.14-1.97c-0.51,0.83-0.77,2.02-0.77,3.55c0,2.8,0.87,4.2,2.62,4.2C157.28,60.81,157.79,60.6,158.13,60.2z
		 M155.59,44.44c-0.23,0.29-0.35,0.68-0.35,1.18c0,0.74,0.25,1.46,0.74,2.17c0.5,0.71,1.21,1.51,2.14,2.39
		c0.18-0.4,0.3-0.9,0.37-1.49c0.07-0.59,0.11-1.12,0.11-1.58c0-0.99-0.18-1.76-0.53-2.29c-0.35-0.54-0.84-0.8-1.46-0.8
		C156.17,44.01,155.83,44.15,155.59,44.44z"/>
	<path d="M175.15,49.91c1.08,1.2,1.62,2.88,1.62,5.04c0,1.97-0.54,3.65-1.62,5.04c-1.08,1.39-2.41,2.46-3.98,3.2
		c-1.58,0.74-3.14,1.21-4.69,1.4l-0.1-0.48c0.98-0.27,1.82-0.62,2.54-1.04c0.72-0.42,1.36-1.06,1.92-1.91
		c0.56-0.85,0.96-1.97,1.2-3.36c-0.3,0.43-0.7,0.75-1.2,0.95c-0.5,0.2-1.06,0.3-1.68,0.3c-0.93,0-1.77-0.21-2.52-0.64
		c-0.75-0.42-1.35-1.03-1.79-1.81c-0.44-0.78-0.66-1.7-0.66-2.74c0-1.2,0.29-2.24,0.88-3.11c0.58-0.87,1.37-1.53,2.35-1.98
		c0.98-0.45,2.06-0.67,3.23-0.67C172.57,48.11,174.07,48.71,175.15,49.91z M171.35,57.98c0.35-0.26,0.63-0.64,0.84-1.15
		c0.06-0.58,0.1-1.28,0.1-2.11c0-1.44-0.09-2.62-0.28-3.53c-0.18-0.91-0.42-1.57-0.71-1.98c-0.29-0.41-0.59-0.61-0.91-0.61
		c-0.48,0-0.88,0.42-1.21,1.26c-0.33,0.84-0.49,2.11-0.49,3.8c0,1.62,0.15,2.8,0.46,3.56c0.3,0.76,0.71,1.14,1.22,1.14
		C170.67,58.36,171,58.23,171.35,57.98z"/>
	<path d="M188.75,50.93c0.75,0.42,1.35,1.03,1.79,1.81c0.44,0.78,0.66,1.7,0.66,2.74c0,1.2-0.29,2.24-0.88,3.11
		c-0.58,0.87-1.37,1.53-2.35,1.98s-2.06,0.67-3.23,0.67c-1.92,0-3.42-0.6-4.5-1.8c-1.08-1.2-1.62-2.88-1.62-5.04
		c0-2.22,0.55-4.11,1.66-5.66c1.1-1.55,2.46-2.74,4.07-3.58c1.61-0.83,3.21-1.37,4.81-1.61l0.1,0.48c-1.06,0.34-1.97,0.75-2.74,1.24
		c-0.77,0.49-1.44,1.24-2.03,2.27c-0.58,1.02-0.99,2.39-1.21,4.1c0.61-0.9,1.59-1.34,2.95-1.34C187.16,50.3,188,50.51,188.75,50.93z
		 M186.22,59.5c0.33-0.84,0.49-2.11,0.49-3.8c0-1.62-0.15-2.8-0.46-3.56c-0.3-0.76-0.71-1.14-1.22-1.14c-0.3,0-0.64,0.14-1,0.41
		s-0.64,0.67-0.85,1.2c-0.05,0.62-0.07,1.3-0.07,2.04c0,1.44,0.09,2.62,0.28,3.53c0.18,0.91,0.42,1.57,0.71,1.98
		c0.29,0.41,0.59,0.61,0.91,0.61C185.49,60.76,185.89,60.34,186.22,59.5z"/>
	<path d="M203.66,48.9c1.06,0.53,1.89,1.28,2.48,2.24c0.59,0.97,0.89,2.08,0.89,3.32c0,1.28-0.3,2.43-0.91,3.46
		c-0.61,1.02-1.46,1.83-2.57,2.42c-1.1,0.59-2.37,0.89-3.79,0.89c-1.34,0-2.55-0.26-3.61-0.79s-1.9-1.28-2.5-2.24
		c-0.6-0.97-0.9-2.08-0.9-3.35c0-1.26,0.3-2.41,0.91-3.43c0.61-1.02,1.46-1.83,2.56-2.42c1.1-0.59,2.36-0.89,3.8-0.89
		C201.39,48.11,202.6,48.38,203.66,48.9z M198.48,49.3c-0.39,0.5-0.7,1.22-0.91,2.16s-0.32,2.04-0.32,3.32
		c0,2.03,0.26,3.54,0.77,4.54c0.51,0.99,1.17,1.49,1.97,1.49c0.5,0,0.94-0.25,1.33-0.76c0.39-0.5,0.7-1.23,0.91-2.17
		c0.22-0.94,0.32-2.06,0.32-3.34c0-2.03-0.26-3.54-0.77-4.52c-0.51-0.98-1.17-1.48-1.97-1.48C199.32,48.54,198.87,48.8,198.48,49.3z
		"/>
	<path d="M222.82,43.83c0.57,0.17,1.12,0.4,1.67,0.71c0.18,0.1,0.33,0.18,0.47,0.24c0.14,0.06,0.25,0.1,0.35,0.1
		c0.14,0,0.26-0.08,0.34-0.25c0.08-0.17,0.14-0.44,0.19-0.8h0.55c-0.08,1.15-0.12,3.1-0.12,5.86h-0.55
		c-0.06-0.91-0.27-1.78-0.62-2.62c-0.35-0.83-0.83-1.51-1.44-2.04c-0.61-0.53-1.31-0.79-2.11-0.79c-0.74,0-1.33,0.2-1.78,0.59
		c-0.45,0.39-0.67,0.94-0.67,1.64c0,0.54,0.12,1.02,0.36,1.42c0.24,0.4,0.59,0.79,1.06,1.16c0.46,0.38,1.22,0.93,2.28,1.67
		c0.1,0.05,0.19,0.1,0.28,0.17c0.09,0.06,0.17,0.13,0.25,0.19c0.88,0.61,1.58,1.15,2.11,1.62c0.53,0.47,0.96,1.02,1.28,1.64
		c0.33,0.62,0.49,1.34,0.49,2.16c0,1.04-0.29,1.92-0.88,2.63c-0.58,0.71-1.37,1.24-2.36,1.6c-0.99,0.35-2.09,0.53-3.29,0.53
		c-0.98,0-1.79-0.08-2.44-0.24c-0.65-0.16-1.25-0.38-1.81-0.65c-0.35-0.22-0.62-0.34-0.82-0.34c-0.14,0-0.26,0.08-0.34,0.25
		c-0.08,0.17-0.14,0.44-0.19,0.8h-0.55c0.06-1.09,0.1-3.41,0.1-6.96h0.55c0.11,1.9,0.51,3.45,1.2,4.63
		c0.69,1.18,1.74,1.78,3.17,1.78c0.88,0,1.58-0.21,2.1-0.62c0.52-0.42,0.78-0.99,0.78-1.73c0-0.91-0.28-1.69-0.85-2.34
		c-0.57-0.65-1.45-1.37-2.65-2.17c-0.96-0.64-1.73-1.2-2.3-1.68c-0.58-0.48-1.05-1.04-1.42-1.67c-0.37-0.63-0.55-1.36-0.55-2.2
		c0-1.01,0.27-1.85,0.82-2.53c0.54-0.68,1.27-1.18,2.17-1.51c0.9-0.33,1.89-0.49,2.96-0.49C221.51,43.58,222.25,43.66,222.82,43.83z
		"/>
	<path d="M243.3,60.42v0.48c-0.82-0.05-1.99-0.07-3.53-0.07c-1.94,0-3.36,0.02-4.27,0.07v-0.48c0.5-0.03,0.86-0.12,1.1-0.25
		c0.24-0.14,0.36-0.36,0.36-0.68c0-0.29-0.1-0.65-0.31-1.08l-1.18-2.74h-4.49c-0.54,1.25-0.82,2.25-0.82,3
		c0,0.64,0.19,1.08,0.58,1.33c0.38,0.25,0.94,0.39,1.66,0.42v0.48c-1.2-0.05-2.25-0.07-3.14-0.07c-0.75,0-1.37,0.02-1.85,0.07v-0.48
		c0.38-0.06,0.74-0.3,1.07-0.72c0.33-0.42,0.71-1.11,1.14-2.09l4.92-11.3c0.35,0.03,0.62,0.05,0.79,0.05c0.18,0,0.44-0.02,0.79-0.05
		l5.76,12.58C242.36,59.88,242.84,60.39,243.3,60.42z M235.26,55.19l-2.04-4.7l-2.04,4.7H235.26z"/>
	<path d="M259.07,46.79c-0.51,0.11-0.88,0.26-1.12,0.44c-0.23,0.18-0.39,0.46-0.47,0.84c-0.08,0.38-0.12,0.96-0.12,1.74V60.9
		c-0.38-0.03-0.67-0.05-0.86-0.05c-0.21,0-0.5,0.02-0.89,0.05l-9.6-11.02v7.51c0,0.77,0.07,1.34,0.2,1.73
		c0.14,0.38,0.39,0.67,0.76,0.85c0.37,0.18,0.94,0.33,1.7,0.44v0.48c-0.78-0.05-1.76-0.07-2.93-0.07c-0.85,0-1.51,0.02-1.99,0.07
		v-0.48c0.51-0.11,0.88-0.26,1.12-0.44s0.39-0.46,0.47-0.84c0.08-0.38,0.12-0.96,0.12-1.74v-8.54c0-0.61-0.04-1.05-0.13-1.32
		c-0.09-0.27-0.24-0.46-0.47-0.55c-0.22-0.1-0.59-0.16-1.1-0.19v-0.48c0.48,0.05,1.14,0.07,1.99,0.07c1.31,0,2.45-0.02,3.41-0.07
		l7.66,8.74v-5.23c0-0.77-0.07-1.34-0.2-1.73c-0.14-0.38-0.39-0.67-0.76-0.85c-0.37-0.18-0.94-0.33-1.7-0.44v-0.48
		c0.78,0.05,1.76,0.07,2.93,0.07c0.85,0,1.51-0.02,1.99-0.07V46.79z"/>
	<path d="M274.79,49.86c0,0.96,0.02,1.7,0.07,2.21h-0.55c-0.45-1.89-1-3.23-1.64-4.02s-1.49-1.19-2.53-1.19h-0.22v11.26
		c0,0.67,0.06,1.16,0.19,1.46c0.13,0.3,0.35,0.51,0.67,0.62s0.84,0.18,1.56,0.22v0.48c-0.9-0.05-2.51-0.07-4.85-0.07
		c-2.32,0-3.86,0.02-4.63,0.07v-0.48c0.72-0.03,1.24-0.1,1.56-0.22c0.32-0.11,0.54-0.32,0.67-0.62s0.19-0.79,0.19-1.46V46.86h-0.22
		c-1.04,0-1.88,0.4-2.53,1.19s-1.2,2.13-1.64,4.02h-0.55c0.05-0.51,0.07-1.25,0.07-2.21c0-1.04-0.06-2.22-0.17-3.55
		c1.42,0.05,3.84,0.07,7.25,0.07c3.5,0,5.99-0.02,7.46-0.07C274.84,47.64,274.79,48.82,274.79,49.86z"/>
	<path d="M279.8,64.91c0.64-0.1,1.16-0.3,1.57-0.6c0.41-0.3,0.72-0.83,0.95-1.58c0.22-0.75,0.34-1.8,0.34-3.14V46.46
		c0-0.61-0.04-1.05-0.13-1.32c-0.09-0.27-0.24-0.46-0.47-0.55c-0.22-0.1-0.59-0.16-1.1-0.19v-0.48c0.86,0.05,2.2,0.07,4.01,0.07
		c1.87,0,3.3-0.02,4.27-0.07v0.48c-0.51,0.03-0.88,0.1-1.12,0.19c-0.23,0.1-0.39,0.28-0.47,0.55c-0.08,0.27-0.12,0.71-0.12,1.32
		v8.78v1.99c0,0.93-0.03,1.74-0.08,2.45c-0.06,0.7-0.16,1.31-0.32,1.82c-0.38,1.17-1.19,2.11-2.42,2.83
		c-1.23,0.72-2.86,1.08-4.9,1.08V64.91z"/>
	<path d="M305.8,46.79c-0.58,0.11-1,0.28-1.26,0.52c-0.26,0.23-0.44,0.59-0.54,1.07c-0.1,0.48-0.14,1.2-0.14,2.16v3.86
		c0,1.1-0.08,2.04-0.23,2.82c-0.15,0.78-0.4,1.45-0.76,2.03c-0.4,0.61-0.99,1.09-1.76,1.45s-1.65,0.54-2.63,0.54
		c-1.9,0-3.41-0.35-4.51-1.06c-0.61-0.42-1.07-0.86-1.39-1.34c-0.32-0.48-0.54-1.06-0.67-1.73c-0.13-0.67-0.19-1.55-0.19-2.64v-5.62
		c0-0.61-0.04-1.05-0.13-1.32c-0.09-0.27-0.24-0.46-0.47-0.55c-0.22-0.1-0.59-0.16-1.1-0.19v-0.48c0.86,0.05,2.21,0.07,4.03,0.07
		c1.74,0,3.08-0.02,4.01-0.07v0.48c-0.51,0.03-0.88,0.1-1.12,0.19c-0.23,0.1-0.39,0.28-0.47,0.55c-0.08,0.27-0.12,0.71-0.12,1.32
		v6.02c0,1.14,0.08,2.08,0.23,2.82c0.15,0.74,0.47,1.34,0.95,1.79c0.48,0.45,1.19,0.67,2.14,0.67c1.34,0,2.29-0.48,2.83-1.45
		c0.54-0.97,0.82-2.32,0.82-4.04v-3.65c0-1.18-0.05-2.04-0.14-2.56c-0.1-0.52-0.31-0.9-0.64-1.14c-0.33-0.24-0.88-0.42-1.64-0.53
		v-0.48c0.66,0.05,1.55,0.07,2.69,0.07c0.96,0,1.7-0.02,2.23-0.07V46.79z"/>
	<path d="M316.88,46.86c0.18,0.1,0.33,0.18,0.47,0.24c0.14,0.06,0.25,0.1,0.35,0.1c0.14,0,0.26-0.08,0.34-0.25
		c0.08-0.17,0.14-0.44,0.19-0.8h0.55c-0.08,1.04-0.12,2.83-0.12,5.38h-0.55c-0.22-1.63-0.75-2.87-1.57-3.71
		c-0.82-0.84-1.84-1.26-3.04-1.26c-0.77,0-1.38,0.14-1.82,0.43S311,47.65,311,48.11c0,0.42,0.15,0.81,0.46,1.19
		c0.3,0.38,0.7,0.73,1.18,1.07c0.48,0.34,1.24,0.83,2.28,1.49c0.96,0.56,1.74,1.07,2.35,1.52c0.61,0.46,1.12,1,1.54,1.63
		c0.42,0.63,0.62,1.35,0.62,2.15c0,1.31-0.6,2.32-1.8,3.02c-1.2,0.7-2.8,1.06-4.8,1.06c-0.77,0-1.43-0.08-1.99-0.25
		s-1.22-0.4-1.99-0.71c-0.43-0.18-0.71-0.26-0.84-0.26c-0.14,0-0.26,0.08-0.34,0.25c-0.08,0.17-0.14,0.44-0.19,0.8h-0.55
		c0.06-0.96,0.1-3.04,0.1-6.24h0.55c0.13,1.86,0.63,3.29,1.51,4.3c0.88,1.01,2.07,1.51,3.58,1.51c0.67,0,1.25-0.15,1.74-0.46
		c0.49-0.3,0.73-0.77,0.73-1.39c0-0.58-0.22-1.08-0.65-1.51s-1.2-0.99-2.3-1.68c-1.66-0.99-2.94-1.92-3.82-2.77
		c-0.88-0.86-1.32-1.81-1.32-2.87c0-1.3,0.57-2.28,1.7-2.96c1.14-0.68,2.63-1.02,4.49-1.02C314.58,45.98,315.8,46.27,316.88,46.86z"
		/>
	<path d="M335.44,49.86c0,0.96,0.02,1.7,0.07,2.21h-0.55c-0.45-1.89-1-3.23-1.64-4.02s-1.49-1.19-2.53-1.19h-0.22v11.26
		c0,0.67,0.06,1.16,0.19,1.46c0.13,0.3,0.35,0.51,0.67,0.62s0.84,0.18,1.56,0.22v0.48c-0.9-0.05-2.51-0.07-4.85-0.07
		c-2.32,0-3.86,0.02-4.63,0.07v-0.48c0.72-0.03,1.24-0.1,1.56-0.22c0.32-0.11,0.54-0.32,0.67-0.62s0.19-0.79,0.19-1.46V46.86h-0.22
		c-1.04,0-1.88,0.4-2.53,1.19s-1.2,2.13-1.64,4.02h-0.55c0.05-0.51,0.07-1.25,0.07-2.21c0-1.04-0.06-2.22-0.17-3.55
		c1.42,0.05,3.84,0.07,7.25,0.07c3.5,0,5.99-0.02,7.46-0.07C335.49,47.64,335.44,48.82,335.44,49.86z"/>
	<path d="M357.16,46.04c1.65,1.42,2.47,3.48,2.47,6.18c0,1.74-0.4,3.27-1.21,4.57c-0.81,1.3-1.97,2.32-3.49,3.04
		c-1.52,0.72-3.33,1.08-5.42,1.08l-1.49-0.02c-0.96-0.03-1.66-0.05-2.11-0.05c-1.87,0-3.26,0.02-4.18,0.07v-0.48
		c0.51-0.03,0.88-0.1,1.12-0.19c0.23-0.1,0.39-0.28,0.47-0.55c0.08-0.27,0.12-0.71,0.12-1.32v-11.9c0-0.61-0.04-1.05-0.13-1.32
		c-0.09-0.27-0.24-0.46-0.47-0.55c-0.22-0.1-0.59-0.16-1.1-0.19v-0.48c0.74,0.05,1.82,0.07,3.26,0.07h0.86l1.06-0.02
		c1.34-0.03,2.28-0.05,2.81-0.05C353.03,43.91,355.51,44.62,357.16,46.04z M348.96,44.51c-0.25,0.11-0.42,0.31-0.52,0.6
		c-0.1,0.29-0.14,0.72-0.14,1.3v12c0,0.58,0.05,1.01,0.14,1.3c0.1,0.29,0.27,0.49,0.52,0.6c0.25,0.11,0.63,0.17,1.14,0.17
		c1.58,0,2.73-0.68,3.43-2.05c0.7-1.37,1.06-3.4,1.06-6.11s-0.36-4.71-1.09-6.01c-0.73-1.3-1.87-1.96-3.42-1.96
		C349.58,44.34,349.21,44.4,348.96,44.51z"/>
	<path d="M374.24,60.9c-1.04-0.05-2.79-0.07-5.26-0.07c-3.52,0-6.16,0.02-7.92,0.07v-0.48c0.51-0.03,0.88-0.1,1.12-0.19
		c0.23-0.1,0.39-0.28,0.47-0.55c0.08-0.27,0.12-0.71,0.12-1.32v-9.5c0-0.61-0.04-1.05-0.13-1.32c-0.09-0.27-0.24-0.46-0.47-0.55
		c-0.22-0.1-0.59-0.16-1.1-0.19v-0.48c1.76,0.05,4.4,0.07,7.92,0.07c2.24,0,3.83-0.02,4.78-0.07c-0.11,1.14-0.17,2.16-0.17,3.07
		c0,0.62,0.02,1.12,0.07,1.49h-0.55c-0.32-1.42-0.83-2.45-1.52-3.07c-0.7-0.62-1.58-0.94-2.65-0.94h-0.31
		c-0.45,0-0.76,0.08-0.95,0.24c-0.18,0.16-0.28,0.5-0.28,1.03v5.18h0.55c0.77,0,1.38-0.28,1.84-0.83c0.46-0.55,0.75-1.17,0.88-1.86
		h0.55c-0.05,0.54-0.07,1.18-0.07,1.92v1.01c0,0.78,0.05,1.76,0.14,2.93h-0.55c-0.11-0.77-0.41-1.41-0.89-1.92
		c-0.48-0.51-1.11-0.77-1.9-0.77h-0.55v5.28c0,0.53,0.09,0.87,0.28,1.03c0.18,0.16,0.5,0.24,0.95,0.24h0.55
		c1.12,0,2.05-0.35,2.8-1.04c0.74-0.7,1.28-1.84,1.62-3.44h0.55c-0.05,0.45-0.07,1.02-0.07,1.73
		C374.08,58.57,374.13,59.67,374.24,60.9z"/>
	<path d="M386.34,46.86c0.18,0.1,0.33,0.18,0.47,0.24c0.14,0.06,0.25,0.1,0.35,0.1c0.14,0,0.26-0.08,0.34-0.25
		c0.08-0.17,0.14-0.44,0.19-0.8h0.55c-0.08,1.04-0.12,2.83-0.12,5.38h-0.55c-0.22-1.63-0.75-2.87-1.57-3.71
		c-0.82-0.84-1.84-1.26-3.04-1.26c-0.77,0-1.38,0.14-1.82,0.43s-0.67,0.66-0.67,1.13c0,0.42,0.15,0.81,0.46,1.19
		c0.3,0.38,0.7,0.73,1.18,1.07c0.48,0.34,1.24,0.83,2.28,1.49c0.96,0.56,1.74,1.07,2.35,1.52c0.61,0.46,1.12,1,1.54,1.63
		c0.42,0.63,0.62,1.35,0.62,2.15c0,1.31-0.6,2.32-1.8,3.02c-1.2,0.7-2.8,1.06-4.8,1.06c-0.77,0-1.43-0.08-1.99-0.25
		s-1.22-0.4-1.99-0.71c-0.43-0.18-0.71-0.26-0.84-0.26c-0.14,0-0.26,0.08-0.34,0.25c-0.08,0.17-0.14,0.44-0.19,0.8h-0.55
		c0.06-0.96,0.1-3.04,0.1-6.24h0.55c0.13,1.86,0.63,3.29,1.51,4.3c0.88,1.01,2.07,1.51,3.58,1.51c0.67,0,1.25-0.15,1.74-0.46
		c0.49-0.3,0.73-0.77,0.73-1.39c0-0.58-0.22-1.08-0.65-1.51s-1.2-0.99-2.3-1.68c-1.66-0.99-2.94-1.92-3.82-2.77
		c-0.88-0.86-1.32-1.81-1.32-2.87c0-1.3,0.57-2.28,1.7-2.96c1.14-0.68,2.63-1.02,4.49-1.02C384.03,45.98,385.25,46.27,386.34,46.86z
		"/>
	<path d="M405.04,46.31v0.48c-0.85,0.42-1.65,1.54-2.4,3.36l-4.37,10.75c-0.18-0.03-0.44-0.05-0.79-0.05
		c-0.35,0-0.62,0.02-0.79,0.05l-6.12-12.58c-0.48-0.99-0.95-1.5-1.42-1.54v-0.48c0.82,0.05,1.99,0.07,3.53,0.07
		c1.94,0,3.36-0.02,4.27-0.07v0.48c-0.5,0.03-0.86,0.12-1.1,0.25c-0.24,0.14-0.36,0.36-0.36,0.68c0,0.29,0.1,0.65,0.31,1.08
		l3.7,7.75l1.63-4.06c0.61-1.5,0.91-2.7,0.91-3.6c0-1.36-0.66-2.06-1.99-2.11v-0.48c1.2,0.05,2.25,0.07,3.14,0.07
		C403.94,46.38,404.55,46.36,405.04,46.31z"/>
	<path d="M418.67,60.9c-1.04-0.05-2.79-0.07-5.26-0.07c-3.52,0-6.16,0.02-7.92,0.07v-0.48c0.51-0.03,0.88-0.1,1.12-0.19
		c0.23-0.1,0.39-0.28,0.47-0.55c0.08-0.27,0.12-0.71,0.12-1.32v-9.5c0-0.61-0.04-1.05-0.13-1.32c-0.09-0.27-0.24-0.46-0.47-0.55
		c-0.22-0.1-0.59-0.16-1.1-0.19v-0.48c1.76,0.05,4.4,0.07,7.92,0.07c2.24,0,3.83-0.02,4.78-0.07c-0.11,1.14-0.17,2.16-0.17,3.07
		c0,0.62,0.02,1.12,0.07,1.49h-0.55c-0.32-1.42-0.83-2.45-1.52-3.07c-0.7-0.62-1.58-0.94-2.65-0.94h-0.31
		c-0.45,0-0.76,0.08-0.95,0.24c-0.18,0.16-0.28,0.5-0.28,1.03v5.18h0.55c0.77,0,1.38-0.28,1.84-0.83c0.46-0.55,0.75-1.17,0.88-1.86
		h0.55c-0.05,0.54-0.07,1.18-0.07,1.92v1.01c0,0.78,0.05,1.76,0.14,2.93h-0.55c-0.11-0.77-0.41-1.41-0.89-1.92
		c-0.48-0.51-1.11-0.77-1.9-0.77h-0.55v5.28c0,0.53,0.09,0.87,0.28,1.03c0.18,0.16,0.5,0.24,0.95,0.24h0.55
		c1.12,0,2.05-0.35,2.8-1.04c0.74-0.7,1.28-1.84,1.62-3.44h0.55c-0.05,0.45-0.07,1.02-0.07,1.73
		C418.5,58.57,418.55,59.67,418.67,60.9z"/>
	<path d="M436.79,59.9c-0.45,0.45-0.94,0.78-1.48,1.01s-1.22,0.34-2.05,0.34c-1.04,0-1.84-0.18-2.4-0.54
		c-0.56-0.36-0.92-0.86-1.08-1.5l-0.67-2.71c-0.14-0.88-0.37-1.47-0.67-1.76c-0.3-0.3-0.75-0.44-1.34-0.44h-0.41v4.08
		c0,0.61,0.04,1.05,0.13,1.32c0.09,0.27,0.24,0.46,0.47,0.55c0.22,0.1,0.59,0.16,1.1,0.19v0.48c-1.02-0.05-2.52-0.07-4.49-0.07
		c-1.6,0-2.78,0.02-3.55,0.07v-0.48c0.51-0.03,0.88-0.1,1.12-0.19c0.23-0.1,0.39-0.28,0.47-0.55c0.08-0.27,0.12-0.71,0.12-1.32v-9.5
		c0-0.61-0.04-1.05-0.13-1.32c-0.09-0.27-0.24-0.46-0.47-0.55c-0.22-0.1-0.59-0.16-1.1-0.19v-0.48c0.77,0.05,1.9,0.07,3.41,0.07
		l2.93-0.02c0.34-0.02,0.73-0.02,1.18-0.02c4.66,0,6.98,1.23,6.98,3.7c0,1.02-0.46,1.91-1.38,2.66c-0.92,0.75-2.47,1.22-4.64,1.42
		c0.06,0,0.15,0,0.25,0.01c0.1,0.01,0.23,0.03,0.37,0.06c1.34,0.13,2.4,0.38,3.18,0.76s1.27,0.98,1.48,1.81l0.5,2.11
		c0.1,0.4,0.22,0.68,0.38,0.83c0.16,0.15,0.37,0.23,0.62,0.23c0.29,0,0.57-0.11,0.84-0.34L436.79,59.9z M427.07,46.96
		c-0.14,0.11-0.24,0.31-0.3,0.6c-0.06,0.29-0.08,0.72-0.08,1.3v4.94h0.65c1.04,0,1.75-0.31,2.14-0.92c0.38-0.62,0.58-1.48,0.58-2.58
		c0-1.17-0.18-2.04-0.53-2.63c-0.35-0.58-0.94-0.88-1.78-0.88C427.43,46.79,427.21,46.85,427.07,46.96z"/>
	<path d="M452.34,46.79c-0.51,0.11-0.88,0.26-1.12,0.44c-0.23,0.18-0.39,0.46-0.47,0.84c-0.08,0.38-0.12,0.96-0.12,1.74V60.9
		c-0.38-0.03-0.67-0.05-0.86-0.05c-0.21,0-0.5,0.02-0.89,0.05l-9.6-11.02v7.51c0,0.77,0.07,1.34,0.2,1.73
		c0.14,0.38,0.39,0.67,0.76,0.85s0.94,0.33,1.7,0.44v0.48c-0.78-0.05-1.76-0.07-2.93-0.07c-0.85,0-1.51,0.02-1.99,0.07v-0.48
		c0.51-0.11,0.88-0.26,1.12-0.44c0.23-0.18,0.39-0.46,0.47-0.84c0.08-0.38,0.12-0.96,0.12-1.74v-8.54c0-0.61-0.04-1.05-0.13-1.32
		c-0.09-0.27-0.24-0.46-0.47-0.55c-0.22-0.1-0.59-0.16-1.1-0.19v-0.48c0.48,0.05,1.14,0.07,1.99,0.07c1.31,0,2.45-0.02,3.41-0.07
		l7.66,8.74v-5.23c0-0.77-0.07-1.34-0.2-1.73c-0.14-0.38-0.39-0.67-0.76-0.85c-0.37-0.18-0.94-0.33-1.7-0.44v-0.48
		c0.78,0.05,1.76,0.07,2.93,0.07c0.85,0,1.51-0.02,1.99-0.07V46.79z"/>
	<path d="M457.83,58c0.18,0.24,0.32,0.56,0.43,0.96c0.11,0.4,0.17,0.84,0.17,1.32c0,0.83-0.22,1.6-0.65,2.3
		c-0.43,0.7-1.06,1.25-1.9,1.63l-0.22-0.43c0.42-0.19,0.79-0.47,1.12-0.83c0.33-0.36,0.56-0.74,0.68-1.14
		c0.08-0.22,0.12-0.49,0.12-0.79c0-0.24-0.02-0.42-0.05-0.53c-0.42,0.5-1,0.74-1.75,0.74c-0.64,0-1.15-0.18-1.54-0.54
		c-0.38-0.36-0.58-0.87-0.58-1.52c0-0.62,0.21-1.12,0.62-1.5c0.42-0.38,0.96-0.56,1.63-0.56C456.8,57.11,457.43,57.41,457.83,58z"/>
	<path d="M478.22,52.74c1.02,0.42,1.76,0.93,2.22,1.55s0.7,1.27,0.7,1.96c0,1.57-0.62,2.74-1.87,3.5s-3.02,1.15-5.33,1.15
		c-0.46,0-0.86-0.01-1.18-0.02c-1.09-0.03-2.15-0.05-3.19-0.05c-1.87,0-3.26,0.02-4.18,0.07v-0.48c0.51-0.03,0.88-0.1,1.12-0.19
		c0.23-0.1,0.39-0.28,0.47-0.55c0.08-0.27,0.12-0.71,0.12-1.32v-11.9c0-0.61-0.04-1.05-0.13-1.32c-0.09-0.27-0.24-0.46-0.47-0.55
		c-0.22-0.1-0.59-0.16-1.1-0.19v-0.48c0.91,0.05,2.29,0.07,4.13,0.07l2.76-0.02c0.32-0.02,0.69-0.02,1.1-0.02
		c2.11,0,3.72,0.34,4.84,1.02c1.11,0.68,1.67,1.6,1.67,2.75c0,0.59-0.21,1.19-0.62,1.79s-1.04,1.12-1.87,1.57s-1.85,0.74-3.05,0.89
		V52C475.91,52.08,477.2,52.33,478.22,52.74z M472.44,44.56c-0.18,0.11-0.31,0.31-0.37,0.6c-0.06,0.29-0.1,0.72-0.1,1.3v5.42h0.65
		c0.86,0,1.47-0.36,1.81-1.07c0.34-0.71,0.52-1.66,0.52-2.84c0-1.22-0.13-2.12-0.4-2.7c-0.26-0.58-0.69-0.88-1.28-0.88
		C472.9,44.39,472.62,44.45,472.44,44.56z M476.1,56.15c0-1.26-0.3-2.22-0.91-2.88s-1.57-0.98-2.88-0.98h-0.34v6.07
		c0,0.58,0.04,1,0.12,1.27c0.08,0.27,0.23,0.46,0.44,0.56c0.22,0.1,0.55,0.16,1,0.16C475.24,60.35,476.1,58.95,476.1,56.15z"/>
	<path d="M496.81,60.42v0.48c-0.82-0.05-1.99-0.07-3.53-0.07c-1.94,0-3.36,0.02-4.27,0.07v-0.48c0.5-0.03,0.86-0.12,1.1-0.25
		c0.24-0.14,0.36-0.36,0.36-0.68c0-0.29-0.1-0.65-0.31-1.08l-1.18-2.74h-4.49c-0.54,1.25-0.82,2.25-0.82,3
		c0,0.64,0.19,1.08,0.58,1.33s0.94,0.39,1.66,0.42v0.48c-1.2-0.05-2.25-0.07-3.14-0.07c-0.75,0-1.37,0.02-1.85,0.07v-0.48
		c0.38-0.06,0.74-0.3,1.07-0.72c0.33-0.42,0.71-1.11,1.14-2.09l4.92-11.3c0.35,0.03,0.62,0.05,0.79,0.05s0.44-0.02,0.79-0.05
		l5.76,12.58C495.87,59.88,496.34,60.39,496.81,60.42z M488.77,55.19l-2.04-4.7l-2.04,4.7H488.77z"/>
	<path d="M513.68,59.9c-0.45,0.45-0.94,0.78-1.48,1.01c-0.54,0.22-1.22,0.34-2.05,0.34c-1.04,0-1.84-0.18-2.4-0.54
		c-0.56-0.36-0.92-0.86-1.08-1.5L506,56.49c-0.14-0.88-0.37-1.47-0.67-1.76c-0.3-0.3-0.75-0.44-1.34-0.44h-0.41v4.08
		c0,0.61,0.04,1.05,0.13,1.32c0.09,0.27,0.24,0.46,0.47,0.55c0.22,0.1,0.59,0.16,1.1,0.19v0.48c-1.02-0.05-2.52-0.07-4.49-0.07
		c-1.6,0-2.78,0.02-3.55,0.07v-0.48c0.51-0.03,0.88-0.1,1.12-0.19c0.23-0.1,0.39-0.28,0.47-0.55c0.08-0.27,0.12-0.71,0.12-1.32v-9.5
		c0-0.61-0.04-1.05-0.13-1.32c-0.09-0.27-0.24-0.46-0.47-0.55c-0.22-0.1-0.59-0.16-1.1-0.19v-0.48c0.77,0.05,1.9,0.07,3.41,0.07
		l2.93-0.02c0.34-0.02,0.73-0.02,1.18-0.02c4.66,0,6.98,1.23,6.98,3.7c0,1.02-0.46,1.91-1.38,2.66c-0.92,0.75-2.47,1.22-4.64,1.42
		c0.06,0,0.15,0,0.25,0.01c0.1,0.01,0.23,0.03,0.37,0.06c1.34,0.13,2.4,0.38,3.18,0.76s1.27,0.98,1.48,1.81l0.5,2.11
		c0.1,0.4,0.22,0.68,0.38,0.83c0.16,0.15,0.37,0.23,0.62,0.23c0.29,0,0.57-0.11,0.84-0.34L513.68,59.9z M503.96,46.96
		c-0.14,0.11-0.24,0.31-0.3,0.6c-0.06,0.29-0.08,0.72-0.08,1.3v4.94h0.65c1.04,0,1.75-0.31,2.14-0.92c0.38-0.62,0.58-1.48,0.58-2.58
		c0-1.17-0.18-2.04-0.53-2.63c-0.35-0.58-0.94-0.88-1.78-0.88C504.33,46.79,504.1,46.85,503.96,46.96z"/>
	<path d="M524.42,46.37c0.6,0.26,1.2,0.65,1.81,1.16c0.18,0.14,0.33,0.22,0.46,0.22c0.32,0,0.53-0.48,0.62-1.44h0.55
		c-0.06,0.96-0.1,2.64-0.1,5.04h-0.55c-0.18-0.9-0.34-1.54-0.49-1.93c-0.15-0.39-0.39-0.77-0.71-1.14c-0.45-0.5-0.94-0.88-1.46-1.16
		c-0.53-0.28-1.07-0.42-1.63-0.42c-0.85,0-1.58,0.28-2.21,0.84c-0.62,0.56-1.11,1.36-1.45,2.41c-0.34,1.05-0.52,2.28-0.52,3.71
		c0,1.44,0.19,2.68,0.58,3.71c0.38,1.03,0.9,1.82,1.56,2.35c0.66,0.54,1.39,0.8,2.21,0.8c0.59,0,1.17-0.14,1.73-0.42
		c0.56-0.28,1.05-0.67,1.46-1.16c0.32-0.38,0.55-0.8,0.7-1.26c0.14-0.46,0.28-1.14,0.41-2.05h0.55c0,2.51,0.03,4.27,0.1,5.28h-0.55
		c-0.05-0.5-0.12-0.86-0.22-1.09s-0.22-0.35-0.38-0.35c-0.13,0-0.29,0.07-0.48,0.22c-0.58,0.48-1.21,0.86-1.9,1.14
		c-0.69,0.28-1.5,0.42-2.42,0.42c-1.58,0-2.99-0.3-4.21-0.89c-1.22-0.59-2.18-1.45-2.88-2.58c-0.7-1.13-1.04-2.47-1.04-4.02
		c0-1.52,0.36-2.87,1.07-4.04c0.71-1.18,1.68-2.09,2.9-2.75c1.22-0.66,2.59-0.98,4.09-0.98C523.02,45.98,523.82,46.11,524.42,46.37z
		"/>
	<path d="M542.98,60.9c-1.04-0.05-2.79-0.07-5.26-0.07c-3.52,0-6.16,0.02-7.92,0.07v-0.48c0.51-0.03,0.88-0.1,1.12-0.19
		c0.23-0.1,0.39-0.28,0.47-0.55c0.08-0.27,0.12-0.71,0.12-1.32v-9.5c0-0.61-0.04-1.05-0.13-1.32c-0.09-0.27-0.24-0.46-0.47-0.55
		c-0.22-0.1-0.59-0.16-1.1-0.19v-0.48c1.76,0.05,4.4,0.07,7.92,0.07c2.24,0,3.83-0.02,4.78-0.07c-0.11,1.14-0.17,2.16-0.17,3.07
		c0,0.62,0.02,1.12,0.07,1.49h-0.55c-0.32-1.42-0.83-2.45-1.52-3.07c-0.7-0.62-1.58-0.94-2.65-0.94h-0.31
		c-0.45,0-0.76,0.08-0.95,0.24c-0.18,0.16-0.28,0.5-0.28,1.03v5.18h0.55c0.77,0,1.38-0.28,1.84-0.83c0.46-0.55,0.75-1.17,0.88-1.86
		h0.55c-0.05,0.54-0.07,1.18-0.07,1.92v1.01c0,0.78,0.05,1.76,0.14,2.93h-0.55c-0.11-0.77-0.41-1.41-0.89-1.92
		c-0.48-0.51-1.11-0.77-1.9-0.77h-0.55v5.28c0,0.53,0.09,0.87,0.28,1.03c0.18,0.16,0.5,0.24,0.95,0.24h0.55
		c1.12,0,2.05-0.35,2.8-1.04c0.74-0.7,1.28-1.84,1.62-3.44h0.55c-0.05,0.45-0.07,1.02-0.07,1.73
		C542.82,58.57,542.87,59.67,542.98,60.9z"/>
	<path d="M552.7,46.79c-0.51,0.03-0.88,0.1-1.12,0.19c-0.23,0.1-0.39,0.28-0.47,0.55c-0.08,0.27-0.12,0.71-0.12,1.32v9.98
		c0,0.62,0.09,1.03,0.28,1.22c0.18,0.19,0.5,0.29,0.95,0.29h0.55c1.02,0,1.94-0.42,2.74-1.25s1.36-2.15,1.68-3.96h0.55
		c-0.05,0.53-0.07,1.18-0.07,1.97c0,1.12,0.06,2.38,0.17,3.79c-1.04-0.05-2.79-0.07-5.26-0.07c-3.52,0-6.16,0.02-7.92,0.07v-0.48
		c0.51-0.03,0.88-0.1,1.12-0.19c0.23-0.1,0.39-0.28,0.47-0.55c0.08-0.27,0.12-0.71,0.12-1.32v-9.5c0-0.61-0.04-1.05-0.13-1.32
		c-0.09-0.27-0.24-0.46-0.47-0.55c-0.22-0.1-0.59-0.16-1.1-0.19v-0.48c0.91,0.05,2.34,0.07,4.27,0.07c1.62,0,2.87-0.02,3.77-0.07
		V46.79z"/>
	<path d="M572.03,46.85c1.29,0.58,2.29,1.44,3,2.57s1.07,2.48,1.07,4.04c0,1.54-0.36,2.89-1.09,4.07c-0.73,1.18-1.74,2.09-3.05,2.74
		c-1.3,0.65-2.79,0.97-4.45,0.97c-1.71,0-3.21-0.29-4.5-0.88c-1.29-0.58-2.29-1.44-3-2.57s-1.07-2.48-1.07-4.04
		c0-1.54,0.36-2.89,1.09-4.07c0.73-1.18,1.74-2.09,3.05-2.74c1.3-0.65,2.79-0.97,4.45-0.97C569.25,45.98,570.75,46.27,572.03,46.85z
		 M565.49,47.33c-0.56,0.62-0.99,1.47-1.3,2.57c-0.3,1.1-0.46,2.35-0.46,3.76c0,1.42,0.17,2.68,0.52,3.77
		c0.34,1.09,0.81,1.92,1.39,2.51c0.58,0.58,1.24,0.88,1.96,0.88c0.74,0,1.38-0.31,1.94-0.92c0.56-0.62,0.99-1.47,1.3-2.57
		c0.3-1.1,0.46-2.35,0.46-3.76c0-1.42-0.17-2.68-0.52-3.77c-0.34-1.09-0.81-1.92-1.39-2.51c-0.58-0.58-1.24-0.88-1.96-0.88
		C566.7,46.41,566.05,46.72,565.49,47.33z"/>
	<path d="M592.76,46.79c-0.51,0.11-0.88,0.26-1.12,0.44c-0.23,0.18-0.39,0.46-0.47,0.84c-0.08,0.38-0.12,0.96-0.12,1.74V60.9
		c-0.38-0.03-0.67-0.05-0.86-0.05c-0.21,0-0.5,0.02-0.89,0.05l-9.6-11.02v7.51c0,0.77,0.07,1.34,0.2,1.73
		c0.14,0.38,0.39,0.67,0.76,0.85s0.94,0.33,1.7,0.44v0.48c-0.78-0.05-1.76-0.07-2.93-0.07c-0.85,0-1.51,0.02-1.99,0.07v-0.48
		c0.51-0.11,0.88-0.26,1.12-0.44c0.23-0.18,0.39-0.46,0.47-0.84c0.08-0.38,0.12-0.96,0.12-1.74v-8.54c0-0.61-0.04-1.05-0.13-1.32
		c-0.09-0.27-0.24-0.46-0.47-0.55c-0.22-0.1-0.59-0.16-1.1-0.19v-0.48c0.48,0.05,1.14,0.07,1.99,0.07c1.31,0,2.45-0.02,3.41-0.07
		l7.66,8.74v-5.23c0-0.77-0.07-1.34-0.2-1.73c-0.14-0.38-0.39-0.67-0.76-0.85c-0.37-0.18-0.94-0.33-1.7-0.44v-0.48
		c0.78,0.05,1.76,0.07,2.93,0.07c0.85,0,1.51-0.02,1.99-0.07V46.79z"/>
	<path d="M608.05,60.42v0.48c-0.82-0.05-1.99-0.07-3.53-0.07c-1.94,0-3.36,0.02-4.27,0.07v-0.48c0.5-0.03,0.86-0.12,1.1-0.25
		c0.24-0.14,0.36-0.36,0.36-0.68c0-0.29-0.1-0.65-0.31-1.08l-1.18-2.74h-4.49c-0.54,1.25-0.82,2.25-0.82,3
		c0,0.64,0.19,1.08,0.58,1.33s0.94,0.39,1.66,0.42v0.48c-1.2-0.05-2.25-0.07-3.14-0.07c-0.75,0-1.37,0.02-1.85,0.07v-0.48
		c0.38-0.06,0.74-0.3,1.07-0.72c0.33-0.42,0.71-1.11,1.14-2.09l4.92-11.3c0.35,0.03,0.62,0.05,0.79,0.05s0.44-0.02,0.79-0.05
		l5.76,12.58C607.11,59.88,607.58,60.39,608.05,60.42z M600.01,55.19l-2.04-4.7l-2.04,4.7H600.01z"/>
</g>
<g>
	<path class="st1" d="M81.9,17.87c0.48,0.44,0.66,1.02,0.91,1.56c0.65,1.39,1.12,2.84,1.42,4.32c0.58,2.87,0.53,5.74,0.01,8.61
		c-0.68,3.71-2.33,7.06-4.64,10.18c-1.68,2.27-3.56,4.4-5.43,6.54c-1.46,1.67-2.93,3.33-4.3,5.06c-1.32,1.66-2.61,3.34-3.72,5.12
		c-1.06,1.69-1.88,3.48-2.53,5.34c-0.36,1.02-0.68,2.06-1.24,3.02c-0.7,1.21-2.67,1.37-3.57,0.28c-0.45-0.55-0.69-1.19-0.91-1.83
		c-0.49-1.41-1.01-2.81-1.63-4.17c-0.88-1.91-2.05-3.68-3.33-5.39c-0.97-1.29-2-2.55-3.01-3.82c-0.08-0.1-0.18-0.18-0.16-0.31
		c0.47,0.02,0.8-0.34,0.99-0.56c0.48-0.58,0.98-1.17,1.42-1.79c0.41-0.18,0.57-0.58,0.9-0.82c0.22-0.16,0.4-0.34,0.38-0.62l0,0
		c0.21,0,0.21-0.13,0.21-0.27l0,0c0.47-0.09,1.05-0.72,1.09-1.17c0.03-0.03,0.06-0.05,0.09-0.08c0.61-0.31,1.05-0.75,1.29-1.35l0,0
		c0.2,0,0.29-0.11,0.3-0.27c0.06-0.06,0.12-0.11,0.18-0.17c0.72-0.46,1.12-1.19,1.74-1.73c0.06-0.05,0.04-0.17,0.06-0.26
		c0.03-0.03,0.06-0.05,0.09-0.08c0.32-0.07,0.51-0.23,0.5-0.55c0.03-0.03,0.06-0.05,0.09-0.08c0.37-0.13,0.56-0.41,0.7-0.72l0,0
		c0.19-0.06,0.21-0.21,0.2-0.36c0-0.03,0-0.05,0-0.08c0.6-0.42,1.07-0.96,1.49-1.52c0.38-0.12,0.7-0.29,0.69-0.72
		c0.21,0,0.38-0.05,0.4-0.27c0.26-0.06,0.23-0.32,0.39-0.45c0.1-0.12,0.32-0.16,0.3-0.36c0-0.03,0.01-0.06,0.01-0.09
		c0.68-0.38,1.1-0.98,1.58-1.53c0.29-0.34,0.56-0.74,0.91-0.96c0.44-0.28,0.52-0.6,0.56-1c0.03-0.08,0.07-0.15,0.1-0.23
		c0.89-0.76,1.62-1.64,2.29-2.56c0.11,0.01,0.19-0.04,0.26-0.11c1.45-1.39,2.76-2.9,4.11-4.37c1.23-1.34,2.48-2.66,3.71-3.99
		c1.28-1.39,2.55-2.78,3.86-4.14C81.06,18.69,81.34,18.15,81.9,17.87z"/>
	<path class="st2" d="M49.64,52.18c-0.53-0.23-0.75-0.73-1.1-1.1c-0.8-0.85-1.53-1.75-2.3-2.63c-1.08-1.24-2.14-2.49-3.19-3.75
		c-1.3-1.56-2.47-3.19-3.5-4.9c-0.3-0.5-0.76-0.99-0.71-1.63c0.39-0.13,0.61-0.47,0.84-0.72c1.16-1.25,2.28-2.53,3.48-3.76
		c1.38-1.41,2.68-2.89,4.02-4.33c1.13-1.23,2.25-2.48,3.41-3.69c0.35-0.36,0.59-0.83,1.09-1.06c-0.01,0.06-0.01,0.12-0.03,0.17
		c-0.58,1.43-0.72,2.9-0.44,4.39c0.12,0.64,0.21,1.28,0.45,1.9c0.09,0.22,0.32,0.27,0.42,0.48c0.44,0.93,1.05,1.76,1.89,2.43
		c0.89,0.71,1.87,1.3,2.96,1.75c0.95,0.39,1.95,0.66,2.98,0.6c1.42-0.08,2.9,0.02,4.21-0.66c0.12-0.06,0.27-0.11,0.4-0.15
		c0.21-0.06,0.46-0.17,0.57,0.14c-0.04,0.2-0.24,0.29-0.35,0.44c-0.41,0.12-0.91,0.64-0.95,0.98c-0.12,0.27-0.38,0.45-0.61,0.64
		c-0.6,0.12-0.73,0.6-0.96,1.01c-0.02,0.09-0.04,0.19-0.05,0.28c-0.04,0-0.07-0.01-0.11-0.01c-0.44-0.12-0.49,0.11-0.45,0.42
		l-0.01,0.01c-0.51,0.18-0.76,0.57-0.97,0.98c-0.09,0.21-0.21,0.41-0.44,0.53c-0.64,0.14-0.9,0.44-0.86,0.98
		c-0.03,0.03-0.07,0.07-0.1,0.1c-0.15,0-0.3-0.01-0.28,0.19c-0.02,0.12-0.1,0.21-0.23,0.26c-0.26,0.02-0.3,0.17-0.28,0.36
		l-0.01,0.01c-0.15,0.07-0.61-0.21-0.38,0.28c-0.1,0.34-0.39,0.55-0.65,0.78c-0.56,0.17-0.84,0.56-0.97,1.05
		c-0.17,0.16-0.33,0.32-0.5,0.48c-0.24,0.04-0.27,0.2-0.26,0.38l0,0c-0.32-0.13-0.57-0.18-0.42,0.28c0.02,0.07-0.01,0.15-0.01,0.22
		c-0.13,0.02-0.28,0.01-0.28,0.19c-0.92,0.98-1.84,1.96-2.76,2.94c-0.1,0.11-0.23,0.22-0.15,0.39c-0.41,0.26-0.7,0.62-1.02,0.96
		C50.57,51.27,50.21,51.81,49.64,52.18z"/>
	<path class="st3" d="M81.9,17.87c-0.57,0.29-0.84,0.82-1.25,1.24c-1.32,1.36-2.59,2.75-3.86,4.14c-1.23,1.34-2.48,2.66-3.71,3.99
		c-1.35,1.47-2.66,2.97-4.11,4.37c-0.07,0.07-0.15,0.12-0.26,0.11c0.54-1.13,0.96-2.29,0.99-3.53c0.08-2.9-1.12-5.25-3.66-7.03
		c-2.95-2.07-7.04-2.26-10.26-0.53c-0.56,0.3-0.97,0.75-1.53,1.03c0.04-0.37,0.42-0.48,0.65-0.7c0.32-0.3,0.35-0.79,0.73-0.99
		c0.54-0.28,0.81-0.77,1.17-1.16c0.96-1.07,2-2.08,2.97-3.15c0.72-0.8,1.54-1.54,2.22-2.38c0.48-0.59,0.96-1.18,1.51-1.7
		c1.24-1.17,2.15-2.59,3.52-3.65c0.2-0.16,0.02-0.43,0.32-0.56c0.26-0.11,0.23-0.26-0.07-0.38c-0.69-0.27-1.43-0.32-2.14-0.47
		c-1.8-0.38-3.63-0.38-5.47-0.38c-0.91,0-1.8,0.11-2.7,0.2c-0.97,0.1-1.91,0.35-2.86,0.55c-0.58,0.13-1.11,0.47-1.74,0.4
		c0.38-0.35,0.93-0.36,1.4-0.49c1.76-0.47,3.56-0.75,5.39-0.83c2.1-0.1,4.18,0.02,6.24,0.41c2.83,0.54,5.49,1.5,7.94,2.9
		c2.74,1.56,5.05,3.53,6.91,5.92c0.55,0.71,1.04,1.45,1.5,2.21C81.82,17.55,81.91,17.69,81.9,17.87z"/>
	<path class="st4" d="M52.35,7.29c0.63,0.06,1.16-0.28,1.74-0.4c0.95-0.2,1.89-0.45,2.86-0.55c0.89-0.09,1.79-0.21,2.7-0.2
		c1.83,0,3.67,0,5.47,0.38c0.71,0.15,1.46,0.2,2.14,0.47c0.3,0.12,0.33,0.27,0.07,0.38c-0.3,0.13-0.12,0.41-0.32,0.56
		c-1.36,1.06-2.28,2.48-3.52,3.65c-0.55,0.52-1.03,1.11-1.51,1.7c-0.68,0.83-1.49,1.57-2.22,2.38c-0.96,1.07-2,2.08-2.97,3.15
		c-0.36,0.4-0.62,0.88-1.17,1.16c-0.38,0.2-0.41,0.69-0.73,0.99c-0.23,0.22-0.61,0.33-0.65,0.7c-0.07,0.14-0.17,0.25-0.35,0.29
		c-0.11,0.01-0.15,0.08-0.15,0.17c-0.07,0.19-0.29,0.19-0.43,0.31c-0.48-0.36-0.96-0.73-1.43-1.09c-1.2-0.9-2.4-1.8-3.59-2.71
		c-0.7-0.54-1.39-1.09-2.09-1.62c-1.38-1.06-2.76-2.11-4.15-3.16c0.04-0.05,0.07-0.11,0.11-0.16c0.13,0,0.22-0.06,0.29-0.14
		c0.77-0.83,1.62-1.58,2.53-2.29c0.1-0.07,0.21-0.15,0.23-0.28c0,0-0.01,0-0.01,0c0.23,0.04,0.34-0.04,0.31-0.25c0,0,0.01,0,0.01,0
		c0.14,0.01,0.25-0.03,0.36-0.1c0.74-0.5,1.49-0.99,2.3-1.41c0.32-0.16,0.74-0.27,0.91-0.63c0.05-0.01,0.09-0.02,0.14-0.03
		c0.46-0.04,0.85-0.28,1.23-0.48c0.24-0.12,0.61-0.07,0.7-0.4c0,0,0.01,0,0.01,0c0.4-0.01,0.8-0.04,1.09-0.35
		C52.3,7.29,52.32,7.28,52.35,7.29z"/>
	<path class="st5" d="M42.07,13.84c1.38,1.05,2.77,2.1,4.15,3.16c0.7,0.54,1.39,1.09,2.09,1.62c1.19,0.91,2.39,1.8,3.59,2.71
		c0.48,0.36,0.96,0.72,1.43,1.09c-0.14,0.47-0.58,0.76-0.85,1.16c-0.04,0.02-0.08,0.03-0.12,0.05c-0.48-0.09-0.79,0.08-0.87,0.46
		c-0.09,0.44-0.57,0.59-0.82,0.91c-0.84,1.08-1.89,1.99-2.8,3.02c-0.48,0.54-1.07,1.02-1.49,1.59c-0.55,0.74-1.25,1.36-1.88,2.03
		c-0.74,0.78-1.46,1.59-2.21,2.37c-0.46,0.48-0.89,1.02-1.35,1.51c-0.43,0.47-0.95,0.9-1.37,1.38c-0.31,0.36-0.82,0.63-0.8,1.17
		c-0.44-0.34-0.5-0.86-0.69-1.3c-0.83-2.02-1.36-4.11-1.58-6.26c-0.22-2.2-0.18-4.38,0.23-6.56c0.46-2.44,1.42-4.72,2.72-6.88
		c0.63-1.04,1.38-2.03,2.22-2.96C41.79,13.99,41.9,13.89,42.07,13.84z"/>
	<path class="st6" d="M38.78,38.08c-0.01-0.54,0.49-0.82,0.8-1.17c0.42-0.48,0.94-0.91,1.37-1.38c0.45-0.49,0.89-1.03,1.35-1.51
		c0.74-0.78,1.46-1.59,2.21-2.37c0.63-0.67,1.33-1.29,1.88-2.03c0.42-0.58,1.01-1.05,1.49-1.59c0.9-1.03,1.96-1.94,2.8-3.02
		c0.25-0.33,0.73-0.48,0.82-0.91c0.11,0.01,0.23,0.02,0.34,0.02c-0.05,0.17-0.1,0.33-0.15,0.5c-0.5,0.23-0.74,0.7-1.09,1.06
		c-1.16,1.21-2.27,2.46-3.41,3.69c-1.33,1.45-2.64,2.92-4.02,4.33c-1.2,1.23-2.31,2.51-3.48,3.76c-0.24,0.26-0.45,0.59-0.84,0.72
		C38.82,38.14,38.8,38.11,38.78,38.08z"/>
	<path class="st7" d="M49.64,52.18c0.57-0.37,0.94-0.91,1.38-1.38c0.32-0.34,0.61-0.69,1.02-0.96c0.04,0,0.09-0.01,0.14-0.01
		c0,0.06,0,0.12,0,0.18c-0.43,0.62-0.93,1.21-1.42,1.79c-0.18,0.22-0.52,0.58-0.99,0.56C49.67,52.34,49.63,52.28,49.64,52.18z"/>
	<path class="st3" d="M49.11,8.57c-0.17,0.36-0.6,0.46-0.91,0.63c-0.81,0.42-1.55,0.91-2.3,1.41c-0.11,0.08-0.23,0.11-0.36,0.1
		c0.23-0.36,0.65-0.53,1.01-0.75C47.37,9.45,48.15,8.88,49.11,8.57z"/>
	<path class="st3" d="M45.22,10.96c-0.02,0.13-0.13,0.2-0.23,0.28c-0.91,0.7-1.76,1.46-2.53,2.29c-0.08,0.08-0.17,0.14-0.29,0.14
		c0.06-0.26,0.28-0.43,0.47-0.61c0.69-0.68,1.42-1.33,2.19-1.93C44.95,11.05,45.07,10.97,45.22,10.96z"/>
	<path class="st3" d="M51.18,7.67c-0.09,0.33-0.47,0.27-0.7,0.4c-0.39,0.2-0.77,0.43-1.23,0.48C49.81,8.09,50.49,7.87,51.18,7.67z"
		/>
	<path class="st3" d="M52.28,7.31C52,7.63,51.6,7.65,51.19,7.66C51.52,7.45,51.87,7.31,52.28,7.31z"/>
	<path class="st3" d="M45.53,10.71c0.02,0.21-0.09,0.29-0.31,0.25C45.24,10.8,45.37,10.74,45.53,10.71z"/>
	<path class="st8" d="M52.48,23.57c0.12,0.22-0.02,0.42-0.12,0.59c-0.68,1.11-0.96,2.31-0.99,3.56c-0.02,1.2,0.2,2.38,0.79,3.46
		c0.95,1.74,2.31,3.15,4.27,4.03c1.66,0.74,3.41,1.03,5.23,0.82c1.37-0.16,2.67-0.57,3.81-1.33c0.28-0.19,0.58-0.38,0.95-0.42
		c-0.03,0.08-0.07,0.15-0.1,0.23c-0.51,0.31-0.73,0.86-1.25,1.16c-0.11-0.31-0.36-0.2-0.57-0.14c-0.14,0.04-0.28,0.09-0.4,0.15
		c-1.32,0.68-2.79,0.58-4.21,0.66c-1.03,0.06-2.03-0.21-2.98-0.6c-1.09-0.45-2.07-1.03-2.96-1.75c-0.84-0.67-1.45-1.5-1.89-2.43
		c-0.09-0.2-0.33-0.25-0.42-0.48c-0.24-0.62-0.34-1.26-0.45-1.9c-0.27-1.49-0.13-2.96,0.44-4.39c0.02-0.05,0.02-0.12,0.03-0.17
		c0.05-0.17,0.1-0.33,0.15-0.5c0.25-0.09,0.47-0.22,0.53-0.48C52.4,23.61,52.44,23.59,52.48,23.57z"/>
	<path class="st9" d="M65.08,35.66c0.51-0.3,0.74-0.86,1.25-1.16c-0.04,0.4-0.13,0.72-0.56,1c-0.35,0.23-0.62,0.63-0.91,0.96
		c-0.47,0.56-0.89,1.16-1.58,1.53c-0.07,0.03-0.07,0.06-0.01,0.09c0.02,0.2-0.2,0.24-0.3,0.36c-0.1,0-0.2,0-0.3,0
		c0.02-0.32,0.36-0.45,0.49-0.71c0.23-0.19,0.48-0.37,0.61-0.64c0.38-0.28,0.67-0.62,0.95-0.98C64.84,35.96,65.04,35.86,65.08,35.66
		z"/>
	<path class="st10" d="M52.18,49.84c-0.05,0-0.09,0.01-0.14,0.01c-0.07-0.17,0.05-0.28,0.15-0.39c0.92-0.98,1.84-1.96,2.76-2.94
		c0.06,0,0.13,0,0.19-0.01c0.03,0.24-0.31,0.32-0.3,0.55c-0.03,0.03-0.06,0.05-0.09,0.08c-0.43,0.34-0.73,0.78-1.09,1.17
		c0,0,0,0,0,0c-0.13,0.05-0.2,0.14-0.21,0.27c0,0,0,0,0,0C52.93,48.92,52.62,49.43,52.18,49.84z"/>
	<path class="st11" d="M58.42,43.28c-0.02,0.09,0,0.21-0.06,0.26c-0.63,0.54-1.02,1.27-1.74,1.73c0-0.12,0.01-0.24,0.01-0.36l0,0
		c0.03-0.03,0.07-0.06,0.1-0.09c0.03-0.03,0.06-0.06,0.08-0.09c0.29-0.04,0.42-0.19,0.4-0.45l0,0c0.3-0.01,0.35-0.29,0.54-0.41
		C58.02,43.7,58.02,43.3,58.42,43.28z"/>
	<path class="st12" d="M60.17,40.95c0.23-0.12,0.35-0.31,0.44-0.53c0.4-0.1,0.44-0.58,0.85-0.67c0.01,0.04,0.02,0.09,0.03,0.13
		c-0.42,0.57-0.88,1.1-1.49,1.52c-0.02-0.02-0.04-0.03-0.06-0.05C60.03,41.22,60.1,41.09,60.17,40.95z"/>
	<path class="st11" d="M54.84,47.06c-0.01-0.23,0.33-0.31,0.3-0.55c0.03-0.03,0.06-0.06,0.09-0.08c0.27,0,0.32-0.16,0.31-0.36
		c0.04-0.08,0.08-0.16,0.12-0.24c0,0,0,0,0,0c0.05-0.01,0.1-0.02,0.16-0.03c0.1-0.03,0.21-0.06,0.31-0.09
		C55.9,46.31,55.46,46.75,54.84,47.06z"/>
	<path class="st11" d="M52.18,49.84c0.44-0.41,0.76-0.92,1.28-1.26c0.01,0.28-0.17,0.47-0.38,0.62c-0.34,0.24-0.5,0.64-0.9,0.82
		C52.17,49.96,52.18,49.9,52.18,49.84z"/>
	<path class="st10" d="M58.42,43.28c-0.4,0.03-0.4,0.42-0.66,0.58c-0.19,0.12-0.24,0.4-0.54,0.41c-0.02-0.15,0.16-0.22,0.18-0.35
		c0.25-0.24,0.55-0.44,0.65-0.78c0.13-0.06,0.25-0.13,0.38-0.19c0.03,0.09,0.05,0.17,0.08,0.26C58.48,43.22,58.45,43.25,58.42,43.28
		z"/>
	<path class="st11" d="M53.66,48.31c0.36-0.39,0.66-0.84,1.09-1.17C54.72,47.6,54.13,48.22,53.66,48.31z"/>
	<path class="st13" d="M61.5,39.88c-0.01-0.04-0.02-0.09-0.03-0.13c0.04-0.1,0.09-0.21,0.13-0.31c0,0,0.01-0.01,0.01-0.01
		c0.18-0.11,0.33-0.25,0.45-0.42c0.04,0,0.07,0.01,0.11,0.01c0.01,0.05,0.02,0.1,0.03,0.15C62.19,39.59,61.88,39.76,61.5,39.88z"/>
	<path class="st10" d="M56.14,45.71c-0.1,0.03-0.21,0.06-0.31,0.09c0.04-0.12,0.07-0.23,0.11-0.35c0.17-0.16,0.33-0.32,0.5-0.48
		c0.07-0.02,0.14-0.04,0.2-0.06c0,0.12-0.01,0.24-0.01,0.36c-0.06,0.06-0.12,0.11-0.18,0.17C56.25,45.44,56.15,45.53,56.14,45.71
		L56.14,45.71z"/>
	<path class="st11" d="M59.22,42.03c0.03-0.03,0.07-0.07,0.1-0.1c0,0,0.04,0.01,0.04,0.01l0.04,0c0.13-0.03,0.27-0.06,0.4-0.09
		c-0.14,0.31-0.34,0.58-0.7,0.72c0.03-0.13,0.06-0.26,0.09-0.39C59.2,42.13,59.21,42.08,59.22,42.03z"/>
	<path class="st9" d="M62.19,39.16c-0.01-0.05-0.02-0.1-0.03-0.15c0.02-0.09,0.04-0.19,0.05-0.28c0.12-0.07,0.24-0.14,0.37-0.21
		c0,0.12,0.01,0.24,0.01,0.37C62.57,39.12,62.4,39.16,62.19,39.16z"/>
	<path class="st12" d="M59.19,42.18c-0.03,0.13-0.06,0.26-0.09,0.39c-0.03,0.03-0.06,0.05-0.09,0.08c-0.18,0.02-0.26,0.25-0.48,0.2
		c0.06-0.12,0.12-0.24,0.18-0.36c0.13-0.05,0.2-0.13,0.23-0.26C59.02,42.21,59.1,42.19,59.19,42.18z"/>
	<path class="st11" d="M58.53,42.84c0.22,0.05,0.29-0.18,0.48-0.2c0.02,0.32-0.18,0.48-0.5,0.55c-0.03-0.09-0.05-0.17-0.08-0.26
		c0-0.03,0-0.06,0-0.09c0,0,0.01-0.01,0.01-0.01c0,0,0.05,0,0.05,0L58.53,42.84z"/>
	<path class="st12" d="M59.8,41.85c-0.13,0.03-0.27,0.06-0.4,0.09c0.09-0.26,0.23-0.49,0.55-0.58c0.02,0.02,0.04,0.03,0.06,0.05
		c0,0.03,0,0.05,0,0.08C59.83,41.56,59.79,41.69,59.8,41.85L59.8,41.85z"/>
	<path class="st13" d="M62.59,38.89c0-0.12-0.01-0.24-0.01-0.37c0,0,0,0,0,0c0.03-0.03,0.06-0.06,0.1-0.09c0,0,0,0,0,0
		c0.1,0,0.2,0,0.3,0C62.82,38.57,62.85,38.83,62.59,38.89z"/>
	<path class="st11" d="M56.14,45.71c0.01-0.18,0.11-0.27,0.3-0.27C56.42,45.6,56.34,45.71,56.14,45.71z"/>
	<path class="st11" d="M59.81,41.85c-0.02-0.16,0.03-0.29,0.2-0.36C60.02,41.64,60,41.78,59.81,41.85z"/>
	<path class="st11" d="M53.46,48.58c0.01-0.13,0.07-0.22,0.21-0.27C53.67,48.45,53.67,48.58,53.46,48.58z"/>
	<path class="st13" d="M63.27,38.08c-0.07-0.03-0.06-0.06,0.01-0.09C63.28,38.02,63.28,38.05,63.27,38.08z"/>
	<path class="st8" d="M59.95,41.36c-0.32,0.08-0.46,0.31-0.55,0.58c0,0-0.04,0-0.04,0s-0.04-0.01-0.04-0.01
		c-0.04-0.55,0.22-0.85,0.86-0.98C60.1,41.09,60.03,41.22,59.95,41.36z"/>
	<path class="st8" d="M56.63,44.9c-0.07,0.02-0.14,0.04-0.2,0.06c0.14-0.49,0.41-0.88,0.97-1.05c-0.03,0.13-0.2,0.2-0.18,0.35
		c0,0,0,0,0,0c-0.19,0.11-0.37,0.23-0.4,0.45c-0.03,0.03-0.06,0.06-0.08,0.09C56.71,44.84,56.67,44.87,56.63,44.9
		C56.64,44.9,56.63,44.9,56.63,44.9z"/>
	<path class="st8" d="M61.59,39.44c-0.04,0.1-0.09,0.21-0.13,0.31c-0.41,0.1-0.45,0.57-0.85,0.67
		C60.83,40.01,61.08,39.62,61.59,39.44z"/>
	<path class="st8" d="M64.72,36.1c-0.28,0.36-0.57,0.71-0.95,0.98C63.81,36.75,64.32,36.22,64.72,36.1z"/>
	<path class="st8" d="M62.58,38.53c-0.12,0.07-0.24,0.14-0.37,0.21c0.23-0.41,0.36-0.89,0.96-1.01c-0.13,0.25-0.48,0.39-0.49,0.71
		c0,0,0,0,0,0C62.64,38.47,62.61,38.5,62.58,38.53L62.58,38.53z"/>
	<path class="st8" d="M55.67,45.83c-0.04,0.08-0.08,0.16-0.12,0.24c-0.16,0.03-0.18,0.2-0.3,0.27l-0.01-0.01
		c0.01-0.07,0.03-0.15,0.01-0.22C55.1,45.65,55.35,45.7,55.67,45.83z"/>
	<path class="st8" d="M62.05,39.01c-0.12,0.17-0.27,0.31-0.45,0.42C61.56,39.12,61.61,38.89,62.05,39.01z"/>
	<path class="st8" d="M58.43,42.85c0,0.03,0,0.06,0,0.09c-0.13,0.06-0.25,0.13-0.38,0.19C57.82,42.64,58.28,42.92,58.43,42.85z"/>
	<path class="st8" d="M55.94,45.44c-0.04,0.12-0.07,0.23-0.11,0.35c-0.05,0.01-0.11,0.02-0.16,0.03
		C55.66,45.64,55.7,45.49,55.94,45.44z"/>
	<path class="st8" d="M58.53,42.84l-0.05,0c0,0-0.05,0-0.05,0c-0.02-0.19,0.02-0.35,0.28-0.36C58.65,42.6,58.59,42.72,58.53,42.84z"
		/>
	<path class="st8" d="M59.19,42.18c-0.08,0.02-0.17,0.03-0.25,0.05c-0.02-0.2,0.13-0.19,0.28-0.19
		C59.21,42.08,59.2,42.13,59.19,42.18z"/>
	<path class="st8" d="M55.23,46.42c-0.03,0.03-0.06,0.06-0.09,0.08c-0.06,0-0.13,0-0.19,0.01c0-0.17,0.15-0.17,0.28-0.19
		c0,0,0.01,0.01,0.01,0.01C55.24,46.36,55.23,46.39,55.23,46.42z"/>
	<path class="st3" d="M53.91,21.94c-0.02,0.08-0.06,0.14-0.15,0.17C53.76,22.02,53.79,21.95,53.91,21.94z"/>
	<path class="st14" d="M52.36,23.63c-0.07,0.26-0.28,0.39-0.53,0.48c-0.11-0.01-0.23-0.02-0.34-0.02
		C51.57,23.7,51.88,23.54,52.36,23.63z"/>
	<path class="st10" d="M56.82,44.72c0.03-0.23,0.21-0.34,0.4-0.45C57.24,44.53,57.11,44.68,56.82,44.72z"/>
	<path class="st10" d="M56.64,44.9c0.03-0.03,0.07-0.06,0.1-0.09C56.71,44.84,56.67,44.87,56.64,44.9z"/>
	<path class="st10" d="M55.23,46.42c0-0.03,0-0.06,0.01-0.08c0.12-0.07,0.14-0.24,0.3-0.27C55.55,46.26,55.5,46.42,55.23,46.42z"/>
	<path class="st9" d="M62.58,38.53c0.03-0.03,0.06-0.06,0.1-0.09C62.64,38.47,62.61,38.5,62.58,38.53z"/>
</g>
<g>
</g>
<g>
</g>
<g>
</g>
<g>
</g>
<g>
</g>
<g>
</g>
</svg>
