<?xml version="1.0" encoding="utf-8"?>
<!-- Generator: Adobe Illustrator 26.2.1, SVG Export Plug-In . SVG Version: 6.00 Build 0)  -->
<svg version="1.1" id="Capa_1" xmlns="http://www.w3.org/2000/svg" xmlns:xlink="http://www.w3.org/1999/xlink" x="0px" y="0px"
	 viewBox="0 0 654.39 74.56" style="enable-background:new 0 0 654.39 74.56;" xml:space="preserve">
<style type="text/css">
	.st0{fill:#DE2014;stroke:#000000;stroke-miterlimit:10;}
	.st1{fill:#FFFFFF;}
	.st2{fill:none;}
</style>
<path class="st0" d="M96.36,68.51H36.98c-8.71,0-15.78-7.06-15.78-15.78V23.03c0-8.71,7.06-15.78,15.78-15.78h59.38
	c8.71,0,15.78,7.06,15.78,15.78v29.71C112.13,61.45,105.07,68.51,96.36,68.51z"/>
<polygon class="st1" points="59.23,20.96 82.31,36.82 59.23,54.8 "/>
<g>
	<rect x="133.33" y="24.53" class="st2" width="595.61" height="60.53"/>
	<path d="M157.85,21.65c-0.74,0.17-1.3,0.43-1.66,0.77c-0.36,0.35-0.6,0.88-0.72,1.6c-0.12,0.72-0.18,1.8-0.18,3.24v8.68
		c0,3.46-0.49,6-1.48,7.63c-0.65,1.08-1.6,1.91-2.86,2.48c-1.26,0.58-2.89,0.86-4.88,0.86c-2.9,0-5.16-0.58-6.77-1.73
		c-1.18-0.84-1.96-1.97-2.36-3.38c-0.4-1.42-0.59-3.34-0.59-5.76v-11.3c0-0.91-0.06-1.57-0.18-1.98c-0.12-0.41-0.35-0.68-0.7-0.83
		c-0.35-0.14-0.91-0.24-1.67-0.29v-0.72c1.37,0.07,3.48,0.11,6.34,0.11c2.83,0,4.98-0.04,6.44-0.11v0.72
		c-0.86,0.05-1.49,0.14-1.89,0.29s-0.67,0.42-0.81,0.83c-0.14,0.41-0.22,1.07-0.22,1.98v14.69c0,2.3,0.36,3.92,1.08,4.84
		c0.72,0.92,1.86,1.39,3.42,1.39c2.28,0,3.9-0.81,4.86-2.43s1.44-3.92,1.44-6.89v-8.35c0-1.78-0.07-3.05-0.22-3.83
		c-0.14-0.78-0.46-1.35-0.95-1.71c-0.49-0.36-1.31-0.62-2.47-0.79v-0.72c0.98,0.07,2.33,0.11,4.03,0.11c1.27,0,2.27-0.04,2.99-0.11
		V21.65z"/>
	<path d="M182.11,25.25c-0.77,0.17-1.33,0.39-1.67,0.67c-0.35,0.28-0.58,0.7-0.7,1.26c-0.12,0.56-0.18,1.43-0.18,2.61v16.63
		c-0.58-0.05-1.01-0.07-1.3-0.07c-0.31,0-0.76,0.02-1.33,0.07l-14.4-16.52v11.27c0,1.15,0.1,2.02,0.31,2.59
		c0.2,0.58,0.58,1,1.13,1.28c0.55,0.28,1.4,0.5,2.56,0.67v0.72c-1.18-0.07-2.64-0.11-4.39-0.11c-1.27,0-2.27,0.04-2.99,0.11V45.7
		c0.77-0.17,1.33-0.39,1.67-0.67c0.35-0.28,0.58-0.7,0.7-1.26c0.12-0.56,0.18-1.43,0.18-2.61V28.35c0-0.91-0.07-1.57-0.2-1.98
		c-0.13-0.41-0.37-0.68-0.7-0.83c-0.34-0.14-0.89-0.24-1.66-0.29v-0.72c0.72,0.07,1.72,0.11,2.99,0.11c1.97,0,3.67-0.04,5.11-0.11
		l11.48,13.1v-7.85c0-1.15-0.1-2.02-0.31-2.59c-0.2-0.58-0.58-1-1.13-1.28c-0.55-0.28-1.4-0.5-2.56-0.67v-0.72
		c1.18,0.07,2.64,0.11,4.39,0.11c1.27,0,2.27-0.04,2.99-0.11V25.25z"/>
	<path d="M195.94,25.25c-0.77,0.05-1.33,0.14-1.67,0.29c-0.35,0.14-0.58,0.42-0.7,0.83c-0.12,0.41-0.18,1.07-0.18,1.98v14.98
		c0,0.94,0.14,1.55,0.41,1.84c0.28,0.29,0.75,0.43,1.42,0.43h0.83c1.54,0,2.9-0.62,4.1-1.87c1.2-1.25,2.04-3.23,2.52-5.94h0.83
		c-0.07,0.79-0.11,1.78-0.11,2.95c0,1.68,0.08,3.58,0.25,5.69c-1.56-0.07-4.19-0.11-7.88-0.11c-5.28,0-9.24,0.04-11.88,0.11V45.7
		c0.77-0.05,1.33-0.14,1.67-0.29c0.35-0.14,0.58-0.42,0.7-0.83c0.12-0.41,0.18-1.07,0.18-1.98V28.35c0-0.91-0.07-1.57-0.2-1.98
		s-0.37-0.68-0.7-0.83c-0.34-0.14-0.89-0.24-1.66-0.29v-0.72c1.37,0.07,3.5,0.11,6.41,0.11c2.42,0,4.31-0.04,5.65-0.11V25.25z"/>
	<path d="M217.5,25.25c-0.77,0.05-1.33,0.14-1.67,0.29c-0.35,0.14-0.58,0.42-0.7,0.83c-0.12,0.41-0.18,1.07-0.18,1.98v14.26
		c0,0.91,0.06,1.57,0.18,1.98c0.12,0.41,0.35,0.68,0.7,0.83c0.35,0.14,0.91,0.24,1.67,0.29v0.72c-1.32-0.07-3.26-0.11-5.83-0.11
		c-2.86,0-4.93,0.04-6.23,0.11V45.7c0.77-0.05,1.33-0.14,1.67-0.29c0.35-0.14,0.58-0.42,0.7-0.83c0.12-0.41,0.18-1.07,0.18-1.98
		V28.35c0-0.91-0.07-1.57-0.2-1.98s-0.37-0.68-0.7-0.83c-0.34-0.14-0.89-0.24-1.66-0.29v-0.72c1.3,0.07,3.37,0.11,6.23,0.11
		c2.54,0,4.49-0.04,5.83-0.11V25.25z"/>
	<path d="M248.3,25.54c-0.4,0.14-0.67,0.42-0.81,0.83s-0.22,1.07-0.22,1.98v14.26c0,0.91,0.07,1.57,0.22,1.98
		c0.14,0.41,0.41,0.68,0.81,0.83s1.03,0.24,1.89,0.29v0.72c-1.39-0.07-3.4-0.11-6.01-0.11c-3.24,0-5.62,0.04-7.13,0.11V45.7
		c0.86-0.05,1.49-0.14,1.89-0.29s0.67-0.42,0.81-0.83c0.14-0.41,0.22-1.07,0.22-1.98V26.8l-7.96,19.8h-0.58l-8.35-19.76v14.33
		c0,1.15,0.1,2.02,0.31,2.59c0.2,0.58,0.58,1,1.13,1.28c0.55,0.28,1.4,0.5,2.56,0.67v0.72c-1.18-0.07-2.64-0.11-4.39-0.11
		c-1.27,0-2.27,0.04-2.99,0.11V45.7c0.77-0.17,1.33-0.39,1.67-0.67c0.35-0.28,0.58-0.7,0.7-1.26c0.12-0.56,0.18-1.43,0.18-2.61
		V28.35c0-0.91-0.07-1.57-0.22-1.98s-0.41-0.68-0.81-0.83s-1.03-0.24-1.89-0.29v-0.72c1.58,0.07,4.02,0.11,7.31,0.11
		c1.32,0,2.42-0.04,3.31-0.11l5.11,12.24l4.9-12.13h4.21c2.62,0,4.62-0.04,6.01-0.11v0.72C249.32,25.3,248.69,25.4,248.3,25.54z"/>
	<path d="M264.16,25.25c-0.77,0.05-1.33,0.14-1.67,0.29c-0.35,0.14-0.58,0.42-0.7,0.83c-0.12,0.41-0.18,1.07-0.18,1.98v14.26
		c0,0.91,0.06,1.57,0.18,1.98c0.12,0.41,0.35,0.68,0.7,0.83c0.35,0.14,0.91,0.24,1.67,0.29v0.72c-1.32-0.07-3.26-0.11-5.83-0.11
		c-2.86,0-4.93,0.04-6.23,0.11V45.7c0.77-0.05,1.33-0.14,1.67-0.29c0.35-0.14,0.58-0.42,0.7-0.83c0.12-0.41,0.18-1.07,0.18-1.98
		V28.35c0-0.91-0.07-1.57-0.2-1.98s-0.37-0.68-0.7-0.83c-0.34-0.14-0.89-0.24-1.66-0.29v-0.72c1.3,0.07,3.37,0.11,6.23,0.11
		c2.54,0,4.49-0.04,5.83-0.11V25.25z"/>
	<path d="M287.88,29.86c0,1.44,0.04,2.54,0.11,3.31h-0.83c-0.67-2.83-1.49-4.84-2.47-6.03c-0.97-1.19-2.24-1.78-3.8-1.78h-0.32
		v16.88c0,1.01,0.1,1.74,0.29,2.2c0.19,0.46,0.53,0.77,1.01,0.94c0.48,0.17,1.26,0.28,2.34,0.32v0.72
		c-1.34-0.07-3.77-0.11-7.27-0.11c-3.48,0-5.8,0.04-6.95,0.11V45.7c1.08-0.05,1.86-0.16,2.34-0.32c0.48-0.17,0.82-0.48,1.01-0.94
		c0.19-0.46,0.29-1.19,0.29-2.2V25.36h-0.32c-1.56,0-2.83,0.59-3.8,1.78c-0.97,1.19-1.79,3.2-2.47,6.03h-0.83
		c0.07-0.77,0.11-1.87,0.11-3.31c0-1.56-0.08-3.34-0.25-5.33c2.14,0.07,5.76,0.11,10.87,0.11c5.26,0,8.99-0.04,11.2-0.11
		C287.96,26.53,287.88,28.3,287.88,29.86z"/>
	<path d="M309.8,46.42c-1.56-0.07-4.19-0.11-7.88-0.11c-5.28,0-9.24,0.04-11.88,0.11V45.7c0.77-0.05,1.33-0.14,1.67-0.29
		c0.35-0.14,0.58-0.42,0.7-0.83c0.12-0.41,0.18-1.07,0.18-1.98V28.35c0-0.91-0.07-1.57-0.2-1.98s-0.37-0.68-0.7-0.83
		c-0.34-0.14-0.89-0.24-1.66-0.29v-0.72c2.64,0.07,6.6,0.11,11.88,0.11c3.36,0,5.75-0.04,7.16-0.11c-0.17,1.7-0.25,3.24-0.25,4.61
		c0,0.94,0.04,1.68,0.11,2.23h-0.83c-0.48-2.14-1.24-3.67-2.29-4.61c-1.04-0.94-2.37-1.4-3.98-1.4h-0.47
		c-0.67,0-1.15,0.12-1.42,0.36c-0.28,0.24-0.41,0.76-0.41,1.55v7.78h0.83c1.15,0,2.07-0.41,2.75-1.24c0.68-0.83,1.12-1.76,1.31-2.79
		h0.83c-0.07,0.82-0.11,1.78-0.11,2.88v1.51c0,1.18,0.07,2.64,0.22,4.39h-0.83c-0.17-1.15-0.61-2.11-1.33-2.88
		c-0.72-0.77-1.67-1.15-2.84-1.15h-0.83v7.92c0,0.79,0.14,1.31,0.41,1.55c0.28,0.24,0.75,0.36,1.42,0.36h0.83
		c1.68,0,3.08-0.52,4.19-1.57c1.12-1.04,1.93-2.77,2.43-5.17h0.83c-0.07,0.67-0.11,1.54-0.11,2.59
		C309.55,42.92,309.64,44.57,309.8,46.42z"/>
	<path d="M319,41.53c0.61,0.53,0.92,1.3,0.92,2.3c0,1.01-0.31,1.78-0.92,2.3c-0.61,0.53-1.49,0.79-2.65,0.79
		c-1.15,0-2.03-0.26-2.65-0.79c-0.61-0.53-0.92-1.3-0.92-2.3c0-1.01,0.31-1.78,0.92-2.3c0.61-0.53,1.49-0.79,2.65-0.79
		C317.51,40.73,318.39,41,319,41.53z"/>
	<path d="M339.43,21.04c1.01,0.41,1.99,0.98,2.95,1.73c0.24,0.22,0.47,0.32,0.68,0.32c0.48,0,0.79-0.72,0.94-2.16h0.83
		c-0.1,1.7-0.14,4.7-0.14,9h-0.83c-0.17-1.92-0.48-3.43-0.94-4.54c-0.46-1.1-1.25-2.03-2.38-2.77c-1.13-0.72-2.24-1.08-3.35-1.08
		c-2.5,0-4.25,1.2-5.26,3.6c-1.01,2.4-1.51,5.27-1.51,8.6s0.5,6.2,1.51,8.6c1.01,2.4,2.76,3.6,5.26,3.6c1.1,0,2.22-0.36,3.35-1.08
		c1.13-0.7,1.92-1.63,2.38-2.81c0.46-1.18,0.77-2.84,0.94-5h0.83c0,4.49,0.05,7.61,0.14,9.36H344c-0.07-0.77-0.17-1.31-0.31-1.64
		c-0.13-0.32-0.32-0.49-0.56-0.49c-0.19,0-0.44,0.1-0.76,0.29c-1.08,0.77-2.11,1.35-3.1,1.75c-0.98,0.4-2.17,0.59-3.56,0.59
		c-2.71,0-5.09-0.52-7.13-1.55c-2.04-1.03-3.62-2.53-4.75-4.48s-1.69-4.29-1.69-7c0-2.64,0.58-4.98,1.73-7.02
		c1.15-2.04,2.76-3.62,4.82-4.75c2.06-1.13,4.42-1.69,7.06-1.69C337.2,20.43,338.42,20.63,339.43,21.04z"/>
	<path d="M367.57,25.34c1.93,0.88,3.43,2.16,4.5,3.85c1.07,1.69,1.6,3.71,1.6,6.07c0,2.3-0.55,4.34-1.64,6.1
		c-1.09,1.76-2.62,3.13-4.57,4.1c-1.96,0.97-4.18,1.46-6.68,1.46c-2.57,0-4.82-0.44-6.75-1.31c-1.93-0.88-3.43-2.16-4.5-3.85
		s-1.6-3.71-1.6-6.07c0-2.3,0.55-4.34,1.64-6.1c1.09-1.76,2.62-3.13,4.57-4.1c1.96-0.97,4.18-1.46,6.68-1.46
		C363.38,24.03,365.63,24.47,367.57,25.34z M357.76,26.06c-0.84,0.92-1.49,2.21-1.94,3.85c-0.46,1.64-0.68,3.52-0.68,5.63
		c0,2.14,0.26,4.02,0.77,5.65c0.52,1.63,1.21,2.89,2.09,3.76c0.88,0.88,1.85,1.31,2.93,1.31c1.1,0,2.08-0.46,2.92-1.39
		c0.84-0.92,1.49-2.21,1.94-3.85c0.46-1.64,0.68-3.52,0.68-5.63c0-2.14-0.26-4.02-0.77-5.65c-0.52-1.63-1.21-2.89-2.09-3.76
		c-0.88-0.88-1.85-1.31-2.93-1.31C359.57,24.68,358.6,25.14,357.76,26.06z"/>
	<path d="M395.83,25.34c1.93,0.88,3.43,2.16,4.5,3.85s1.6,3.71,1.6,6.07c0,2.3-0.54,4.34-1.64,6.1c-1.09,1.76-2.62,3.13-4.57,4.1
		c-1.96,0.97-4.18,1.46-6.68,1.46c-2.57,0-4.82-0.44-6.75-1.31c-1.93-0.88-3.43-2.16-4.5-3.85s-1.6-3.71-1.6-6.07
		c0-2.3,0.55-4.34,1.64-6.1c1.09-1.76,2.62-3.13,4.57-4.1c1.96-0.97,4.18-1.46,6.68-1.46C391.64,24.03,393.89,24.47,395.83,25.34z
		 M386.02,26.06c-0.84,0.92-1.49,2.21-1.94,3.85c-0.46,1.64-0.68,3.52-0.68,5.63c0,2.14,0.26,4.02,0.77,5.65
		c0.52,1.63,1.21,2.89,2.09,3.76c0.88,0.88,1.85,1.31,2.93,1.31c1.1,0,2.08-0.46,2.92-1.39s1.49-2.21,1.95-3.85
		c0.46-1.64,0.68-3.52,0.68-5.63c0-2.14-0.26-4.02-0.77-5.65c-0.52-1.63-1.21-2.89-2.09-3.76c-0.88-0.88-1.86-1.31-2.94-1.31
		C387.83,24.68,386.86,25.14,386.02,26.06z"/>
	<path d="M429.14,44.89c0.26,0.28,0.64,0.55,1.12,0.81v0.72c-2.02-0.07-4.18-0.11-6.48-0.11c-1.78,0-3.49,0.04-5.15,0.11V45.7
		c0.77-0.05,1.3-0.11,1.6-0.2c0.3-0.08,0.45-0.25,0.45-0.49c0-0.24-0.12-0.55-0.36-0.94l-4.68-6.84c-0.36-0.53-0.7-0.94-1.01-1.22
		c-0.31-0.29-0.72-0.46-1.22-0.5v7.09c0,0.91,0.06,1.57,0.18,1.98c0.12,0.41,0.35,0.68,0.7,0.83s0.91,0.24,1.67,0.29v0.72
		c-1.32-0.07-3.26-0.11-5.83-0.11c-2.79,0-4.86,0.04-6.23,0.11V45.7c0.77-0.05,1.33-0.14,1.67-0.29s0.58-0.42,0.7-0.83
		c0.12-0.41,0.18-1.07,0.18-1.98V28.35c0-0.91-0.07-1.57-0.2-1.98c-0.13-0.41-0.37-0.68-0.7-0.83c-0.34-0.14-0.89-0.24-1.66-0.29
		v-0.72c1.37,0.07,3.44,0.11,6.23,0.11c2.54,0,4.49-0.04,5.83-0.11v0.72c-0.77,0.05-1.33,0.14-1.67,0.29s-0.58,0.42-0.7,0.83
		s-0.18,1.07-0.18,1.98v6.37c1.18-0.12,2.23-0.42,3.17-0.9c0.94-0.48,1.92-1.21,2.95-2.2l0.83-0.79c1.13-1.06,1.69-2.09,1.69-3.1
		c0-0.72-0.29-1.31-0.88-1.76c-0.59-0.46-1.31-0.71-2.18-0.76v-0.68c2.02,0.07,4.15,0.11,6.41,0.11c1.46,0,2.68-0.04,3.64-0.11v0.68
		c-0.84,0.22-1.71,0.6-2.61,1.15c-0.9,0.55-1.77,1.24-2.61,2.05l-3.6,3.53l7.85,11.56C428.52,44.15,428.88,44.62,429.14,44.89z"/>
	<path d="M442.97,25.25c-0.77,0.05-1.33,0.14-1.67,0.29s-0.58,0.42-0.7,0.83s-0.18,1.07-0.18,1.98v14.26c0,0.91,0.06,1.57,0.18,1.98
		c0.12,0.41,0.35,0.68,0.7,0.83s0.91,0.24,1.67,0.29v0.72c-1.32-0.07-3.26-0.11-5.83-0.11c-2.86,0-4.93,0.04-6.23,0.11V45.7
		c0.77-0.05,1.33-0.14,1.67-0.29s0.58-0.42,0.7-0.83c0.12-0.41,0.18-1.07,0.18-1.98V28.35c0-0.91-0.07-1.57-0.2-1.98
		c-0.13-0.41-0.37-0.68-0.7-0.83c-0.34-0.14-0.89-0.24-1.66-0.29v-0.72c1.3,0.07,3.37,0.11,6.23,0.11c2.54,0,4.49-0.04,5.83-0.11
		V25.25z"/>
	<path d="M468.06,25.25c-0.77,0.17-1.33,0.39-1.67,0.67c-0.35,0.28-0.58,0.7-0.7,1.26c-0.12,0.56-0.18,1.43-0.18,2.61v16.63
		c-0.58-0.05-1.01-0.07-1.3-0.07c-0.31,0-0.76,0.02-1.33,0.07l-14.4-16.52v11.27c0,1.15,0.1,2.02,0.31,2.59s0.58,1,1.13,1.28
		c0.55,0.28,1.4,0.5,2.56,0.67v0.72c-1.18-0.07-2.64-0.11-4.39-0.11c-1.27,0-2.27,0.04-2.99,0.11V45.7
		c0.77-0.17,1.33-0.39,1.67-0.67c0.35-0.28,0.58-0.7,0.7-1.26c0.12-0.56,0.18-1.43,0.18-2.61V28.35c0-0.91-0.07-1.57-0.2-1.98
		c-0.13-0.41-0.37-0.68-0.7-0.83c-0.34-0.14-0.89-0.24-1.66-0.29v-0.72c0.72,0.07,1.72,0.11,2.99,0.11c1.97,0,3.67-0.04,5.11-0.11
		l11.48,13.1v-7.85c0-1.15-0.1-2.02-0.31-2.59c-0.2-0.58-0.58-1-1.13-1.28c-0.55-0.28-1.4-0.5-2.56-0.67v-0.72
		c1.18,0.07,2.64,0.11,4.39,0.11c1.27,0,2.27-0.04,2.99-0.11V25.25z"/>
	<path d="M487.03,24.61c0.91,0.38,1.92,0.97,3.02,1.76c0.31,0.24,0.55,0.36,0.72,0.36c0.46,0,0.76-0.73,0.9-2.2h0.83
		c-0.1,1.37-0.14,3.77-0.14,7.2h-0.83c-0.38-1.87-0.98-3.29-1.8-4.25c-0.72-0.74-1.42-1.31-2.11-1.71c-0.68-0.4-1.51-0.59-2.47-0.59
		c-1.66,0-3.1,0.43-4.32,1.28c-1.22,0.85-2.17,2.06-2.83,3.62c-0.66,1.56-0.99,3.37-0.99,5.44c0,3.67,0.55,6.37,1.66,8.1
		c1.1,1.73,2.75,2.59,4.93,2.59c0.67,0,1.2-0.22,1.58-0.65c0.34-0.41,0.5-0.96,0.5-1.66v-3.53c0-1.01-0.08-1.74-0.25-2.2
		c-0.17-0.46-0.47-0.77-0.92-0.94c-0.44-0.17-1.15-0.28-2.11-0.32V36.2c1.73,0.07,3.9,0.11,6.52,0.11c2.3,0,4.03-0.04,5.18-0.11
		v0.72c-0.46,0.05-0.78,0.14-0.97,0.29s-0.32,0.42-0.4,0.83c-0.07,0.41-0.11,1.07-0.11,1.98v6.41h-0.72
		c-0.12-1.1-0.42-1.66-0.9-1.66c-0.41,0-1.04,0.23-1.91,0.68c-0.7,0.36-1.57,0.7-2.63,1.01s-2.21,0.47-3.46,0.47
		c-2.74,0-5.1-0.44-7.09-1.31s-3.51-2.14-4.55-3.78c-1.04-1.64-1.57-3.62-1.57-5.92c0-2.4,0.58-4.49,1.73-6.28
		c1.15-1.79,2.75-3.17,4.81-4.14c2.05-0.97,4.41-1.46,7.07-1.46C484.92,24.03,486.12,24.22,487.03,24.61z"/>
</g>
<g>
</g>
<g>
</g>
<g>
</g>
<g>
</g>
<g>
</g>
<g>
</g>
</svg>
